solid ASCII
  facet normal 1.000000e+00 0.000000e+00 0.000000e+00
    outer loop
      vertex   0.000000e+00 -5.034280e+01 1.580000e+00
      vertex   0.000000e+00 0.000000e+00 1.580000e+00
      vertex   0.000000e+00 -5.034280e+01 3.180000e+00
    endloop
  endfacet
  facet normal 1.000000e+00 -0.000000e+00 0.000000e+00
    outer loop
      vertex   0.000000e+00 -5.034280e+01 3.180000e+00
      vertex   0.000000e+00 0.000000e+00 1.580000e+00
      vertex   0.000000e+00 0.000000e+00 3.180000e+00
    endloop
  endfacet
  facet normal 6.585046e-01 7.525767e-01 -0.000000e+00
    outer loop
      vertex   5.080000e+00 -5.478780e+01 1.580000e+00
      vertex   0.000000e+00 -5.034280e+01 1.580000e+00
      vertex   5.080000e+00 -5.478780e+01 3.180000e+00
    endloop
  endfacet
  facet normal 6.585046e-01 7.525767e-01 0.000000e+00
    outer loop
      vertex   5.080000e+00 -5.478780e+01 3.180000e+00
      vertex   0.000000e+00 -5.034280e+01 1.580000e+00
      vertex   0.000000e+00 -5.034280e+01 3.180000e+00
    endloop
  endfacet
  facet normal 1.000000e+00 0.000000e+00 0.000000e+00
    outer loop
      vertex   5.080000e+00 -6.116320e+01 1.580000e+00
      vertex   5.080000e+00 -5.478780e+01 1.580000e+00
      vertex   5.080000e+00 -6.116320e+01 3.180000e+00
    endloop
  endfacet
  facet normal 1.000000e+00 -0.000000e+00 0.000000e+00
    outer loop
      vertex   5.080000e+00 -6.116320e+01 3.180000e+00
      vertex   5.080000e+00 -5.478780e+01 1.580000e+00
      vertex   5.080000e+00 -5.478780e+01 3.180000e+00
    endloop
  endfacet
  facet normal 6.585046e-01 -7.525767e-01 0.000000e+00
    outer loop
      vertex   0.000000e+00 -6.560820e+01 1.580000e+00
      vertex   5.080000e+00 -6.116320e+01 1.580000e+00
      vertex   0.000000e+00 -6.560820e+01 3.180000e+00
    endloop
  endfacet
  facet normal 6.585046e-01 -7.525767e-01 0.000000e+00
    outer loop
      vertex   0.000000e+00 -6.560820e+01 3.180000e+00
      vertex   5.080000e+00 -6.116320e+01 1.580000e+00
      vertex   5.080000e+00 -6.116320e+01 3.180000e+00
    endloop
  endfacet
  facet normal 1.000000e+00 0.000000e+00 0.000000e+00
    outer loop
      vertex   0.000000e+00 -9.000000e+01 1.580000e+00
      vertex   0.000000e+00 -6.560820e+01 1.580000e+00
      vertex   0.000000e+00 -9.000000e+01 3.180000e+00
    endloop
  endfacet
  facet normal 1.000000e+00 -0.000000e+00 0.000000e+00
    outer loop
      vertex   0.000000e+00 -9.000000e+01 3.180000e+00
      vertex   0.000000e+00 -6.560820e+01 1.580000e+00
      vertex   0.000000e+00 -6.560820e+01 3.180000e+00
    endloop
  endfacet
  facet normal 6.246950e-01 7.808688e-01 -0.000000e+00
    outer loop
      vertex   5.000000e+00 -9.400000e+01 1.580000e+00
      vertex   0.000000e+00 -9.000000e+01 1.580000e+00
      vertex   5.000000e+00 -9.400000e+01 3.180000e+00
    endloop
  endfacet
  facet normal 6.246950e-01 7.808688e-01 0.000000e+00
    outer loop
      vertex   5.000000e+00 -9.400000e+01 3.180000e+00
      vertex   0.000000e+00 -9.000000e+01 1.580000e+00
      vertex   0.000000e+00 -9.000000e+01 3.180000e+00
    endloop
  endfacet
  facet normal 0.000000e+00 1.000000e+00 -0.000000e+00
    outer loop
      vertex   1.700000e+01 -9.400000e+01 1.580000e+00
      vertex   5.000000e+00 -9.400000e+01 1.580000e+00
      vertex   1.700000e+01 -9.400000e+01 3.180000e+00
    endloop
  endfacet
  facet normal 0.000000e+00 1.000000e+00 0.000000e+00
    outer loop
      vertex   1.700000e+01 -9.400000e+01 3.180000e+00
      vertex   5.000000e+00 -9.400000e+01 1.580000e+00
      vertex   5.000000e+00 -9.400000e+01 3.180000e+00
    endloop
  endfacet
  facet normal -8.000000e-01 6.000000e-01 0.000000e+00
    outer loop
      vertex   1.850000e+01 -9.200000e+01 1.580000e+00
      vertex   1.700000e+01 -9.400000e+01 1.580000e+00
      vertex   1.850000e+01 -9.200000e+01 3.180000e+00
    endloop
  endfacet
  facet normal -8.000000e-01 6.000000e-01 0.000000e+00
    outer loop
      vertex   1.850000e+01 -9.200000e+01 3.180000e+00
      vertex   1.700000e+01 -9.400000e+01 1.580000e+00
      vertex   1.700000e+01 -9.400000e+01 3.180000e+00
    endloop
  endfacet
  facet normal 0.000000e+00 1.000000e+00 -0.000000e+00
    outer loop
      vertex   2.000000e+01 -9.200000e+01 1.580000e+00
      vertex   1.850000e+01 -9.200000e+01 1.580000e+00
      vertex   2.000000e+01 -9.200000e+01 3.180000e+00
    endloop
  endfacet
  facet normal 0.000000e+00 1.000000e+00 0.000000e+00
    outer loop
      vertex   2.000000e+01 -9.200000e+01 3.180000e+00
      vertex   1.850000e+01 -9.200000e+01 1.580000e+00
      vertex   1.850000e+01 -9.200000e+01 3.180000e+00
    endloop
  endfacet
  facet normal 1.000000e+00 0.000000e+00 0.000000e+00
    outer loop
      vertex   2.000000e+01 -9.400000e+01 1.580000e+00
      vertex   2.000000e+01 -9.200000e+01 1.580000e+00
      vertex   2.000000e+01 -9.400000e+01 3.180000e+00
    endloop
  endfacet
  facet normal 1.000000e+00 -0.000000e+00 0.000000e+00
    outer loop
      vertex   2.000000e+01 -9.400000e+01 3.180000e+00
      vertex   2.000000e+01 -9.200000e+01 1.580000e+00
      vertex   2.000000e+01 -9.200000e+01 3.180000e+00
    endloop
  endfacet
  facet normal 0.000000e+00 1.000000e+00 -0.000000e+00
    outer loop
      vertex   6.800000e+01 -9.400000e+01 1.580000e+00
      vertex   2.000000e+01 -9.400000e+01 1.580000e+00
      vertex   6.800000e+01 -9.400000e+01 3.180000e+00
    endloop
  endfacet
  facet normal 0.000000e+00 1.000000e+00 0.000000e+00
    outer loop
      vertex   6.800000e+01 -9.400000e+01 3.180000e+00
      vertex   2.000000e+01 -9.400000e+01 1.580000e+00
      vertex   2.000000e+01 -9.400000e+01 3.180000e+00
    endloop
  endfacet
  facet normal -1.000000e+00 0.000000e+00 0.000000e+00
    outer loop
      vertex   6.800000e+01 -9.300000e+01 1.580000e+00
      vertex   6.800000e+01 -9.400000e+01 1.580000e+00
      vertex   6.800000e+01 -9.300000e+01 3.180000e+00
    endloop
  endfacet
  facet normal -1.000000e+00 -0.000000e+00 0.000000e+00
    outer loop
      vertex   6.800000e+01 -9.300000e+01 3.180000e+00
      vertex   6.800000e+01 -9.400000e+01 1.580000e+00
      vertex   6.800000e+01 -9.400000e+01 3.180000e+00
    endloop
  endfacet
  facet normal 0.000000e+00 1.000000e+00 -0.000000e+00
    outer loop
      vertex   7.900000e+01 -9.300000e+01 1.580000e+00
      vertex   6.800000e+01 -9.300000e+01 1.580000e+00
      vertex   7.900000e+01 -9.300000e+01 3.180000e+00
    endloop
  endfacet
  facet normal 0.000000e+00 1.000000e+00 0.000000e+00
    outer loop
      vertex   7.900000e+01 -9.300000e+01 3.180000e+00
      vertex   6.800000e+01 -9.300000e+01 1.580000e+00
      vertex   6.800000e+01 -9.300000e+01 3.180000e+00
    endloop
  endfacet
  facet normal 1.000000e+00 0.000000e+00 0.000000e+00
    outer loop
      vertex   7.900000e+01 -9.400000e+01 1.580000e+00
      vertex   7.900000e+01 -9.300000e+01 1.580000e+00
      vertex   7.900000e+01 -9.400000e+01 3.180000e+00
    endloop
  endfacet
  facet normal 1.000000e+00 -0.000000e+00 0.000000e+00
    outer loop
      vertex   7.900000e+01 -9.400000e+01 3.180000e+00
      vertex   7.900000e+01 -9.300000e+01 1.580000e+00
      vertex   7.900000e+01 -9.300000e+01 3.180000e+00
    endloop
  endfacet
  facet normal 0.000000e+00 1.000000e+00 -0.000000e+00
    outer loop
      vertex   9.000000e+01 -9.400000e+01 1.580000e+00
      vertex   7.900000e+01 -9.400000e+01 1.580000e+00
      vertex   9.000000e+01 -9.400000e+01 3.180000e+00
    endloop
  endfacet
  facet normal 0.000000e+00 1.000000e+00 0.000000e+00
    outer loop
      vertex   9.000000e+01 -9.400000e+01 3.180000e+00
      vertex   7.900000e+01 -9.400000e+01 1.580000e+00
      vertex   7.900000e+01 -9.400000e+01 3.180000e+00
    endloop
  endfacet
  facet normal -1.000000e+00 0.000000e+00 0.000000e+00
    outer loop
      vertex   9.000000e+01 0.000000e+00 1.580000e+00
      vertex   9.000000e+01 -9.400000e+01 1.580000e+00
      vertex   9.000000e+01 0.000000e+00 3.180000e+00
    endloop
  endfacet
  facet normal -1.000000e+00 -0.000000e+00 0.000000e+00
    outer loop
      vertex   9.000000e+01 0.000000e+00 3.180000e+00
      vertex   9.000000e+01 -9.400000e+01 1.580000e+00
      vertex   9.000000e+01 -9.400000e+01 3.180000e+00
    endloop
  endfacet
  facet normal 0.000000e+00 -1.000000e+00 0.000000e+00
    outer loop
      vertex   0.000000e+00 0.000000e+00 1.580000e+00
      vertex   9.000000e+01 0.000000e+00 1.580000e+00
      vertex   0.000000e+00 0.000000e+00 3.180000e+00
    endloop
  endfacet
  facet normal 0.000000e+00 -1.000000e+00 0.000000e+00
    outer loop
      vertex   0.000000e+00 0.000000e+00 3.180000e+00
      vertex   9.000000e+01 0.000000e+00 1.580000e+00
      vertex   9.000000e+01 0.000000e+00 3.180000e+00
    endloop
  endfacet
  facet normal -1.000000e+00 0.000000e+00 0.000000e+00
    outer loop
      vertex   -5.500000e+01 5.300000e+01 1.580000e+00
      vertex   -5.500000e+01 -1.470000e+02 1.580000e+00
      vertex   -5.500000e+01 5.300000e+01 3.180000e+00
    endloop
  endfacet
  facet normal -1.000000e+00 -0.000000e+00 0.000000e+00
    outer loop
      vertex   -5.500000e+01 5.300000e+01 3.180000e+00
      vertex   -5.500000e+01 -1.470000e+02 1.580000e+00
      vertex   -5.500000e+01 -1.470000e+02 3.180000e+00
    endloop
  endfacet
  facet normal -3.552714e-17 1.000000e+00 4.440892e-15
    outer loop
      vertex   1.450000e+02 5.300000e+01 1.580000e+00
      vertex   -5.500000e+01 5.300000e+01 1.580000e+00
      vertex   1.450000e+02 5.300000e+01 3.180000e+00
    endloop
  endfacet
  facet normal 0.000000e+00 1.000000e+00 0.000000e+00
    outer loop
      vertex   1.450000e+02 5.300000e+01 3.180000e+00
      vertex   -5.500000e+01 5.300000e+01 1.580000e+00
      vertex   -5.500000e+01 5.300000e+01 3.180000e+00
    endloop
  endfacet
  facet normal 1.000000e+00 0.000000e+00 0.000000e+00
    outer loop
      vertex   1.450000e+02 -1.470000e+02 1.580000e+00
      vertex   1.450000e+02 5.300000e+01 1.580000e+00
      vertex   1.450000e+02 -1.470000e+02 3.180000e+00
    endloop
  endfacet
  facet normal 1.000000e+00 -0.000000e+00 0.000000e+00
    outer loop
      vertex   1.450000e+02 -1.470000e+02 3.180000e+00
      vertex   1.450000e+02 5.300000e+01 1.580000e+00
      vertex   1.450000e+02 5.300000e+01 3.180000e+00
    endloop
  endfacet
  facet normal 0.000000e+00 -1.000000e+00 0.000000e+00
    outer loop
      vertex   -5.500000e+01 -1.470000e+02 1.580000e+00
      vertex   1.450000e+02 -1.470000e+02 1.580000e+00
      vertex   -5.500000e+01 -1.470000e+02 3.180000e+00
    endloop
  endfacet
  facet normal 0.000000e+00 -1.000000e+00 0.000000e+00
    outer loop
      vertex   -5.500000e+01 -1.470000e+02 3.180000e+00
      vertex   1.450000e+02 -1.470000e+02 1.580000e+00
      vertex   1.450000e+02 -1.470000e+02 3.180000e+00
    endloop
  endfacet
  facet normal 0.000000e+00 -0.000000e+00 1.000000e+00
    outer loop
      vertex   0.000000e+00 -5.034280e+01 3.180000e+00
      vertex   0.000000e+00 0.000000e+00 3.180000e+00
      vertex   -5.500000e+01 5.300000e+01 3.180000e+00
    endloop
  endfacet
  facet normal 0.000000e+00 0.000000e+00 1.000000e+00
    outer loop
      vertex   -5.500000e+01 5.300000e+01 3.180000e+00
      vertex   0.000000e+00 0.000000e+00 3.180000e+00
      vertex   9.000000e+01 0.000000e+00 3.180000e+00
    endloop
  endfacet
  facet normal -0.000000e+00 0.000000e+00 1.000000e+00
    outer loop
      vertex   -5.500000e+01 5.300000e+01 3.180000e+00
      vertex   9.000000e+01 0.000000e+00 3.180000e+00
      vertex   1.450000e+02 5.300000e+01 3.180000e+00
    endloop
  endfacet
  facet normal 0.000000e+00 0.000000e+00 1.000000e+00
    outer loop
      vertex   1.450000e+02 5.300000e+01 3.180000e+00
      vertex   9.000000e+01 0.000000e+00 3.180000e+00
      vertex   1.450000e+02 -1.470000e+02 3.180000e+00
    endloop
  endfacet
  facet normal 0.000000e+00 0.000000e+00 1.000000e+00
    outer loop
      vertex   1.450000e+02 -1.470000e+02 3.180000e+00
      vertex   9.000000e+01 0.000000e+00 3.180000e+00
      vertex   9.000000e+01 -9.400000e+01 3.180000e+00
    endloop
  endfacet
  facet normal 0.000000e+00 0.000000e+00 1.000000e+00
    outer loop
      vertex   1.450000e+02 -1.470000e+02 3.180000e+00
      vertex   9.000000e+01 -9.400000e+01 3.180000e+00
      vertex   7.900000e+01 -9.400000e+01 3.180000e+00
    endloop
  endfacet
  facet normal 0.000000e+00 0.000000e+00 1.000000e+00
    outer loop
      vertex   7.900000e+01 -9.300000e+01 3.180000e+00
      vertex   6.800000e+01 -9.300000e+01 3.180000e+00
      vertex   7.900000e+01 -9.400000e+01 3.180000e+00
    endloop
  endfacet
  facet normal 0.000000e+00 0.000000e+00 1.000000e+00
    outer loop
      vertex   7.900000e+01 -9.400000e+01 3.180000e+00
      vertex   6.800000e+01 -9.300000e+01 3.180000e+00
      vertex   6.800000e+01 -9.400000e+01 3.180000e+00
    endloop
  endfacet
  facet normal 0.000000e+00 0.000000e+00 1.000000e+00
    outer loop
      vertex   7.900000e+01 -9.400000e+01 3.180000e+00
      vertex   6.800000e+01 -9.400000e+01 3.180000e+00
      vertex   1.450000e+02 -1.470000e+02 3.180000e+00
    endloop
  endfacet
  facet normal 0.000000e+00 0.000000e+00 1.000000e+00
    outer loop
      vertex   1.450000e+02 -1.470000e+02 3.180000e+00
      vertex   6.800000e+01 -9.400000e+01 3.180000e+00
      vertex   -5.500000e+01 -1.470000e+02 3.180000e+00
    endloop
  endfacet
  facet normal 0.000000e+00 0.000000e+00 1.000000e+00
    outer loop
      vertex   -5.500000e+01 -1.470000e+02 3.180000e+00
      vertex   6.800000e+01 -9.400000e+01 3.180000e+00
      vertex   2.000000e+01 -9.400000e+01 3.180000e+00
    endloop
  endfacet
  facet normal 0.000000e+00 0.000000e+00 1.000000e+00
    outer loop
      vertex   -5.500000e+01 -1.470000e+02 3.180000e+00
      vertex   2.000000e+01 -9.400000e+01 3.180000e+00
      vertex   1.700000e+01 -9.400000e+01 3.180000e+00
    endloop
  endfacet
  facet normal 0.000000e+00 0.000000e+00 1.000000e+00
    outer loop
      vertex   1.700000e+01 -9.400000e+01 3.180000e+00
      vertex   2.000000e+01 -9.400000e+01 3.180000e+00
      vertex   1.850000e+01 -9.200000e+01 3.180000e+00
    endloop
  endfacet
  facet normal -0.000000e+00 0.000000e+00 1.000000e+00
    outer loop
      vertex   1.850000e+01 -9.200000e+01 3.180000e+00
      vertex   2.000000e+01 -9.400000e+01 3.180000e+00
      vertex   2.000000e+01 -9.200000e+01 3.180000e+00
    endloop
  endfacet
  facet normal 0.000000e+00 0.000000e+00 1.000000e+00
    outer loop
      vertex   1.700000e+01 -9.400000e+01 3.180000e+00
      vertex   5.000000e+00 -9.400000e+01 3.180000e+00
      vertex   -5.500000e+01 -1.470000e+02 3.180000e+00
    endloop
  endfacet
  facet normal 0.000000e+00 0.000000e+00 1.000000e+00
    outer loop
      vertex   -5.500000e+01 -1.470000e+02 3.180000e+00
      vertex   5.000000e+00 -9.400000e+01 3.180000e+00
      vertex   0.000000e+00 -9.000000e+01 3.180000e+00
    endloop
  endfacet
  facet normal 0.000000e+00 0.000000e+00 1.000000e+00
    outer loop
      vertex   -5.500000e+01 -1.470000e+02 3.180000e+00
      vertex   0.000000e+00 -9.000000e+01 3.180000e+00
      vertex   0.000000e+00 -6.560820e+01 3.180000e+00
    endloop
  endfacet
  facet normal 0.000000e+00 -0.000000e+00 1.000000e+00
    outer loop
      vertex   5.080000e+00 -6.116320e+01 3.180000e+00
      vertex   5.080000e+00 -5.478780e+01 3.180000e+00
      vertex   0.000000e+00 -6.560820e+01 3.180000e+00
    endloop
  endfacet
  facet normal 0.000000e+00 0.000000e+00 1.000000e+00
    outer loop
      vertex   0.000000e+00 -6.560820e+01 3.180000e+00
      vertex   5.080000e+00 -5.478780e+01 3.180000e+00
      vertex   0.000000e+00 -5.034280e+01 3.180000e+00
    endloop
  endfacet
  facet normal 0.000000e+00 -0.000000e+00 1.000000e+00
    outer loop
      vertex   0.000000e+00 -6.560820e+01 3.180000e+00
      vertex   0.000000e+00 -5.034280e+01 3.180000e+00
      vertex   -5.500000e+01 -1.470000e+02 3.180000e+00
    endloop
  endfacet
  facet normal 0.000000e+00 0.000000e+00 1.000000e+00
    outer loop
      vertex   -5.500000e+01 -1.470000e+02 3.180000e+00
      vertex   0.000000e+00 -5.034280e+01 3.180000e+00
      vertex   -5.500000e+01 5.300000e+01 3.180000e+00
    endloop
  endfacet
  facet normal 0.000000e+00 0.000000e+00 -1.000000e+00
    outer loop
      vertex   9.000000e+01 -9.400000e+01 1.580000e+00
      vertex   9.000000e+01 0.000000e+00 1.580000e+00
      vertex   1.450000e+02 5.300000e+01 1.580000e+00
    endloop
  endfacet
  facet normal 0.000000e+00 0.000000e+00 -1.000000e+00
    outer loop
      vertex   1.450000e+02 5.300000e+01 1.580000e+00
      vertex   9.000000e+01 0.000000e+00 1.580000e+00
      vertex   0.000000e+00 0.000000e+00 1.580000e+00
    endloop
  endfacet
  facet normal 0.000000e+00 0.000000e+00 -1.000000e+00
    outer loop
      vertex   1.450000e+02 5.300000e+01 1.580000e+00
      vertex   0.000000e+00 0.000000e+00 1.580000e+00
      vertex   -5.500000e+01 5.300000e+01 1.580000e+00
    endloop
  endfacet
  facet normal 0.000000e+00 0.000000e+00 -1.000000e+00
    outer loop
      vertex   -5.500000e+01 5.300000e+01 1.580000e+00
      vertex   0.000000e+00 0.000000e+00 1.580000e+00
      vertex   0.000000e+00 -5.034280e+01 1.580000e+00
    endloop
  endfacet
  facet normal 0.000000e+00 0.000000e+00 -1.000000e+00
    outer loop
      vertex   -5.500000e+01 5.300000e+01 1.580000e+00
      vertex   0.000000e+00 -5.034280e+01 1.580000e+00
      vertex   -5.500000e+01 -1.470000e+02 1.580000e+00
    endloop
  endfacet
  facet normal 0.000000e+00 0.000000e+00 -1.000000e+00
    outer loop
      vertex   -5.500000e+01 -1.470000e+02 1.580000e+00
      vertex   0.000000e+00 -5.034280e+01 1.580000e+00
      vertex   0.000000e+00 -6.560820e+01 1.580000e+00
    endloop
  endfacet
  facet normal 0.000000e+00 0.000000e+00 -1.000000e+00
    outer loop
      vertex   -5.500000e+01 -1.470000e+02 1.580000e+00
      vertex   0.000000e+00 -6.560820e+01 1.580000e+00
      vertex   0.000000e+00 -9.000000e+01 1.580000e+00
    endloop
  endfacet
  facet normal -0.000000e+00 -0.000000e+00 -1.000000e+00
    outer loop
      vertex   5.080000e+00 -5.478780e+01 1.580000e+00
      vertex   5.080000e+00 -6.116320e+01 1.580000e+00
      vertex   0.000000e+00 -5.034280e+01 1.580000e+00
    endloop
  endfacet
  facet normal 0.000000e+00 0.000000e+00 -1.000000e+00
    outer loop
      vertex   0.000000e+00 -5.034280e+01 1.580000e+00
      vertex   5.080000e+00 -6.116320e+01 1.580000e+00
      vertex   0.000000e+00 -6.560820e+01 1.580000e+00
    endloop
  endfacet
  facet normal 0.000000e+00 -0.000000e+00 -1.000000e+00
    outer loop
      vertex   0.000000e+00 -9.000000e+01 1.580000e+00
      vertex   5.000000e+00 -9.400000e+01 1.580000e+00
      vertex   -5.500000e+01 -1.470000e+02 1.580000e+00
    endloop
  endfacet
  facet normal 0.000000e+00 0.000000e+00 -1.000000e+00
    outer loop
      vertex   -5.500000e+01 -1.470000e+02 1.580000e+00
      vertex   5.000000e+00 -9.400000e+01 1.580000e+00
      vertex   1.700000e+01 -9.400000e+01 1.580000e+00
    endloop
  endfacet
  facet normal 0.000000e+00 0.000000e+00 -1.000000e+00
    outer loop
      vertex   -5.500000e+01 -1.470000e+02 1.580000e+00
      vertex   1.700000e+01 -9.400000e+01 1.580000e+00
      vertex   2.000000e+01 -9.400000e+01 1.580000e+00
    endloop
  endfacet
  facet normal 0.000000e+00 0.000000e+00 -1.000000e+00
    outer loop
      vertex   2.000000e+01 -9.400000e+01 1.580000e+00
      vertex   1.700000e+01 -9.400000e+01 1.580000e+00
      vertex   1.850000e+01 -9.200000e+01 1.580000e+00
    endloop
  endfacet
  facet normal 0.000000e+00 0.000000e+00 -1.000000e+00
    outer loop
      vertex   2.000000e+01 -9.400000e+01 1.580000e+00
      vertex   1.850000e+01 -9.200000e+01 1.580000e+00
      vertex   2.000000e+01 -9.200000e+01 1.580000e+00
    endloop
  endfacet
  facet normal 0.000000e+00 -0.000000e+00 -1.000000e+00
    outer loop
      vertex   2.000000e+01 -9.400000e+01 1.580000e+00
      vertex   6.800000e+01 -9.400000e+01 1.580000e+00
      vertex   -5.500000e+01 -1.470000e+02 1.580000e+00
    endloop
  endfacet
  facet normal 0.000000e+00 0.000000e+00 -1.000000e+00
    outer loop
      vertex   -5.500000e+01 -1.470000e+02 1.580000e+00
      vertex   6.800000e+01 -9.400000e+01 1.580000e+00
      vertex   1.450000e+02 -1.470000e+02 1.580000e+00
    endloop
  endfacet
  facet normal 0.000000e+00 0.000000e+00 -1.000000e+00
    outer loop
      vertex   1.450000e+02 -1.470000e+02 1.580000e+00
      vertex   6.800000e+01 -9.400000e+01 1.580000e+00
      vertex   7.900000e+01 -9.400000e+01 1.580000e+00
    endloop
  endfacet
  facet normal 0.000000e+00 0.000000e+00 -1.000000e+00
    outer loop
      vertex   1.450000e+02 -1.470000e+02 1.580000e+00
      vertex   7.900000e+01 -9.400000e+01 1.580000e+00
      vertex   9.000000e+01 -9.400000e+01 1.580000e+00
    endloop
  endfacet
  facet normal 0.000000e+00 0.000000e+00 -1.000000e+00
    outer loop
      vertex   6.800000e+01 -9.300000e+01 1.580000e+00
      vertex   7.900000e+01 -9.300000e+01 1.580000e+00
      vertex   6.800000e+01 -9.400000e+01 1.580000e+00
    endloop
  endfacet
  facet normal 0.000000e+00 0.000000e+00 -1.000000e+00
    outer loop
      vertex   6.800000e+01 -9.400000e+01 1.580000e+00
      vertex   7.900000e+01 -9.300000e+01 1.580000e+00
      vertex   7.900000e+01 -9.400000e+01 1.580000e+00
    endloop
  endfacet
  facet normal 0.000000e+00 0.000000e+00 -1.000000e+00
    outer loop
      vertex   1.450000e+02 -1.470000e+02 1.580000e+00
      vertex   9.000000e+01 -9.400000e+01 1.580000e+00
      vertex   1.450000e+02 5.300000e+01 1.580000e+00
    endloop
  endfacet
endsolid
