%TF.GenerationSoftware,KiCad,Pcbnew,7.0.7*%
%TF.CreationDate,2023-11-02T23:48:10+00:00*%
%TF.ProjectId,mod-badge-inercia,6d6f642d-6261-4646-9765-2d696e657263,rev?*%
%TF.SameCoordinates,Original*%
%TF.FileFunction,Copper,L1,Top*%
%TF.FilePolarity,Positive*%
%FSLAX46Y46*%
G04 Gerber Fmt 4.6, Leading zero omitted, Abs format (unit mm)*
G04 Created by KiCad (PCBNEW 7.0.7) date 2023-11-02 23:48:10*
%MOMM*%
%LPD*%
G01*
G04 APERTURE LIST*
%TA.AperFunction,NonConductor*%
%ADD10C,0.100000*%
%TD*%
%TA.AperFunction,ComponentPad*%
%ADD11R,1.700000X1.700000*%
%TD*%
%TA.AperFunction,ComponentPad*%
%ADD12C,1.700000*%
%TD*%
%TA.AperFunction,ComponentPad*%
%ADD13C,2.000000*%
%TD*%
%TA.AperFunction,ComponentPad*%
%ADD14O,1.000000X1.600000*%
%TD*%
%TA.AperFunction,ComponentPad*%
%ADD15O,1.000000X2.100000*%
%TD*%
%TA.AperFunction,ViaPad*%
%ADD16C,0.500000*%
%TD*%
%TA.AperFunction,ViaPad*%
%ADD17C,0.700000*%
%TD*%
%TA.AperFunction,Conductor*%
%ADD18C,0.127000*%
%TD*%
%TA.AperFunction,Conductor*%
%ADD19C,0.500000*%
%TD*%
%TA.AperFunction,Conductor*%
%ADD20C,1.000000*%
%TD*%
G04 APERTURE END LIST*
D10*
X66522600Y-62128400D02*
X67208400Y-62280800D01*
X67437000Y-62458600D01*
X67818000Y-63144400D01*
X67818000Y-63982600D01*
X67868800Y-94030800D01*
X19888200Y-94030800D01*
X19913600Y-63627000D01*
X20066000Y-62865000D01*
X20447000Y-62357000D01*
X21031200Y-62077600D01*
X21666200Y-62077600D01*
X66522600Y-62128400D01*
%TA.AperFunction,NonConductor*%
G36*
X66522600Y-62128400D02*
G01*
X67208400Y-62280800D01*
X67437000Y-62458600D01*
X67818000Y-63144400D01*
X67818000Y-63982600D01*
X67868800Y-94030800D01*
X19888200Y-94030800D01*
X19913600Y-63627000D01*
X20066000Y-62865000D01*
X20447000Y-62357000D01*
X21031200Y-62077600D01*
X21666200Y-62077600D01*
X66522600Y-62128400D01*
G37*
%TD.AperFunction*%
D11*
%TO.P,BT1,1,+*%
%TO.N,/VBAT_IN*%
X69993000Y-10443200D03*
D12*
%TO.P,BT1,2,-*%
%TO.N,GND*%
X69993000Y-21443200D03*
%TD*%
D13*
%TO.P,RV1,*%
%TO.N,*%
X5452000Y-52910200D03*
X5452000Y-62910200D03*
%TO.P,RV1,1,1*%
%TO.N,+3V3*%
X15452000Y-53910200D03*
%TO.P,RV1,2,2*%
%TO.N,Net-(U1-GPIO26_ADC0)*%
X15452000Y-57910200D03*
%TO.P,RV1,3,3*%
%TO.N,GND*%
X15452000Y-61910200D03*
%TD*%
D14*
%TO.P,J1,S1,SHIELD*%
%TO.N,GND*%
X88840400Y-90764400D03*
D15*
X88840400Y-86584400D03*
D14*
X80200400Y-90764400D03*
D15*
X80200400Y-86584400D03*
%TD*%
D16*
%TO.N,/3v3_boost*%
X78054200Y-70231000D03*
X70586600Y-72669400D03*
%TO.N,GND*%
X75615800Y-33883600D03*
X77749400Y-27482800D03*
X83997800Y-49758600D03*
X86690200Y-43154600D03*
X83032600Y-30276800D03*
X83388200Y-78689200D03*
X76149200Y-62077600D03*
X68681600Y-49250600D03*
X77038200Y-63474600D03*
X87731600Y-72288400D03*
X79349600Y-46482000D03*
X74295000Y-88188800D03*
X79476600Y-44424600D03*
X70205600Y-69596000D03*
X85623400Y-90779600D03*
X69367400Y-42799000D03*
X72517000Y-86512400D03*
X77571600Y-58928000D03*
X13300000Y-79000000D03*
X89077800Y-36576000D03*
X87528400Y-76022200D03*
X88265000Y-34340800D03*
X76098400Y-59766200D03*
X71247000Y-88239600D03*
X77901800Y-54000400D03*
X73279000Y-44805600D03*
X78384400Y-45491400D03*
X88671400Y-84531200D03*
X70053200Y-76885800D03*
X70612000Y-64236600D03*
X75539600Y-51435000D03*
X76962000Y-44627800D03*
X89128600Y-81762600D03*
X86868000Y-45491400D03*
X83413600Y-54102000D03*
X88214200Y-32207200D03*
X79781400Y-77470000D03*
X86080600Y-36931600D03*
X84759800Y-23876000D03*
X86950800Y-28617800D03*
X72923400Y-65608200D03*
X72618600Y-43332400D03*
X69799200Y-45923200D03*
X80800000Y-65100000D03*
X72669400Y-49631600D03*
X73177400Y-48107600D03*
X75474959Y-23968270D03*
X81508600Y-75819000D03*
X83566000Y-83845400D03*
X13400000Y-73500000D03*
X80391000Y-44424600D03*
X78816200Y-62026800D03*
X16100000Y-75100000D03*
X72161400Y-72720200D03*
X70408800Y-66852800D03*
X78384400Y-46532800D03*
X89077800Y-38506400D03*
X81280000Y-61925200D03*
X77851000Y-56362600D03*
X82829400Y-57912000D03*
X70800000Y-49300000D03*
X86791800Y-38201600D03*
X72796400Y-68630800D03*
X68554600Y-46583600D03*
X71551800Y-48158400D03*
X87020400Y-54432200D03*
X76758800Y-68402200D03*
X75692000Y-86639400D03*
X80111600Y-66471800D03*
X80289400Y-33578800D03*
X74168000Y-32283400D03*
X73253600Y-62331600D03*
X78486000Y-44424600D03*
X74777600Y-27813000D03*
X80289400Y-63703200D03*
X70662800Y-42824400D03*
X88265000Y-29768800D03*
X81407000Y-27228800D03*
X85700000Y-61000000D03*
X68681600Y-50698400D03*
X78324000Y-38255200D03*
X13400000Y-72100000D03*
X87172800Y-61036200D03*
X85166200Y-38455600D03*
X79730600Y-70027800D03*
X69723000Y-86563200D03*
X83413600Y-56108600D03*
X86639400Y-50165000D03*
X81508600Y-72085200D03*
X83058000Y-90728800D03*
X83591400Y-82448400D03*
X83591400Y-38557200D03*
X71196200Y-80543400D03*
X79333400Y-45482900D03*
X18000000Y-75800000D03*
X85013800Y-42621200D03*
X76962000Y-45669200D03*
X68554600Y-44983400D03*
X88265000Y-28016200D03*
X72110600Y-42824400D03*
X68580000Y-43535600D03*
X86791800Y-84353400D03*
X86156800Y-83286600D03*
%TO.N,+1V1*%
X73546200Y-41808400D03*
X86165000Y-41722600D03*
X85155600Y-47430000D03*
%TO.N,+3V3*%
X83561600Y-40098400D03*
X85623400Y-34493200D03*
X11168400Y-75013800D03*
X83142400Y-50632800D03*
X13843000Y-55519200D03*
X83159600Y-52324000D03*
X72237600Y-60629800D03*
X86735600Y-47443800D03*
X75006200Y-60706000D03*
X80543400Y-59131200D03*
X71717400Y-41088300D03*
X78333400Y-39814600D03*
X74777600Y-64262000D03*
X15392400Y-73837800D03*
X7264400Y-74218800D03*
X86156800Y-40048800D03*
X81882600Y-40098400D03*
%TO.N,/RUN*%
X85598000Y-51460400D03*
X76835000Y-43688000D03*
%TO.N,Net-(D1-A)*%
X70104000Y-74739500D03*
X77825600Y-75234800D03*
X70104000Y-74066400D03*
X74218800Y-72517000D03*
X74904600Y-72517000D03*
X75463400Y-75234800D03*
X76250800Y-75234800D03*
X77038200Y-75234800D03*
X78613000Y-75234800D03*
X75615800Y-72491600D03*
X70104000Y-75412600D03*
%TO.N,Net-(D2-K)*%
X79857600Y-73202800D03*
X81584800Y-77317600D03*
%TO.N,/SPI_1_SCK*%
X75869800Y-49022000D03*
X76936600Y-47294800D03*
%TO.N,/SPI_1_MISO*%
X74295000Y-51079400D03*
X71700000Y-56200000D03*
%TO.N,/MCU_SWCLK*%
X73634600Y-39192200D03*
X83616800Y-28346400D03*
%TO.N,/MCU_SWD*%
X84886800Y-31038800D03*
X74396600Y-39115500D03*
%TO.N,/QSPI_SS*%
X82778600Y-48717200D03*
X76428600Y-57175400D03*
%TO.N,Net-(U1-GPIO9)*%
X75565000Y-50139600D03*
X70800000Y-53200000D03*
%TO.N,Net-(U1-GPIO13)*%
X71000000Y-51700000D03*
X73837800Y-49276000D03*
D17*
%TO.N,/VBAT_IN*%
X67315700Y-57384300D03*
X70002400Y-82194400D03*
D16*
%TO.N,/I2S_BCLK*%
X83083400Y-31038800D03*
X76750100Y-37388800D03*
%TO.N,/I2S_LRC*%
X77292200Y-37812400D03*
X83185000Y-29565600D03*
%TO.N,/I2S_DIN*%
X82594473Y-36264873D03*
X82372200Y-31648400D03*
%TO.N,Net-(U1-GPIO26_ADC0)*%
X72300000Y-59200000D03*
X23200000Y-61500000D03*
X27500000Y-61500000D03*
X81432400Y-44272200D03*
%TO.N,/QSPI_SD3*%
X81686400Y-45542200D03*
X79121000Y-55626000D03*
%TO.N,/QSPI_SCLK*%
X81661000Y-46228000D03*
X79121000Y-54432200D03*
%TO.N,/QSPI_SD0*%
X81506058Y-46968689D03*
X80899000Y-52425600D03*
%TO.N,/QSPI_SD2*%
X82022817Y-47322900D03*
X79273400Y-56565800D03*
%TO.N,/QSPI_SD1*%
X83845400Y-47853600D03*
X78079600Y-57912000D03*
%TO.N,unconnected-(U5-EP-Pad17)*%
X80596200Y-29802200D03*
%TO.N,/SW1*%
X19477264Y-75399814D03*
X29400000Y-60420000D03*
X78359000Y-47988800D03*
X16300000Y-73500000D03*
X71700000Y-56900000D03*
%TO.N,/SW2*%
X71700000Y-58500000D03*
X17600000Y-72100000D03*
X79463610Y-50094144D03*
X28100000Y-61100000D03*
X19480021Y-72099983D03*
%TO.N,/SW3*%
X28700000Y-60860000D03*
X19478768Y-73599982D03*
X16800000Y-72900000D03*
X78995201Y-49678094D03*
X71700000Y-57700000D03*
%TO.N,/GP27*%
X13100000Y-5325000D03*
X82022972Y-36836372D03*
%TO.N,/GP28*%
X81300000Y-41200000D03*
X2700000Y-5300000D03*
%TO.N,/GP25*%
X81153000Y-36855400D03*
X13000000Y-7865000D03*
%TO.N,/GP29*%
X2600000Y-7800000D03*
X82200000Y-41100000D03*
%TO.N,/GP24*%
X13000000Y-10405000D03*
X80111600Y-36906200D03*
%TO.N,/GP16*%
X73660000Y-38379400D03*
X2600000Y-10400000D03*
%TO.N,/GP23*%
X13000000Y-12945000D03*
X79222600Y-36753800D03*
%TO.N,/GP17*%
X3000000Y-13000000D03*
X74396600Y-38100000D03*
%TO.N,/GP19*%
X13000000Y-15485000D03*
X76250800Y-37896800D03*
%TO.N,/GP18*%
X2900000Y-15500000D03*
X75438000Y-37846000D03*
%TD*%
D18*
%TO.N,/3v3_boost*%
X70586600Y-72669400D02*
X70586600Y-71247000D01*
X71043800Y-70789800D02*
X71602600Y-70231000D01*
X70586600Y-71247000D02*
X71043800Y-70789800D01*
X71602600Y-70231000D02*
X78054200Y-70231000D01*
%TO.N,+1V1*%
X86079200Y-41808400D02*
X86165000Y-41722600D01*
X73546200Y-41808400D02*
X83591400Y-41808400D01*
X85155600Y-47385800D02*
X83032600Y-45262800D01*
X83032600Y-45262800D02*
X83032600Y-42367200D01*
X83032600Y-42367200D02*
X83591400Y-41808400D01*
X85155600Y-47430000D02*
X85155600Y-47385800D01*
X83591400Y-41808400D02*
X86079200Y-41808400D01*
D19*
%TO.N,+3V3*%
X74777600Y-62153800D02*
X74777600Y-61696600D01*
X83561600Y-40098400D02*
X81882600Y-40098400D01*
X74777600Y-60934600D02*
X75006200Y-60706000D01*
X72313800Y-60706000D02*
X73787000Y-60706000D01*
X84556600Y-58013600D02*
X84556600Y-53721000D01*
D18*
X11531600Y-74472800D02*
X11531600Y-74650600D01*
D19*
X87807800Y-48996600D02*
X87807800Y-48516000D01*
X87807800Y-48516000D02*
X86735600Y-47443800D01*
D18*
X84505800Y-58064400D02*
X83489800Y-59080400D01*
D19*
X84556600Y-55321200D02*
X84734400Y-55321200D01*
D18*
X84556600Y-55321200D02*
X84556600Y-56083200D01*
D19*
X80187800Y-60706000D02*
X80543400Y-60350400D01*
X86735600Y-51237200D02*
X87807800Y-50165000D01*
X14579600Y-74650600D02*
X15392400Y-73837800D01*
X13843000Y-56845200D02*
X13843000Y-69519800D01*
X13843000Y-55519200D02*
X13843000Y-56845200D01*
X11168400Y-75013800D02*
X11531600Y-74650600D01*
X84556600Y-53721000D02*
X83159600Y-52324000D01*
X87807800Y-41699800D02*
X87807800Y-36677600D01*
X71717400Y-41088300D02*
X72986500Y-39819200D01*
X86156800Y-40048800D02*
X83611200Y-40048800D01*
X87807800Y-50165000D02*
X87807800Y-48996600D01*
X81882600Y-40098400D02*
X81598800Y-39814600D01*
X80543400Y-60350400D02*
X80543400Y-59131200D01*
X83611200Y-40048800D02*
X83561600Y-40098400D01*
X74777600Y-61696600D02*
X73787000Y-60706000D01*
D18*
X84556600Y-58013600D02*
X84505800Y-58064400D01*
D19*
X83159600Y-50650000D02*
X83142400Y-50632800D01*
X72986500Y-39819200D02*
X78328800Y-39819200D01*
X72237600Y-60629800D02*
X72313800Y-60706000D01*
X86735600Y-53320000D02*
X86735600Y-51237200D01*
X84734400Y-55321200D02*
X86735600Y-53320000D01*
D18*
X84556600Y-53721000D02*
X84556600Y-56083200D01*
D19*
X13843000Y-69519800D02*
X15392400Y-71069200D01*
X81864200Y-60706000D02*
X84556600Y-58013600D01*
X87807800Y-48996600D02*
X87807800Y-46371600D01*
X74777600Y-64262000D02*
X74777600Y-62153800D01*
D18*
X84556600Y-56083200D02*
X84556600Y-58013600D01*
D19*
X87807800Y-41699800D02*
X86156800Y-40048800D01*
X15452000Y-53910200D02*
X13843000Y-55519200D01*
X81598800Y-39814600D02*
X78333400Y-39814600D01*
X87807800Y-46371600D02*
X87807800Y-41699800D01*
X75006200Y-60706000D02*
X80187800Y-60706000D01*
X78328800Y-39819200D02*
X78333400Y-39814600D01*
X15392400Y-71069200D02*
X15392400Y-73837800D01*
D18*
X7518400Y-74472800D02*
X11531600Y-74472800D01*
D19*
X74777600Y-62153800D02*
X74777600Y-60934600D01*
X84556600Y-53721000D02*
X84556600Y-55321200D01*
X80187800Y-60706000D02*
X81864200Y-60706000D01*
X83159600Y-52324000D02*
X83159600Y-50650000D01*
X87807800Y-36677600D02*
X85623400Y-34493200D01*
X11531600Y-74650600D02*
X14579600Y-74650600D01*
D18*
X7264400Y-74218800D02*
X7518400Y-74472800D01*
%TO.N,/RUN*%
X81508600Y-43586400D02*
X76936600Y-43586400D01*
X76936600Y-43586400D02*
X76835000Y-43688000D01*
X82423000Y-45516800D02*
X82423000Y-44500800D01*
X85598000Y-51460400D02*
X85623400Y-51435000D01*
X85623400Y-48717200D02*
X82423000Y-45516800D01*
X85623400Y-51435000D02*
X85623400Y-48717200D01*
X82423000Y-44500800D02*
X81508600Y-43586400D01*
D19*
%TO.N,Net-(D2-K)*%
X79857600Y-75590400D02*
X81584800Y-77317600D01*
X79857600Y-73202800D02*
X79857600Y-75590400D01*
D18*
%TO.N,/SPI_1_SCK*%
X76936600Y-47955200D02*
X75869800Y-49022000D01*
X76936600Y-47294800D02*
X76936600Y-47955200D01*
%TO.N,/SPI_1_MISO*%
X71700000Y-56200000D02*
X71700000Y-56100000D01*
X74295000Y-53505000D02*
X74295000Y-51079400D01*
X71700000Y-56100000D02*
X74295000Y-53505000D01*
%TO.N,/MCU_SWCLK*%
X84175600Y-36537946D02*
X83572373Y-37141173D01*
X83572373Y-37141173D02*
X83635873Y-37077673D01*
X83616800Y-28346400D02*
X83616800Y-28727400D01*
X75061662Y-38675500D02*
X75248162Y-38862000D01*
X73634600Y-39192200D02*
X74151300Y-38675500D01*
X84175600Y-29286200D02*
X84175600Y-36537946D01*
X75248162Y-38862000D02*
X81851546Y-38862000D01*
X83616800Y-28727400D02*
X84175600Y-29286200D01*
X74151300Y-38675500D02*
X75061662Y-38675500D01*
X81851546Y-38862000D02*
X83572373Y-37141173D01*
%TO.N,/MCU_SWD*%
X84886800Y-31038800D02*
X84734400Y-31191200D01*
X82067400Y-39268400D02*
X74549500Y-39268400D01*
X84734400Y-31191200D02*
X84734400Y-36601400D01*
X84734400Y-36601400D02*
X82067400Y-39268400D01*
X74549500Y-39268400D02*
X74396600Y-39115500D01*
%TO.N,/QSPI_SS*%
X81305400Y-57175400D02*
X82270600Y-56210200D01*
X82270600Y-49225200D02*
X82778600Y-48717200D01*
X76428600Y-57175400D02*
X81305400Y-57175400D01*
X82270600Y-56210200D02*
X82270600Y-49225200D01*
%TO.N,Net-(U1-GPIO9)*%
X74447400Y-50139600D02*
X75565000Y-50139600D01*
X70800000Y-53200000D02*
X71387000Y-53200000D01*
X71387000Y-53200000D02*
X74447400Y-50139600D01*
%TO.N,Net-(U1-GPIO13)*%
X73837800Y-49961800D02*
X72099600Y-51700000D01*
X72099600Y-51700000D02*
X71000000Y-51700000D01*
X73837800Y-49276000D02*
X73837800Y-49961800D01*
D19*
%TO.N,/VBAT_IN*%
X67315700Y-57384300D02*
X68935600Y-59004200D01*
D20*
X68935600Y-81127600D02*
X70002400Y-82194400D01*
D19*
X68935600Y-59004200D02*
X68935600Y-81127600D01*
D18*
%TO.N,/I2S_BCLK*%
X77207300Y-36931600D02*
X78638400Y-36931600D01*
X81432400Y-38049200D02*
X83083400Y-36398200D01*
X83083400Y-36398200D02*
X83083400Y-31038800D01*
X76750100Y-37388800D02*
X77207300Y-36931600D01*
X79756000Y-38049200D02*
X81432400Y-38049200D01*
X78638400Y-36931600D02*
X79756000Y-38049200D01*
%TO.N,/I2S_LRC*%
X83642200Y-30022800D02*
X83185000Y-29565600D01*
X77817400Y-37287200D02*
X78460600Y-37287200D01*
X78460600Y-37287200D02*
X79603600Y-38430200D01*
X83642200Y-36474400D02*
X83642200Y-30022800D01*
X79603600Y-38430200D02*
X81686400Y-38430200D01*
X81686400Y-38430200D02*
X83642200Y-36474400D01*
X77292200Y-37812400D02*
X77817400Y-37287200D01*
%TO.N,/I2S_DIN*%
X82594473Y-36264873D02*
X82575400Y-36245800D01*
X82575400Y-36245800D02*
X82575400Y-31851600D01*
X82575400Y-31851600D02*
X82372200Y-31648400D01*
%TO.N,Net-(U1-GPIO26_ADC0)*%
X81432400Y-44424600D02*
X81432400Y-44272200D01*
X79904110Y-50880490D02*
X79904110Y-45952890D01*
X72300000Y-59200000D02*
X72300000Y-58500000D01*
X76098400Y-56794400D02*
X77114400Y-55778400D01*
X74005600Y-56794400D02*
X76098400Y-56794400D01*
X15462200Y-57900000D02*
X15452000Y-57910200D01*
X77114400Y-53670200D02*
X79904110Y-50880490D01*
X77114400Y-55778400D02*
X77114400Y-53670200D01*
X27500000Y-61500000D02*
X23200000Y-61500000D01*
X79904110Y-45952890D02*
X81432400Y-44424600D01*
X72300000Y-58500000D02*
X74005600Y-56794400D01*
%TO.N,/QSPI_SD3*%
X79121000Y-55626000D02*
X78511400Y-55016400D01*
X78511400Y-53035200D02*
X80391000Y-51155600D01*
X78511400Y-55016400D02*
X78511400Y-53035200D01*
X80391000Y-51155600D02*
X80391000Y-46329600D01*
X80391000Y-46329600D02*
X81178400Y-45542200D01*
X81178400Y-45542200D02*
X81686400Y-45542200D01*
%TO.N,/QSPI_SCLK*%
X79121000Y-54432200D02*
X79121000Y-53314600D01*
X80899000Y-51536600D02*
X80899000Y-46482000D01*
X80899000Y-46482000D02*
X81153000Y-46228000D01*
X79121000Y-53314600D02*
X80899000Y-51536600D01*
X81153000Y-46228000D02*
X81661000Y-46228000D01*
%TO.N,/QSPI_SD0*%
X80899000Y-52425600D02*
X81381600Y-51943000D01*
X81381600Y-47093147D02*
X81506058Y-46968689D01*
X81381600Y-51943000D02*
X81381600Y-47093147D01*
%TO.N,/QSPI_SD2*%
X81813400Y-55880000D02*
X81127600Y-56565800D01*
X81813400Y-47532317D02*
X81813400Y-55880000D01*
X81127600Y-56565800D02*
X79273400Y-56565800D01*
X82022817Y-47322900D02*
X81813400Y-47532317D01*
%TO.N,/QSPI_SD1*%
X81356200Y-57912000D02*
X82702400Y-56565800D01*
X83845400Y-48514000D02*
X83845400Y-47853600D01*
X82702400Y-56565800D02*
X82702400Y-49657000D01*
X78079600Y-57912000D02*
X81356200Y-57912000D01*
X82702400Y-49657000D02*
X83845400Y-48514000D01*
%TO.N,/SW1*%
X78359000Y-49784000D02*
X78359000Y-47988800D01*
X75006200Y-54693800D02*
X75006200Y-53136800D01*
X74505800Y-55194200D02*
X75006200Y-54693800D01*
X16200000Y-73400000D02*
X16300000Y-73500000D01*
X17600000Y-74800000D02*
X16300000Y-73500000D01*
X71700000Y-56900000D02*
X73405800Y-55194200D01*
X75006200Y-53136800D02*
X78359000Y-49784000D01*
X29400000Y-60420000D02*
X28680000Y-59700000D01*
X28680000Y-59700000D02*
X20500000Y-59700000D01*
X16200000Y-64000000D02*
X16200000Y-73400000D01*
X18877450Y-74800000D02*
X17600000Y-74800000D01*
X73405800Y-55194200D02*
X74505800Y-55194200D01*
X20500000Y-59700000D02*
X16200000Y-64000000D01*
X19477264Y-75399814D02*
X18877450Y-74800000D01*
%TO.N,/SW2*%
X28100000Y-61100000D02*
X27900000Y-60900000D01*
X76428600Y-55600600D02*
X76428600Y-53390800D01*
X27900000Y-60900000D02*
X20800000Y-60900000D01*
X17400000Y-71900000D02*
X17600000Y-72100000D01*
X19480038Y-72100000D02*
X19480021Y-72099983D01*
X75717400Y-56311800D02*
X76428600Y-55600600D01*
X76428600Y-53390800D02*
X79463610Y-50355790D01*
X71700000Y-58500000D02*
X73888200Y-56311800D01*
X17600000Y-72100000D02*
X19480038Y-72100000D01*
X79463610Y-50355790D02*
X79463610Y-50094144D01*
X17400000Y-64300000D02*
X17400000Y-71900000D01*
X20800000Y-60900000D02*
X17400000Y-64300000D01*
X73888200Y-56311800D02*
X75717400Y-56311800D01*
%TO.N,/SW3*%
X75800000Y-55200000D02*
X75800000Y-53105000D01*
X28140000Y-60300000D02*
X20600000Y-60300000D01*
X75200000Y-55800000D02*
X75800000Y-55200000D01*
X28700000Y-60860000D02*
X28140000Y-60300000D01*
X71700000Y-57700000D02*
X73600000Y-55800000D01*
X16800000Y-64100000D02*
X16800000Y-72900000D01*
X19478786Y-73600000D02*
X19478768Y-73599982D01*
X17500000Y-73600000D02*
X19478786Y-73600000D01*
X78995201Y-49909799D02*
X78995201Y-49678094D01*
X20600000Y-60300000D02*
X16800000Y-64100000D01*
X16800000Y-72900000D02*
X17500000Y-73600000D01*
X73600000Y-55800000D02*
X75200000Y-55800000D01*
X75800000Y-53105000D02*
X78995201Y-49909799D01*
%TO.N,/GP27*%
X63100000Y-53400000D02*
X63500000Y-53000000D01*
X63500000Y-53000000D02*
X63500000Y-41100000D01*
X67500000Y-37100000D02*
X69300000Y-37100000D01*
X71600000Y-34800000D02*
X80977200Y-34800000D01*
X82022972Y-35845772D02*
X82022972Y-36836372D01*
X16900000Y-7600000D02*
X16900000Y-44600000D01*
X14625000Y-5325000D02*
X16900000Y-7600000D01*
X63500000Y-41100000D02*
X67500000Y-37100000D01*
X69300000Y-37100000D02*
X71600000Y-34800000D01*
X80977200Y-34800000D02*
X82022972Y-35845772D01*
X16900000Y-44600000D02*
X25700000Y-53400000D01*
X25700000Y-53400000D02*
X63100000Y-53400000D01*
X13100000Y-5325000D02*
X14625000Y-5325000D01*
%TO.N,/GP28*%
X68000000Y-43300000D02*
X69100000Y-42200000D01*
X600000Y-21100000D02*
X3700000Y-24200000D01*
X73800000Y-40900000D02*
X81000000Y-40900000D01*
X3700000Y-24200000D02*
X10800000Y-24200000D01*
X68000000Y-55500000D02*
X68000000Y-43300000D01*
X10800000Y-24200000D02*
X11300000Y-24700000D01*
X11300000Y-24700000D02*
X11300000Y-46600000D01*
X81000000Y-40900000D02*
X81300000Y-41200000D01*
X65600000Y-57900000D02*
X68000000Y-55500000D01*
X22600000Y-57900000D02*
X65600000Y-57900000D01*
X2700000Y-5300000D02*
X600000Y-7400000D01*
X11300000Y-46600000D02*
X22600000Y-57900000D01*
X600000Y-7400000D02*
X600000Y-21100000D01*
X72500000Y-42200000D02*
X73800000Y-40900000D01*
X69100000Y-42200000D02*
X72500000Y-42200000D01*
%TO.N,/GP25*%
X25400000Y-53900000D02*
X63400000Y-53900000D01*
X16300000Y-9500000D02*
X16300000Y-44800000D01*
X71800000Y-35400000D02*
X80535800Y-35400000D01*
X64000000Y-41300000D02*
X67700000Y-37600000D01*
X16300000Y-44800000D02*
X25400000Y-53900000D01*
X14665000Y-7865000D02*
X16300000Y-9500000D01*
X67700000Y-37600000D02*
X69600000Y-37600000D01*
X64000000Y-53300000D02*
X64000000Y-41300000D01*
X80535800Y-35400000D02*
X81153000Y-36017200D01*
X63400000Y-53900000D02*
X64000000Y-53300000D01*
X13000000Y-7865000D02*
X14665000Y-7865000D01*
X69600000Y-37600000D02*
X71800000Y-35400000D01*
X81153000Y-36017200D02*
X81153000Y-36855400D01*
%TO.N,/GP29*%
X67500000Y-43040790D02*
X68840790Y-41700000D01*
X81900000Y-41100000D02*
X81500000Y-40700000D01*
X67500000Y-55300000D02*
X67500000Y-43040790D01*
X81300000Y-40500000D02*
X80400000Y-40500000D01*
X68840790Y-41700000D02*
X71400000Y-41700000D01*
X82200000Y-41100000D02*
X81900000Y-41100000D01*
X12000000Y-46400000D02*
X23000000Y-57400000D01*
X73800000Y-40500000D02*
X73200000Y-40500000D01*
X3900000Y-23600000D02*
X11400000Y-23600000D01*
X80400000Y-40500000D02*
X73800000Y-40500000D01*
X11400000Y-23600000D02*
X12000000Y-24200000D01*
X81500000Y-40700000D02*
X81300000Y-40500000D01*
X81500000Y-40700000D02*
X81100000Y-40300000D01*
X2600000Y-7800000D02*
X1100000Y-9300000D01*
X1100000Y-9300000D02*
X1100000Y-20800000D01*
X12000000Y-24200000D02*
X12000000Y-46400000D01*
X72000000Y-41700000D02*
X71400000Y-41700000D01*
X23000000Y-57400000D02*
X65400000Y-57400000D01*
X65400000Y-57400000D02*
X67500000Y-55300000D01*
X71400000Y-41700000D02*
X71200000Y-41700000D01*
X73200000Y-40500000D02*
X72000000Y-41700000D01*
X1100000Y-20800000D02*
X3900000Y-23600000D01*
%TO.N,/GP24*%
X69800000Y-38100000D02*
X72035200Y-35864800D01*
X72035200Y-35864800D02*
X79781400Y-35864800D01*
X64500000Y-41500000D02*
X67900000Y-38100000D01*
X63700000Y-54400000D02*
X64500000Y-53600000D01*
X67900000Y-38100000D02*
X69800000Y-38100000D01*
X79781400Y-35864800D02*
X80111600Y-36195000D01*
X15700000Y-45000000D02*
X25100000Y-54400000D01*
X64500000Y-53600000D02*
X64500000Y-41500000D01*
X13000000Y-10405000D02*
X15700000Y-13105000D01*
X25100000Y-54400000D02*
X63700000Y-54400000D01*
X15700000Y-13105000D02*
X15700000Y-45000000D01*
X80111600Y-36195000D02*
X80111600Y-36906200D01*
%TO.N,/GP16*%
X4100000Y-23000000D02*
X11900000Y-23000000D01*
X1700000Y-11300000D02*
X1700000Y-20600000D01*
X2600000Y-10400000D02*
X1700000Y-11300000D01*
X65100000Y-56900000D02*
X67000000Y-55000000D01*
X12700000Y-46200000D02*
X23400000Y-56900000D01*
X23400000Y-56900000D02*
X65100000Y-56900000D01*
X68900000Y-40800000D02*
X71000000Y-40800000D01*
X72839400Y-39200000D02*
X73660000Y-38379400D01*
X67000000Y-55000000D02*
X67000000Y-42700000D01*
X1700000Y-20600000D02*
X4100000Y-23000000D01*
X12700000Y-23800000D02*
X12700000Y-46200000D01*
X11900000Y-23000000D02*
X12700000Y-23800000D01*
X71000000Y-40800000D02*
X72600000Y-39200000D01*
X73660000Y-38379400D02*
X73660000Y-38176200D01*
X67000000Y-42700000D02*
X68900000Y-40800000D01*
X72600000Y-39200000D02*
X72839400Y-39200000D01*
%TO.N,/GP23*%
X68100000Y-38600000D02*
X70100000Y-38600000D01*
X78790800Y-36322000D02*
X79222600Y-36753800D01*
X65000000Y-41700000D02*
X68100000Y-38600000D01*
X24700000Y-54900000D02*
X64000000Y-54900000D01*
X65000000Y-53900000D02*
X65000000Y-41700000D01*
X64000000Y-54900000D02*
X65000000Y-53900000D01*
X15100000Y-15045000D02*
X15100000Y-45300000D01*
X72378000Y-36322000D02*
X78790800Y-36322000D01*
X70100000Y-38600000D02*
X72378000Y-36322000D01*
X15100000Y-45300000D02*
X24700000Y-54900000D01*
X13000000Y-12945000D02*
X15100000Y-15045000D01*
%TO.N,/GP17*%
X12400000Y-22400000D02*
X13300000Y-23300000D01*
X66500000Y-42400000D02*
X68600000Y-40300000D01*
X13300000Y-23300000D02*
X13300000Y-46000000D01*
X3000000Y-13000000D02*
X2300000Y-13700000D01*
X68600000Y-40300000D02*
X70600000Y-40300000D01*
X4400000Y-22400000D02*
X12400000Y-22400000D01*
X66500000Y-54700000D02*
X66500000Y-42400000D01*
X73200000Y-37700000D02*
X74000000Y-37700000D01*
X13300000Y-46000000D02*
X23700000Y-56400000D01*
X74000000Y-37700000D02*
X74396600Y-38096600D01*
X2300000Y-13700000D02*
X2300000Y-20300000D01*
X2300000Y-20300000D02*
X4400000Y-22400000D01*
X70600000Y-40300000D02*
X73200000Y-37700000D01*
X23700000Y-56400000D02*
X64800000Y-56400000D01*
X64800000Y-56400000D02*
X66500000Y-54700000D01*
X74396600Y-38096600D02*
X74396600Y-38100000D01*
%TO.N,/GP19*%
X70200000Y-39200000D02*
X68200000Y-39200000D01*
X65500000Y-54200000D02*
X64300000Y-55400000D01*
X76250800Y-37896800D02*
X75154000Y-36800000D01*
X64300000Y-55400000D02*
X24400000Y-55400000D01*
X14500000Y-45500000D02*
X14500000Y-17300000D01*
X14500000Y-17300000D02*
X14500000Y-17100000D01*
X68200000Y-39200000D02*
X65500000Y-41900000D01*
X14500000Y-16985000D02*
X14500000Y-17300000D01*
X75154000Y-36800000D02*
X72600000Y-36800000D01*
X13000000Y-15485000D02*
X14500000Y-16985000D01*
X72600000Y-36800000D02*
X70200000Y-39200000D01*
X65500000Y-41900000D02*
X65500000Y-54200000D01*
X24400000Y-55400000D02*
X14500000Y-45500000D01*
%TO.N,/GP18*%
X12700000Y-21800000D02*
X13900000Y-23000000D01*
X68350000Y-39800000D02*
X70400000Y-39800000D01*
X66000000Y-42150000D02*
X68350000Y-39800000D01*
X75046000Y-37846000D02*
X75438000Y-37846000D01*
X4700000Y-21800000D02*
X12700000Y-21800000D01*
X13900000Y-23000000D02*
X13900000Y-45800000D01*
X2900000Y-20000000D02*
X4700000Y-21800000D01*
X2900000Y-15500000D02*
X2900000Y-20000000D01*
X72900000Y-37300000D02*
X74500000Y-37300000D01*
X24000000Y-55900000D02*
X64500000Y-55900000D01*
X70400000Y-39800000D02*
X72900000Y-37300000D01*
X66000000Y-54400000D02*
X66000000Y-42150000D01*
X64500000Y-55900000D02*
X66000000Y-54400000D01*
X74500000Y-37300000D02*
X75046000Y-37846000D01*
X13900000Y-45800000D02*
X24000000Y-55900000D01*
%TD*%
%TA.AperFunction,Conductor*%
%TO.N,GND*%
G36*
X89958691Y-19407D02*
G01*
X89994655Y-68907D01*
X89999500Y-99500D01*
X89999500Y-93900500D01*
X89980593Y-93958691D01*
X89931093Y-93994655D01*
X89900500Y-93999500D01*
X79099500Y-93999500D01*
X79041309Y-93980593D01*
X79005345Y-93931093D01*
X79000500Y-93900500D01*
X79000500Y-93019787D01*
X79000527Y-93019651D01*
X79000539Y-93000002D01*
X79000541Y-93000000D01*
X79000383Y-92999617D01*
X79000382Y-92999616D01*
X79000100Y-92999500D01*
X79000001Y-92999459D01*
X78980418Y-92999459D01*
X78980212Y-92999500D01*
X68216389Y-92999500D01*
X68158198Y-92980593D01*
X68122234Y-92931093D01*
X68117389Y-92900667D01*
X68112485Y-89999759D01*
X68098004Y-81434713D01*
X68116813Y-81376494D01*
X68166252Y-81340446D01*
X68227437Y-81340343D01*
X68276998Y-81376223D01*
X68287282Y-81393917D01*
X68331722Y-81492657D01*
X68410310Y-81592967D01*
X69537033Y-82719690D01*
X69637343Y-82798278D01*
X69792468Y-82868095D01*
X69959794Y-82898758D01*
X70129596Y-82888486D01*
X70292006Y-82837878D01*
X70437585Y-82749872D01*
X70557872Y-82629585D01*
X70645878Y-82484006D01*
X70696486Y-82321596D01*
X70706758Y-82151794D01*
X70676095Y-81984468D01*
X70606278Y-81829343D01*
X70527690Y-81729033D01*
X69415095Y-80616438D01*
X69387319Y-80561922D01*
X69386100Y-80546435D01*
X69386100Y-76094421D01*
X69405007Y-76036230D01*
X69454507Y-76000266D01*
X69515693Y-76000266D01*
X69535868Y-76009430D01*
X69597637Y-76046336D01*
X69655828Y-76065243D01*
X69667882Y-76067152D01*
X69719326Y-76075300D01*
X69719330Y-76075300D01*
X79225196Y-76075300D01*
X79225200Y-76075300D01*
X79257344Y-76072770D01*
X79272640Y-76070347D01*
X79287938Y-76067925D01*
X79289074Y-76067731D01*
X79292487Y-76067152D01*
X79376583Y-76031208D01*
X79426083Y-75995244D01*
X79453828Y-75971003D01*
X79453829Y-75971000D01*
X79459694Y-75965877D01*
X79461279Y-75967691D01*
X79503225Y-75941333D01*
X79564272Y-75945446D01*
X79597423Y-75967327D01*
X81253614Y-77623518D01*
X81256023Y-77626105D01*
X81286751Y-77661567D01*
X81327671Y-77687865D01*
X81330291Y-77689671D01*
X81371914Y-77720391D01*
X81371916Y-77720391D01*
X81371918Y-77720393D01*
X81374875Y-77721427D01*
X81395724Y-77731599D01*
X81395731Y-77731604D01*
X81445691Y-77746273D01*
X81448028Y-77747024D01*
X81500101Y-77765246D01*
X81500103Y-77765246D01*
X81503240Y-77765840D01*
X81512970Y-77767425D01*
X81513019Y-77767092D01*
X81520028Y-77768100D01*
X81576359Y-77768100D01*
X81635810Y-77770325D01*
X81635816Y-77770323D01*
X81636397Y-77770258D01*
X81640714Y-77769373D01*
X81649572Y-77768100D01*
X81706550Y-77751370D01*
X81706549Y-77751370D01*
X81766987Y-77735176D01*
X81766992Y-77735172D01*
X81767231Y-77735068D01*
X81772497Y-77732228D01*
X81773854Y-77731608D01*
X81773869Y-77731604D01*
X81826418Y-77697832D01*
X81881975Y-77662924D01*
X81883143Y-77661567D01*
X81925792Y-77612007D01*
X81949177Y-77585017D01*
X81967682Y-77563663D01*
X81967682Y-77563661D01*
X81968858Y-77562305D01*
X81970401Y-77560235D01*
X81970550Y-77559996D01*
X81970558Y-77559988D01*
X81996183Y-77501253D01*
X82021497Y-77445826D01*
X82021498Y-77445818D01*
X82022940Y-77440906D01*
X82024768Y-77435875D01*
X82024863Y-77435520D01*
X82024865Y-77435516D01*
X82031694Y-77374897D01*
X82039933Y-77317600D01*
X82039933Y-77310514D01*
X82040550Y-77310514D01*
X82040510Y-77307971D01*
X82040347Y-77307978D01*
X82040070Y-77300563D01*
X82029297Y-77243625D01*
X82021498Y-77189378D01*
X82019502Y-77182580D01*
X82019570Y-77182559D01*
X82015056Y-77168357D01*
X82014824Y-77167129D01*
X81989844Y-77119865D01*
X81988581Y-77117299D01*
X81986750Y-77113291D01*
X81967682Y-77071537D01*
X81966425Y-77070086D01*
X81953721Y-77051519D01*
X81951366Y-77047063D01*
X81951364Y-77047061D01*
X81915984Y-77011680D01*
X81913576Y-77009094D01*
X81882851Y-76973634D01*
X81878053Y-76970551D01*
X81861575Y-76957272D01*
X80337096Y-75432793D01*
X80309319Y-75378276D01*
X80308100Y-75362789D01*
X80308100Y-73242101D01*
X80309108Y-73228010D01*
X80312733Y-73202800D01*
X80308577Y-73173897D01*
X80308214Y-73170570D01*
X80308100Y-73169055D01*
X80308100Y-73169038D01*
X80303303Y-73137214D01*
X80294297Y-73074574D01*
X80294296Y-73074572D01*
X80294272Y-73074403D01*
X80293023Y-73068756D01*
X80292948Y-73068514D01*
X80292552Y-73067692D01*
X80265486Y-73011488D01*
X80247224Y-72971500D01*
X80240483Y-72956738D01*
X80236685Y-72950828D01*
X80234290Y-72946548D01*
X80234024Y-72946157D01*
X80217543Y-72928395D01*
X80193054Y-72902002D01*
X80155649Y-72858833D01*
X80155647Y-72858832D01*
X80155645Y-72858829D01*
X80150299Y-72854196D01*
X80150605Y-72853842D01*
X80147469Y-72851215D01*
X80147456Y-72851232D01*
X80141656Y-72846607D01*
X80141655Y-72846606D01*
X80093165Y-72818610D01*
X80091154Y-72817384D01*
X80046669Y-72788796D01*
X80042482Y-72786884D01*
X80025957Y-72779808D01*
X80024045Y-72778704D01*
X80001835Y-72773634D01*
X79972756Y-72766997D01*
X79969832Y-72766235D01*
X79961229Y-72763709D01*
X79922376Y-72752300D01*
X79922372Y-72752300D01*
X79919516Y-72752300D01*
X79897487Y-72749818D01*
X79891644Y-72748484D01*
X79842590Y-72752161D01*
X79838889Y-72752300D01*
X79792824Y-72752300D01*
X79786455Y-72754171D01*
X79765967Y-72757903D01*
X79756223Y-72758633D01*
X79713606Y-72775358D01*
X79709469Y-72776774D01*
X79668530Y-72788796D01*
X79668524Y-72788798D01*
X79659761Y-72794430D01*
X79642416Y-72803298D01*
X79629807Y-72808247D01*
X79629802Y-72808250D01*
X79596678Y-72834665D01*
X79592577Y-72837606D01*
X79567704Y-72853593D01*
X79508530Y-72869150D01*
X79451512Y-72846954D01*
X79439625Y-72835449D01*
X79425405Y-72819174D01*
X79425404Y-72819173D01*
X79425403Y-72819172D01*
X79346893Y-72772264D01*
X79346891Y-72772263D01*
X79346889Y-72772262D01*
X79288699Y-72753356D01*
X79288700Y-72753356D01*
X79225203Y-72743300D01*
X79225200Y-72743300D01*
X76685541Y-72743300D01*
X76627350Y-72724393D01*
X76614064Y-72712799D01*
X76204423Y-72285346D01*
X76177812Y-72230250D01*
X76176900Y-72216847D01*
X76176900Y-70949198D01*
X76176623Y-70940087D01*
X76176623Y-70940086D01*
X76162455Y-70871097D01*
X76140058Y-70814159D01*
X76107453Y-70758745D01*
X76105697Y-70756613D01*
X76023609Y-70656935D01*
X76001212Y-70599997D01*
X76016560Y-70540767D01*
X76063790Y-70501871D01*
X76100030Y-70495000D01*
X77641647Y-70495000D01*
X77699838Y-70513907D01*
X77716466Y-70529169D01*
X77756149Y-70574965D01*
X77756151Y-70574967D01*
X77844138Y-70631513D01*
X77865131Y-70645004D01*
X77989428Y-70681500D01*
X77989430Y-70681500D01*
X78118970Y-70681500D01*
X78118972Y-70681500D01*
X78243269Y-70645004D01*
X78352249Y-70574967D01*
X78437082Y-70477063D01*
X78490897Y-70359226D01*
X78509333Y-70231000D01*
X78490897Y-70102774D01*
X78437082Y-69984937D01*
X78352249Y-69887033D01*
X78352248Y-69887032D01*
X78352247Y-69887031D01*
X78243273Y-69816998D01*
X78243270Y-69816996D01*
X78243269Y-69816996D01*
X78243266Y-69816995D01*
X78118974Y-69780500D01*
X78118972Y-69780500D01*
X77989428Y-69780500D01*
X77989425Y-69780500D01*
X77865133Y-69816995D01*
X77865126Y-69816998D01*
X77756151Y-69887032D01*
X77756149Y-69887034D01*
X77716466Y-69932831D01*
X77664070Y-69964427D01*
X77641647Y-69967000D01*
X71638353Y-69967000D01*
X71619040Y-69965098D01*
X71602600Y-69961828D01*
X71576598Y-69967000D01*
X71499592Y-69982316D01*
X71473600Y-69999684D01*
X71432271Y-70027299D01*
X71432262Y-70027305D01*
X71412267Y-70040666D01*
X71402956Y-70054600D01*
X71390647Y-70069597D01*
X71003712Y-70456534D01*
X70875509Y-70584738D01*
X70875510Y-70584738D01*
X70828735Y-70631513D01*
X70425202Y-71035044D01*
X70410206Y-71047352D01*
X70396269Y-71056665D01*
X70396266Y-71056668D01*
X70373380Y-71090918D01*
X70337917Y-71143991D01*
X70337916Y-71143994D01*
X70317428Y-71247000D01*
X70320698Y-71263440D01*
X70322600Y-71282753D01*
X70322600Y-72250717D01*
X70303693Y-72308908D01*
X70288967Y-72324952D01*
X70203717Y-72423338D01*
X70149902Y-72541174D01*
X70131467Y-72669397D01*
X70131467Y-72669402D01*
X70149902Y-72797625D01*
X70182567Y-72869150D01*
X70203718Y-72915463D01*
X70286923Y-73011488D01*
X70288552Y-73013368D01*
X70374738Y-73068756D01*
X70397531Y-73083404D01*
X70521828Y-73119900D01*
X70521830Y-73119900D01*
X70651370Y-73119900D01*
X70651372Y-73119900D01*
X70775669Y-73083404D01*
X70884649Y-73013367D01*
X70969482Y-72915463D01*
X71023297Y-72797626D01*
X71041733Y-72669400D01*
X71038784Y-72648891D01*
X71023297Y-72541174D01*
X71010881Y-72513987D01*
X70969482Y-72423337D01*
X70884649Y-72325433D01*
X70884648Y-72325432D01*
X70880012Y-72320082D01*
X70880975Y-72319247D01*
X70853172Y-72273135D01*
X70850600Y-72250717D01*
X70850600Y-71397359D01*
X70869507Y-71339168D01*
X70879590Y-71327361D01*
X71248862Y-70958090D01*
X71248861Y-70958090D01*
X71682956Y-70523996D01*
X71737473Y-70496219D01*
X71752960Y-70495000D01*
X73356523Y-70495000D01*
X73414714Y-70513907D01*
X73450678Y-70563407D01*
X73455519Y-70593057D01*
X73478691Y-73026132D01*
X73460338Y-73084500D01*
X73449699Y-73097079D01*
X73223746Y-73323032D01*
X73169229Y-73350809D01*
X73153059Y-73352026D01*
X69754084Y-73328584D01*
X69698183Y-73328199D01*
X69698182Y-73328199D01*
X69664210Y-73330789D01*
X69664209Y-73330789D01*
X69658037Y-73331779D01*
X69631919Y-73335970D01*
X69625585Y-73337088D01*
X69541879Y-73373947D01*
X69537075Y-73376743D01*
X69536053Y-73374987D01*
X69486167Y-73391793D01*
X69427776Y-73373514D01*
X69391281Y-73324405D01*
X69386100Y-73292799D01*
X69386100Y-59032285D01*
X69386411Y-59026738D01*
X69386667Y-59024469D01*
X69390870Y-58987165D01*
X69381925Y-58939888D01*
X69379810Y-58928710D01*
X69377593Y-58914001D01*
X69370948Y-58869913D01*
X69370947Y-58869910D01*
X69368762Y-58862826D01*
X69369183Y-58862695D01*
X69368489Y-58860586D01*
X69368074Y-58860732D01*
X69365623Y-58853727D01*
X69337822Y-58801126D01*
X69312026Y-58747560D01*
X69307846Y-58741429D01*
X69308210Y-58741180D01*
X69306924Y-58739369D01*
X69306570Y-58739631D01*
X69302166Y-58733663D01*
X69260116Y-58691613D01*
X69219656Y-58648006D01*
X69213858Y-58643383D01*
X69214132Y-58643039D01*
X69202997Y-58634494D01*
X67882301Y-57313798D01*
X67854524Y-57259281D01*
X67854152Y-57256713D01*
X67853323Y-57250414D01*
X67852030Y-57240591D01*
X67796561Y-57106675D01*
X67708321Y-56991679D01*
X67593325Y-56903439D01*
X67593321Y-56903437D01*
X67459409Y-56847970D01*
X67459408Y-56847969D01*
X67315700Y-56829050D01*
X67315698Y-56829050D01*
X67292302Y-56832130D01*
X67232142Y-56820980D01*
X67190025Y-56776597D01*
X67182039Y-56715935D01*
X67209375Y-56663975D01*
X68161402Y-55711948D01*
X68176401Y-55699640D01*
X68190333Y-55690333D01*
X68200393Y-55675275D01*
X68200400Y-55675268D01*
X68238415Y-55618375D01*
X68248683Y-55603008D01*
X68264000Y-55526002D01*
X68264000Y-55526001D01*
X68269172Y-55500000D01*
X68265902Y-55483558D01*
X68264000Y-55464246D01*
X68264000Y-43450360D01*
X68282907Y-43392169D01*
X68292996Y-43380356D01*
X69180356Y-42492996D01*
X69234873Y-42465219D01*
X69250360Y-42464000D01*
X72464247Y-42464000D01*
X72483560Y-42465902D01*
X72500000Y-42469172D01*
X72603008Y-42448683D01*
X72668290Y-42405062D01*
X72688909Y-42391285D01*
X72688914Y-42391281D01*
X72690333Y-42390333D01*
X72699643Y-42376397D01*
X72711950Y-42361400D01*
X73021080Y-42052270D01*
X73075595Y-42024495D01*
X73136027Y-42034066D01*
X73165901Y-42057444D01*
X73234492Y-42136604D01*
X73248152Y-42152368D01*
X73357126Y-42222401D01*
X73357131Y-42222404D01*
X73481428Y-42258900D01*
X73481430Y-42258900D01*
X73610970Y-42258900D01*
X73610972Y-42258900D01*
X73735269Y-42222404D01*
X73844249Y-42152367D01*
X73858806Y-42135566D01*
X73883934Y-42106569D01*
X73936330Y-42074973D01*
X73958753Y-42072400D01*
X82726853Y-42072400D01*
X82785044Y-42091307D01*
X82821008Y-42140807D01*
X82821008Y-42201993D01*
X82809168Y-42226402D01*
X82783917Y-42264191D01*
X82783916Y-42264194D01*
X82763428Y-42367200D01*
X82766698Y-42383640D01*
X82768600Y-42402953D01*
X82768600Y-44228997D01*
X82749693Y-44287188D01*
X82700193Y-44323152D01*
X82639007Y-44323152D01*
X82614598Y-44311312D01*
X82599400Y-44301157D01*
X82584398Y-44288846D01*
X81720551Y-43424999D01*
X81708245Y-43410004D01*
X81698933Y-43396067D01*
X81693099Y-43392169D01*
X81611608Y-43337717D01*
X81611605Y-43337716D01*
X81534602Y-43322400D01*
X81508600Y-43317228D01*
X81508599Y-43317228D01*
X81492160Y-43320498D01*
X81472847Y-43322400D01*
X77128456Y-43322400D01*
X77074933Y-43306684D01*
X77024073Y-43273998D01*
X77024070Y-43273996D01*
X77024069Y-43273996D01*
X77024066Y-43273995D01*
X76899774Y-43237500D01*
X76899772Y-43237500D01*
X76770228Y-43237500D01*
X76770225Y-43237500D01*
X76645933Y-43273995D01*
X76645926Y-43273998D01*
X76536952Y-43344031D01*
X76452117Y-43441938D01*
X76398302Y-43559774D01*
X76379867Y-43687997D01*
X76379867Y-43688002D01*
X76398302Y-43816225D01*
X76440340Y-43908274D01*
X76452118Y-43934063D01*
X76531900Y-44026138D01*
X76536952Y-44031968D01*
X76645926Y-44102001D01*
X76645931Y-44102004D01*
X76770228Y-44138500D01*
X76770230Y-44138500D01*
X76899770Y-44138500D01*
X76899772Y-44138500D01*
X77024069Y-44102004D01*
X77133049Y-44031967D01*
X77217882Y-43934063D01*
X77229660Y-43908272D01*
X77271032Y-43863196D01*
X77319713Y-43850400D01*
X80985015Y-43850400D01*
X81043206Y-43869307D01*
X81079170Y-43918807D01*
X81079170Y-43979993D01*
X81059836Y-44014229D01*
X81051531Y-44023813D01*
X81049517Y-44026138D01*
X80995702Y-44143974D01*
X80977267Y-44272197D01*
X80977267Y-44272202D01*
X80995702Y-44400425D01*
X80997697Y-44407219D01*
X80995712Y-44407801D01*
X81001560Y-44458766D01*
X80974536Y-44509110D01*
X79742710Y-45740936D01*
X79727713Y-45753244D01*
X79713779Y-45762555D01*
X79713776Y-45762558D01*
X79690890Y-45796808D01*
X79655427Y-45849881D01*
X79655426Y-45849884D01*
X79634938Y-45952890D01*
X79638208Y-45969330D01*
X79640110Y-45988643D01*
X79640110Y-49545455D01*
X79621203Y-49603646D01*
X79571703Y-49639610D01*
X79535462Y-49642725D01*
X79535462Y-49643644D01*
X79531165Y-49643644D01*
X79529829Y-49643210D01*
X79527039Y-49643450D01*
X79521391Y-49642639D01*
X79521688Y-49640565D01*
X79472974Y-49624737D01*
X79437010Y-49575237D01*
X79433172Y-49558731D01*
X79431898Y-49549868D01*
X79378083Y-49432031D01*
X79293250Y-49334127D01*
X79293249Y-49334126D01*
X79293248Y-49334125D01*
X79184274Y-49264092D01*
X79184271Y-49264090D01*
X79184270Y-49264090D01*
X79184267Y-49264089D01*
X79059975Y-49227594D01*
X79059973Y-49227594D01*
X78930429Y-49227594D01*
X78930426Y-49227594D01*
X78806134Y-49264089D01*
X78806128Y-49264091D01*
X78775522Y-49283761D01*
X78716346Y-49299314D01*
X78659330Y-49277115D01*
X78626252Y-49225642D01*
X78623000Y-49200476D01*
X78623000Y-48407482D01*
X78641907Y-48349291D01*
X78656647Y-48333230D01*
X78657047Y-48332768D01*
X78657049Y-48332767D01*
X78741882Y-48234863D01*
X78795697Y-48117026D01*
X78814133Y-47988800D01*
X78813130Y-47981826D01*
X78795697Y-47860574D01*
X78764522Y-47792311D01*
X78741882Y-47742737D01*
X78657049Y-47644833D01*
X78657048Y-47644832D01*
X78657047Y-47644831D01*
X78548073Y-47574798D01*
X78548070Y-47574796D01*
X78548069Y-47574796D01*
X78548066Y-47574795D01*
X78423774Y-47538300D01*
X78423772Y-47538300D01*
X78294228Y-47538300D01*
X78294225Y-47538300D01*
X78169933Y-47574795D01*
X78169926Y-47574798D01*
X78060952Y-47644831D01*
X77976117Y-47742738D01*
X77922302Y-47860574D01*
X77903867Y-47988797D01*
X77903867Y-47988802D01*
X77922302Y-48117025D01*
X77942048Y-48160261D01*
X77976118Y-48234863D01*
X78003704Y-48266700D01*
X78065588Y-48338118D01*
X78064625Y-48338952D01*
X78092428Y-48385062D01*
X78095000Y-48407482D01*
X78095000Y-49633639D01*
X78076093Y-49691830D01*
X78066004Y-49703643D01*
X74844800Y-52924846D01*
X74829803Y-52937154D01*
X74815869Y-52946465D01*
X74815866Y-52946468D01*
X74792980Y-52980718D01*
X74757517Y-53033791D01*
X74757516Y-53033794D01*
X74755098Y-53045952D01*
X74725202Y-53099336D01*
X74669637Y-53124953D01*
X74609627Y-53113016D01*
X74568094Y-53068087D01*
X74559000Y-53026639D01*
X74559000Y-51498082D01*
X74577907Y-51439891D01*
X74592647Y-51423830D01*
X74593047Y-51423368D01*
X74593049Y-51423367D01*
X74677882Y-51325463D01*
X74731697Y-51207626D01*
X74742232Y-51134356D01*
X74750133Y-51079402D01*
X74750133Y-51079397D01*
X74731697Y-50951174D01*
X74731696Y-50951173D01*
X74677882Y-50833337D01*
X74593049Y-50735433D01*
X74593048Y-50735432D01*
X74593047Y-50735431D01*
X74484069Y-50665396D01*
X74483938Y-50665336D01*
X74483848Y-50665254D01*
X74478113Y-50661568D01*
X74478751Y-50660574D01*
X74438864Y-50623959D01*
X74426719Y-50563991D01*
X74452142Y-50508338D01*
X74455070Y-50505282D01*
X74527757Y-50432596D01*
X74582274Y-50404819D01*
X74597760Y-50403600D01*
X75152447Y-50403600D01*
X75210638Y-50422507D01*
X75227266Y-50437769D01*
X75266949Y-50483565D01*
X75266951Y-50483567D01*
X75305733Y-50508491D01*
X75375931Y-50553604D01*
X75500228Y-50590100D01*
X75500230Y-50590100D01*
X75629770Y-50590100D01*
X75629772Y-50590100D01*
X75754069Y-50553604D01*
X75863049Y-50483567D01*
X75947882Y-50385663D01*
X76001697Y-50267826D01*
X76014304Y-50180144D01*
X76020133Y-50139602D01*
X76020133Y-50139597D01*
X76001697Y-50011374D01*
X75967908Y-49937388D01*
X75947882Y-49893537D01*
X75863049Y-49795633D01*
X75863048Y-49795632D01*
X75863047Y-49795631D01*
X75754073Y-49725598D01*
X75754070Y-49725596D01*
X75754069Y-49725596D01*
X75754066Y-49725595D01*
X75629774Y-49689100D01*
X75629772Y-49689100D01*
X75500228Y-49689100D01*
X75500225Y-49689100D01*
X75375933Y-49725595D01*
X75375926Y-49725598D01*
X75266951Y-49795632D01*
X75266949Y-49795634D01*
X75227266Y-49841431D01*
X75174870Y-49873027D01*
X75152447Y-49875600D01*
X74483148Y-49875600D01*
X74463835Y-49873698D01*
X74447400Y-49870429D01*
X74447399Y-49870429D01*
X74426227Y-49874639D01*
X74426219Y-49874641D01*
X74344394Y-49890916D01*
X74344391Y-49890917D01*
X74255802Y-49950112D01*
X74196914Y-49966721D01*
X74139510Y-49945544D01*
X74105517Y-49894670D01*
X74101800Y-49867797D01*
X74101800Y-49694682D01*
X74120707Y-49636491D01*
X74135447Y-49620430D01*
X74135847Y-49619968D01*
X74135849Y-49619967D01*
X74220682Y-49522063D01*
X74274497Y-49404226D01*
X74292933Y-49276000D01*
X74291220Y-49264089D01*
X74274497Y-49147774D01*
X74274497Y-49147773D01*
X74220682Y-49029937D01*
X74213806Y-49022002D01*
X75414667Y-49022002D01*
X75433102Y-49150225D01*
X75485104Y-49264091D01*
X75486918Y-49268063D01*
X75544162Y-49334127D01*
X75571752Y-49365968D01*
X75674549Y-49432031D01*
X75680731Y-49436004D01*
X75805028Y-49472500D01*
X75805030Y-49472500D01*
X75934570Y-49472500D01*
X75934572Y-49472500D01*
X76058869Y-49436004D01*
X76167849Y-49365967D01*
X76252682Y-49268063D01*
X76306497Y-49150226D01*
X76324933Y-49022000D01*
X76321705Y-48999551D01*
X76332137Y-48939263D01*
X76349690Y-48915460D01*
X77098001Y-48167149D01*
X77112991Y-48154848D01*
X77126933Y-48145533D01*
X77185283Y-48058208D01*
X77200600Y-47981202D01*
X77200600Y-47981198D01*
X77205771Y-47955200D01*
X77202501Y-47938760D01*
X77200600Y-47919461D01*
X77200600Y-47713481D01*
X77219508Y-47655291D01*
X77234246Y-47639230D01*
X77234644Y-47638769D01*
X77234649Y-47638767D01*
X77319482Y-47540863D01*
X77373297Y-47423026D01*
X77388191Y-47319437D01*
X77391733Y-47294802D01*
X77391733Y-47294797D01*
X77373297Y-47166574D01*
X77342817Y-47099833D01*
X77319482Y-47048737D01*
X77234649Y-46950833D01*
X77234648Y-46950832D01*
X77234647Y-46950831D01*
X77125673Y-46880798D01*
X77125670Y-46880796D01*
X77125669Y-46880796D01*
X77107336Y-46875413D01*
X77001374Y-46844300D01*
X77001372Y-46844300D01*
X76871828Y-46844300D01*
X76871825Y-46844300D01*
X76747533Y-46880795D01*
X76747526Y-46880798D01*
X76638552Y-46950831D01*
X76553717Y-47048738D01*
X76499902Y-47166574D01*
X76481467Y-47294797D01*
X76481467Y-47294802D01*
X76499902Y-47423025D01*
X76553717Y-47540863D01*
X76553718Y-47540863D01*
X76611491Y-47607538D01*
X76643188Y-47644118D01*
X76642225Y-47644952D01*
X76670028Y-47691062D01*
X76672600Y-47713483D01*
X76672599Y-47804840D01*
X76653691Y-47863031D01*
X76643603Y-47874843D01*
X75975943Y-48542504D01*
X75921426Y-48570281D01*
X75905939Y-48571500D01*
X75805025Y-48571500D01*
X75680733Y-48607995D01*
X75680726Y-48607998D01*
X75571752Y-48678031D01*
X75486917Y-48775938D01*
X75433102Y-48893774D01*
X75414667Y-49021997D01*
X75414667Y-49022002D01*
X74213806Y-49022002D01*
X74135849Y-48932033D01*
X74135848Y-48932032D01*
X74135847Y-48932031D01*
X74026873Y-48861998D01*
X74026870Y-48861996D01*
X74026869Y-48861996D01*
X74026866Y-48861995D01*
X73902574Y-48825500D01*
X73902572Y-48825500D01*
X73773028Y-48825500D01*
X73773025Y-48825500D01*
X73648733Y-48861995D01*
X73648726Y-48861998D01*
X73539752Y-48932031D01*
X73454917Y-49029938D01*
X73401102Y-49147774D01*
X73382667Y-49275997D01*
X73382667Y-49276002D01*
X73401102Y-49404225D01*
X73454918Y-49522063D01*
X73544388Y-49625318D01*
X73543425Y-49626152D01*
X73571228Y-49672262D01*
X73573800Y-49694682D01*
X73573800Y-49811439D01*
X73554893Y-49869630D01*
X73544804Y-49881443D01*
X72019244Y-51407004D01*
X71964727Y-51434781D01*
X71949240Y-51436000D01*
X71412553Y-51436000D01*
X71354362Y-51417093D01*
X71337734Y-51401831D01*
X71298050Y-51356034D01*
X71298048Y-51356032D01*
X71189073Y-51285998D01*
X71189070Y-51285996D01*
X71189069Y-51285996D01*
X71189066Y-51285995D01*
X71064774Y-51249500D01*
X71064772Y-51249500D01*
X70935228Y-51249500D01*
X70935225Y-51249500D01*
X70810933Y-51285995D01*
X70810926Y-51285998D01*
X70701952Y-51356031D01*
X70617117Y-51453938D01*
X70563302Y-51571774D01*
X70544867Y-51699997D01*
X70544867Y-51700002D01*
X70563302Y-51828225D01*
X70598393Y-51905061D01*
X70617118Y-51946063D01*
X70701949Y-52043965D01*
X70701952Y-52043968D01*
X70810926Y-52114001D01*
X70810931Y-52114004D01*
X70935228Y-52150500D01*
X70935230Y-52150500D01*
X71064770Y-52150500D01*
X71064772Y-52150500D01*
X71189069Y-52114004D01*
X71298049Y-52043967D01*
X71312606Y-52027166D01*
X71337734Y-51998169D01*
X71390130Y-51966573D01*
X71412553Y-51964000D01*
X72010640Y-51964000D01*
X72068831Y-51982907D01*
X72104795Y-52032407D01*
X72104795Y-52093593D01*
X72080644Y-52133004D01*
X71306644Y-52907004D01*
X71252127Y-52934781D01*
X71236640Y-52936000D01*
X71212553Y-52936000D01*
X71154362Y-52917093D01*
X71137734Y-52901831D01*
X71098050Y-52856034D01*
X71098048Y-52856032D01*
X70989073Y-52785998D01*
X70989070Y-52785996D01*
X70989069Y-52785996D01*
X70989066Y-52785995D01*
X70864774Y-52749500D01*
X70864772Y-52749500D01*
X70735228Y-52749500D01*
X70735225Y-52749500D01*
X70610933Y-52785995D01*
X70610926Y-52785998D01*
X70501952Y-52856031D01*
X70417117Y-52953938D01*
X70363302Y-53071774D01*
X70344867Y-53199997D01*
X70344867Y-53200002D01*
X70363302Y-53328225D01*
X70407020Y-53423952D01*
X70417118Y-53446063D01*
X70492346Y-53532882D01*
X70501952Y-53543968D01*
X70610926Y-53614001D01*
X70610931Y-53614004D01*
X70735228Y-53650500D01*
X70735230Y-53650500D01*
X70864770Y-53650500D01*
X70864772Y-53650500D01*
X70989069Y-53614004D01*
X71098049Y-53543967D01*
X71120836Y-53517669D01*
X71137734Y-53498169D01*
X71190130Y-53466573D01*
X71212553Y-53464000D01*
X71351247Y-53464000D01*
X71370560Y-53465902D01*
X71387000Y-53469172D01*
X71490008Y-53448683D01*
X71555290Y-53405062D01*
X71575909Y-53391285D01*
X71575914Y-53391281D01*
X71577333Y-53390333D01*
X71586643Y-53376397D01*
X71598950Y-53361400D01*
X73724380Y-51235970D01*
X73778895Y-51208195D01*
X73839327Y-51217766D01*
X73882592Y-51261031D01*
X73884435Y-51264848D01*
X73912118Y-51325464D01*
X74001588Y-51428718D01*
X74000625Y-51429552D01*
X74028428Y-51475662D01*
X74031000Y-51498082D01*
X74031000Y-53354640D01*
X74012093Y-53412831D01*
X74002004Y-53424644D01*
X71706144Y-55720504D01*
X71651627Y-55748281D01*
X71636140Y-55749500D01*
X71635225Y-55749500D01*
X71510933Y-55785995D01*
X71510926Y-55785998D01*
X71401952Y-55856031D01*
X71317117Y-55953938D01*
X71263302Y-56071774D01*
X71244867Y-56199997D01*
X71244867Y-56200002D01*
X71263302Y-56328225D01*
X71317118Y-56446063D01*
X71351003Y-56485170D01*
X71374820Y-56541530D01*
X71360961Y-56601125D01*
X71351003Y-56614830D01*
X71317118Y-56653936D01*
X71263302Y-56771774D01*
X71244867Y-56899997D01*
X71244867Y-56900002D01*
X71263302Y-57028225D01*
X71298393Y-57105061D01*
X71317118Y-57146063D01*
X71375588Y-57213542D01*
X71394328Y-57235169D01*
X71418145Y-57291529D01*
X71404286Y-57351124D01*
X71394330Y-57364828D01*
X71342986Y-57424083D01*
X71317117Y-57453938D01*
X71263302Y-57571774D01*
X71244867Y-57699997D01*
X71244867Y-57700002D01*
X71263302Y-57828225D01*
X71314921Y-57941252D01*
X71317118Y-57946063D01*
X71394328Y-58035169D01*
X71418145Y-58091529D01*
X71404286Y-58151124D01*
X71394330Y-58164828D01*
X71354086Y-58211273D01*
X71317117Y-58253938D01*
X71263302Y-58371774D01*
X71244867Y-58499997D01*
X71244867Y-58500002D01*
X71263302Y-58628225D01*
X71317117Y-58746061D01*
X71317118Y-58746063D01*
X71382331Y-58821324D01*
X71401952Y-58843968D01*
X71510926Y-58914001D01*
X71510931Y-58914004D01*
X71635228Y-58950500D01*
X71635230Y-58950500D01*
X71766663Y-58950500D01*
X71824854Y-58969407D01*
X71860818Y-59018907D01*
X71861471Y-59064356D01*
X71864310Y-59064765D01*
X71844867Y-59199997D01*
X71844867Y-59200002D01*
X71863302Y-59328225D01*
X71910160Y-59430828D01*
X71917118Y-59446063D01*
X71984306Y-59523603D01*
X72001952Y-59543968D01*
X72110926Y-59614001D01*
X72110931Y-59614004D01*
X72235228Y-59650500D01*
X72235230Y-59650500D01*
X72364770Y-59650500D01*
X72364772Y-59650500D01*
X72489069Y-59614004D01*
X72598049Y-59543967D01*
X72682882Y-59446063D01*
X72736697Y-59328226D01*
X72755133Y-59200000D01*
X72736697Y-59071774D01*
X72682882Y-58953937D01*
X72598049Y-58856033D01*
X72598048Y-58856032D01*
X72593412Y-58850682D01*
X72594375Y-58849847D01*
X72566572Y-58803735D01*
X72564000Y-58781317D01*
X72564000Y-58650360D01*
X72582907Y-58592169D01*
X72592996Y-58580356D01*
X74085957Y-57087396D01*
X74140474Y-57059619D01*
X74155961Y-57058400D01*
X75876037Y-57058400D01*
X75934228Y-57077307D01*
X75970192Y-57126807D01*
X75974029Y-57171490D01*
X75973467Y-57175398D01*
X75973467Y-57175402D01*
X75991902Y-57303625D01*
X76026993Y-57380461D01*
X76045718Y-57421463D01*
X76130549Y-57519365D01*
X76130552Y-57519368D01*
X76212098Y-57571774D01*
X76239531Y-57589404D01*
X76363828Y-57625900D01*
X76363830Y-57625900D01*
X76493370Y-57625900D01*
X76493372Y-57625900D01*
X76617669Y-57589404D01*
X76726649Y-57519367D01*
X76754455Y-57487277D01*
X76766334Y-57473569D01*
X76818730Y-57441973D01*
X76841153Y-57439400D01*
X77676233Y-57439400D01*
X77734424Y-57458307D01*
X77770388Y-57507807D01*
X77770388Y-57568993D01*
X77751054Y-57603228D01*
X77731411Y-57625899D01*
X77696717Y-57665938D01*
X77642902Y-57783774D01*
X77624467Y-57911997D01*
X77624467Y-57912002D01*
X77642902Y-58040225D01*
X77672513Y-58105062D01*
X77696718Y-58158063D01*
X77779792Y-58253937D01*
X77781552Y-58255968D01*
X77890526Y-58326001D01*
X77890531Y-58326004D01*
X78014828Y-58362500D01*
X78014830Y-58362500D01*
X78144370Y-58362500D01*
X78144372Y-58362500D01*
X78268669Y-58326004D01*
X78377649Y-58255967D01*
X78403198Y-58226482D01*
X78417334Y-58210169D01*
X78469730Y-58178573D01*
X78492153Y-58176000D01*
X81320447Y-58176000D01*
X81339760Y-58177902D01*
X81356200Y-58181172D01*
X81459208Y-58160683D01*
X81524490Y-58117062D01*
X81545109Y-58103285D01*
X81545114Y-58103281D01*
X81546533Y-58102333D01*
X81555843Y-58088397D01*
X81568150Y-58073400D01*
X82863801Y-56777749D01*
X82878791Y-56765448D01*
X82892733Y-56756133D01*
X82951083Y-56668808D01*
X82966400Y-56591802D01*
X82966400Y-56591798D01*
X82971571Y-56565800D01*
X82971570Y-56565797D01*
X82968302Y-56549363D01*
X82966400Y-56530051D01*
X82966400Y-53006912D01*
X82985307Y-52948721D01*
X83034807Y-52912757D01*
X83095993Y-52912757D01*
X83135404Y-52936908D01*
X84077105Y-53878609D01*
X84104881Y-53933124D01*
X84106100Y-53948611D01*
X84106100Y-55259284D01*
X84103618Y-55281313D01*
X84102285Y-55287154D01*
X84102284Y-55287154D01*
X84105961Y-55336209D01*
X84106100Y-55339910D01*
X84106100Y-57785988D01*
X84087193Y-57844179D01*
X84077104Y-57855992D01*
X81706593Y-60226504D01*
X81652076Y-60254281D01*
X81636589Y-60255500D01*
X81092900Y-60255500D01*
X81034709Y-60236593D01*
X80998745Y-60187093D01*
X80993900Y-60156500D01*
X80993900Y-59170501D01*
X80994908Y-59156410D01*
X80998533Y-59131200D01*
X80994377Y-59102297D01*
X80994014Y-59098970D01*
X80993900Y-59097455D01*
X80993900Y-59097438D01*
X80989103Y-59065614D01*
X80980097Y-59002974D01*
X80980096Y-59002971D01*
X80980072Y-59002803D01*
X80978823Y-58997156D01*
X80978748Y-58996914D01*
X80975152Y-58989447D01*
X80951286Y-58939888D01*
X80951285Y-58939888D01*
X80926283Y-58885138D01*
X80922485Y-58879228D01*
X80920090Y-58874948D01*
X80919824Y-58874557D01*
X80908939Y-58862826D01*
X80878854Y-58830402D01*
X80841449Y-58787233D01*
X80841447Y-58787232D01*
X80841445Y-58787229D01*
X80836099Y-58782596D01*
X80836405Y-58782242D01*
X80833269Y-58779615D01*
X80833256Y-58779632D01*
X80827456Y-58775007D01*
X80827455Y-58775006D01*
X80778965Y-58747010D01*
X80776954Y-58745784D01*
X80732469Y-58717196D01*
X80728282Y-58715284D01*
X80711757Y-58708208D01*
X80709845Y-58707104D01*
X80687635Y-58702034D01*
X80658556Y-58695397D01*
X80655632Y-58694635D01*
X80645340Y-58691613D01*
X80608176Y-58680700D01*
X80608172Y-58680700D01*
X80605316Y-58680700D01*
X80583287Y-58678218D01*
X80577444Y-58676884D01*
X80528390Y-58680561D01*
X80524689Y-58680700D01*
X80478624Y-58680700D01*
X80472255Y-58682571D01*
X80451767Y-58686303D01*
X80442023Y-58687033D01*
X80399406Y-58703758D01*
X80395269Y-58705174D01*
X80354330Y-58717196D01*
X80354324Y-58717198D01*
X80345561Y-58722830D01*
X80328216Y-58731698D01*
X80315607Y-58736647D01*
X80315602Y-58736650D01*
X80282478Y-58763065D01*
X80278377Y-58766006D01*
X80245349Y-58787233D01*
X80236053Y-58797962D01*
X80222967Y-58810525D01*
X80209431Y-58821320D01*
X80209427Y-58821324D01*
X80187477Y-58853516D01*
X80183988Y-58858047D01*
X80160518Y-58885135D01*
X80160517Y-58885137D01*
X80153058Y-58901469D01*
X80144807Y-58916102D01*
X80132928Y-58933526D01*
X80132927Y-58933528D01*
X80122446Y-58967503D01*
X80120171Y-58973479D01*
X80106703Y-59002971D01*
X80103612Y-59024469D01*
X80100223Y-59039550D01*
X80092901Y-59063290D01*
X80092900Y-59063300D01*
X80092900Y-59091897D01*
X80091892Y-59105986D01*
X80088267Y-59131198D01*
X80088267Y-59131200D01*
X80091892Y-59156410D01*
X80092900Y-59170501D01*
X80092900Y-60122789D01*
X80073993Y-60180980D01*
X80063904Y-60192793D01*
X80030193Y-60226504D01*
X79975676Y-60254281D01*
X79960189Y-60255500D01*
X75034287Y-60255500D01*
X75028741Y-60255189D01*
X74989165Y-60250730D01*
X74989161Y-60250730D01*
X74973076Y-60253774D01*
X74954672Y-60255500D01*
X74941427Y-60255500D01*
X74911948Y-60264154D01*
X74905377Y-60265607D01*
X74885742Y-60268567D01*
X74871913Y-60270652D01*
X74871912Y-60270652D01*
X74871908Y-60270653D01*
X74864821Y-60272839D01*
X74864691Y-60272420D01*
X74862586Y-60273113D01*
X74862731Y-60273526D01*
X74855726Y-60275977D01*
X74844578Y-60281868D01*
X74826226Y-60289324D01*
X74817138Y-60291993D01*
X74817128Y-60291997D01*
X74788408Y-60310453D01*
X74783122Y-60313410D01*
X74749559Y-60329574D01*
X74743432Y-60333752D01*
X74743185Y-60333390D01*
X74741366Y-60334680D01*
X74741627Y-60335033D01*
X74735657Y-60339438D01*
X74729417Y-60345678D01*
X74712953Y-60358946D01*
X74708151Y-60362032D01*
X74683563Y-60390408D01*
X74679821Y-60394280D01*
X74650002Y-60421948D01*
X74645378Y-60427747D01*
X74645034Y-60427473D01*
X74636495Y-60438600D01*
X74478900Y-60596194D01*
X74474758Y-60599896D01*
X74456717Y-60614283D01*
X74399433Y-60635781D01*
X74340453Y-60619504D01*
X74324988Y-60606885D01*
X74125402Y-60407298D01*
X74121700Y-60403155D01*
X74118863Y-60399597D01*
X74096879Y-60372030D01*
X74047728Y-60338519D01*
X73999882Y-60303207D01*
X73999879Y-60303205D01*
X73993322Y-60299740D01*
X73993526Y-60299352D01*
X73991544Y-60298352D01*
X73991355Y-60298746D01*
X73984673Y-60295528D01*
X73927822Y-60277992D01*
X73871700Y-60258354D01*
X73864414Y-60256976D01*
X73864495Y-60256544D01*
X73862302Y-60256171D01*
X73862237Y-60256605D01*
X73854903Y-60255500D01*
X73854902Y-60255500D01*
X73795427Y-60255500D01*
X73762848Y-60254281D01*
X73735990Y-60253276D01*
X73735989Y-60253276D01*
X73735988Y-60253276D01*
X73728615Y-60254107D01*
X73728565Y-60253668D01*
X73714656Y-60255500D01*
X72521665Y-60255500D01*
X72463474Y-60236593D01*
X72462877Y-60236155D01*
X72450484Y-60227008D01*
X72450478Y-60227005D01*
X72447513Y-60225968D01*
X72426686Y-60215807D01*
X72426669Y-60215796D01*
X72426668Y-60215795D01*
X72426667Y-60215795D01*
X72376746Y-60201137D01*
X72374343Y-60200364D01*
X72322295Y-60182152D01*
X72319266Y-60181579D01*
X72309427Y-60179976D01*
X72309380Y-60180308D01*
X72302374Y-60179300D01*
X72302372Y-60179300D01*
X72302369Y-60179300D01*
X72246027Y-60179300D01*
X72226213Y-60178558D01*
X72186590Y-60177076D01*
X72186589Y-60177076D01*
X72186588Y-60177076D01*
X72185984Y-60177144D01*
X72181687Y-60178025D01*
X72172830Y-60179299D01*
X72146286Y-60187093D01*
X72115831Y-60196035D01*
X72101673Y-60199828D01*
X72055406Y-60212225D01*
X72055164Y-60212331D01*
X72049929Y-60215155D01*
X72048543Y-60215788D01*
X71995945Y-60249590D01*
X71940424Y-60284477D01*
X71896670Y-60335319D01*
X71853544Y-60385092D01*
X71851996Y-60387166D01*
X71851843Y-60387410D01*
X71851842Y-60387411D01*
X71851842Y-60387412D01*
X71846526Y-60399597D01*
X71826216Y-60446146D01*
X71800901Y-60501579D01*
X71799454Y-60506506D01*
X71797634Y-60511515D01*
X71797534Y-60511888D01*
X71790705Y-60572502D01*
X71782467Y-60629797D01*
X71782467Y-60636878D01*
X71781855Y-60636878D01*
X71781893Y-60639426D01*
X71782053Y-60639421D01*
X71782330Y-60646839D01*
X71793101Y-60703766D01*
X71800901Y-60758021D01*
X71802897Y-60764817D01*
X71802830Y-60764836D01*
X71807341Y-60779028D01*
X71807576Y-60780269D01*
X71807576Y-60780270D01*
X71832558Y-60827537D01*
X71833806Y-60830073D01*
X71835602Y-60834004D01*
X71854716Y-60875861D01*
X71855972Y-60877310D01*
X71868673Y-60895872D01*
X71871034Y-60900338D01*
X71906440Y-60935744D01*
X71908813Y-60938293D01*
X71939229Y-60973395D01*
X71939553Y-60973769D01*
X71944340Y-60976845D01*
X71960824Y-60990127D01*
X71975397Y-61004701D01*
X71979099Y-61008844D01*
X72003918Y-61039967D01*
X72003919Y-61039967D01*
X72003921Y-61039970D01*
X72053071Y-61073480D01*
X72100918Y-61108793D01*
X72100920Y-61108793D01*
X72107477Y-61112259D01*
X72107269Y-61112651D01*
X72109250Y-61113651D01*
X72109443Y-61113253D01*
X72116124Y-61116470D01*
X72116127Y-61116472D01*
X72172977Y-61134007D01*
X72229101Y-61153646D01*
X72229105Y-61153646D01*
X72236393Y-61155026D01*
X72236310Y-61155460D01*
X72238493Y-61155830D01*
X72238559Y-61155394D01*
X72245898Y-61156500D01*
X72305373Y-61156500D01*
X72307442Y-61156577D01*
X72364810Y-61158724D01*
X72364815Y-61158722D01*
X72372185Y-61157893D01*
X72372234Y-61158331D01*
X72386144Y-61156500D01*
X73559388Y-61156500D01*
X73617579Y-61175407D01*
X73629392Y-61185496D01*
X74298104Y-61854207D01*
X74325881Y-61908724D01*
X74327100Y-61924211D01*
X74327100Y-64222697D01*
X74326092Y-64236786D01*
X74322467Y-64261998D01*
X74322467Y-64262003D01*
X74326618Y-64290874D01*
X74326982Y-64294207D01*
X74327097Y-64295736D01*
X74327100Y-64295755D01*
X74327100Y-64295762D01*
X74331657Y-64326002D01*
X74331896Y-64327585D01*
X74340928Y-64390405D01*
X74342172Y-64396028D01*
X74342252Y-64396288D01*
X74369713Y-64453311D01*
X74394718Y-64508065D01*
X74398515Y-64513974D01*
X74400902Y-64518241D01*
X74401175Y-64518642D01*
X74442145Y-64562797D01*
X74471666Y-64596867D01*
X74479549Y-64605965D01*
X74484897Y-64610599D01*
X74484588Y-64610955D01*
X74487733Y-64613588D01*
X74487748Y-64613571D01*
X74493544Y-64618193D01*
X74493545Y-64618194D01*
X74508315Y-64626721D01*
X74542048Y-64646198D01*
X74544035Y-64647408D01*
X74588531Y-64676004D01*
X74588533Y-64676004D01*
X74592771Y-64677940D01*
X74609248Y-64684995D01*
X74611155Y-64686096D01*
X74662446Y-64697802D01*
X74665366Y-64698564D01*
X74712822Y-64712499D01*
X74712827Y-64712499D01*
X74712828Y-64712500D01*
X74715684Y-64712500D01*
X74737713Y-64714982D01*
X74738424Y-64715144D01*
X74743554Y-64716315D01*
X74779698Y-64713606D01*
X74792610Y-64712639D01*
X74796311Y-64712500D01*
X74842370Y-64712500D01*
X74842372Y-64712500D01*
X74848740Y-64710629D01*
X74869233Y-64706895D01*
X74878978Y-64706166D01*
X74921614Y-64689432D01*
X74925720Y-64688026D01*
X74966669Y-64676004D01*
X74975430Y-64670372D01*
X74992785Y-64661500D01*
X75005394Y-64656552D01*
X75038537Y-64630120D01*
X75042623Y-64627191D01*
X75056623Y-64618194D01*
X75075649Y-64605967D01*
X75084944Y-64595238D01*
X75098031Y-64582675D01*
X75111570Y-64571879D01*
X75133524Y-64539677D01*
X75137006Y-64535154D01*
X75160482Y-64508063D01*
X75167938Y-64491733D01*
X75176193Y-64477094D01*
X75188072Y-64459673D01*
X75198553Y-64425689D01*
X75200824Y-64419723D01*
X75214297Y-64390226D01*
X75215716Y-64380356D01*
X75217388Y-64368731D01*
X75220778Y-64353639D01*
X75221051Y-64352750D01*
X75228100Y-64329902D01*
X75228100Y-64301301D01*
X75229108Y-64287210D01*
X75232733Y-64262000D01*
X75232733Y-64261998D01*
X75229108Y-64236786D01*
X75228100Y-64222697D01*
X75228100Y-62120038D01*
X75228099Y-61724680D01*
X75228411Y-61719132D01*
X75232870Y-61679564D01*
X75229826Y-61663476D01*
X75228100Y-61645070D01*
X75228100Y-61255500D01*
X75247007Y-61197309D01*
X75296507Y-61161345D01*
X75327100Y-61156500D01*
X80119898Y-61156500D01*
X80159713Y-61156500D01*
X80165259Y-61156811D01*
X80204835Y-61161270D01*
X80220923Y-61158226D01*
X80239328Y-61156500D01*
X81836113Y-61156500D01*
X81841659Y-61156811D01*
X81881235Y-61161270D01*
X81939679Y-61150211D01*
X81998487Y-61141348D01*
X81998494Y-61141344D01*
X82005581Y-61139159D01*
X82005712Y-61139584D01*
X82007813Y-61138892D01*
X82007667Y-61138473D01*
X82014664Y-61136024D01*
X82014672Y-61136023D01*
X82028522Y-61128702D01*
X82067272Y-61108223D01*
X82094057Y-61095323D01*
X82120842Y-61082425D01*
X82120846Y-61082421D01*
X82126978Y-61078242D01*
X82127228Y-61078609D01*
X82129032Y-61077329D01*
X82128768Y-61076971D01*
X82134729Y-61072570D01*
X82134738Y-61072566D01*
X82176799Y-61030504D01*
X82220394Y-60990055D01*
X82220398Y-60990047D01*
X82225020Y-60984253D01*
X82225366Y-60984529D01*
X82233903Y-60973399D01*
X84855299Y-58352002D01*
X84859430Y-58348310D01*
X84890570Y-58323479D01*
X84924080Y-58274328D01*
X84959393Y-58226482D01*
X84959396Y-58226473D01*
X84962863Y-58219916D01*
X84963255Y-58220123D01*
X84964251Y-58218150D01*
X84963852Y-58217958D01*
X84967068Y-58211277D01*
X84967072Y-58211273D01*
X84984607Y-58154422D01*
X85004246Y-58098299D01*
X85004246Y-58098296D01*
X85005626Y-58091007D01*
X85006060Y-58091089D01*
X85006431Y-58088907D01*
X85005994Y-58088842D01*
X85007100Y-58081504D01*
X85007100Y-58022041D01*
X85007100Y-58022040D01*
X85009325Y-57962590D01*
X85009323Y-57962584D01*
X85008494Y-57955216D01*
X85008931Y-57955166D01*
X85007100Y-57941252D01*
X85007100Y-55726610D01*
X85026007Y-55668419D01*
X85036090Y-55656612D01*
X85046999Y-55645704D01*
X85090594Y-55605255D01*
X85090598Y-55605247D01*
X85095220Y-55599453D01*
X85095566Y-55599729D01*
X85104103Y-55588599D01*
X87034299Y-53658402D01*
X87038430Y-53654710D01*
X87069570Y-53629879D01*
X87103080Y-53580728D01*
X87138393Y-53532882D01*
X87138396Y-53532873D01*
X87141863Y-53526316D01*
X87142255Y-53526523D01*
X87143251Y-53524550D01*
X87142852Y-53524358D01*
X87146068Y-53517677D01*
X87146072Y-53517673D01*
X87163607Y-53460822D01*
X87183246Y-53404699D01*
X87183246Y-53404697D01*
X87184626Y-53397407D01*
X87185060Y-53397489D01*
X87185432Y-53395303D01*
X87184994Y-53395237D01*
X87186100Y-53387900D01*
X87186100Y-53328427D01*
X87187620Y-53287792D01*
X87188324Y-53268990D01*
X87188322Y-53268982D01*
X87187493Y-53261618D01*
X87187931Y-53261568D01*
X87186100Y-53247657D01*
X87186100Y-51464810D01*
X87205007Y-51406619D01*
X87215090Y-51394812D01*
X88106499Y-50503402D01*
X88110630Y-50499710D01*
X88141770Y-50474879D01*
X88175280Y-50425728D01*
X88210593Y-50377882D01*
X88210596Y-50377873D01*
X88214063Y-50371316D01*
X88214455Y-50371523D01*
X88215451Y-50369550D01*
X88215052Y-50369358D01*
X88218268Y-50362677D01*
X88218272Y-50362673D01*
X88235807Y-50305822D01*
X88255446Y-50249699D01*
X88255446Y-50249696D01*
X88256826Y-50242407D01*
X88257260Y-50242489D01*
X88257631Y-50240307D01*
X88257194Y-50240242D01*
X88258300Y-50232904D01*
X88258300Y-50173441D01*
X88259566Y-50139602D01*
X88260525Y-50113990D01*
X88260523Y-50113984D01*
X88259694Y-50106616D01*
X88260131Y-50106566D01*
X88258300Y-50092652D01*
X88258300Y-48544085D01*
X88258611Y-48538538D01*
X88258696Y-48537787D01*
X88263070Y-48498965D01*
X88260026Y-48482874D01*
X88258300Y-48464471D01*
X88258300Y-41727885D01*
X88258611Y-41722338D01*
X88263070Y-41682765D01*
X88260023Y-41666663D01*
X88258300Y-41648281D01*
X88258300Y-36705684D01*
X88258611Y-36700138D01*
X88263070Y-36660565D01*
X88252011Y-36602120D01*
X88243148Y-36543313D01*
X88243146Y-36543309D01*
X88240960Y-36536222D01*
X88241382Y-36536091D01*
X88240690Y-36533988D01*
X88240274Y-36534134D01*
X88237822Y-36527126D01*
X88210026Y-36474536D01*
X88184225Y-36420958D01*
X88184224Y-36420957D01*
X88184223Y-36420954D01*
X88180044Y-36414825D01*
X88180407Y-36414577D01*
X88179124Y-36412769D01*
X88178770Y-36413031D01*
X88174367Y-36407065D01*
X88174366Y-36407064D01*
X88174365Y-36407062D01*
X88132316Y-36365013D01*
X88114081Y-36345360D01*
X88091856Y-36321406D01*
X88086058Y-36316783D01*
X88086332Y-36316439D01*
X88075197Y-36307894D01*
X85954584Y-34187280D01*
X85952175Y-34184693D01*
X85921450Y-34149233D01*
X85921446Y-34149230D01*
X85880543Y-34122944D01*
X85877910Y-34121129D01*
X85836282Y-34090407D01*
X85836278Y-34090405D01*
X85833309Y-34089366D01*
X85812491Y-34079210D01*
X85812468Y-34079195D01*
X85812469Y-34079195D01*
X85762546Y-34064537D01*
X85760143Y-34063764D01*
X85708095Y-34045552D01*
X85705066Y-34044979D01*
X85695227Y-34043376D01*
X85695180Y-34043708D01*
X85688174Y-34042700D01*
X85688172Y-34042700D01*
X85688169Y-34042700D01*
X85631827Y-34042700D01*
X85612014Y-34041958D01*
X85572390Y-34040476D01*
X85572389Y-34040476D01*
X85572388Y-34040476D01*
X85571784Y-34040544D01*
X85567487Y-34041425D01*
X85558630Y-34042699D01*
X85525323Y-34052478D01*
X85501631Y-34059435D01*
X85487473Y-34063228D01*
X85441206Y-34075625D01*
X85440964Y-34075731D01*
X85435729Y-34078555D01*
X85434343Y-34079188D01*
X85381745Y-34112990D01*
X85326224Y-34147877D01*
X85282470Y-34198719D01*
X85239344Y-34248492D01*
X85237796Y-34250566D01*
X85237643Y-34250810D01*
X85212016Y-34309546D01*
X85187454Y-34363330D01*
X85146082Y-34408408D01*
X85086115Y-34420559D01*
X85030459Y-34395141D01*
X85000372Y-34341864D01*
X84998400Y-34322204D01*
X84998400Y-31549661D01*
X85017307Y-31491470D01*
X85066807Y-31455506D01*
X85069459Y-31454685D01*
X85075869Y-31452804D01*
X85184849Y-31382767D01*
X85269682Y-31284863D01*
X85323497Y-31167026D01*
X85334000Y-31093975D01*
X85341933Y-31038802D01*
X85341933Y-31038797D01*
X85323497Y-30910574D01*
X85269682Y-30792738D01*
X85269682Y-30792737D01*
X85184849Y-30694833D01*
X85184848Y-30694832D01*
X85184847Y-30694831D01*
X85075873Y-30624798D01*
X85075870Y-30624796D01*
X85075869Y-30624796D01*
X85075866Y-30624795D01*
X84951574Y-30588300D01*
X84951572Y-30588300D01*
X84822028Y-30588300D01*
X84822025Y-30588300D01*
X84697733Y-30624795D01*
X84697726Y-30624798D01*
X84592123Y-30692665D01*
X84532948Y-30708220D01*
X84475931Y-30686021D01*
X84442852Y-30634548D01*
X84439600Y-30609381D01*
X84439600Y-29321953D01*
X84441502Y-29302640D01*
X84444772Y-29286199D01*
X84426185Y-29192754D01*
X84425705Y-29187880D01*
X84424284Y-29183199D01*
X84424283Y-29183193D01*
X84424283Y-29183192D01*
X84403171Y-29151596D01*
X84380663Y-29117910D01*
X84380661Y-29117908D01*
X84379256Y-29115805D01*
X84379244Y-29115789D01*
X84365933Y-29095867D01*
X84352000Y-29086556D01*
X84336999Y-29074246D01*
X83997790Y-28735038D01*
X83970012Y-28680521D01*
X83979583Y-28620089D01*
X83992972Y-28600206D01*
X83999682Y-28592463D01*
X84053497Y-28474626D01*
X84071933Y-28346400D01*
X84053497Y-28218174D01*
X83999682Y-28100337D01*
X83914849Y-28002433D01*
X83914848Y-28002432D01*
X83914847Y-28002431D01*
X83805873Y-27932398D01*
X83805870Y-27932396D01*
X83805869Y-27932396D01*
X83805866Y-27932395D01*
X83681574Y-27895900D01*
X83681572Y-27895900D01*
X83552028Y-27895900D01*
X83552025Y-27895900D01*
X83427733Y-27932395D01*
X83427726Y-27932398D01*
X83318752Y-28002431D01*
X83233917Y-28100338D01*
X83180102Y-28218174D01*
X83161667Y-28346397D01*
X83161667Y-28346402D01*
X83180102Y-28474625D01*
X83233917Y-28592461D01*
X83233918Y-28592463D01*
X83310220Y-28680521D01*
X83318752Y-28690368D01*
X83319096Y-28690666D01*
X83319291Y-28690990D01*
X83323388Y-28695718D01*
X83322569Y-28696426D01*
X83350691Y-28743063D01*
X83351359Y-28746161D01*
X83352799Y-28753397D01*
X83352800Y-28753402D01*
X83368117Y-28830408D01*
X83426467Y-28917733D01*
X83440404Y-28927045D01*
X83455399Y-28939351D01*
X83544497Y-29028449D01*
X83572274Y-29082966D01*
X83562703Y-29143398D01*
X83519438Y-29186663D01*
X83459006Y-29196234D01*
X83420970Y-29181737D01*
X83374073Y-29151598D01*
X83374070Y-29151596D01*
X83374069Y-29151596D01*
X83374066Y-29151595D01*
X83249774Y-29115100D01*
X83249772Y-29115100D01*
X83120228Y-29115100D01*
X83120225Y-29115100D01*
X82995933Y-29151595D01*
X82995926Y-29151598D01*
X82886952Y-29221631D01*
X82802117Y-29319538D01*
X82748302Y-29437374D01*
X82729867Y-29565597D01*
X82729867Y-29565602D01*
X82748302Y-29693825D01*
X82768491Y-29738031D01*
X82802118Y-29811663D01*
X82886951Y-29909567D01*
X82886952Y-29909568D01*
X82919408Y-29930426D01*
X82995931Y-29979604D01*
X83120228Y-30016100D01*
X83120230Y-30016100D01*
X83221141Y-30016100D01*
X83279332Y-30035007D01*
X83291144Y-30045096D01*
X83349203Y-30103154D01*
X83376981Y-30157670D01*
X83378200Y-30173158D01*
X83378200Y-30523593D01*
X83359293Y-30581784D01*
X83309793Y-30617748D01*
X83251309Y-30618583D01*
X83148174Y-30588300D01*
X83148172Y-30588300D01*
X83018628Y-30588300D01*
X83018625Y-30588300D01*
X82894333Y-30624795D01*
X82894326Y-30624798D01*
X82785352Y-30694831D01*
X82700517Y-30792738D01*
X82646702Y-30910574D01*
X82628267Y-31038797D01*
X82628267Y-31038804D01*
X82638658Y-31111079D01*
X82628225Y-31171368D01*
X82584346Y-31214010D01*
X82523784Y-31222717D01*
X82512775Y-31220157D01*
X82436974Y-31197900D01*
X82436972Y-31197900D01*
X82307428Y-31197900D01*
X82307425Y-31197900D01*
X82183133Y-31234395D01*
X82183126Y-31234398D01*
X82074152Y-31304431D01*
X81989317Y-31402338D01*
X81935502Y-31520174D01*
X81917067Y-31648397D01*
X81917067Y-31648402D01*
X81935502Y-31776625D01*
X81989317Y-31894461D01*
X81989318Y-31894463D01*
X82074151Y-31992367D01*
X82074152Y-31992368D01*
X82183126Y-32062401D01*
X82183131Y-32062404D01*
X82240291Y-32079187D01*
X82290798Y-32113722D01*
X82311360Y-32171349D01*
X82311400Y-32174177D01*
X82311400Y-35521840D01*
X82292493Y-35580031D01*
X82242993Y-35615995D01*
X82181807Y-35615995D01*
X82142396Y-35591844D01*
X81189151Y-34638599D01*
X81176845Y-34623603D01*
X81167533Y-34609667D01*
X81080208Y-34551317D01*
X81080205Y-34551316D01*
X81003202Y-34536000D01*
X80977200Y-34530828D01*
X80977199Y-34530828D01*
X80960760Y-34534098D01*
X80941447Y-34536000D01*
X71635748Y-34536000D01*
X71616435Y-34534098D01*
X71600000Y-34530829D01*
X71599999Y-34530829D01*
X71578827Y-34535039D01*
X71578819Y-34535041D01*
X71496994Y-34551316D01*
X71496991Y-34551317D01*
X71409670Y-34609664D01*
X71409665Y-34609669D01*
X71400354Y-34623603D01*
X71388046Y-34638600D01*
X69219644Y-36807004D01*
X69165127Y-36834781D01*
X69149640Y-36836000D01*
X67535748Y-36836000D01*
X67516435Y-36834098D01*
X67500000Y-36830829D01*
X67499999Y-36830829D01*
X67478827Y-36835039D01*
X67478819Y-36835041D01*
X67396994Y-36851316D01*
X67396991Y-36851317D01*
X67309670Y-36909664D01*
X67309665Y-36909669D01*
X67300354Y-36923603D01*
X67288046Y-36938600D01*
X63338600Y-40888046D01*
X63323603Y-40900354D01*
X63309669Y-40909665D01*
X63309666Y-40909668D01*
X63286780Y-40943918D01*
X63251317Y-40996991D01*
X63251316Y-40996994D01*
X63230828Y-41100000D01*
X63234098Y-41116440D01*
X63236000Y-41135753D01*
X63236000Y-52849640D01*
X63217093Y-52907831D01*
X63207004Y-52919643D01*
X63019645Y-53107003D01*
X62965128Y-53134781D01*
X62949641Y-53136000D01*
X25850360Y-53136000D01*
X25792169Y-53117093D01*
X25780356Y-53107004D01*
X17192996Y-44519644D01*
X17165219Y-44465127D01*
X17164000Y-44449640D01*
X17164000Y-29802202D01*
X80141067Y-29802202D01*
X80159502Y-29930425D01*
X80181962Y-29979604D01*
X80213318Y-30048263D01*
X80213782Y-30048798D01*
X80298152Y-30146168D01*
X80407126Y-30216201D01*
X80407131Y-30216204D01*
X80531428Y-30252700D01*
X80531430Y-30252700D01*
X80660970Y-30252700D01*
X80660972Y-30252700D01*
X80785269Y-30216204D01*
X80894249Y-30146167D01*
X80979082Y-30048263D01*
X81032897Y-29930426D01*
X81049099Y-29817738D01*
X81051333Y-29802202D01*
X81051333Y-29802197D01*
X81032897Y-29673974D01*
X81016057Y-29637100D01*
X80979082Y-29556137D01*
X80894249Y-29458233D01*
X80894248Y-29458232D01*
X80894247Y-29458231D01*
X80785273Y-29388198D01*
X80785270Y-29388196D01*
X80785269Y-29388196D01*
X80785266Y-29388195D01*
X80660974Y-29351700D01*
X80660972Y-29351700D01*
X80531428Y-29351700D01*
X80531425Y-29351700D01*
X80407133Y-29388195D01*
X80407126Y-29388198D01*
X80298152Y-29458231D01*
X80213317Y-29556138D01*
X80159502Y-29673974D01*
X80141067Y-29802197D01*
X80141067Y-29802202D01*
X17164000Y-29802202D01*
X17164000Y-11312946D01*
X68942500Y-11312946D01*
X68942501Y-11312958D01*
X68954132Y-11371427D01*
X68954133Y-11371431D01*
X68998448Y-11437752D01*
X69064769Y-11482067D01*
X69109231Y-11490911D01*
X69123241Y-11493698D01*
X69123246Y-11493698D01*
X69123252Y-11493700D01*
X69123253Y-11493700D01*
X70862747Y-11493700D01*
X70862748Y-11493700D01*
X70921231Y-11482067D01*
X70987552Y-11437752D01*
X71031867Y-11371431D01*
X71043500Y-11312948D01*
X71043500Y-10880774D01*
X81199424Y-10880774D01*
X81199459Y-10900000D01*
X81199500Y-10900100D01*
X81199616Y-10900382D01*
X81199617Y-10900383D01*
X81200000Y-10900541D01*
X81200002Y-10900539D01*
X81219651Y-10900527D01*
X81219787Y-10900500D01*
X88180213Y-10900500D01*
X88180348Y-10900527D01*
X88199997Y-10900539D01*
X88200000Y-10900541D01*
X88200383Y-10900383D01*
X88200500Y-10900099D01*
X88200541Y-10900000D01*
X88200540Y-10899997D01*
X88200575Y-10880774D01*
X88200500Y-10880391D01*
X88200500Y-3119787D01*
X88200527Y-3119651D01*
X88200539Y-3100002D01*
X88200541Y-3100000D01*
X88200383Y-3099617D01*
X88200382Y-3099616D01*
X88200100Y-3099500D01*
X88200001Y-3099459D01*
X88180418Y-3099459D01*
X88180212Y-3099500D01*
X81219788Y-3099500D01*
X81219582Y-3099459D01*
X81199999Y-3099459D01*
X81199900Y-3099500D01*
X81199617Y-3099616D01*
X81199459Y-3099999D01*
X81199472Y-3119651D01*
X81199500Y-3119787D01*
X81199500Y-10880391D01*
X81199424Y-10880774D01*
X71043500Y-10880774D01*
X71043500Y-9573452D01*
X71031867Y-9514969D01*
X70987552Y-9448648D01*
X70987548Y-9448645D01*
X70921233Y-9404334D01*
X70921231Y-9404333D01*
X70921228Y-9404332D01*
X70921227Y-9404332D01*
X70862758Y-9392701D01*
X70862748Y-9392700D01*
X69123252Y-9392700D01*
X69123251Y-9392700D01*
X69123241Y-9392701D01*
X69064772Y-9404332D01*
X69064766Y-9404334D01*
X68998451Y-9448645D01*
X68998445Y-9448651D01*
X68954134Y-9514966D01*
X68954132Y-9514972D01*
X68942501Y-9573441D01*
X68942500Y-9573453D01*
X68942500Y-11312946D01*
X17164000Y-11312946D01*
X17164000Y-7635753D01*
X17165902Y-7616440D01*
X17166039Y-7615749D01*
X17169172Y-7600000D01*
X17148683Y-7496992D01*
X17128301Y-7466489D01*
X17104014Y-7430141D01*
X17104008Y-7430134D01*
X17090333Y-7409667D01*
X17076400Y-7400357D01*
X17061398Y-7388046D01*
X14836951Y-5163599D01*
X14824645Y-5148604D01*
X14815333Y-5134667D01*
X14728008Y-5076317D01*
X14728005Y-5076316D01*
X14651002Y-5061000D01*
X14625000Y-5055828D01*
X14624999Y-5055828D01*
X14608560Y-5059098D01*
X14589247Y-5061000D01*
X13512553Y-5061000D01*
X13454362Y-5042093D01*
X13437734Y-5026831D01*
X13398050Y-4981034D01*
X13398048Y-4981032D01*
X13289073Y-4910998D01*
X13289070Y-4910996D01*
X13289069Y-4910996D01*
X13289066Y-4910995D01*
X13164774Y-4874500D01*
X13164772Y-4874500D01*
X13035228Y-4874500D01*
X13035225Y-4874500D01*
X12910933Y-4910995D01*
X12910926Y-4910998D01*
X12801952Y-4981031D01*
X12717117Y-5078938D01*
X12663302Y-5196774D01*
X12644867Y-5324997D01*
X12644867Y-5325002D01*
X12663302Y-5453225D01*
X12705700Y-5546061D01*
X12717118Y-5571063D01*
X12780289Y-5643967D01*
X12801952Y-5668968D01*
X12872025Y-5714001D01*
X12910931Y-5739004D01*
X13035228Y-5775500D01*
X13035230Y-5775500D01*
X13164770Y-5775500D01*
X13164772Y-5775500D01*
X13289069Y-5739004D01*
X13398049Y-5668967D01*
X13419711Y-5643968D01*
X13437734Y-5623169D01*
X13490130Y-5591573D01*
X13512553Y-5589000D01*
X14474640Y-5589000D01*
X14532831Y-5607907D01*
X14544644Y-5617996D01*
X16607004Y-7680356D01*
X16634781Y-7734873D01*
X16636000Y-7750360D01*
X16636000Y-9221782D01*
X16617093Y-9279973D01*
X16567593Y-9315937D01*
X16506407Y-9315937D01*
X16482003Y-9304101D01*
X16476401Y-9300357D01*
X16461398Y-9288046D01*
X14876951Y-7703599D01*
X14864645Y-7688604D01*
X14855333Y-7674667D01*
X14851003Y-7671774D01*
X14768008Y-7616317D01*
X14768005Y-7616316D01*
X14691002Y-7601000D01*
X14665000Y-7595828D01*
X14664999Y-7595828D01*
X14648560Y-7599098D01*
X14629247Y-7601000D01*
X13412553Y-7601000D01*
X13354362Y-7582093D01*
X13337734Y-7566831D01*
X13298050Y-7521034D01*
X13298048Y-7521032D01*
X13189073Y-7450998D01*
X13189070Y-7450996D01*
X13189069Y-7450996D01*
X13189066Y-7450995D01*
X13064774Y-7414500D01*
X13064772Y-7414500D01*
X12935228Y-7414500D01*
X12935225Y-7414500D01*
X12810933Y-7450995D01*
X12810926Y-7450998D01*
X12701952Y-7521031D01*
X12617117Y-7618938D01*
X12563302Y-7736774D01*
X12544867Y-7864997D01*
X12544867Y-7865002D01*
X12563302Y-7993225D01*
X12587432Y-8046061D01*
X12617118Y-8111063D01*
X12701949Y-8208965D01*
X12701952Y-8208968D01*
X12810926Y-8279001D01*
X12810931Y-8279004D01*
X12935228Y-8315500D01*
X12935230Y-8315500D01*
X13064770Y-8315500D01*
X13064772Y-8315500D01*
X13189069Y-8279004D01*
X13298049Y-8208967D01*
X13312606Y-8192166D01*
X13337734Y-8163169D01*
X13390130Y-8131573D01*
X13412553Y-8129000D01*
X14514640Y-8129000D01*
X14572831Y-8147907D01*
X14584644Y-8157996D01*
X16007004Y-9580356D01*
X16034781Y-9634873D01*
X16036000Y-9650360D01*
X16036000Y-12826782D01*
X16017093Y-12884973D01*
X15967593Y-12920937D01*
X15906407Y-12920937D01*
X15882003Y-12909101D01*
X15876404Y-12905359D01*
X15861401Y-12893048D01*
X13479893Y-10511541D01*
X13452116Y-10457024D01*
X13451905Y-10427449D01*
X13455133Y-10405000D01*
X13454414Y-10400002D01*
X13436697Y-10276774D01*
X13382882Y-10158938D01*
X13382882Y-10158937D01*
X13298049Y-10061033D01*
X13298048Y-10061032D01*
X13298047Y-10061031D01*
X13189073Y-9990998D01*
X13189070Y-9990996D01*
X13189069Y-9990996D01*
X13189066Y-9990995D01*
X13064774Y-9954500D01*
X13064772Y-9954500D01*
X12935228Y-9954500D01*
X12935225Y-9954500D01*
X12810933Y-9990995D01*
X12810926Y-9990998D01*
X12701952Y-10061031D01*
X12617117Y-10158938D01*
X12563302Y-10276774D01*
X12544867Y-10404997D01*
X12544867Y-10405002D01*
X12563302Y-10533225D01*
X12617117Y-10651061D01*
X12617118Y-10651063D01*
X12701951Y-10748967D01*
X12701952Y-10748968D01*
X12810926Y-10819001D01*
X12810931Y-10819004D01*
X12935228Y-10855500D01*
X12935230Y-10855500D01*
X13036140Y-10855500D01*
X13094331Y-10874407D01*
X13106144Y-10884496D01*
X15407004Y-13185356D01*
X15434781Y-13239873D01*
X15436000Y-13255360D01*
X15436000Y-14766782D01*
X15417093Y-14824973D01*
X15367593Y-14860937D01*
X15306407Y-14860937D01*
X15282003Y-14849101D01*
X15276401Y-14845357D01*
X15261398Y-14833046D01*
X13479893Y-13051541D01*
X13452116Y-12997024D01*
X13451905Y-12967449D01*
X13455133Y-12945000D01*
X13451673Y-12920937D01*
X13436697Y-12816774D01*
X13382882Y-12698938D01*
X13382882Y-12698937D01*
X13298049Y-12601033D01*
X13298048Y-12601032D01*
X13298047Y-12601031D01*
X13189073Y-12530998D01*
X13189070Y-12530996D01*
X13189069Y-12530996D01*
X13189066Y-12530995D01*
X13064774Y-12494500D01*
X13064772Y-12494500D01*
X12935228Y-12494500D01*
X12935225Y-12494500D01*
X12810933Y-12530995D01*
X12810926Y-12530998D01*
X12701952Y-12601031D01*
X12617117Y-12698938D01*
X12563302Y-12816774D01*
X12544867Y-12944997D01*
X12544867Y-12945002D01*
X12563302Y-13073225D01*
X12614512Y-13185356D01*
X12617118Y-13191063D01*
X12664775Y-13246063D01*
X12701952Y-13288968D01*
X12787533Y-13343967D01*
X12810931Y-13359004D01*
X12935228Y-13395500D01*
X12935230Y-13395500D01*
X13036140Y-13395500D01*
X13094331Y-13414407D01*
X13106144Y-13424496D01*
X14807003Y-15125356D01*
X14834780Y-15179873D01*
X14835999Y-15195360D01*
X14836000Y-16706782D01*
X14817093Y-16764973D01*
X14767593Y-16800937D01*
X14706407Y-16800937D01*
X14682003Y-16789101D01*
X14676401Y-16785357D01*
X14661398Y-16773046D01*
X13479893Y-15591541D01*
X13452116Y-15537024D01*
X13451905Y-15507449D01*
X13455133Y-15485000D01*
X13436697Y-15356774D01*
X13382882Y-15238937D01*
X13298049Y-15141033D01*
X13298048Y-15141032D01*
X13298047Y-15141031D01*
X13189073Y-15070998D01*
X13189070Y-15070996D01*
X13189069Y-15070996D01*
X13189066Y-15070995D01*
X13064774Y-15034500D01*
X13064772Y-15034500D01*
X12935228Y-15034500D01*
X12935225Y-15034500D01*
X12810933Y-15070995D01*
X12810926Y-15070998D01*
X12701952Y-15141031D01*
X12617117Y-15238938D01*
X12563302Y-15356774D01*
X12544867Y-15484997D01*
X12544867Y-15485002D01*
X12563302Y-15613225D01*
X12570153Y-15628226D01*
X12617118Y-15731063D01*
X12676997Y-15800168D01*
X12701952Y-15828968D01*
X12751003Y-15860491D01*
X12810931Y-15899004D01*
X12935228Y-15935500D01*
X12935230Y-15935500D01*
X13036140Y-15935500D01*
X13094331Y-15954407D01*
X13106144Y-15964496D01*
X14207004Y-17065356D01*
X14234781Y-17119873D01*
X14236000Y-17135360D01*
X14236000Y-22721782D01*
X14217093Y-22779973D01*
X14167593Y-22815937D01*
X14106407Y-22815937D01*
X14082003Y-22804101D01*
X14076401Y-22800357D01*
X14061398Y-22788046D01*
X12911951Y-21638599D01*
X12899645Y-21623604D01*
X12890333Y-21609667D01*
X12803008Y-21551317D01*
X12803005Y-21551316D01*
X12726002Y-21536000D01*
X12700000Y-21530828D01*
X12699999Y-21530828D01*
X12683560Y-21534098D01*
X12664247Y-21536000D01*
X4850360Y-21536000D01*
X4792169Y-21517093D01*
X4780356Y-21507004D01*
X4063685Y-20790333D01*
X3192993Y-19919641D01*
X3165218Y-19865127D01*
X3164000Y-19849652D01*
X3164000Y-15918682D01*
X3182907Y-15860491D01*
X3197647Y-15844430D01*
X3198047Y-15843968D01*
X3198049Y-15843967D01*
X3282882Y-15746063D01*
X3336697Y-15628226D01*
X3355133Y-15500000D01*
X3352976Y-15485000D01*
X3336697Y-15371774D01*
X3282882Y-15253938D01*
X3282882Y-15253937D01*
X3198049Y-15156033D01*
X3198048Y-15156032D01*
X3198047Y-15156031D01*
X3089073Y-15085998D01*
X3089070Y-15085996D01*
X3089069Y-15085996D01*
X3088926Y-15085954D01*
X2964774Y-15049500D01*
X2964772Y-15049500D01*
X2835228Y-15049500D01*
X2835225Y-15049500D01*
X2710933Y-15085995D01*
X2704490Y-15088938D01*
X2703127Y-15085954D01*
X2657170Y-15097945D01*
X2600193Y-15075644D01*
X2567207Y-15024112D01*
X2564000Y-14999117D01*
X2564000Y-13850358D01*
X2582907Y-13792167D01*
X2592984Y-13780367D01*
X2893856Y-13479494D01*
X2948371Y-13451719D01*
X2963858Y-13450500D01*
X3064770Y-13450500D01*
X3064772Y-13450500D01*
X3189069Y-13414004D01*
X3298049Y-13343967D01*
X3382882Y-13246063D01*
X3436697Y-13128226D01*
X3455133Y-13000000D01*
X3454705Y-12997024D01*
X3436697Y-12871774D01*
X3436696Y-12871774D01*
X3382882Y-12753937D01*
X3298049Y-12656033D01*
X3298048Y-12656032D01*
X3298047Y-12656031D01*
X3189073Y-12585998D01*
X3189070Y-12585996D01*
X3189069Y-12585996D01*
X3189066Y-12585995D01*
X3064774Y-12549500D01*
X3064772Y-12549500D01*
X2935228Y-12549500D01*
X2935225Y-12549500D01*
X2810933Y-12585995D01*
X2810926Y-12585998D01*
X2701952Y-12656031D01*
X2617117Y-12753938D01*
X2563302Y-12871774D01*
X2544867Y-12999997D01*
X2544867Y-13000002D01*
X2548094Y-13022447D01*
X2537661Y-13082736D01*
X2520106Y-13106540D01*
X2138600Y-13488046D01*
X2123600Y-13500356D01*
X2118003Y-13504096D01*
X2059115Y-13520706D01*
X2001711Y-13499530D01*
X1967717Y-13448657D01*
X1964000Y-13421789D01*
X1964000Y-11450359D01*
X1982907Y-11392168D01*
X1992990Y-11380361D01*
X2493855Y-10879495D01*
X2548372Y-10851719D01*
X2563859Y-10850500D01*
X2664770Y-10850500D01*
X2664772Y-10850500D01*
X2789069Y-10814004D01*
X2898049Y-10743967D01*
X2982882Y-10646063D01*
X3036697Y-10528226D01*
X3054414Y-10405000D01*
X3055133Y-10400002D01*
X3055133Y-10399997D01*
X3036697Y-10271774D01*
X3036696Y-10271774D01*
X2982882Y-10153937D01*
X2898049Y-10056033D01*
X2898048Y-10056032D01*
X2898047Y-10056031D01*
X2789073Y-9985998D01*
X2789070Y-9985996D01*
X2789069Y-9985996D01*
X2789066Y-9985995D01*
X2664774Y-9949500D01*
X2664772Y-9949500D01*
X2535228Y-9949500D01*
X2535225Y-9949500D01*
X2410933Y-9985995D01*
X2410926Y-9985998D01*
X2301952Y-10056031D01*
X2217117Y-10153938D01*
X2163302Y-10271774D01*
X2144867Y-10399997D01*
X2144867Y-10400002D01*
X2148094Y-10422447D01*
X2137661Y-10482736D01*
X2120106Y-10506540D01*
X1538600Y-11088046D01*
X1523606Y-11100352D01*
X1518010Y-11104092D01*
X1459124Y-11120706D01*
X1401718Y-11099535D01*
X1367720Y-11048665D01*
X1364000Y-11021782D01*
X1364000Y-9450359D01*
X1382907Y-9392168D01*
X1392990Y-9380361D01*
X2493855Y-8279495D01*
X2548372Y-8251719D01*
X2563859Y-8250500D01*
X2664770Y-8250500D01*
X2664772Y-8250500D01*
X2789069Y-8214004D01*
X2898049Y-8143967D01*
X2982882Y-8046063D01*
X3036697Y-7928226D01*
X3045787Y-7865002D01*
X3055133Y-7800002D01*
X3055133Y-7799997D01*
X3036697Y-7671774D01*
X2982882Y-7553937D01*
X2898049Y-7456033D01*
X2898048Y-7456032D01*
X2898047Y-7456031D01*
X2789073Y-7385998D01*
X2789070Y-7385996D01*
X2789069Y-7385996D01*
X2789066Y-7385995D01*
X2664774Y-7349500D01*
X2664772Y-7349500D01*
X2535228Y-7349500D01*
X2535225Y-7349500D01*
X2410933Y-7385995D01*
X2410926Y-7385998D01*
X2301952Y-7456031D01*
X2217117Y-7553938D01*
X2163302Y-7671774D01*
X2144867Y-7799997D01*
X2144867Y-7800002D01*
X2148094Y-7822447D01*
X2137661Y-7882736D01*
X2120106Y-7906540D01*
X1033004Y-8993643D01*
X978487Y-9021420D01*
X918055Y-9011849D01*
X874790Y-8968584D01*
X864000Y-8923639D01*
X864000Y-7550359D01*
X882907Y-7492168D01*
X892996Y-7480355D01*
X2593855Y-5779496D01*
X2648372Y-5751719D01*
X2663859Y-5750500D01*
X2764770Y-5750500D01*
X2764772Y-5750500D01*
X2889069Y-5714004D01*
X2998049Y-5643967D01*
X3082882Y-5546063D01*
X3136697Y-5428226D01*
X3155133Y-5300000D01*
X3140291Y-5196774D01*
X3136697Y-5171774D01*
X3126111Y-5148595D01*
X3082882Y-5053937D01*
X2998049Y-4956033D01*
X2998048Y-4956032D01*
X2998047Y-4956031D01*
X2889073Y-4885998D01*
X2889070Y-4885996D01*
X2889069Y-4885996D01*
X2889066Y-4885995D01*
X2764774Y-4849500D01*
X2764772Y-4849500D01*
X2635228Y-4849500D01*
X2635225Y-4849500D01*
X2510933Y-4885995D01*
X2510926Y-4885998D01*
X2401952Y-4956031D01*
X2317117Y-5053938D01*
X2263302Y-5171774D01*
X2244867Y-5299997D01*
X2244867Y-5300002D01*
X2248094Y-5322447D01*
X2237661Y-5382736D01*
X2220106Y-5406540D01*
X438600Y-7188046D01*
X423603Y-7200354D01*
X409669Y-7209665D01*
X409666Y-7209668D01*
X386780Y-7243918D01*
X351317Y-7296991D01*
X351316Y-7296994D01*
X330828Y-7400000D01*
X334098Y-7416440D01*
X336000Y-7435753D01*
X336000Y-21064246D01*
X334098Y-21083558D01*
X330828Y-21100000D01*
X336000Y-21126002D01*
X351317Y-21203008D01*
X409667Y-21290333D01*
X423604Y-21299645D01*
X438599Y-21311951D01*
X3488046Y-24361398D01*
X3500357Y-24376400D01*
X3509667Y-24390333D01*
X3596992Y-24448683D01*
X3646734Y-24458577D01*
X3676410Y-24464480D01*
X3676430Y-24464483D01*
X3699999Y-24469171D01*
X3700000Y-24469171D01*
X3716435Y-24465901D01*
X3735748Y-24464000D01*
X10649640Y-24464000D01*
X10707831Y-24482907D01*
X10719644Y-24492996D01*
X11007004Y-24780356D01*
X11034781Y-24834873D01*
X11036000Y-24850360D01*
X11036000Y-46564246D01*
X11034098Y-46583558D01*
X11032548Y-46591352D01*
X11030828Y-46600000D01*
X11031835Y-46605061D01*
X11036000Y-46626002D01*
X11042410Y-46658231D01*
X11051317Y-46703008D01*
X11109667Y-46790333D01*
X11123604Y-46799645D01*
X11138599Y-46811951D01*
X22388046Y-58061398D01*
X22400357Y-58076400D01*
X22408670Y-58088842D01*
X22409667Y-58090333D01*
X22496992Y-58148683D01*
X22544140Y-58158061D01*
X22576410Y-58164480D01*
X22576430Y-58164483D01*
X22599999Y-58169171D01*
X22600000Y-58169171D01*
X22616435Y-58165901D01*
X22635748Y-58164000D01*
X65564247Y-58164000D01*
X65583560Y-58165902D01*
X65600000Y-58169172D01*
X65703008Y-58148683D01*
X65768290Y-58105062D01*
X65788909Y-58091285D01*
X65788914Y-58091281D01*
X65790333Y-58090333D01*
X65799643Y-58076397D01*
X65811953Y-58061398D01*
X66595375Y-57277975D01*
X66649890Y-57250200D01*
X66710322Y-57259771D01*
X66753587Y-57303036D01*
X66763530Y-57360902D01*
X66760450Y-57384298D01*
X66760450Y-57384300D01*
X66779369Y-57528008D01*
X66779370Y-57528009D01*
X66824100Y-57636000D01*
X66834839Y-57661925D01*
X66923079Y-57776921D01*
X67038075Y-57865161D01*
X67171991Y-57920630D01*
X67188112Y-57922752D01*
X67243338Y-57949091D01*
X67245197Y-57950901D01*
X68456104Y-59161807D01*
X68483881Y-59216324D01*
X68485100Y-59231811D01*
X68485100Y-80546435D01*
X68466193Y-80604626D01*
X68456104Y-80616438D01*
X68380130Y-80692412D01*
X68380128Y-80692415D01*
X68292122Y-80837992D01*
X68292118Y-80838002D01*
X68290471Y-80843289D01*
X68255106Y-80893219D01*
X68197147Y-80912826D01*
X68138733Y-80894621D01*
X68102176Y-80845558D01*
X68096955Y-80814000D01*
X68096749Y-80692415D01*
X68068500Y-63982346D01*
X68068500Y-63156703D01*
X68068666Y-63152649D01*
X68071738Y-63115245D01*
X68061755Y-63084161D01*
X68060335Y-63078686D01*
X68053966Y-63046660D01*
X68053965Y-63046657D01*
X68033118Y-63015458D01*
X68031004Y-63011995D01*
X67671839Y-62365498D01*
X67664428Y-62348625D01*
X67659021Y-62332348D01*
X67659020Y-62332346D01*
X67627252Y-62295639D01*
X67595805Y-62258565D01*
X67595804Y-62258564D01*
X67580540Y-62250721D01*
X67565007Y-62240812D01*
X67494916Y-62186297D01*
X67382454Y-62098826D01*
X67371698Y-62089116D01*
X67355000Y-62071656D01*
X67316228Y-62054572D01*
X67314006Y-62053526D01*
X67276118Y-62034533D01*
X67276115Y-62034532D01*
X67252029Y-62032795D01*
X67237676Y-62030695D01*
X66634385Y-61896630D01*
X66622952Y-61893014D01*
X66596272Y-61887675D01*
X66574321Y-61883283D01*
X66552855Y-61878513D01*
X66552851Y-61878512D01*
X66550179Y-61878188D01*
X66547563Y-61877928D01*
X66529208Y-61877907D01*
X66525538Y-61877903D01*
X66524473Y-61877879D01*
X66476003Y-61876796D01*
X66464039Y-61877832D01*
X27996535Y-61834268D01*
X27938366Y-61815295D01*
X27902458Y-61765754D01*
X27902527Y-61704569D01*
X27906594Y-61694141D01*
X27913251Y-61679564D01*
X27936697Y-61628226D01*
X27936697Y-61628224D01*
X27936698Y-61628223D01*
X27938641Y-61621607D01*
X27973177Y-61571101D01*
X28030804Y-61550540D01*
X28033630Y-61550500D01*
X28164770Y-61550500D01*
X28164772Y-61550500D01*
X28289069Y-61514004D01*
X28398049Y-61443967D01*
X28482882Y-61346063D01*
X28482886Y-61346053D01*
X28486221Y-61340865D01*
X28533585Y-61302131D01*
X28594670Y-61298634D01*
X28597400Y-61299393D01*
X28635228Y-61310500D01*
X28635230Y-61310500D01*
X28764770Y-61310500D01*
X28764772Y-61310500D01*
X28889069Y-61274004D01*
X28998049Y-61203967D01*
X29082882Y-61106063D01*
X29136697Y-60988226D01*
X29144719Y-60932426D01*
X29171715Y-60877518D01*
X29225829Y-60848964D01*
X29270599Y-60851523D01*
X29335228Y-60870500D01*
X29335230Y-60870500D01*
X29464770Y-60870500D01*
X29464772Y-60870500D01*
X29589069Y-60834004D01*
X29698049Y-60763967D01*
X29782882Y-60666063D01*
X29836697Y-60548226D01*
X29851374Y-60446146D01*
X29855133Y-60420002D01*
X29855133Y-60419997D01*
X29836697Y-60291774D01*
X29828175Y-60273113D01*
X29782882Y-60173937D01*
X29698049Y-60076033D01*
X29698048Y-60076032D01*
X29698047Y-60076031D01*
X29589073Y-60005998D01*
X29589070Y-60005996D01*
X29589069Y-60005996D01*
X29574455Y-60001705D01*
X29464774Y-59969500D01*
X29464772Y-59969500D01*
X29363860Y-59969500D01*
X29305669Y-59950593D01*
X29293857Y-59940504D01*
X28891954Y-59538602D01*
X28879647Y-59523607D01*
X28870333Y-59509667D01*
X28783008Y-59451317D01*
X28783005Y-59451316D01*
X28706002Y-59436000D01*
X28680000Y-59430828D01*
X28679999Y-59430828D01*
X28663560Y-59434098D01*
X28644247Y-59436000D01*
X20535748Y-59436000D01*
X20516435Y-59434098D01*
X20500000Y-59430829D01*
X20499999Y-59430829D01*
X20478827Y-59435039D01*
X20478819Y-59435041D01*
X20396994Y-59451316D01*
X20396991Y-59451317D01*
X20309670Y-59509664D01*
X20309665Y-59509669D01*
X20300354Y-59523603D01*
X20288046Y-59538600D01*
X16038600Y-63788046D01*
X16023603Y-63800354D01*
X16009669Y-63809665D01*
X16009666Y-63809668D01*
X15986780Y-63843918D01*
X15951317Y-63896991D01*
X15951316Y-63896994D01*
X15930828Y-64000000D01*
X15934098Y-64016440D01*
X15936000Y-64035753D01*
X15936000Y-70737678D01*
X15917093Y-70795869D01*
X15867593Y-70831833D01*
X15806407Y-70831833D01*
X15765660Y-70802461D01*
X15764212Y-70803910D01*
X15758965Y-70798663D01*
X15758965Y-70798662D01*
X15716916Y-70756613D01*
X15699347Y-70737678D01*
X15676456Y-70713006D01*
X15670658Y-70708383D01*
X15670932Y-70708039D01*
X15659797Y-70699494D01*
X14322495Y-69362192D01*
X14294718Y-69307675D01*
X14293499Y-69292188D01*
X14293499Y-63788046D01*
X14293499Y-58663555D01*
X14312406Y-58605367D01*
X14361906Y-58569403D01*
X14423092Y-58569403D01*
X14471502Y-58603896D01*
X14561019Y-58722436D01*
X14725438Y-58872324D01*
X14914599Y-58989447D01*
X15122060Y-59069818D01*
X15340757Y-59110700D01*
X15563243Y-59110700D01*
X15781940Y-59069818D01*
X15989401Y-58989447D01*
X16178562Y-58872324D01*
X16342981Y-58722436D01*
X16477058Y-58544889D01*
X16576229Y-58345728D01*
X16637115Y-58131736D01*
X16657643Y-57910200D01*
X16637115Y-57688664D01*
X16576229Y-57474672D01*
X16477058Y-57275511D01*
X16342981Y-57097964D01*
X16178562Y-56948076D01*
X15989401Y-56830953D01*
X15781940Y-56750582D01*
X15781939Y-56750581D01*
X15781937Y-56750581D01*
X15563243Y-56709700D01*
X15340757Y-56709700D01*
X15122062Y-56750581D01*
X15069714Y-56770861D01*
X14914599Y-56830953D01*
X14785714Y-56910755D01*
X14725438Y-56948076D01*
X14572612Y-57087396D01*
X14561019Y-57097964D01*
X14471502Y-57216502D01*
X14421347Y-57251545D01*
X14360172Y-57250414D01*
X14311346Y-57213542D01*
X14293500Y-57156841D01*
X14293500Y-55746810D01*
X14312407Y-55688619D01*
X14322490Y-55676812D01*
X14937644Y-55061657D01*
X14992159Y-55033882D01*
X15043408Y-55039347D01*
X15122060Y-55069818D01*
X15340757Y-55110700D01*
X15563243Y-55110700D01*
X15781940Y-55069818D01*
X15989401Y-54989447D01*
X16178562Y-54872324D01*
X16342981Y-54722436D01*
X16477058Y-54544889D01*
X16576229Y-54345728D01*
X16637115Y-54131736D01*
X16657643Y-53910200D01*
X16637115Y-53688664D01*
X16576229Y-53474672D01*
X16477058Y-53275511D01*
X16342981Y-53097964D01*
X16178562Y-52948076D01*
X15989401Y-52830953D01*
X15781940Y-52750582D01*
X15781939Y-52750581D01*
X15781937Y-52750581D01*
X15563243Y-52709700D01*
X15340757Y-52709700D01*
X15122062Y-52750581D01*
X15045797Y-52780126D01*
X14914599Y-52830953D01*
X14743795Y-52936710D01*
X14725438Y-52948076D01*
X14581212Y-53079556D01*
X14561019Y-53097964D01*
X14525837Y-53144552D01*
X14426943Y-53275509D01*
X14426938Y-53275518D01*
X14327772Y-53474669D01*
X14327771Y-53474672D01*
X14281869Y-53636000D01*
X14266885Y-53688664D01*
X14246357Y-53910200D01*
X14266885Y-54131737D01*
X14323278Y-54329938D01*
X14321017Y-54391081D01*
X14298061Y-54427034D01*
X13566221Y-55158874D01*
X13549748Y-55172149D01*
X13544956Y-55175228D01*
X13544948Y-55175236D01*
X13535652Y-55185963D01*
X13522568Y-55198524D01*
X13509031Y-55209320D01*
X13509028Y-55209323D01*
X13487078Y-55241516D01*
X13483589Y-55246047D01*
X13460116Y-55273138D01*
X13460116Y-55273139D01*
X13456963Y-55280043D01*
X13446572Y-55297691D01*
X13440209Y-55306313D01*
X13436742Y-55312874D01*
X13436353Y-55312668D01*
X13435351Y-55314653D01*
X13435747Y-55314844D01*
X13432525Y-55321533D01*
X13422046Y-55355504D01*
X13419771Y-55361479D01*
X13406303Y-55390970D01*
X13404685Y-55402226D01*
X13400138Y-55420827D01*
X13395355Y-55434495D01*
X13393977Y-55441782D01*
X13393545Y-55441700D01*
X13393171Y-55443900D01*
X13393605Y-55443966D01*
X13392500Y-55451299D01*
X13392500Y-55479897D01*
X13391492Y-55493986D01*
X13389621Y-55507003D01*
X13387867Y-55519200D01*
X13388159Y-55521232D01*
X13390020Y-55534175D01*
X13390958Y-55551959D01*
X13390275Y-55570207D01*
X13391107Y-55577585D01*
X13390668Y-55577634D01*
X13392500Y-55591544D01*
X13392500Y-69491713D01*
X13392189Y-69497259D01*
X13387730Y-69536834D01*
X13387730Y-69536836D01*
X13398788Y-69595279D01*
X13407652Y-69654087D01*
X13409840Y-69661181D01*
X13409417Y-69661311D01*
X13410109Y-69663413D01*
X13410526Y-69663268D01*
X13412975Y-69670268D01*
X13440777Y-69722873D01*
X13466574Y-69776441D01*
X13470753Y-69782570D01*
X13470389Y-69782817D01*
X13471677Y-69784631D01*
X13472030Y-69784371D01*
X13476431Y-69790335D01*
X13518496Y-69832400D01*
X13558944Y-69875994D01*
X13564743Y-69880618D01*
X13564467Y-69880963D01*
X13575600Y-69889504D01*
X14912904Y-71226808D01*
X14940681Y-71281325D01*
X14941900Y-71296812D01*
X14941900Y-73610189D01*
X14922993Y-73668380D01*
X14912904Y-73680193D01*
X14421993Y-74171104D01*
X14367476Y-74198881D01*
X14351989Y-74200100D01*
X11559687Y-74200100D01*
X11554141Y-74199789D01*
X11514565Y-74195330D01*
X11514561Y-74195330D01*
X11456119Y-74206388D01*
X11447454Y-74207694D01*
X11432700Y-74208800D01*
X7803879Y-74208800D01*
X7745688Y-74189893D01*
X7709724Y-74140393D01*
X7705887Y-74123893D01*
X7701097Y-74090574D01*
X7647282Y-73972737D01*
X7562449Y-73874833D01*
X7562448Y-73874832D01*
X7562447Y-73874831D01*
X7453473Y-73804798D01*
X7453470Y-73804796D01*
X7453469Y-73804796D01*
X7453466Y-73804795D01*
X7329174Y-73768300D01*
X7329172Y-73768300D01*
X7199628Y-73768300D01*
X7199625Y-73768300D01*
X7075333Y-73804795D01*
X7075326Y-73804798D01*
X6966352Y-73874831D01*
X6881517Y-73972738D01*
X6827702Y-74090574D01*
X6809267Y-74218797D01*
X6809267Y-74218802D01*
X6827702Y-74347025D01*
X6881517Y-74464861D01*
X6881518Y-74464863D01*
X6918033Y-74507004D01*
X6966352Y-74562768D01*
X7039324Y-74609664D01*
X7075331Y-74632804D01*
X7199628Y-74669300D01*
X7199630Y-74669300D01*
X7307265Y-74669300D01*
X7362267Y-74685985D01*
X7415392Y-74721483D01*
X7465134Y-74731377D01*
X7494810Y-74737280D01*
X7494830Y-74737283D01*
X7518399Y-74741971D01*
X7518400Y-74741971D01*
X7534835Y-74738701D01*
X7554148Y-74736800D01*
X10645598Y-74736800D01*
X10703789Y-74755707D01*
X10739753Y-74805207D01*
X10739753Y-74866393D01*
X10735653Y-74876924D01*
X10731703Y-74885572D01*
X10730085Y-74896826D01*
X10725539Y-74915426D01*
X10720754Y-74929101D01*
X10719200Y-74970594D01*
X10718731Y-74975788D01*
X10713267Y-75013799D01*
X10715420Y-75028775D01*
X10716358Y-75046559D01*
X10715675Y-75064807D01*
X10715676Y-75064815D01*
X10725540Y-75101629D01*
X10726724Y-75107400D01*
X10731701Y-75142021D01*
X10731702Y-75142023D01*
X10739551Y-75159211D01*
X10745122Y-75174709D01*
X10750824Y-75195989D01*
X10769287Y-75225371D01*
X10772404Y-75231149D01*
X10785518Y-75259864D01*
X10800350Y-75276980D01*
X10809354Y-75289136D01*
X10823077Y-75310974D01*
X10823077Y-75310975D01*
X10823078Y-75310976D01*
X10844037Y-75329012D01*
X10854284Y-75339224D01*
X10870351Y-75357767D01*
X10895479Y-75373916D01*
X10901000Y-75378033D01*
X10926012Y-75399558D01*
X10947916Y-75409114D01*
X10961851Y-75416570D01*
X10979331Y-75427804D01*
X11011269Y-75437181D01*
X11017112Y-75439304D01*
X11050484Y-75453865D01*
X11070500Y-75456119D01*
X11087308Y-75459508D01*
X11103624Y-75464299D01*
X11103625Y-75464299D01*
X11103628Y-75464300D01*
X11140313Y-75464300D01*
X11145859Y-75464611D01*
X11185435Y-75469070D01*
X11201523Y-75466026D01*
X11219928Y-75464300D01*
X11233167Y-75464300D01*
X11233172Y-75464300D01*
X11271672Y-75452994D01*
X11276375Y-75451862D01*
X11318872Y-75443823D01*
X11330010Y-75437935D01*
X11348382Y-75430472D01*
X11350375Y-75429886D01*
X11357469Y-75427804D01*
X11394096Y-75404264D01*
X11397692Y-75402164D01*
X11438938Y-75380366D01*
X11445176Y-75374126D01*
X11461658Y-75360845D01*
X11466449Y-75357767D01*
X11497175Y-75322306D01*
X11499571Y-75319731D01*
X11689207Y-75130096D01*
X11743725Y-75102319D01*
X11759211Y-75101100D01*
X14551513Y-75101100D01*
X14557059Y-75101411D01*
X14596635Y-75105870D01*
X14655079Y-75094811D01*
X14713887Y-75085948D01*
X14713894Y-75085944D01*
X14720981Y-75083759D01*
X14721112Y-75084184D01*
X14723213Y-75083492D01*
X14723067Y-75083073D01*
X14730064Y-75080624D01*
X14730072Y-75080623D01*
X14751738Y-75069172D01*
X14782672Y-75052823D01*
X14809456Y-75039923D01*
X14836242Y-75027025D01*
X14836246Y-75027021D01*
X14842378Y-75022842D01*
X14842628Y-75023209D01*
X14844432Y-75021929D01*
X14844168Y-75021571D01*
X14850129Y-75017170D01*
X14850138Y-75017166D01*
X14892199Y-74975104D01*
X14935794Y-74934655D01*
X14935798Y-74934647D01*
X14940420Y-74928853D01*
X14940766Y-74929129D01*
X14949303Y-74917999D01*
X15669178Y-74198123D01*
X15685655Y-74184847D01*
X15690449Y-74181767D01*
X15699739Y-74171044D01*
X15712831Y-74158475D01*
X15726370Y-74147679D01*
X15748324Y-74115477D01*
X15751806Y-74110954D01*
X15775282Y-74083863D01*
X15778433Y-74076962D01*
X15788831Y-74059300D01*
X15795193Y-74050682D01*
X15795194Y-74050676D01*
X15798658Y-74044124D01*
X15799052Y-74044332D01*
X15800051Y-74042353D01*
X15799651Y-74042160D01*
X15802868Y-74035477D01*
X15802872Y-74035473D01*
X15813357Y-74001476D01*
X15815624Y-73995523D01*
X15829097Y-73966026D01*
X15830713Y-73954781D01*
X15835263Y-73936168D01*
X15840046Y-73922499D01*
X15841426Y-73915208D01*
X15841860Y-73915290D01*
X15842229Y-73913121D01*
X15841792Y-73913056D01*
X15842696Y-73907053D01*
X15843551Y-73905342D01*
X15844213Y-73901448D01*
X15845090Y-73898606D01*
X15846674Y-73899095D01*
X15870058Y-73852326D01*
X15924361Y-73824135D01*
X15984864Y-73833246D01*
X15995751Y-73840516D01*
X15995994Y-73840139D01*
X16100115Y-73907053D01*
X16110931Y-73914004D01*
X16235228Y-73950500D01*
X16235230Y-73950500D01*
X16336139Y-73950500D01*
X16394330Y-73969407D01*
X16406143Y-73979496D01*
X17388048Y-74961401D01*
X17400358Y-74976402D01*
X17409667Y-74990333D01*
X17430498Y-75004252D01*
X17430506Y-75004258D01*
X17431708Y-75005061D01*
X17431710Y-75005063D01*
X17455834Y-75021182D01*
X17496991Y-75048683D01*
X17514080Y-75052082D01*
X17600000Y-75069172D01*
X17616439Y-75065902D01*
X17635753Y-75064000D01*
X18727090Y-75064000D01*
X18785281Y-75082907D01*
X18797094Y-75092996D01*
X18997370Y-75293272D01*
X19025147Y-75347789D01*
X19025358Y-75377362D01*
X19025262Y-75378041D01*
X19022131Y-75399817D01*
X19040566Y-75528039D01*
X19094381Y-75645875D01*
X19094382Y-75645877D01*
X19179215Y-75743781D01*
X19179216Y-75743782D01*
X19288190Y-75813815D01*
X19288195Y-75813818D01*
X19412492Y-75850314D01*
X19412494Y-75850314D01*
X19549117Y-75850314D01*
X19549117Y-75852278D01*
X19599987Y-75861071D01*
X19642639Y-75904940D01*
X19652805Y-75948722D01*
X19647083Y-82798277D01*
X19641067Y-90000218D01*
X19639479Y-91900583D01*
X19620523Y-91958758D01*
X19570993Y-91994680D01*
X19540479Y-91999500D01*
X18512503Y-91999500D01*
X18505699Y-91998645D01*
X18499745Y-91999488D01*
X18495649Y-92003573D01*
X18492248Y-92009500D01*
X17029450Y-93959900D01*
X16979410Y-93995108D01*
X16950250Y-93999500D01*
X5034903Y-93999500D01*
X4976712Y-93980593D01*
X4973058Y-93977806D01*
X37655Y-90029483D01*
X4027Y-89978367D01*
X500Y-89952177D01*
X500Y-65653349D01*
X19407Y-65595158D01*
X34308Y-65578844D01*
X1020055Y-64716315D01*
X3084186Y-62910200D01*
X4246357Y-62910200D01*
X4266885Y-63131736D01*
X4327771Y-63345728D01*
X4426942Y-63544889D01*
X4561019Y-63722436D01*
X4725438Y-63872324D01*
X4914599Y-63989447D01*
X5122060Y-64069818D01*
X5340757Y-64110700D01*
X5563243Y-64110700D01*
X5781940Y-64069818D01*
X5989401Y-63989447D01*
X6178562Y-63872324D01*
X6342981Y-63722436D01*
X6477058Y-63544889D01*
X6576229Y-63345728D01*
X6637115Y-63131736D01*
X6657643Y-62910200D01*
X6637115Y-62688664D01*
X6576229Y-62474672D01*
X6477058Y-62275511D01*
X6342981Y-62097964D01*
X6178562Y-61948076D01*
X5989401Y-61830953D01*
X5781940Y-61750582D01*
X5781939Y-61750581D01*
X5781937Y-61750581D01*
X5563243Y-61709700D01*
X5340757Y-61709700D01*
X5122062Y-61750581D01*
X5045797Y-61780126D01*
X4914599Y-61830953D01*
X4725437Y-61948075D01*
X4725438Y-61948076D01*
X4561020Y-62097963D01*
X4426943Y-62275509D01*
X4426938Y-62275518D01*
X4327772Y-62474669D01*
X4327771Y-62474672D01*
X4266885Y-62688664D01*
X4246357Y-62910200D01*
X3084186Y-62910200D01*
X5067715Y-61174612D01*
X5071876Y-61172050D01*
X5080380Y-61163584D01*
X5080383Y-61163583D01*
X5080384Y-61163580D01*
X5080504Y-61163461D01*
X5080529Y-61163406D01*
X5081325Y-61151803D01*
X5080500Y-61146797D01*
X5080500Y-54804330D01*
X5081313Y-54799434D01*
X5080531Y-54787613D01*
X5080490Y-54787524D01*
X5072238Y-54779265D01*
X5067994Y-54776630D01*
X2934931Y-52910200D01*
X4246357Y-52910200D01*
X4266885Y-53131736D01*
X4327771Y-53345728D01*
X4426942Y-53544889D01*
X4561019Y-53722436D01*
X4725438Y-53872324D01*
X4914599Y-53989447D01*
X5122060Y-54069818D01*
X5340757Y-54110700D01*
X5563243Y-54110700D01*
X5781940Y-54069818D01*
X5989401Y-53989447D01*
X6178562Y-53872324D01*
X6342981Y-53722436D01*
X6477058Y-53544889D01*
X6576229Y-53345728D01*
X6637115Y-53131736D01*
X6657643Y-52910200D01*
X6637115Y-52688664D01*
X6576229Y-52474672D01*
X6477058Y-52275511D01*
X6342981Y-52097964D01*
X6178562Y-51948076D01*
X5989401Y-51830953D01*
X5781940Y-51750582D01*
X5781939Y-51750581D01*
X5781937Y-51750581D01*
X5563243Y-51709700D01*
X5340757Y-51709700D01*
X5122062Y-51750581D01*
X5045797Y-51780126D01*
X4914599Y-51830953D01*
X4725438Y-51948076D01*
X4561019Y-52097964D01*
X4521346Y-52150500D01*
X4426943Y-52275509D01*
X4426938Y-52275518D01*
X4327772Y-52474669D01*
X4327771Y-52474672D01*
X4266885Y-52688664D01*
X4246357Y-52910200D01*
X2934931Y-52910200D01*
X34307Y-50372154D01*
X2965Y-50319606D01*
X500Y-50297657D01*
X500Y-99500D01*
X19407Y-41309D01*
X68907Y-5345D01*
X99500Y-500D01*
X89900500Y-500D01*
X89958691Y-19407D01*
G37*
%TD.AperFunction*%
%TA.AperFunction,Conductor*%
G36*
X78193345Y-53061350D02*
G01*
X78236610Y-53104615D01*
X78247400Y-53149560D01*
X78247400Y-54980646D01*
X78245498Y-54999958D01*
X78242228Y-55016399D01*
X78242228Y-55016400D01*
X78245705Y-55033882D01*
X78247400Y-55042402D01*
X78262716Y-55119405D01*
X78262717Y-55119408D01*
X78310108Y-55190333D01*
X78321067Y-55206733D01*
X78335004Y-55216045D01*
X78349999Y-55228351D01*
X78641106Y-55519458D01*
X78668883Y-55573975D01*
X78669094Y-55603548D01*
X78665868Y-55625997D01*
X78665867Y-55626003D01*
X78684302Y-55754225D01*
X78705044Y-55799642D01*
X78738118Y-55872063D01*
X78809061Y-55953937D01*
X78822952Y-55969968D01*
X78914642Y-56028893D01*
X78931931Y-56040004D01*
X78947937Y-56044703D01*
X78998443Y-56079237D01*
X79019006Y-56136863D01*
X79001769Y-56195571D01*
X78980161Y-56216573D01*
X78980701Y-56217197D01*
X78975353Y-56221830D01*
X78890517Y-56319738D01*
X78836702Y-56437574D01*
X78818267Y-56565797D01*
X78818267Y-56565802D01*
X78836702Y-56694025D01*
X78871981Y-56771273D01*
X78878956Y-56832060D01*
X78848870Y-56885337D01*
X78793214Y-56910755D01*
X78781928Y-56911400D01*
X76841153Y-56911400D01*
X76782962Y-56892493D01*
X76766334Y-56877231D01*
X76726650Y-56831434D01*
X76726648Y-56831432D01*
X76652280Y-56783639D01*
X76613549Y-56736273D01*
X76610055Y-56675188D01*
X76635797Y-56630353D01*
X77275801Y-55990349D01*
X77290791Y-55978048D01*
X77304733Y-55968733D01*
X77363083Y-55881408D01*
X77373144Y-55830828D01*
X77383572Y-55778400D01*
X77381681Y-55768893D01*
X77380302Y-55761958D01*
X77378400Y-55742646D01*
X77378400Y-53820559D01*
X77397307Y-53762368D01*
X77407390Y-53750561D01*
X78078396Y-53079556D01*
X78132913Y-53051779D01*
X78193345Y-53061350D01*
G37*
%TD.AperFunction*%
%TA.AperFunction,Conductor*%
G36*
X85987379Y-40518207D02*
G01*
X85999192Y-40528296D01*
X87328303Y-41857407D01*
X87356080Y-41911924D01*
X87357299Y-41927411D01*
X87357300Y-46303698D01*
X87357300Y-47189389D01*
X87338393Y-47247580D01*
X87288893Y-47283544D01*
X87227707Y-47283544D01*
X87188296Y-47259393D01*
X87066784Y-47137880D01*
X87064375Y-47135293D01*
X87033650Y-47099833D01*
X87033646Y-47099830D01*
X86992743Y-47073544D01*
X86990110Y-47071729D01*
X86948482Y-47041007D01*
X86948478Y-47041005D01*
X86945509Y-47039966D01*
X86924691Y-47029810D01*
X86924668Y-47029795D01*
X86924669Y-47029795D01*
X86874746Y-47015137D01*
X86872343Y-47014364D01*
X86820295Y-46996152D01*
X86817266Y-46995579D01*
X86807427Y-46993976D01*
X86807380Y-46994308D01*
X86800374Y-46993300D01*
X86800372Y-46993300D01*
X86800369Y-46993300D01*
X86744027Y-46993300D01*
X86724213Y-46992558D01*
X86684590Y-46991076D01*
X86684589Y-46991076D01*
X86684588Y-46991076D01*
X86683984Y-46991144D01*
X86679687Y-46992025D01*
X86670830Y-46993299D01*
X86637523Y-47003078D01*
X86613831Y-47010035D01*
X86599673Y-47013828D01*
X86553406Y-47026225D01*
X86553164Y-47026331D01*
X86547929Y-47029155D01*
X86546543Y-47029788D01*
X86493945Y-47063590D01*
X86438424Y-47098477D01*
X86394670Y-47149319D01*
X86351544Y-47199092D01*
X86349996Y-47201166D01*
X86349843Y-47201410D01*
X86349842Y-47201411D01*
X86349842Y-47201412D01*
X86324216Y-47260146D01*
X86304017Y-47304377D01*
X86298901Y-47315579D01*
X86297454Y-47320506D01*
X86295634Y-47325515D01*
X86295534Y-47325888D01*
X86288705Y-47386502D01*
X86280467Y-47443797D01*
X86280467Y-47450878D01*
X86279855Y-47450878D01*
X86279893Y-47453426D01*
X86280053Y-47453421D01*
X86280330Y-47460839D01*
X86291101Y-47517766D01*
X86298901Y-47572021D01*
X86300897Y-47578817D01*
X86300830Y-47578836D01*
X86305341Y-47593028D01*
X86305576Y-47594269D01*
X86305576Y-47594270D01*
X86305576Y-47594271D01*
X86305577Y-47594272D01*
X86329338Y-47639230D01*
X86330558Y-47641537D01*
X86331806Y-47644073D01*
X86339376Y-47660648D01*
X86352716Y-47689861D01*
X86353972Y-47691310D01*
X86366676Y-47709876D01*
X86369033Y-47714337D01*
X86369036Y-47714340D01*
X86404421Y-47749726D01*
X86406829Y-47752312D01*
X86437549Y-47787766D01*
X86437551Y-47787767D01*
X86442337Y-47790843D01*
X86458820Y-47804124D01*
X87328304Y-48673607D01*
X87356081Y-48728124D01*
X87357300Y-48743611D01*
X87357300Y-49937388D01*
X87338393Y-49995579D01*
X87328304Y-50007392D01*
X86436901Y-50898793D01*
X86432760Y-50902494D01*
X86401631Y-50927319D01*
X86368119Y-50976471D01*
X86332807Y-51024316D01*
X86329342Y-51030874D01*
X86328953Y-51030668D01*
X86327950Y-51032655D01*
X86328346Y-51032846D01*
X86325128Y-51039527D01*
X86307592Y-51096377D01*
X86287955Y-51152497D01*
X86286576Y-51159787D01*
X86286144Y-51159705D01*
X86285771Y-51161900D01*
X86286205Y-51161966D01*
X86285100Y-51169299D01*
X86285100Y-51228772D01*
X86282876Y-51288210D01*
X86283707Y-51295585D01*
X86283269Y-51295634D01*
X86285099Y-51309544D01*
X86285100Y-53092389D01*
X86266193Y-53150580D01*
X86256104Y-53162393D01*
X85176104Y-54242393D01*
X85121587Y-54270170D01*
X85061155Y-54260599D01*
X85017890Y-54217334D01*
X85007100Y-54172389D01*
X85007100Y-53749085D01*
X85007411Y-53743538D01*
X85011870Y-53703965D01*
X85000811Y-53645520D01*
X84991948Y-53586713D01*
X84991946Y-53586709D01*
X84989760Y-53579622D01*
X84990182Y-53579491D01*
X84989490Y-53577388D01*
X84989074Y-53577534D01*
X84986622Y-53570526D01*
X84958826Y-53517936D01*
X84945685Y-53490647D01*
X84933025Y-53464358D01*
X84933024Y-53464357D01*
X84933023Y-53464354D01*
X84928844Y-53458225D01*
X84929207Y-53457977D01*
X84927924Y-53456169D01*
X84927570Y-53456431D01*
X84923167Y-53450465D01*
X84923166Y-53450464D01*
X84923165Y-53450462D01*
X84881116Y-53408413D01*
X84870904Y-53397407D01*
X84840656Y-53364806D01*
X84834858Y-53360183D01*
X84835132Y-53359839D01*
X84823997Y-53351294D01*
X83639096Y-52166393D01*
X83611319Y-52111876D01*
X83610100Y-52096389D01*
X83610100Y-50678085D01*
X83610411Y-50672538D01*
X83611216Y-50665396D01*
X83614870Y-50632965D01*
X83603811Y-50574520D01*
X83594948Y-50515713D01*
X83594946Y-50515709D01*
X83592760Y-50508622D01*
X83593182Y-50508491D01*
X83592490Y-50506388D01*
X83592074Y-50506534D01*
X83589622Y-50499526D01*
X83561826Y-50446936D01*
X83536023Y-50393354D01*
X83531844Y-50387225D01*
X83532207Y-50386977D01*
X83530924Y-50385169D01*
X83530570Y-50385431D01*
X83526167Y-50379465D01*
X83526166Y-50379464D01*
X83526165Y-50379462D01*
X83484116Y-50337413D01*
X83460333Y-50311781D01*
X83440449Y-50288833D01*
X83440445Y-50288830D01*
X83399543Y-50262544D01*
X83396910Y-50260729D01*
X83355282Y-50230007D01*
X83355278Y-50230005D01*
X83352309Y-50228966D01*
X83331491Y-50218810D01*
X83331468Y-50218795D01*
X83331469Y-50218795D01*
X83281546Y-50204137D01*
X83279143Y-50203364D01*
X83227095Y-50185152D01*
X83224066Y-50184579D01*
X83214227Y-50182976D01*
X83214180Y-50183308D01*
X83207174Y-50182300D01*
X83207172Y-50182300D01*
X83207169Y-50182300D01*
X83150827Y-50182300D01*
X83131014Y-50181558D01*
X83091390Y-50180076D01*
X83091389Y-50180076D01*
X83091388Y-50180076D01*
X83090784Y-50180144D01*
X83086496Y-50181024D01*
X83079505Y-50182030D01*
X83019214Y-50171606D01*
X82976565Y-50127735D01*
X82966400Y-50084040D01*
X82966400Y-49949267D01*
X82966400Y-49807355D01*
X82985306Y-49749169D01*
X82995383Y-49737368D01*
X84006801Y-48725949D01*
X84021791Y-48713648D01*
X84035733Y-48704333D01*
X84094083Y-48617008D01*
X84109400Y-48540002D01*
X84109400Y-48539998D01*
X84114571Y-48514000D01*
X84111301Y-48497560D01*
X84109400Y-48478261D01*
X84109400Y-48272282D01*
X84128308Y-48214091D01*
X84143046Y-48198030D01*
X84143444Y-48197569D01*
X84143449Y-48197567D01*
X84228282Y-48099663D01*
X84282097Y-47981826D01*
X84283185Y-47974254D01*
X84310177Y-47919347D01*
X84364289Y-47890789D01*
X84424852Y-47899492D01*
X84451182Y-47918333D01*
X85330405Y-48797557D01*
X85358181Y-48852072D01*
X85359400Y-48867559D01*
X85359400Y-51024168D01*
X85340493Y-51082359D01*
X85313926Y-51107451D01*
X85299952Y-51116431D01*
X85215117Y-51214338D01*
X85161302Y-51332174D01*
X85142867Y-51460397D01*
X85142867Y-51460402D01*
X85161302Y-51588625D01*
X85205147Y-51684630D01*
X85215118Y-51706463D01*
X85253346Y-51750581D01*
X85299952Y-51804368D01*
X85345513Y-51833648D01*
X85408931Y-51874404D01*
X85533228Y-51910900D01*
X85533230Y-51910900D01*
X85662770Y-51910900D01*
X85662772Y-51910900D01*
X85787069Y-51874404D01*
X85896049Y-51804367D01*
X85980882Y-51706463D01*
X86034697Y-51588626D01*
X86053133Y-51460400D01*
X86050954Y-51445248D01*
X86034697Y-51332174D01*
X86024362Y-51309544D01*
X85980882Y-51214337D01*
X85941857Y-51169299D01*
X85911580Y-51134356D01*
X85887763Y-51077997D01*
X85887400Y-51069526D01*
X85887400Y-49920841D01*
X85887400Y-48752937D01*
X85889301Y-48733638D01*
X85892571Y-48717200D01*
X85892570Y-48717197D01*
X85887883Y-48693630D01*
X85887880Y-48693610D01*
X85877358Y-48640714D01*
X85872083Y-48614192D01*
X85813733Y-48526867D01*
X85799800Y-48517557D01*
X85784798Y-48505246D01*
X85291728Y-48012176D01*
X85263951Y-47957659D01*
X85273522Y-47897227D01*
X85316787Y-47853962D01*
X85333832Y-47847185D01*
X85344669Y-47844004D01*
X85453649Y-47773967D01*
X85538482Y-47676063D01*
X85592297Y-47558226D01*
X85608749Y-47443800D01*
X85610733Y-47430002D01*
X85610733Y-47429997D01*
X85592297Y-47301774D01*
X85589111Y-47294797D01*
X85538482Y-47183937D01*
X85453649Y-47086033D01*
X85453648Y-47086032D01*
X85453647Y-47086031D01*
X85344673Y-47015998D01*
X85344670Y-47015996D01*
X85344669Y-47015996D01*
X85344666Y-47015995D01*
X85220374Y-46979500D01*
X85220372Y-46979500D01*
X85163660Y-46979500D01*
X85105469Y-46960593D01*
X85093656Y-46950504D01*
X83325596Y-45182444D01*
X83297819Y-45127927D01*
X83296600Y-45112440D01*
X83296600Y-42517559D01*
X83315507Y-42459368D01*
X83325597Y-42447555D01*
X83671757Y-42101396D01*
X83726273Y-42073619D01*
X83741760Y-42072400D01*
X85846959Y-42072400D01*
X85900480Y-42088115D01*
X85975931Y-42136604D01*
X86100228Y-42173100D01*
X86100230Y-42173100D01*
X86229770Y-42173100D01*
X86229772Y-42173100D01*
X86354069Y-42136604D01*
X86463049Y-42066567D01*
X86547882Y-41968663D01*
X86601697Y-41850826D01*
X86620133Y-41722600D01*
X86620095Y-41722338D01*
X86601697Y-41594374D01*
X86578874Y-41544400D01*
X86547882Y-41476537D01*
X86463049Y-41378633D01*
X86463048Y-41378632D01*
X86463047Y-41378631D01*
X86354073Y-41308598D01*
X86354070Y-41308596D01*
X86354069Y-41308596D01*
X86354066Y-41308595D01*
X86229774Y-41272100D01*
X86229772Y-41272100D01*
X86100228Y-41272100D01*
X86100225Y-41272100D01*
X85975933Y-41308595D01*
X85975926Y-41308598D01*
X85866952Y-41378631D01*
X85782117Y-41476538D01*
X85777557Y-41486525D01*
X85736186Y-41531603D01*
X85687503Y-41544400D01*
X83627153Y-41544400D01*
X83607840Y-41542498D01*
X83591400Y-41539228D01*
X83574960Y-41542498D01*
X83555647Y-41544400D01*
X82627802Y-41544400D01*
X82569611Y-41525493D01*
X82533647Y-41475993D01*
X82533647Y-41414807D01*
X82552983Y-41380569D01*
X82575948Y-41354065D01*
X82582882Y-41346063D01*
X82636697Y-41228226D01*
X82645931Y-41164000D01*
X82655133Y-41100002D01*
X82655133Y-41099997D01*
X82636697Y-40971774D01*
X82604080Y-40900354D01*
X82582882Y-40853937D01*
X82498049Y-40756033D01*
X82459382Y-40731183D01*
X82420652Y-40683818D01*
X82417160Y-40622732D01*
X82450239Y-40571260D01*
X82507255Y-40549061D01*
X82512907Y-40548900D01*
X83496828Y-40548900D01*
X83533513Y-40548900D01*
X83539059Y-40549211D01*
X83578635Y-40553670D01*
X83594723Y-40550626D01*
X83613128Y-40548900D01*
X83626371Y-40548900D01*
X83626372Y-40548900D01*
X83626373Y-40548899D01*
X83626377Y-40548899D01*
X83655849Y-40540245D01*
X83662409Y-40538793D01*
X83695887Y-40533748D01*
X83695891Y-40533745D01*
X83702979Y-40531560D01*
X83703110Y-40531985D01*
X83705213Y-40531292D01*
X83705067Y-40530873D01*
X83712063Y-40528424D01*
X83712072Y-40528423D01*
X83723213Y-40522533D01*
X83741583Y-40515072D01*
X83750667Y-40512405D01*
X83757107Y-40509464D01*
X83758101Y-40511641D01*
X83800128Y-40499300D01*
X85929188Y-40499300D01*
X85987379Y-40518207D01*
G37*
%TD.AperFunction*%
%TA.AperFunction,Conductor*%
G36*
X85177493Y-34610739D02*
G01*
X85188984Y-34637353D01*
X85190928Y-34636673D01*
X85193376Y-34643670D01*
X85193376Y-34643671D01*
X85193377Y-34643672D01*
X85206726Y-34668930D01*
X85218358Y-34690937D01*
X85219606Y-34693473D01*
X85230177Y-34716619D01*
X85240516Y-34739261D01*
X85241772Y-34740710D01*
X85254476Y-34759276D01*
X85256833Y-34763737D01*
X85256836Y-34763740D01*
X85292221Y-34799126D01*
X85294629Y-34801712D01*
X85325349Y-34837166D01*
X85325351Y-34837167D01*
X85330137Y-34840243D01*
X85346620Y-34853524D01*
X86342006Y-35848910D01*
X87328304Y-36835207D01*
X87356081Y-36889724D01*
X87357300Y-36905211D01*
X87357300Y-40373188D01*
X87338393Y-40431379D01*
X87288893Y-40467343D01*
X87227707Y-40467343D01*
X87188296Y-40443192D01*
X86495202Y-39750098D01*
X86491510Y-39745967D01*
X86466679Y-39714830D01*
X86466675Y-39714827D01*
X86461240Y-39709783D01*
X86461444Y-39709562D01*
X86460698Y-39708897D01*
X86460202Y-39709471D01*
X86454849Y-39704833D01*
X86413943Y-39678543D01*
X86411311Y-39676729D01*
X86369685Y-39646008D01*
X86363127Y-39642543D01*
X86363332Y-39642154D01*
X86361343Y-39641150D01*
X86361153Y-39641546D01*
X86354476Y-39638330D01*
X86354473Y-39638328D01*
X86354468Y-39638326D01*
X86354189Y-39638192D01*
X86348885Y-39636172D01*
X86345877Y-39634798D01*
X86295946Y-39620137D01*
X86293544Y-39619365D01*
X86241494Y-39601152D01*
X86234206Y-39599773D01*
X86234287Y-39599342D01*
X86232102Y-39598971D01*
X86232037Y-39599405D01*
X86224703Y-39598300D01*
X86224702Y-39598300D01*
X86165227Y-39598300D01*
X86145414Y-39597558D01*
X86105790Y-39596076D01*
X86105789Y-39596076D01*
X86105788Y-39596076D01*
X86098415Y-39596907D01*
X86098365Y-39596468D01*
X86084456Y-39598300D01*
X83639287Y-39598300D01*
X83633741Y-39597989D01*
X83594165Y-39593530D01*
X83594161Y-39593530D01*
X83535719Y-39604588D01*
X83476914Y-39613450D01*
X83469828Y-39615637D01*
X83469698Y-39615216D01*
X83467589Y-39615910D01*
X83467734Y-39616325D01*
X83460727Y-39618776D01*
X83427329Y-39636428D01*
X83381071Y-39647900D01*
X82300985Y-39647900D01*
X82242794Y-39628993D01*
X82206830Y-39579493D01*
X82206830Y-39518307D01*
X82230670Y-39485493D01*
X82231218Y-39483808D01*
X82233463Y-39481649D01*
X82242794Y-39468807D01*
X82245981Y-39466586D01*
X82256307Y-39459686D01*
X82256307Y-39459687D01*
X82256314Y-39459681D01*
X82257733Y-39458733D01*
X82267043Y-39444797D01*
X82279350Y-39429800D01*
X84895803Y-36813348D01*
X84910803Y-36801040D01*
X84924733Y-36791733D01*
X84934798Y-36776668D01*
X84934806Y-36776659D01*
X84939461Y-36769690D01*
X84939463Y-36769690D01*
X84965715Y-36730399D01*
X84983083Y-36704408D01*
X84998400Y-36627402D01*
X84998400Y-36627401D01*
X84999349Y-36622631D01*
X84999349Y-36622630D01*
X85003572Y-36601400D01*
X85000302Y-36584958D01*
X84998400Y-36565646D01*
X84998400Y-34668930D01*
X85017307Y-34610739D01*
X85066807Y-34574775D01*
X85127993Y-34574775D01*
X85177493Y-34610739D01*
G37*
%TD.AperFunction*%
%TA.AperFunction,Conductor*%
G36*
X78368431Y-37570107D02*
G01*
X78380244Y-37580196D01*
X79229044Y-38428996D01*
X79256821Y-38483513D01*
X79247250Y-38543945D01*
X79203985Y-38587210D01*
X79159040Y-38598000D01*
X75398522Y-38598000D01*
X75340331Y-38579093D01*
X75328519Y-38569004D01*
X75273616Y-38514102D01*
X75261309Y-38499107D01*
X75251995Y-38485167D01*
X75217530Y-38462138D01*
X75191607Y-38444816D01*
X75176357Y-38425471D01*
X75175601Y-38425766D01*
X75150636Y-38424025D01*
X75087664Y-38411500D01*
X75061662Y-38406328D01*
X75061661Y-38406328D01*
X75045222Y-38409598D01*
X75025909Y-38411500D01*
X74903646Y-38411500D01*
X74845455Y-38392593D01*
X74809491Y-38343093D01*
X74809491Y-38281907D01*
X74813592Y-38271374D01*
X74827569Y-38240768D01*
X74833297Y-38228226D01*
X74840149Y-38180566D01*
X74867144Y-38125661D01*
X74921258Y-38097107D01*
X74957450Y-38097558D01*
X75046000Y-38115172D01*
X75046002Y-38115171D01*
X75047925Y-38115554D01*
X75101309Y-38145450D01*
X75103427Y-38147816D01*
X75128429Y-38176670D01*
X75139952Y-38189968D01*
X75223472Y-38243643D01*
X75240456Y-38264413D01*
X75242723Y-38263577D01*
X75274496Y-38267510D01*
X75373228Y-38296500D01*
X75373230Y-38296500D01*
X75502770Y-38296500D01*
X75502772Y-38296500D01*
X75627069Y-38260004D01*
X75736049Y-38189967D01*
X75747570Y-38176670D01*
X75799966Y-38145073D01*
X75860927Y-38150308D01*
X75897209Y-38176668D01*
X75952751Y-38240767D01*
X75952752Y-38240768D01*
X76052796Y-38305062D01*
X76061731Y-38310804D01*
X76186028Y-38347300D01*
X76186030Y-38347300D01*
X76315570Y-38347300D01*
X76315572Y-38347300D01*
X76439869Y-38310804D01*
X76548849Y-38240767D01*
X76633682Y-38142863D01*
X76687497Y-38025026D01*
X76688970Y-38014776D01*
X76715963Y-37959868D01*
X76770076Y-37931312D01*
X76830639Y-37940016D01*
X76874519Y-37982656D01*
X76877016Y-37987734D01*
X76894276Y-38025526D01*
X76909318Y-38058463D01*
X76954171Y-38110227D01*
X76994152Y-38156368D01*
X77075111Y-38208397D01*
X77103131Y-38226404D01*
X77227428Y-38262900D01*
X77227430Y-38262900D01*
X77356970Y-38262900D01*
X77356972Y-38262900D01*
X77481269Y-38226404D01*
X77590249Y-38156367D01*
X77675082Y-38058463D01*
X77728897Y-37940626D01*
X77747333Y-37812400D01*
X77744105Y-37789950D01*
X77754537Y-37729661D01*
X77772090Y-37705860D01*
X77897755Y-37580196D01*
X77952273Y-37552419D01*
X77967759Y-37551200D01*
X78310240Y-37551200D01*
X78368431Y-37570107D01*
G37*
%TD.AperFunction*%
%TD*%
%TA.AperFunction,Conductor*%
%TO.N,Net-(D1-A)*%
G36*
X75635506Y-70513907D02*
G01*
X75653735Y-70531064D01*
X75948821Y-70889383D01*
X75971218Y-70946321D01*
X75971400Y-70952317D01*
X75971400Y-72339200D01*
X76555600Y-72948800D01*
X79225200Y-72948800D01*
X79283391Y-72967707D01*
X79319355Y-73017207D01*
X79324200Y-73047800D01*
X79324200Y-75770800D01*
X79305293Y-75828991D01*
X79255793Y-75864955D01*
X79225200Y-75869800D01*
X74904600Y-75869800D01*
X74574400Y-75869800D01*
X69719330Y-75869800D01*
X69661139Y-75850893D01*
X69625175Y-75801393D01*
X69620336Y-75771876D01*
X69597095Y-73633768D01*
X69615369Y-73575375D01*
X69664475Y-73538875D01*
X69696766Y-73533694D01*
X73279000Y-73558400D01*
X73685400Y-73152000D01*
X73661047Y-70594942D01*
X73679400Y-70536575D01*
X73728555Y-70500141D01*
X73760043Y-70495000D01*
X75577315Y-70495000D01*
X75635506Y-70513907D01*
G37*
%TD.AperFunction*%
%TD*%
M02*
