%TF.GenerationSoftware,KiCad,Pcbnew,7.0.7*%
%TF.CreationDate,2023-11-02T23:48:11+00:00*%
%TF.ProjectId,mod-badge-inercia,6d6f642d-6261-4646-9765-2d696e657263,rev?*%
%TF.SameCoordinates,Original*%
%TF.FileFunction,Legend,Bot*%
%TF.FilePolarity,Positive*%
%FSLAX46Y46*%
G04 Gerber Fmt 4.6, Leading zero omitted, Abs format (unit mm)*
G04 Created by KiCad (PCBNEW 7.0.7) date 2023-11-02 23:48:11*
%MOMM*%
%LPD*%
G01*
G04 APERTURE LIST*
%ADD10C,0.200000*%
%ADD11C,0.150000*%
%ADD12C,0.830000*%
%ADD13C,0.120000*%
%ADD14C,0.100000*%
%ADD15C,0.127000*%
G04 APERTURE END LIST*
D10*
X67000000Y-68300000D02*
X69000000Y-68300000D01*
X69000000Y-70200000D01*
X67000000Y-70200000D01*
X67000000Y-68300000D01*
X67000000Y-75250000D02*
X69000000Y-75250000D01*
X69000000Y-77150000D01*
X67000000Y-77150000D01*
X67000000Y-75250000D01*
D11*
X68600000Y-38900000D02*
G75*
G03*
X68600000Y-38900000I-10000000J0D01*
G01*
D10*
X25300000Y-1100000D02*
X27300000Y-1100000D01*
X27300000Y-3000000D01*
X25300000Y-3000000D01*
X25300000Y-1100000D01*
X67000000Y-71850000D02*
X69000000Y-71850000D01*
X69000000Y-73750000D01*
X67000000Y-73750000D01*
X67000000Y-71850000D01*
D11*
G36*
X68600976Y-64929267D02*
G01*
X67381716Y-64929267D01*
X67381716Y-65460739D01*
X67569295Y-65460739D01*
X67569295Y-65282442D01*
X67725610Y-65282442D01*
X67725610Y-65103656D01*
X68069504Y-65103656D01*
X68069504Y-65648318D01*
X67913189Y-65648318D01*
X67913189Y-65460739D01*
X67725610Y-65460739D01*
X67725610Y-66148527D01*
X67913189Y-66148527D01*
X67913189Y-65992212D01*
X68069504Y-65992212D01*
X68069504Y-66505610D01*
X67913189Y-66505610D01*
X67913189Y-66680000D01*
X68600976Y-66680000D01*
X68600976Y-66505610D01*
X68419748Y-66505610D01*
X68419748Y-65103656D01*
X68600976Y-65103656D01*
X68600976Y-64929267D01*
G37*
G36*
X66676831Y-64929267D02*
G01*
X66326587Y-64929267D01*
X66326587Y-65273161D01*
X66676831Y-65273161D01*
X66676831Y-64929267D01*
G37*
G36*
X66858060Y-65460739D02*
G01*
X66326587Y-65460739D01*
X66326587Y-66505610D01*
X66170272Y-66505610D01*
X66170272Y-66680000D01*
X66858060Y-66680000D01*
X66858060Y-66505610D01*
X66676831Y-66505610D01*
X66676831Y-65635129D01*
X66858060Y-65635129D01*
X66858060Y-65460739D01*
G37*
G36*
X65802930Y-65460739D02*
G01*
X65452686Y-65460739D01*
X65452686Y-65648318D01*
X65271458Y-65648318D01*
X65271458Y-66680000D01*
X65621702Y-66680000D01*
X65621702Y-65635129D01*
X65802930Y-65635129D01*
X65802930Y-65460739D01*
G37*
G36*
X65271458Y-65460739D02*
G01*
X64739986Y-65460739D01*
X64739986Y-65648318D01*
X64577320Y-65648318D01*
X64577320Y-66680000D01*
X64927564Y-66680000D01*
X64927564Y-65635129D01*
X65271458Y-65635129D01*
X65271458Y-65460739D01*
G37*
G36*
X63884647Y-64929267D02*
G01*
X63365875Y-64929267D01*
X63365875Y-66505610D01*
X63178297Y-66505610D01*
X63178297Y-66680000D01*
X63528541Y-66680000D01*
X63528541Y-66505610D01*
X63716120Y-66505610D01*
X63716120Y-65635129D01*
X64053663Y-65635129D01*
X64053663Y-66505610D01*
X63716120Y-66505610D01*
X63716120Y-66680000D01*
X64247592Y-66680000D01*
X64247592Y-66505610D01*
X64403907Y-66505610D01*
X64403907Y-65648318D01*
X64247592Y-65648318D01*
X64247592Y-65460739D01*
X63716120Y-65460739D01*
X63716120Y-65103656D01*
X63884647Y-65103656D01*
X63884647Y-64929267D01*
G37*
G36*
X61080739Y-64929267D02*
G01*
X60730495Y-64929267D01*
X60730495Y-65273161D01*
X61080739Y-65273161D01*
X61080739Y-64929267D01*
G37*
G36*
X61261967Y-65460739D02*
G01*
X60730495Y-65460739D01*
X60730495Y-66505610D01*
X60574180Y-66505610D01*
X60574180Y-66680000D01*
X61261967Y-66680000D01*
X61261967Y-66505610D01*
X61080739Y-66505610D01*
X61080739Y-65635129D01*
X61261967Y-65635129D01*
X61261967Y-65460739D01*
G37*
G36*
X60206838Y-65460739D02*
G01*
X59856594Y-65460739D01*
X59856594Y-65648318D01*
X59675366Y-65648318D01*
X59675366Y-66680000D01*
X60025610Y-66680000D01*
X60025610Y-65635129D01*
X60206838Y-65635129D01*
X60206838Y-65460739D01*
G37*
G36*
X59675366Y-65460739D02*
G01*
X59143893Y-65460739D01*
X59143893Y-65648318D01*
X58981228Y-65648318D01*
X58981228Y-66680000D01*
X59331472Y-66680000D01*
X59331472Y-65635129D01*
X59675366Y-65635129D01*
X59675366Y-65460739D01*
G37*
G36*
X58620237Y-65630244D02*
G01*
X58807815Y-65630244D01*
X58807815Y-66505610D01*
X58620237Y-66505610D01*
X58620237Y-66680000D01*
X57744870Y-66680000D01*
X57744870Y-66505610D01*
X57582205Y-66505610D01*
X57582205Y-66336106D01*
X57932449Y-66336106D01*
X57932449Y-66505610D01*
X58457571Y-66505610D01*
X58457571Y-66148527D01*
X57582205Y-66148527D01*
X57582205Y-65635129D01*
X57932449Y-65635129D01*
X57932449Y-65974138D01*
X58457571Y-65974138D01*
X58457571Y-65635129D01*
X57932449Y-65635129D01*
X57582205Y-65635129D01*
X57582205Y-65630244D01*
X57744870Y-65630244D01*
X57744870Y-65460739D01*
X58620237Y-65460739D01*
X58620237Y-65630244D01*
G37*
G36*
X58276343Y-65291235D02*
G01*
X58088764Y-65291235D01*
X58088764Y-65116845D01*
X58276343Y-65116845D01*
X58276343Y-65291235D01*
G37*
G36*
X57932449Y-64929267D02*
G01*
X58088764Y-64929267D01*
X58088764Y-65103656D01*
X57744870Y-65103656D01*
X57744870Y-64929267D01*
X57582205Y-64929267D01*
X57582205Y-64772951D01*
X57932449Y-64772951D01*
X57932449Y-64929267D01*
G37*
G36*
X57408792Y-65460739D02*
G01*
X57058548Y-65460739D01*
X57058548Y-65635129D01*
X56877320Y-65635129D01*
X56877320Y-65460739D01*
X56183182Y-65460739D01*
X56183182Y-65809030D01*
X56533426Y-65809030D01*
X56533426Y-65635129D01*
X56721004Y-65635129D01*
X56721004Y-65809030D01*
X56877320Y-65809030D01*
X56877320Y-66505610D01*
X56721004Y-66505610D01*
X56721004Y-66680000D01*
X57408792Y-66680000D01*
X57408792Y-66505610D01*
X57227564Y-66505610D01*
X57227564Y-65635129D01*
X57408792Y-65635129D01*
X57408792Y-65460739D01*
G37*
G36*
X55822191Y-65460739D02*
G01*
X54946824Y-65460739D01*
X54946824Y-65630244D01*
X54784159Y-65630244D01*
X54784159Y-65804633D01*
X55134403Y-65804633D01*
X55134403Y-65635129D01*
X55659525Y-65635129D01*
X55659525Y-66505610D01*
X55134403Y-66505610D01*
X55134403Y-66336106D01*
X54784159Y-66336106D01*
X54784159Y-66505610D01*
X54946824Y-66505610D01*
X54946824Y-66680000D01*
X55822191Y-66680000D01*
X55822191Y-66505610D01*
X56009769Y-66505610D01*
X56009769Y-65630244D01*
X55822191Y-65630244D01*
X55822191Y-65460739D01*
G37*
G36*
X54085624Y-64929267D02*
G01*
X53735380Y-64929267D01*
X53735380Y-65273161D01*
X54085624Y-65273161D01*
X54085624Y-64929267D01*
G37*
G36*
X54266852Y-65460739D02*
G01*
X53735380Y-65460739D01*
X53735380Y-66505610D01*
X53579064Y-66505610D01*
X53579064Y-66680000D01*
X54266852Y-66680000D01*
X54266852Y-66505610D01*
X54085624Y-66505610D01*
X54085624Y-65635129D01*
X54266852Y-65635129D01*
X54266852Y-65460739D01*
G37*
G36*
X53055408Y-65460739D02*
G01*
X52367620Y-65460739D01*
X52367620Y-65635129D01*
X52173691Y-65635129D01*
X52173691Y-66505610D01*
X51986113Y-66505610D01*
X51986113Y-66680000D01*
X52336357Y-66680000D01*
X52336357Y-66505610D01*
X52523935Y-66505610D01*
X52523935Y-65979023D01*
X52861479Y-65979023D01*
X52861479Y-66505610D01*
X52523935Y-66505610D01*
X52523935Y-66680000D01*
X53055408Y-66680000D01*
X53055408Y-66505610D01*
X53211723Y-66505610D01*
X53211723Y-65992212D01*
X53055408Y-65992212D01*
X53055408Y-65804633D01*
X52523935Y-65804633D01*
X52523935Y-65635129D01*
X53055408Y-65635129D01*
X53055408Y-65460739D01*
G37*
G36*
X51281228Y-65273161D02*
G01*
X50930983Y-65273161D01*
X50930983Y-65617055D01*
X51281228Y-65617055D01*
X51281228Y-65273161D01*
G37*
G36*
X51281228Y-66148527D02*
G01*
X50930983Y-66148527D01*
X50930983Y-66492421D01*
X51281228Y-66492421D01*
X51281228Y-66148527D01*
G37*
G36*
X68257083Y-68476845D02*
G01*
X67538032Y-68476845D01*
X67538032Y-68646350D01*
X68257083Y-68646350D01*
X68257083Y-68476845D01*
G37*
G36*
X68413398Y-68646350D02*
G01*
X68257083Y-68646350D01*
X68257083Y-68820739D01*
X68413398Y-68820739D01*
X68413398Y-68646350D01*
G37*
G36*
X67538032Y-68646350D02*
G01*
X67381716Y-68646350D01*
X67381716Y-68820739D01*
X67538032Y-68820739D01*
X67538032Y-68646350D01*
G37*
G36*
X67381716Y-68820739D02*
G01*
X67194138Y-68820739D01*
X67194138Y-69508527D01*
X67381716Y-69508527D01*
X67381716Y-68820739D01*
G37*
G36*
X68600976Y-68820739D02*
G01*
X68413398Y-68820739D01*
X68413398Y-69696106D01*
X68600976Y-69696106D01*
X68600976Y-68820739D01*
G37*
G36*
X68257083Y-68995129D02*
G01*
X68069504Y-68995129D01*
X68069504Y-69521716D01*
X67897557Y-69521716D01*
X67897557Y-69696106D01*
X68257083Y-69696106D01*
X68257083Y-68995129D01*
G37*
G36*
X68069504Y-68820739D02*
G01*
X67538032Y-68820739D01*
X67538032Y-69521716D01*
X67381716Y-69521716D01*
X67381716Y-69696106D01*
X67725610Y-69696106D01*
X67725610Y-69508527D01*
X67897557Y-69508527D01*
X67897557Y-69334138D01*
X67725610Y-69334138D01*
X67725610Y-68995129D01*
X68069504Y-68995129D01*
X68069504Y-68820739D01*
G37*
G36*
X68413398Y-69696106D02*
G01*
X68257083Y-69696106D01*
X68257083Y-69865610D01*
X68413398Y-69865610D01*
X68413398Y-69696106D01*
G37*
G36*
X68257083Y-69865610D02*
G01*
X67538032Y-69865610D01*
X67538032Y-70040000D01*
X68257083Y-70040000D01*
X68257083Y-69865610D01*
G37*
G36*
X65787299Y-68289267D02*
G01*
X65265108Y-68289267D01*
X65265108Y-68990244D01*
X65090230Y-68990244D01*
X65090230Y-69164633D01*
X65265108Y-69164633D01*
X65265108Y-70040000D01*
X65787299Y-70040000D01*
X65787299Y-69865610D01*
X65615352Y-69865610D01*
X65615352Y-68463656D01*
X65787299Y-68463656D01*
X65787299Y-68289267D01*
G37*
G36*
X65090230Y-68820739D02*
G01*
X64739986Y-68820739D01*
X64739986Y-68990244D01*
X64577320Y-68990244D01*
X64577320Y-70040000D01*
X64927564Y-70040000D01*
X64927564Y-68995129D01*
X65090230Y-68995129D01*
X65090230Y-68820739D01*
G37*
G36*
X63897348Y-68289267D02*
G01*
X63709769Y-68289267D01*
X63709769Y-68820739D01*
X63340963Y-68820739D01*
X63340963Y-68995129D01*
X63709769Y-68995129D01*
X63709769Y-69865610D01*
X63547103Y-69865610D01*
X63547103Y-70040000D01*
X63897348Y-70040000D01*
X63897348Y-69865610D01*
X64060013Y-69865610D01*
X64060013Y-68995129D01*
X64403907Y-68995129D01*
X64403907Y-68820739D01*
X64060013Y-68820739D01*
X64060013Y-68458771D01*
X63897348Y-68458771D01*
X63897348Y-68289267D01*
G37*
G36*
X63528541Y-69696106D02*
G01*
X63340963Y-69696106D01*
X63340963Y-69865610D01*
X63528541Y-69865610D01*
X63528541Y-69696106D01*
G37*
G36*
X62498325Y-68289267D02*
G01*
X62310746Y-68289267D01*
X62310746Y-68820739D01*
X61941939Y-68820739D01*
X61941939Y-68995129D01*
X62310746Y-68995129D01*
X62310746Y-69865610D01*
X62148080Y-69865610D01*
X62148080Y-70040000D01*
X62498325Y-70040000D01*
X62498325Y-69865610D01*
X62660990Y-69865610D01*
X62660990Y-68995129D01*
X63004884Y-68995129D01*
X63004884Y-68820739D01*
X62660990Y-68820739D01*
X62660990Y-68458771D01*
X62498325Y-68458771D01*
X62498325Y-68289267D01*
G37*
G36*
X62129518Y-69696106D02*
G01*
X61941939Y-69696106D01*
X61941939Y-69865610D01*
X62129518Y-69865610D01*
X62129518Y-69696106D01*
G37*
G36*
X61605861Y-68820739D02*
G01*
X61255617Y-68820739D01*
X61255617Y-69008318D01*
X61074389Y-69008318D01*
X61074389Y-69865610D01*
X60730495Y-69865610D01*
X60730495Y-68995129D01*
X61074389Y-68995129D01*
X61074389Y-68820739D01*
X60542916Y-68820739D01*
X60542916Y-69008318D01*
X60380251Y-69008318D01*
X60380251Y-69865610D01*
X60542916Y-69865610D01*
X60542916Y-70040000D01*
X61074389Y-70040000D01*
X61074389Y-70397083D01*
X60918073Y-70397083D01*
X60918073Y-70571472D01*
X61605861Y-70571472D01*
X61605861Y-70397083D01*
X61424633Y-70397083D01*
X61424633Y-68995129D01*
X61605861Y-68995129D01*
X61605861Y-68820739D01*
G37*
G36*
X60025610Y-68820739D02*
G01*
X59168806Y-68820739D01*
X59168806Y-68990244D01*
X58981228Y-68990244D01*
X58981228Y-69164633D01*
X59331472Y-69164633D01*
X59331472Y-68995129D01*
X59856594Y-68995129D01*
X59856594Y-69164633D01*
X59675366Y-69164633D01*
X59675366Y-69334138D01*
X59331472Y-69334138D01*
X59331472Y-69508527D01*
X59168806Y-69508527D01*
X59168806Y-69696106D01*
X58981228Y-69696106D01*
X58981228Y-69865610D01*
X59168806Y-69865610D01*
X59168806Y-70040000D01*
X60025610Y-70040000D01*
X60025610Y-69865610D01*
X60206838Y-69865610D01*
X60206838Y-69696106D01*
X59856594Y-69696106D01*
X59856594Y-69865610D01*
X59331472Y-69865610D01*
X59331472Y-69696106D01*
X59519050Y-69696106D01*
X59519050Y-69508527D01*
X59856594Y-69508527D01*
X59856594Y-69334138D01*
X60025610Y-69334138D01*
X60025610Y-69164633D01*
X60206838Y-69164633D01*
X60206838Y-68990244D01*
X60025610Y-68990244D01*
X60025610Y-68820739D01*
G37*
G36*
X58276343Y-68633161D02*
G01*
X57926099Y-68633161D01*
X57926099Y-68977055D01*
X58276343Y-68977055D01*
X58276343Y-68633161D01*
G37*
G36*
X58276343Y-69508527D02*
G01*
X57926099Y-69508527D01*
X57926099Y-69852421D01*
X58276343Y-69852421D01*
X58276343Y-69508527D01*
G37*
G36*
X56370760Y-68476845D02*
G01*
X56189532Y-68476845D01*
X56189532Y-68820739D01*
X56370760Y-68820739D01*
X56370760Y-68977055D01*
X56533426Y-68977055D01*
X56533426Y-69164633D01*
X56714654Y-69164633D01*
X56714654Y-69352212D01*
X56877320Y-69352212D01*
X56877320Y-69508527D01*
X57058548Y-69508527D01*
X57058548Y-69696106D01*
X57221214Y-69696106D01*
X57221214Y-69852421D01*
X57408792Y-69852421D01*
X57408792Y-69508527D01*
X57221214Y-69508527D01*
X57221214Y-69352212D01*
X57058548Y-69352212D01*
X57058548Y-69164633D01*
X56877320Y-69164633D01*
X56877320Y-69008318D01*
X56714654Y-69008318D01*
X56714654Y-68820739D01*
X56533426Y-68820739D01*
X56533426Y-68633161D01*
X56370760Y-68633161D01*
X56370760Y-68476845D01*
G37*
G36*
X54971737Y-68476845D02*
G01*
X54790509Y-68476845D01*
X54790509Y-68820739D01*
X54971737Y-68820739D01*
X54971737Y-68977055D01*
X55134403Y-68977055D01*
X55134403Y-69164633D01*
X55315631Y-69164633D01*
X55315631Y-69352212D01*
X55478297Y-69352212D01*
X55478297Y-69508527D01*
X55659525Y-69508527D01*
X55659525Y-69696106D01*
X55822191Y-69696106D01*
X55822191Y-69852421D01*
X56009769Y-69852421D01*
X56009769Y-69508527D01*
X55822191Y-69508527D01*
X55822191Y-69352212D01*
X55659525Y-69352212D01*
X55659525Y-69164633D01*
X55478297Y-69164633D01*
X55478297Y-69008318D01*
X55315631Y-69008318D01*
X55315631Y-68820739D01*
X55134403Y-68820739D01*
X55134403Y-68633161D01*
X54971737Y-68633161D01*
X54971737Y-68476845D01*
G37*
G36*
X54085624Y-68289267D02*
G01*
X53735380Y-68289267D01*
X53735380Y-68633161D01*
X54085624Y-68633161D01*
X54085624Y-68289267D01*
G37*
G36*
X54266852Y-68820739D02*
G01*
X53735380Y-68820739D01*
X53735380Y-69865610D01*
X53579064Y-69865610D01*
X53579064Y-70040000D01*
X54266852Y-70040000D01*
X54266852Y-69865610D01*
X54085624Y-69865610D01*
X54085624Y-68995129D01*
X54266852Y-68995129D01*
X54266852Y-68820739D01*
G37*
G36*
X53211723Y-68820739D02*
G01*
X52861479Y-68820739D01*
X52861479Y-69008318D01*
X52680251Y-69008318D01*
X52680251Y-70040000D01*
X53030495Y-70040000D01*
X53030495Y-68995129D01*
X53211723Y-68995129D01*
X53211723Y-68820739D01*
G37*
G36*
X52680251Y-68820739D02*
G01*
X52148778Y-68820739D01*
X52148778Y-69008318D01*
X51986113Y-69008318D01*
X51986113Y-70040000D01*
X52336357Y-70040000D01*
X52336357Y-68995129D01*
X52680251Y-68995129D01*
X52680251Y-68820739D01*
G37*
G36*
X51625122Y-68990244D02*
G01*
X51812700Y-68990244D01*
X51812700Y-69865610D01*
X51625122Y-69865610D01*
X51625122Y-70040000D01*
X50749755Y-70040000D01*
X50749755Y-69865610D01*
X50587090Y-69865610D01*
X50587090Y-69696106D01*
X50937334Y-69696106D01*
X50937334Y-69865610D01*
X51462456Y-69865610D01*
X51462456Y-69508527D01*
X50587090Y-69508527D01*
X50587090Y-68995129D01*
X50937334Y-68995129D01*
X50937334Y-69334138D01*
X51462456Y-69334138D01*
X51462456Y-68995129D01*
X50937334Y-68995129D01*
X50587090Y-68995129D01*
X50587090Y-68990244D01*
X50749755Y-68990244D01*
X50749755Y-68820739D01*
X51625122Y-68820739D01*
X51625122Y-68990244D01*
G37*
G36*
X50413677Y-68820739D02*
G01*
X50063433Y-68820739D01*
X50063433Y-68995129D01*
X49882205Y-68995129D01*
X49882205Y-68820739D01*
X49188066Y-68820739D01*
X49188066Y-69169030D01*
X49538311Y-69169030D01*
X49538311Y-68995129D01*
X49725889Y-68995129D01*
X49725889Y-69169030D01*
X49882205Y-69169030D01*
X49882205Y-69865610D01*
X49725889Y-69865610D01*
X49725889Y-70040000D01*
X50413677Y-70040000D01*
X50413677Y-69865610D01*
X50232449Y-69865610D01*
X50232449Y-68995129D01*
X50413677Y-68995129D01*
X50413677Y-68820739D01*
G37*
G36*
X48827076Y-68820739D02*
G01*
X47951709Y-68820739D01*
X47951709Y-68990244D01*
X47789043Y-68990244D01*
X47789043Y-69164633D01*
X48139288Y-69164633D01*
X48139288Y-68995129D01*
X48664410Y-68995129D01*
X48664410Y-69865610D01*
X48139288Y-69865610D01*
X48139288Y-69696106D01*
X47789043Y-69696106D01*
X47789043Y-69865610D01*
X47951709Y-69865610D01*
X47951709Y-70040000D01*
X48827076Y-70040000D01*
X48827076Y-69865610D01*
X49014654Y-69865610D01*
X49014654Y-68990244D01*
X48827076Y-68990244D01*
X48827076Y-68820739D01*
G37*
G36*
X47090509Y-68289267D02*
G01*
X46740265Y-68289267D01*
X46740265Y-68633161D01*
X47090509Y-68633161D01*
X47090509Y-68289267D01*
G37*
G36*
X47271737Y-68820739D02*
G01*
X46740265Y-68820739D01*
X46740265Y-69865610D01*
X46583949Y-69865610D01*
X46583949Y-70040000D01*
X47271737Y-70040000D01*
X47271737Y-69865610D01*
X47090509Y-69865610D01*
X47090509Y-68995129D01*
X47271737Y-68995129D01*
X47271737Y-68820739D01*
G37*
G36*
X46060293Y-68820739D02*
G01*
X45372505Y-68820739D01*
X45372505Y-68995129D01*
X45178576Y-68995129D01*
X45178576Y-69865610D01*
X44990997Y-69865610D01*
X44990997Y-70040000D01*
X45341242Y-70040000D01*
X45341242Y-69865610D01*
X45528820Y-69865610D01*
X45528820Y-69339023D01*
X45866364Y-69339023D01*
X45866364Y-69865610D01*
X45528820Y-69865610D01*
X45528820Y-70040000D01*
X46060293Y-70040000D01*
X46060293Y-69865610D01*
X46216608Y-69865610D01*
X46216608Y-69352212D01*
X46060293Y-69352212D01*
X46060293Y-69164633D01*
X45528820Y-69164633D01*
X45528820Y-68995129D01*
X46060293Y-68995129D01*
X46060293Y-68820739D01*
G37*
G36*
X44473691Y-69696106D02*
G01*
X44123447Y-69696106D01*
X44123447Y-70040000D01*
X44473691Y-70040000D01*
X44473691Y-69696106D01*
G37*
G36*
X43418562Y-68820739D02*
G01*
X43068318Y-68820739D01*
X43068318Y-69008318D01*
X42887090Y-69008318D01*
X42887090Y-69865610D01*
X42543196Y-69865610D01*
X42543196Y-68995129D01*
X42887090Y-68995129D01*
X42887090Y-68820739D01*
X42355617Y-68820739D01*
X42355617Y-69008318D01*
X42192951Y-69008318D01*
X42192951Y-69865610D01*
X42355617Y-69865610D01*
X42355617Y-70040000D01*
X42887090Y-70040000D01*
X42887090Y-70397083D01*
X42730774Y-70397083D01*
X42730774Y-70571472D01*
X43418562Y-70571472D01*
X43418562Y-70397083D01*
X43237334Y-70397083D01*
X43237334Y-68995129D01*
X43418562Y-68995129D01*
X43418562Y-68820739D01*
G37*
G36*
X41512979Y-68289267D02*
G01*
X41325401Y-68289267D01*
X41325401Y-68820739D01*
X40956594Y-68820739D01*
X40956594Y-68995129D01*
X41325401Y-68995129D01*
X41325401Y-69865610D01*
X41162735Y-69865610D01*
X41162735Y-70040000D01*
X41512979Y-70040000D01*
X41512979Y-69865610D01*
X41675645Y-69865610D01*
X41675645Y-68995129D01*
X42019539Y-68995129D01*
X42019539Y-68820739D01*
X41675645Y-68820739D01*
X41675645Y-68458771D01*
X41512979Y-68458771D01*
X41512979Y-68289267D01*
G37*
G36*
X41144173Y-69696106D02*
G01*
X40956594Y-69696106D01*
X40956594Y-69865610D01*
X41144173Y-69865610D01*
X41144173Y-69696106D01*
G37*
G36*
X68600976Y-72180739D02*
G01*
X68250732Y-72180739D01*
X68250732Y-72524633D01*
X68069504Y-72524633D01*
X68069504Y-72694138D01*
X67913189Y-72694138D01*
X67913189Y-72524633D01*
X67725610Y-72524633D01*
X67725610Y-72180739D01*
X67375366Y-72180739D01*
X67375366Y-72524633D01*
X67562944Y-72524633D01*
X67562944Y-72694138D01*
X67725610Y-72694138D01*
X67725610Y-72868527D01*
X67562944Y-72868527D01*
X67562944Y-73056106D01*
X67375366Y-73056106D01*
X67375366Y-73400000D01*
X67725610Y-73400000D01*
X67725610Y-73056106D01*
X67913189Y-73056106D01*
X67913189Y-72868527D01*
X68069504Y-72868527D01*
X68069504Y-73056106D01*
X68250732Y-73056106D01*
X68250732Y-73400000D01*
X68600976Y-73400000D01*
X68600976Y-73056106D01*
X68419748Y-73056106D01*
X68419748Y-72868527D01*
X68250732Y-72868527D01*
X68250732Y-72694138D01*
X68419748Y-72694138D01*
X68419748Y-72524633D01*
X68600976Y-72524633D01*
X68600976Y-72180739D01*
G37*
G36*
X65459036Y-71836845D02*
G01*
X64739986Y-71836845D01*
X64739986Y-72006350D01*
X65459036Y-72006350D01*
X65459036Y-71836845D01*
G37*
G36*
X65615352Y-72006350D02*
G01*
X65459036Y-72006350D01*
X65459036Y-72180739D01*
X65615352Y-72180739D01*
X65615352Y-72006350D01*
G37*
G36*
X64739986Y-72006350D02*
G01*
X64583670Y-72006350D01*
X64583670Y-72180739D01*
X64739986Y-72180739D01*
X64739986Y-72006350D01*
G37*
G36*
X64583670Y-72180739D02*
G01*
X64396092Y-72180739D01*
X64396092Y-72868527D01*
X64583670Y-72868527D01*
X64583670Y-72180739D01*
G37*
G36*
X65802930Y-72180739D02*
G01*
X65615352Y-72180739D01*
X65615352Y-73056106D01*
X65802930Y-73056106D01*
X65802930Y-72180739D01*
G37*
G36*
X65459036Y-72355129D02*
G01*
X65271458Y-72355129D01*
X65271458Y-72881716D01*
X65099511Y-72881716D01*
X65099511Y-73056106D01*
X65459036Y-73056106D01*
X65459036Y-72355129D01*
G37*
G36*
X65271458Y-72180739D02*
G01*
X64739986Y-72180739D01*
X64739986Y-72881716D01*
X64583670Y-72881716D01*
X64583670Y-73056106D01*
X64927564Y-73056106D01*
X64927564Y-72868527D01*
X65099511Y-72868527D01*
X65099511Y-72694138D01*
X64927564Y-72694138D01*
X64927564Y-72355129D01*
X65271458Y-72355129D01*
X65271458Y-72180739D01*
G37*
G36*
X65615352Y-73056106D02*
G01*
X65459036Y-73056106D01*
X65459036Y-73225610D01*
X65615352Y-73225610D01*
X65615352Y-73056106D01*
G37*
G36*
X65459036Y-73225610D02*
G01*
X64739986Y-73225610D01*
X64739986Y-73400000D01*
X65459036Y-73400000D01*
X65459036Y-73225610D01*
G37*
G36*
X63878785Y-71649267D02*
G01*
X63528541Y-71649267D01*
X63528541Y-71993161D01*
X63878785Y-71993161D01*
X63878785Y-71649267D01*
G37*
G36*
X64060013Y-72180739D02*
G01*
X63528541Y-72180739D01*
X63528541Y-73225610D01*
X63372226Y-73225610D01*
X63372226Y-73400000D01*
X64060013Y-73400000D01*
X64060013Y-73225610D01*
X63878785Y-73225610D01*
X63878785Y-72355129D01*
X64060013Y-72355129D01*
X64060013Y-72180739D01*
G37*
G36*
X63004884Y-72180739D02*
G01*
X62654640Y-72180739D01*
X62654640Y-72368318D01*
X62473412Y-72368318D01*
X62473412Y-73400000D01*
X62823656Y-73400000D01*
X62823656Y-72355129D01*
X63004884Y-72355129D01*
X63004884Y-72180739D01*
G37*
G36*
X62473412Y-72180739D02*
G01*
X61941939Y-72180739D01*
X61941939Y-72368318D01*
X61779274Y-72368318D01*
X61779274Y-73400000D01*
X62129518Y-73400000D01*
X62129518Y-72355129D01*
X62473412Y-72355129D01*
X62473412Y-72180739D01*
G37*
G36*
X61418283Y-72350244D02*
G01*
X61605861Y-72350244D01*
X61605861Y-73225610D01*
X61418283Y-73225610D01*
X61418283Y-73400000D01*
X60542916Y-73400000D01*
X60542916Y-73225610D01*
X60380251Y-73225610D01*
X60380251Y-73056106D01*
X60730495Y-73056106D01*
X60730495Y-73225610D01*
X61255617Y-73225610D01*
X61255617Y-72868527D01*
X60380251Y-72868527D01*
X60380251Y-72355129D01*
X60730495Y-72355129D01*
X60730495Y-72694138D01*
X61255617Y-72694138D01*
X61255617Y-72355129D01*
X60730495Y-72355129D01*
X60380251Y-72355129D01*
X60380251Y-72350244D01*
X60542916Y-72350244D01*
X60542916Y-72180739D01*
X61418283Y-72180739D01*
X61418283Y-72350244D01*
G37*
G36*
X60206838Y-72180739D02*
G01*
X59856594Y-72180739D01*
X59856594Y-72355129D01*
X59675366Y-72355129D01*
X59675366Y-72180739D01*
X58981228Y-72180739D01*
X58981228Y-72529030D01*
X59331472Y-72529030D01*
X59331472Y-72355129D01*
X59519050Y-72355129D01*
X59519050Y-72529030D01*
X59675366Y-72529030D01*
X59675366Y-73225610D01*
X59519050Y-73225610D01*
X59519050Y-73400000D01*
X60206838Y-73400000D01*
X60206838Y-73225610D01*
X60025610Y-73225610D01*
X60025610Y-72355129D01*
X60206838Y-72355129D01*
X60206838Y-72180739D01*
G37*
G36*
X58620237Y-72180739D02*
G01*
X57744870Y-72180739D01*
X57744870Y-72350244D01*
X57582205Y-72350244D01*
X57582205Y-72524633D01*
X57932449Y-72524633D01*
X57932449Y-72355129D01*
X58457571Y-72355129D01*
X58457571Y-73225610D01*
X57932449Y-73225610D01*
X57932449Y-73056106D01*
X57582205Y-73056106D01*
X57582205Y-73225610D01*
X57744870Y-73225610D01*
X57744870Y-73400000D01*
X58620237Y-73400000D01*
X58620237Y-73225610D01*
X58807815Y-73225610D01*
X58807815Y-72350244D01*
X58620237Y-72350244D01*
X58620237Y-72180739D01*
G37*
G36*
X56883670Y-71649267D02*
G01*
X56533426Y-71649267D01*
X56533426Y-71993161D01*
X56883670Y-71993161D01*
X56883670Y-71649267D01*
G37*
G36*
X57064898Y-72180739D02*
G01*
X56533426Y-72180739D01*
X56533426Y-73225610D01*
X56377110Y-73225610D01*
X56377110Y-73400000D01*
X57064898Y-73400000D01*
X57064898Y-73225610D01*
X56883670Y-73225610D01*
X56883670Y-72355129D01*
X57064898Y-72355129D01*
X57064898Y-72180739D01*
G37*
G36*
X55853454Y-72180739D02*
G01*
X55165666Y-72180739D01*
X55165666Y-72355129D01*
X54971737Y-72355129D01*
X54971737Y-73225610D01*
X54784159Y-73225610D01*
X54784159Y-73400000D01*
X55134403Y-73400000D01*
X55134403Y-73225610D01*
X55321981Y-73225610D01*
X55321981Y-72699023D01*
X55659525Y-72699023D01*
X55659525Y-73225610D01*
X55321981Y-73225610D01*
X55321981Y-73400000D01*
X55853454Y-73400000D01*
X55853454Y-73225610D01*
X56009769Y-73225610D01*
X56009769Y-72712212D01*
X55853454Y-72712212D01*
X55853454Y-72524633D01*
X55321981Y-72524633D01*
X55321981Y-72355129D01*
X55853454Y-72355129D01*
X55853454Y-72180739D01*
G37*
G36*
X54610746Y-72180739D02*
G01*
X54260502Y-72180739D01*
X54260502Y-72368318D01*
X54079274Y-72368318D01*
X54079274Y-73225610D01*
X53735380Y-73225610D01*
X53735380Y-72355129D01*
X54079274Y-72355129D01*
X54079274Y-72180739D01*
X53547801Y-72180739D01*
X53547801Y-72368318D01*
X53385136Y-72368318D01*
X53385136Y-73225610D01*
X53547801Y-73225610D01*
X53547801Y-73400000D01*
X54079274Y-73400000D01*
X54079274Y-73757083D01*
X53922958Y-73757083D01*
X53922958Y-73931472D01*
X54610746Y-73931472D01*
X54610746Y-73757083D01*
X54429518Y-73757083D01*
X54429518Y-72355129D01*
X54610746Y-72355129D01*
X54610746Y-72180739D01*
G37*
G36*
X53055408Y-72180739D02*
G01*
X52367620Y-72180739D01*
X52367620Y-72355129D01*
X52173691Y-72355129D01*
X52173691Y-73225610D01*
X51986113Y-73225610D01*
X51986113Y-73400000D01*
X52336357Y-73400000D01*
X52336357Y-73225610D01*
X52523935Y-73225610D01*
X52523935Y-72699023D01*
X52861479Y-72699023D01*
X52861479Y-73225610D01*
X52523935Y-73225610D01*
X52523935Y-73400000D01*
X53055408Y-73400000D01*
X53055408Y-73225610D01*
X53211723Y-73225610D01*
X53211723Y-72712212D01*
X53055408Y-72712212D01*
X53055408Y-72524633D01*
X52523935Y-72524633D01*
X52523935Y-72355129D01*
X53055408Y-72355129D01*
X53055408Y-72180739D01*
G37*
G36*
X51812700Y-72180739D02*
G01*
X51462456Y-72180739D01*
X51462456Y-72355129D01*
X51281228Y-72355129D01*
X51281228Y-72180739D01*
X50587090Y-72180739D01*
X50587090Y-72529030D01*
X50937334Y-72529030D01*
X50937334Y-72355129D01*
X51124912Y-72355129D01*
X51124912Y-72529030D01*
X51281228Y-72529030D01*
X51281228Y-73225610D01*
X51124912Y-73225610D01*
X51124912Y-73400000D01*
X51812700Y-73400000D01*
X51812700Y-73225610D01*
X51631472Y-73225610D01*
X51631472Y-72355129D01*
X51812700Y-72355129D01*
X51812700Y-72180739D01*
G37*
G36*
X49907117Y-71649267D02*
G01*
X49719539Y-71649267D01*
X49719539Y-72180739D01*
X49350732Y-72180739D01*
X49350732Y-72355129D01*
X49719539Y-72355129D01*
X49719539Y-73225610D01*
X49556873Y-73225610D01*
X49556873Y-73400000D01*
X49907117Y-73400000D01*
X49907117Y-73225610D01*
X50069783Y-73225610D01*
X50069783Y-72355129D01*
X50413677Y-72355129D01*
X50413677Y-72180739D01*
X50069783Y-72180739D01*
X50069783Y-71818771D01*
X49907117Y-71818771D01*
X49907117Y-71649267D01*
G37*
G36*
X49538311Y-73056106D02*
G01*
X49350732Y-73056106D01*
X49350732Y-73225610D01*
X49538311Y-73225610D01*
X49538311Y-73056106D01*
G37*
G36*
X49014654Y-72180739D02*
G01*
X48664410Y-72180739D01*
X48664410Y-73225610D01*
X48139288Y-73225610D01*
X48139288Y-72180739D01*
X47789043Y-72180739D01*
X47789043Y-73587578D01*
X47976622Y-73587578D01*
X47976622Y-73757083D01*
X48139288Y-73757083D01*
X48139288Y-73931472D01*
X49014654Y-73931472D01*
X49014654Y-73757083D01*
X48326866Y-73757083D01*
X48326866Y-73587578D01*
X48139288Y-73587578D01*
X48139288Y-73400000D01*
X48839776Y-73400000D01*
X48839776Y-73212421D01*
X49014654Y-73212421D01*
X49014654Y-72180739D01*
G37*
G36*
X68413398Y-75728318D02*
G01*
X68600976Y-75728318D01*
X68600976Y-76585610D01*
X68413398Y-76585610D01*
X68413398Y-76760000D01*
X67538032Y-76760000D01*
X67538032Y-76585610D01*
X67375366Y-76585610D01*
X67375366Y-75728318D01*
X67538032Y-75728318D01*
X67538032Y-75715129D01*
X67725610Y-75715129D01*
X67725610Y-76585610D01*
X68250732Y-76585610D01*
X68250732Y-75715129D01*
X67725610Y-75715129D01*
X67538032Y-75715129D01*
X67538032Y-75540739D01*
X68413398Y-75540739D01*
X68413398Y-75728318D01*
G37*
G36*
X65277808Y-75009267D02*
G01*
X64927564Y-75009267D01*
X64927564Y-75353161D01*
X65277808Y-75353161D01*
X65277808Y-75009267D01*
G37*
G36*
X65459036Y-75540739D02*
G01*
X64927564Y-75540739D01*
X64927564Y-76585610D01*
X64771249Y-76585610D01*
X64771249Y-76760000D01*
X65459036Y-76760000D01*
X65459036Y-76585610D01*
X65277808Y-76585610D01*
X65277808Y-75715129D01*
X65459036Y-75715129D01*
X65459036Y-75540739D01*
G37*
G36*
X64403907Y-75540739D02*
G01*
X64053663Y-75540739D01*
X64053663Y-75728318D01*
X63872435Y-75728318D01*
X63872435Y-76760000D01*
X64222679Y-76760000D01*
X64222679Y-75715129D01*
X64403907Y-75715129D01*
X64403907Y-75540739D01*
G37*
G36*
X63872435Y-75540739D02*
G01*
X63340963Y-75540739D01*
X63340963Y-75728318D01*
X63178297Y-75728318D01*
X63178297Y-76760000D01*
X63528541Y-76760000D01*
X63528541Y-75715129D01*
X63872435Y-75715129D01*
X63872435Y-75540739D01*
G37*
G36*
X62817306Y-75710244D02*
G01*
X63004884Y-75710244D01*
X63004884Y-76585610D01*
X62817306Y-76585610D01*
X62817306Y-76760000D01*
X61941939Y-76760000D01*
X61941939Y-76585610D01*
X61779274Y-76585610D01*
X61779274Y-76416106D01*
X62129518Y-76416106D01*
X62129518Y-76585610D01*
X62654640Y-76585610D01*
X62654640Y-76228527D01*
X61779274Y-76228527D01*
X61779274Y-75715129D01*
X62129518Y-75715129D01*
X62129518Y-76054138D01*
X62654640Y-76054138D01*
X62654640Y-75715129D01*
X62129518Y-75715129D01*
X61779274Y-75715129D01*
X61779274Y-75710244D01*
X61941939Y-75710244D01*
X61941939Y-75540739D01*
X62817306Y-75540739D01*
X62817306Y-75710244D01*
G37*
G36*
X61605861Y-75540739D02*
G01*
X61255617Y-75540739D01*
X61255617Y-75715129D01*
X61074389Y-75715129D01*
X61074389Y-75540739D01*
X60380251Y-75540739D01*
X60380251Y-75889030D01*
X60730495Y-75889030D01*
X60730495Y-75715129D01*
X60918073Y-75715129D01*
X60918073Y-75889030D01*
X61074389Y-75889030D01*
X61074389Y-76585610D01*
X60918073Y-76585610D01*
X60918073Y-76760000D01*
X61605861Y-76760000D01*
X61605861Y-76585610D01*
X61424633Y-76585610D01*
X61424633Y-75715129D01*
X61605861Y-75715129D01*
X61605861Y-75540739D01*
G37*
G36*
X60019260Y-75540739D02*
G01*
X59143893Y-75540739D01*
X59143893Y-75710244D01*
X58981228Y-75710244D01*
X58981228Y-75884633D01*
X59331472Y-75884633D01*
X59331472Y-75715129D01*
X59856594Y-75715129D01*
X59856594Y-76585610D01*
X59331472Y-76585610D01*
X59331472Y-76416106D01*
X58981228Y-76416106D01*
X58981228Y-76585610D01*
X59143893Y-76585610D01*
X59143893Y-76760000D01*
X60019260Y-76760000D01*
X60019260Y-76585610D01*
X60206838Y-76585610D01*
X60206838Y-75710244D01*
X60019260Y-75710244D01*
X60019260Y-75540739D01*
G37*
G36*
X58282693Y-75009267D02*
G01*
X57932449Y-75009267D01*
X57932449Y-75353161D01*
X58282693Y-75353161D01*
X58282693Y-75009267D01*
G37*
G36*
X58463921Y-75540739D02*
G01*
X57932449Y-75540739D01*
X57932449Y-76585610D01*
X57776133Y-76585610D01*
X57776133Y-76760000D01*
X58463921Y-76760000D01*
X58463921Y-76585610D01*
X58282693Y-76585610D01*
X58282693Y-75715129D01*
X58463921Y-75715129D01*
X58463921Y-75540739D01*
G37*
G36*
X57252477Y-75540739D02*
G01*
X56564689Y-75540739D01*
X56564689Y-75715129D01*
X56370760Y-75715129D01*
X56370760Y-76585610D01*
X56183182Y-76585610D01*
X56183182Y-76760000D01*
X56533426Y-76760000D01*
X56533426Y-76585610D01*
X56721004Y-76585610D01*
X56721004Y-76059023D01*
X57058548Y-76059023D01*
X57058548Y-76585610D01*
X56721004Y-76585610D01*
X56721004Y-76760000D01*
X57252477Y-76760000D01*
X57252477Y-76585610D01*
X57408792Y-76585610D01*
X57408792Y-76072212D01*
X57252477Y-76072212D01*
X57252477Y-75884633D01*
X56721004Y-75884633D01*
X56721004Y-75715129D01*
X57252477Y-75715129D01*
X57252477Y-75540739D01*
G37*
G36*
X55490509Y-75009267D02*
G01*
X54971737Y-75009267D01*
X54971737Y-76585610D01*
X54784159Y-76585610D01*
X54784159Y-76760000D01*
X55134403Y-76760000D01*
X55134403Y-76585610D01*
X55321981Y-76585610D01*
X55321981Y-75715129D01*
X55659525Y-75715129D01*
X55659525Y-76585610D01*
X55321981Y-76585610D01*
X55321981Y-76760000D01*
X55853454Y-76760000D01*
X55853454Y-76585610D01*
X56009769Y-76585610D01*
X56009769Y-75728318D01*
X55853454Y-75728318D01*
X55853454Y-75540739D01*
X55321981Y-75540739D01*
X55321981Y-75183656D01*
X55490509Y-75183656D01*
X55490509Y-75009267D01*
G37*
G36*
X54423168Y-75710244D02*
G01*
X54610746Y-75710244D01*
X54610746Y-76585610D01*
X54423168Y-76585610D01*
X54423168Y-76760000D01*
X53547801Y-76760000D01*
X53547801Y-76585610D01*
X53385136Y-76585610D01*
X53385136Y-76416106D01*
X53735380Y-76416106D01*
X53735380Y-76585610D01*
X54260502Y-76585610D01*
X54260502Y-76228527D01*
X53385136Y-76228527D01*
X53385136Y-75715129D01*
X53735380Y-75715129D01*
X53735380Y-76054138D01*
X54260502Y-76054138D01*
X54260502Y-75715129D01*
X53735380Y-75715129D01*
X53385136Y-75715129D01*
X53385136Y-75710244D01*
X53547801Y-75710244D01*
X53547801Y-75540739D01*
X54423168Y-75540739D01*
X54423168Y-75710244D01*
G37*
G36*
X53211723Y-75540739D02*
G01*
X52680251Y-75540739D01*
X52680251Y-75728318D01*
X52492672Y-75728318D01*
X52492672Y-75540739D01*
X52173691Y-75540739D01*
X52173691Y-75728318D01*
X51986113Y-75728318D01*
X51986113Y-76760000D01*
X52336357Y-76760000D01*
X52336357Y-75884633D01*
X52492672Y-75884633D01*
X52492672Y-76603684D01*
X52680251Y-76603684D01*
X52680251Y-75884633D01*
X52861479Y-75884633D01*
X52861479Y-76760000D01*
X53211723Y-76760000D01*
X53211723Y-75540739D01*
G37*
G36*
X51625122Y-75728318D02*
G01*
X51812700Y-75728318D01*
X51812700Y-76585610D01*
X51625122Y-76585610D01*
X51625122Y-76760000D01*
X50749755Y-76760000D01*
X50749755Y-76585610D01*
X50587090Y-76585610D01*
X50587090Y-75728318D01*
X50749755Y-75728318D01*
X50749755Y-75715129D01*
X50937334Y-75715129D01*
X50937334Y-76585610D01*
X51462456Y-76585610D01*
X51462456Y-75715129D01*
X50937334Y-75715129D01*
X50749755Y-75715129D01*
X50749755Y-75540739D01*
X51625122Y-75540739D01*
X51625122Y-75728318D01*
G37*
G36*
X50413677Y-75540739D02*
G01*
X50063433Y-75540739D01*
X50063433Y-75728318D01*
X49882205Y-75728318D01*
X49882205Y-76585610D01*
X49538311Y-76585610D01*
X49538311Y-75715129D01*
X49882205Y-75715129D01*
X49882205Y-75540739D01*
X49350732Y-75540739D01*
X49350732Y-75728318D01*
X49188066Y-75728318D01*
X49188066Y-76585610D01*
X49350732Y-76585610D01*
X49350732Y-76760000D01*
X49882205Y-76760000D01*
X49882205Y-77117083D01*
X49725889Y-77117083D01*
X49725889Y-77291472D01*
X50413677Y-77291472D01*
X50413677Y-77117083D01*
X50232449Y-77117083D01*
X50232449Y-75715129D01*
X50413677Y-75715129D01*
X50413677Y-75540739D01*
G37*
G36*
X48858339Y-75540739D02*
G01*
X48170551Y-75540739D01*
X48170551Y-75715129D01*
X47976622Y-75715129D01*
X47976622Y-76585610D01*
X47789043Y-76585610D01*
X47789043Y-76760000D01*
X48139288Y-76760000D01*
X48139288Y-76585610D01*
X48326866Y-76585610D01*
X48326866Y-76059023D01*
X48664410Y-76059023D01*
X48664410Y-76585610D01*
X48326866Y-76585610D01*
X48326866Y-76760000D01*
X48858339Y-76760000D01*
X48858339Y-76585610D01*
X49014654Y-76585610D01*
X49014654Y-76072212D01*
X48858339Y-76072212D01*
X48858339Y-75884633D01*
X48326866Y-75884633D01*
X48326866Y-75715129D01*
X48858339Y-75715129D01*
X48858339Y-75540739D01*
G37*
G36*
X47615631Y-75540739D02*
G01*
X47265387Y-75540739D01*
X47265387Y-75715129D01*
X47084159Y-75715129D01*
X47084159Y-75540739D01*
X46390020Y-75540739D01*
X46390020Y-75889030D01*
X46740265Y-75889030D01*
X46740265Y-75715129D01*
X46927843Y-75715129D01*
X46927843Y-75889030D01*
X47084159Y-75889030D01*
X47084159Y-76585610D01*
X46927843Y-76585610D01*
X46927843Y-76760000D01*
X47615631Y-76760000D01*
X47615631Y-76585610D01*
X47434403Y-76585610D01*
X47434403Y-75715129D01*
X47615631Y-75715129D01*
X47615631Y-75540739D01*
G37*
G36*
X45710048Y-75009267D02*
G01*
X45522470Y-75009267D01*
X45522470Y-75540739D01*
X45153663Y-75540739D01*
X45153663Y-75715129D01*
X45522470Y-75715129D01*
X45522470Y-76585610D01*
X45359804Y-76585610D01*
X45359804Y-76760000D01*
X45710048Y-76760000D01*
X45710048Y-76585610D01*
X45872714Y-76585610D01*
X45872714Y-75715129D01*
X46216608Y-75715129D01*
X46216608Y-75540739D01*
X45872714Y-75540739D01*
X45872714Y-75178771D01*
X45710048Y-75178771D01*
X45710048Y-75009267D01*
G37*
G36*
X45341242Y-76416106D02*
G01*
X45153663Y-76416106D01*
X45153663Y-76585610D01*
X45341242Y-76585610D01*
X45341242Y-76416106D01*
G37*
G36*
X44817585Y-75540739D02*
G01*
X44467341Y-75540739D01*
X44467341Y-76585610D01*
X43942219Y-76585610D01*
X43942219Y-75540739D01*
X43591974Y-75540739D01*
X43591974Y-76947578D01*
X43779553Y-76947578D01*
X43779553Y-77117083D01*
X43942219Y-77117083D01*
X43942219Y-77291472D01*
X44817585Y-77291472D01*
X44817585Y-77117083D01*
X44129797Y-77117083D01*
X44129797Y-76947578D01*
X43942219Y-76947578D01*
X43942219Y-76760000D01*
X44642707Y-76760000D01*
X44642707Y-76572421D01*
X44817585Y-76572421D01*
X44817585Y-75540739D01*
G37*
G36*
X83311524Y-55802791D02*
G01*
X83442316Y-55802791D01*
X83442316Y-55680792D01*
X83827365Y-55680792D01*
X83827365Y-55802791D01*
X83968049Y-55802791D01*
X83968049Y-56600000D01*
X83837257Y-56600000D01*
X83837257Y-56464078D01*
X82785792Y-56464078D01*
X82785792Y-56600000D01*
X82655000Y-56600000D01*
X82655000Y-55943475D01*
X82785792Y-55943475D01*
X82785792Y-56201395D01*
X83311524Y-56201395D01*
X83311524Y-55943475D01*
X83442316Y-55943475D01*
X83442316Y-56201395D01*
X83837257Y-56201395D01*
X83837257Y-55943475D01*
X83442316Y-55943475D01*
X83311524Y-55943475D01*
X82785792Y-55943475D01*
X82655000Y-55943475D01*
X82655000Y-55802791D01*
X82795683Y-55802791D01*
X82795683Y-55680792D01*
X83311524Y-55680792D01*
X83311524Y-55802791D01*
G37*
G36*
X83827365Y-54753524D02*
G01*
X83968049Y-54753524D01*
X83968049Y-55410048D01*
X83827365Y-55410048D01*
X83827365Y-55550732D01*
X82785792Y-55550732D01*
X82785792Y-55410048D01*
X82655000Y-55410048D01*
X82655000Y-54894207D01*
X82785792Y-54894207D01*
X82785792Y-55288049D01*
X83837257Y-55288049D01*
X83837257Y-54894207D01*
X82785792Y-54894207D01*
X82655000Y-54894207D01*
X82655000Y-54753524D01*
X82785792Y-54753524D01*
X82785792Y-54631524D01*
X83827365Y-54631524D01*
X83827365Y-54753524D01*
G37*
G36*
X83827365Y-53704256D02*
G01*
X83968049Y-53704256D01*
X83968049Y-54360781D01*
X83827365Y-54360781D01*
X83827365Y-54501465D01*
X82785792Y-54501465D01*
X82785792Y-54360781D01*
X82655000Y-54360781D01*
X82655000Y-53844940D01*
X82785792Y-53844940D01*
X82785792Y-54238782D01*
X83837257Y-54238782D01*
X83837257Y-53844940D01*
X82785792Y-53844940D01*
X82655000Y-53844940D01*
X82655000Y-53704256D01*
X82785792Y-53704256D01*
X82785792Y-53582257D01*
X83827365Y-53582257D01*
X83827365Y-53704256D01*
G37*
G36*
X83968049Y-53311514D02*
G01*
X83968049Y-52514305D01*
X83578237Y-52514305D01*
X83578237Y-52654989D01*
X83710129Y-52654989D01*
X83710129Y-52790910D01*
X82785792Y-52790910D01*
X82785792Y-52654989D01*
X82655000Y-52654989D01*
X82655000Y-53170830D01*
X82785792Y-53170830D01*
X82785792Y-53053593D01*
X83710129Y-53053593D01*
X83710129Y-53170830D01*
X83578237Y-53170830D01*
X83578237Y-53311514D01*
X83968049Y-53311514D01*
G37*
G36*
X68269504Y-63240739D02*
G01*
X67919260Y-63240739D01*
X67919260Y-63597822D01*
X67550453Y-63597822D01*
X67550453Y-63772212D01*
X67919260Y-63772212D01*
X67919260Y-64116106D01*
X68269504Y-64116106D01*
X68269504Y-63772212D01*
X68613398Y-63772212D01*
X68613398Y-63597822D01*
X68269504Y-63597822D01*
X68269504Y-63240739D01*
G37*
G36*
X67401953Y-63597822D02*
G01*
X66182693Y-63597822D01*
X66182693Y-63772212D01*
X67401953Y-63772212D01*
X67401953Y-63597822D01*
G37*
G36*
X66002930Y-63597822D02*
G01*
X64783670Y-63597822D01*
X64783670Y-63772212D01*
X66002930Y-63772212D01*
X66002930Y-63597822D01*
G37*
G36*
X64603907Y-63597822D02*
G01*
X63384647Y-63597822D01*
X63384647Y-63772212D01*
X64603907Y-63772212D01*
X64603907Y-63597822D01*
G37*
G36*
X63204884Y-63597822D02*
G01*
X61985624Y-63597822D01*
X61985624Y-63772212D01*
X63204884Y-63772212D01*
X63204884Y-63597822D01*
G37*
G36*
X61805861Y-63597822D02*
G01*
X60586601Y-63597822D01*
X60586601Y-63772212D01*
X61805861Y-63772212D01*
X61805861Y-63597822D01*
G37*
G36*
X60406838Y-63597822D02*
G01*
X59187578Y-63597822D01*
X59187578Y-63772212D01*
X60406838Y-63772212D01*
X60406838Y-63597822D01*
G37*
G36*
X59007815Y-63597822D02*
G01*
X57788555Y-63597822D01*
X57788555Y-63772212D01*
X59007815Y-63772212D01*
X59007815Y-63597822D01*
G37*
G36*
X57608792Y-63597822D02*
G01*
X56389532Y-63597822D01*
X56389532Y-63772212D01*
X57608792Y-63772212D01*
X57608792Y-63597822D01*
G37*
G36*
X56209769Y-63597822D02*
G01*
X54990509Y-63597822D01*
X54990509Y-63772212D01*
X56209769Y-63772212D01*
X56209769Y-63597822D01*
G37*
G36*
X54810746Y-63597822D02*
G01*
X53591486Y-63597822D01*
X53591486Y-63772212D01*
X54810746Y-63772212D01*
X54810746Y-63597822D01*
G37*
G36*
X53411723Y-63597822D02*
G01*
X52192463Y-63597822D01*
X52192463Y-63772212D01*
X53411723Y-63772212D01*
X53411723Y-63597822D01*
G37*
G36*
X52012700Y-63597822D02*
G01*
X50793440Y-63597822D01*
X50793440Y-63772212D01*
X52012700Y-63772212D01*
X52012700Y-63597822D01*
G37*
G36*
X50613677Y-63597822D02*
G01*
X49394417Y-63597822D01*
X49394417Y-63772212D01*
X50613677Y-63772212D01*
X50613677Y-63597822D01*
G37*
G36*
X49214654Y-63597822D02*
G01*
X47995394Y-63597822D01*
X47995394Y-63772212D01*
X49214654Y-63772212D01*
X49214654Y-63597822D01*
G37*
G36*
X47815631Y-63597822D02*
G01*
X46596371Y-63597822D01*
X46596371Y-63772212D01*
X47815631Y-63772212D01*
X47815631Y-63597822D01*
G37*
G36*
X46416608Y-63597822D02*
G01*
X45197348Y-63597822D01*
X45197348Y-63772212D01*
X46416608Y-63772212D01*
X46416608Y-63597822D01*
G37*
G36*
X45017585Y-63597822D02*
G01*
X43798325Y-63597822D01*
X43798325Y-63772212D01*
X45017585Y-63772212D01*
X45017585Y-63597822D01*
G37*
G36*
X43618562Y-63597822D02*
G01*
X42399302Y-63597822D01*
X42399302Y-63772212D01*
X43618562Y-63772212D01*
X43618562Y-63597822D01*
G37*
G36*
X41688066Y-63240739D02*
G01*
X41337822Y-63240739D01*
X41337822Y-63597822D01*
X40969016Y-63597822D01*
X40969016Y-63772212D01*
X41337822Y-63772212D01*
X41337822Y-64116106D01*
X41688066Y-64116106D01*
X41688066Y-63772212D01*
X42031960Y-63772212D01*
X42031960Y-63597822D01*
X41688066Y-63597822D01*
X41688066Y-63240739D01*
G37*
G36*
X68269504Y-78140739D02*
G01*
X67919260Y-78140739D01*
X67919260Y-78497822D01*
X67550453Y-78497822D01*
X67550453Y-78672212D01*
X67919260Y-78672212D01*
X67919260Y-79016106D01*
X68269504Y-79016106D01*
X68269504Y-78672212D01*
X68613398Y-78672212D01*
X68613398Y-78497822D01*
X68269504Y-78497822D01*
X68269504Y-78140739D01*
G37*
G36*
X67401953Y-78497822D02*
G01*
X66182693Y-78497822D01*
X66182693Y-78672212D01*
X67401953Y-78672212D01*
X67401953Y-78497822D01*
G37*
G36*
X66002930Y-78497822D02*
G01*
X64783670Y-78497822D01*
X64783670Y-78672212D01*
X66002930Y-78672212D01*
X66002930Y-78497822D01*
G37*
G36*
X64603907Y-78497822D02*
G01*
X63384647Y-78497822D01*
X63384647Y-78672212D01*
X64603907Y-78672212D01*
X64603907Y-78497822D01*
G37*
G36*
X63204884Y-78497822D02*
G01*
X61985624Y-78497822D01*
X61985624Y-78672212D01*
X63204884Y-78672212D01*
X63204884Y-78497822D01*
G37*
G36*
X61805861Y-78497822D02*
G01*
X60586601Y-78497822D01*
X60586601Y-78672212D01*
X61805861Y-78672212D01*
X61805861Y-78497822D01*
G37*
G36*
X60406838Y-78497822D02*
G01*
X59187578Y-78497822D01*
X59187578Y-78672212D01*
X60406838Y-78672212D01*
X60406838Y-78497822D01*
G37*
G36*
X59007815Y-78497822D02*
G01*
X57788555Y-78497822D01*
X57788555Y-78672212D01*
X59007815Y-78672212D01*
X59007815Y-78497822D01*
G37*
G36*
X57608792Y-78497822D02*
G01*
X56389532Y-78497822D01*
X56389532Y-78672212D01*
X57608792Y-78672212D01*
X57608792Y-78497822D01*
G37*
G36*
X56209769Y-78497822D02*
G01*
X54990509Y-78497822D01*
X54990509Y-78672212D01*
X56209769Y-78672212D01*
X56209769Y-78497822D01*
G37*
G36*
X54810746Y-78497822D02*
G01*
X53591486Y-78497822D01*
X53591486Y-78672212D01*
X54810746Y-78672212D01*
X54810746Y-78497822D01*
G37*
G36*
X53411723Y-78497822D02*
G01*
X52192463Y-78497822D01*
X52192463Y-78672212D01*
X53411723Y-78672212D01*
X53411723Y-78497822D01*
G37*
G36*
X52012700Y-78497822D02*
G01*
X50793440Y-78497822D01*
X50793440Y-78672212D01*
X52012700Y-78672212D01*
X52012700Y-78497822D01*
G37*
G36*
X50613677Y-78497822D02*
G01*
X49394417Y-78497822D01*
X49394417Y-78672212D01*
X50613677Y-78672212D01*
X50613677Y-78497822D01*
G37*
G36*
X49214654Y-78497822D02*
G01*
X47995394Y-78497822D01*
X47995394Y-78672212D01*
X49214654Y-78672212D01*
X49214654Y-78497822D01*
G37*
G36*
X47815631Y-78497822D02*
G01*
X46596371Y-78497822D01*
X46596371Y-78672212D01*
X47815631Y-78672212D01*
X47815631Y-78497822D01*
G37*
G36*
X46416608Y-78497822D02*
G01*
X45197348Y-78497822D01*
X45197348Y-78672212D01*
X46416608Y-78672212D01*
X46416608Y-78497822D01*
G37*
G36*
X45017585Y-78497822D02*
G01*
X43798325Y-78497822D01*
X43798325Y-78672212D01*
X45017585Y-78672212D01*
X45017585Y-78497822D01*
G37*
G36*
X43618562Y-78497822D02*
G01*
X42399302Y-78497822D01*
X42399302Y-78672212D01*
X43618562Y-78672212D01*
X43618562Y-78497822D01*
G37*
G36*
X41688066Y-78140739D02*
G01*
X41337822Y-78140739D01*
X41337822Y-78497822D01*
X40969016Y-78497822D01*
X40969016Y-78672212D01*
X41337822Y-78672212D01*
X41337822Y-79016106D01*
X41688066Y-79016106D01*
X41688066Y-78672212D01*
X42031960Y-78672212D01*
X42031960Y-78497822D01*
X41688066Y-78497822D01*
X41688066Y-78140739D01*
G37*
G36*
X86756755Y-1090456D02*
G01*
X86925771Y-1090456D01*
X86925771Y-1259961D01*
X87107000Y-1259961D01*
X87107000Y-2666800D01*
X86756755Y-2666800D01*
X86756755Y-1965823D01*
X86231633Y-1965823D01*
X86231633Y-2666800D01*
X85881389Y-2666800D01*
X85881389Y-1791433D01*
X86231633Y-1791433D01*
X86756755Y-1791433D01*
X86756755Y-1259961D01*
X86575527Y-1259961D01*
X86575527Y-1090456D01*
X86419212Y-1090456D01*
X86419212Y-1259961D01*
X86231633Y-1259961D01*
X86231633Y-1791433D01*
X85881389Y-1791433D01*
X85881389Y-1259961D01*
X86068967Y-1259961D01*
X86068967Y-1090456D01*
X86231633Y-1090456D01*
X86231633Y-916067D01*
X86756755Y-916067D01*
X86756755Y-1090456D01*
G37*
G36*
X85176504Y-916067D02*
G01*
X84645032Y-916067D01*
X84645032Y-1103645D01*
X84482366Y-1103645D01*
X84482366Y-1278035D01*
X84832610Y-1278035D01*
X84832610Y-1090456D01*
X84988926Y-1090456D01*
X84988926Y-1447539D01*
X84645032Y-1447539D01*
X84645032Y-1621929D01*
X84988926Y-1621929D01*
X84988926Y-2492410D01*
X84832610Y-2492410D01*
X84832610Y-2666800D01*
X85520398Y-2666800D01*
X85520398Y-2492410D01*
X85339170Y-2492410D01*
X85339170Y-1621929D01*
X85520398Y-1621929D01*
X85520398Y-1447539D01*
X85339170Y-1447539D01*
X85339170Y-1103645D01*
X85176504Y-1103645D01*
X85176504Y-916067D01*
G37*
G36*
X84121375Y-1635118D02*
G01*
X84308953Y-1635118D01*
X84308953Y-2492410D01*
X84121375Y-2492410D01*
X84121375Y-2666800D01*
X83246009Y-2666800D01*
X83246009Y-2492410D01*
X83083343Y-2492410D01*
X83083343Y-1635118D01*
X83246009Y-1635118D01*
X83246009Y-1621929D01*
X83433587Y-1621929D01*
X83433587Y-2492410D01*
X83958709Y-2492410D01*
X83958709Y-1621929D01*
X83433587Y-1621929D01*
X83246009Y-1621929D01*
X83246009Y-1447539D01*
X84121375Y-1447539D01*
X84121375Y-1635118D01*
G37*
G36*
X82909930Y-1447539D02*
G01*
X82559686Y-1447539D01*
X82559686Y-1635118D01*
X82378458Y-1635118D01*
X82378458Y-2666800D01*
X82728702Y-2666800D01*
X82728702Y-1621929D01*
X82909930Y-1621929D01*
X82909930Y-1447539D01*
G37*
G36*
X82378458Y-1447539D02*
G01*
X81846986Y-1447539D01*
X81846986Y-1635118D01*
X81684320Y-1635118D01*
X81684320Y-2666800D01*
X82034564Y-2666800D01*
X82034564Y-1621929D01*
X82378458Y-1621929D01*
X82378458Y-1447539D01*
G37*
G36*
X81329679Y-1447539D02*
G01*
X80472875Y-1447539D01*
X80472875Y-1617044D01*
X80285297Y-1617044D01*
X80285297Y-1791433D01*
X80635541Y-1791433D01*
X80635541Y-1621929D01*
X81160663Y-1621929D01*
X81160663Y-1791433D01*
X80979435Y-1791433D01*
X80979435Y-1960938D01*
X80635541Y-1960938D01*
X80635541Y-2135327D01*
X80472875Y-2135327D01*
X80472875Y-2322906D01*
X80285297Y-2322906D01*
X80285297Y-2492410D01*
X80472875Y-2492410D01*
X80472875Y-2666800D01*
X81329679Y-2666800D01*
X81329679Y-2492410D01*
X81510907Y-2492410D01*
X81510907Y-2322906D01*
X81160663Y-2322906D01*
X81160663Y-2492410D01*
X80635541Y-2492410D01*
X80635541Y-2322906D01*
X80823120Y-2322906D01*
X80823120Y-2135327D01*
X81160663Y-2135327D01*
X81160663Y-1960938D01*
X81329679Y-1960938D01*
X81329679Y-1791433D01*
X81510907Y-1791433D01*
X81510907Y-1617044D01*
X81329679Y-1617044D01*
X81329679Y-1447539D01*
G37*
G36*
X79924306Y-1635118D02*
G01*
X80111884Y-1635118D01*
X80111884Y-2492410D01*
X79924306Y-2492410D01*
X79924306Y-2666800D01*
X79048939Y-2666800D01*
X79048939Y-2492410D01*
X78886274Y-2492410D01*
X78886274Y-1635118D01*
X79048939Y-1635118D01*
X79048939Y-1621929D01*
X79236518Y-1621929D01*
X79236518Y-2492410D01*
X79761640Y-2492410D01*
X79761640Y-1621929D01*
X79236518Y-1621929D01*
X79048939Y-1621929D01*
X79048939Y-1447539D01*
X79924306Y-1447539D01*
X79924306Y-1635118D01*
G37*
G36*
X77313838Y-916067D02*
G01*
X77126260Y-916067D01*
X77126260Y-1103645D01*
X76954313Y-1103645D01*
X76954313Y-1259961D01*
X76782366Y-1259961D01*
X76782366Y-1447539D01*
X76594787Y-1447539D01*
X76594787Y-1259961D01*
X76438472Y-1259961D01*
X76438472Y-1103645D01*
X76282157Y-1103645D01*
X76282157Y-916067D01*
X76094578Y-916067D01*
X76094578Y-2666800D01*
X76438472Y-2666800D01*
X76438472Y-1791433D01*
X76594787Y-1791433D01*
X76594787Y-1979012D01*
X76782366Y-1979012D01*
X76782366Y-1791433D01*
X76954313Y-1791433D01*
X76954313Y-2666800D01*
X77313838Y-2666800D01*
X77313838Y-916067D01*
G37*
G36*
X75914815Y-1447539D02*
G01*
X75564571Y-1447539D01*
X75564571Y-2492410D01*
X75227027Y-2492410D01*
X75227027Y-2666800D01*
X75758500Y-2666800D01*
X75758500Y-2479221D01*
X75914815Y-2479221D01*
X75914815Y-1447539D01*
G37*
G36*
X75227027Y-1447539D02*
G01*
X74876783Y-1447539D01*
X74876783Y-2492410D01*
X74689205Y-2492410D01*
X74689205Y-2666800D01*
X75039449Y-2666800D01*
X75039449Y-2479221D01*
X75227027Y-2479221D01*
X75227027Y-1447539D01*
G37*
G36*
X74515792Y-1447539D02*
G01*
X74165548Y-1447539D01*
X74165548Y-1621929D01*
X73984320Y-1621929D01*
X73984320Y-1447539D01*
X73290182Y-1447539D01*
X73290182Y-1795830D01*
X73640426Y-1795830D01*
X73640426Y-1621929D01*
X73828004Y-1621929D01*
X73828004Y-1795830D01*
X73984320Y-1795830D01*
X73984320Y-2492410D01*
X73828004Y-2492410D01*
X73828004Y-2666800D01*
X74515792Y-2666800D01*
X74515792Y-2492410D01*
X74334564Y-2492410D01*
X74334564Y-1621929D01*
X74515792Y-1621929D01*
X74515792Y-1447539D01*
G37*
G36*
X72960454Y-1447539D02*
G01*
X72272666Y-1447539D01*
X72272666Y-1621929D01*
X72078737Y-1621929D01*
X72078737Y-2492410D01*
X71891159Y-2492410D01*
X71891159Y-2666800D01*
X72241403Y-2666800D01*
X72241403Y-2492410D01*
X72428981Y-2492410D01*
X72428981Y-1965823D01*
X72766525Y-1965823D01*
X72766525Y-2492410D01*
X72428981Y-2492410D01*
X72428981Y-2666800D01*
X72960454Y-2666800D01*
X72960454Y-2492410D01*
X73116769Y-2492410D01*
X73116769Y-1979012D01*
X72960454Y-1979012D01*
X72960454Y-1791433D01*
X72428981Y-1791433D01*
X72428981Y-1621929D01*
X72960454Y-1621929D01*
X72960454Y-1447539D01*
G37*
G36*
X71373852Y-916067D02*
G01*
X70842380Y-916067D01*
X70842380Y-2492410D01*
X70686064Y-2492410D01*
X70686064Y-2666800D01*
X71373852Y-2666800D01*
X71373852Y-2492410D01*
X71192624Y-2492410D01*
X71192624Y-1090456D01*
X71373852Y-1090456D01*
X71373852Y-916067D01*
G37*
G36*
X70303092Y-916067D02*
G01*
X69780900Y-916067D01*
X69780900Y-1617044D01*
X69606023Y-1617044D01*
X69606023Y-1791433D01*
X69780900Y-1791433D01*
X69780900Y-2666800D01*
X70303092Y-2666800D01*
X70303092Y-2492410D01*
X70131145Y-2492410D01*
X70131145Y-1090456D01*
X70303092Y-1090456D01*
X70303092Y-916067D01*
G37*
G36*
X69606023Y-1447539D02*
G01*
X69255778Y-1447539D01*
X69255778Y-1617044D01*
X69093113Y-1617044D01*
X69093113Y-2666800D01*
X69443357Y-2666800D01*
X69443357Y-1621929D01*
X69606023Y-1621929D01*
X69606023Y-1447539D01*
G37*
G36*
X68763385Y-1447539D02*
G01*
X68075597Y-1447539D01*
X68075597Y-1621929D01*
X67881668Y-1621929D01*
X67881668Y-2492410D01*
X67694090Y-2492410D01*
X67694090Y-2666800D01*
X68044334Y-2666800D01*
X68044334Y-2492410D01*
X68231912Y-2492410D01*
X68231912Y-1965823D01*
X68569456Y-1965823D01*
X68569456Y-2492410D01*
X68231912Y-2492410D01*
X68231912Y-2666800D01*
X68763385Y-2666800D01*
X68763385Y-2492410D01*
X68919700Y-2492410D01*
X68919700Y-1979012D01*
X68763385Y-1979012D01*
X68763385Y-1791433D01*
X68231912Y-1791433D01*
X68231912Y-1621929D01*
X68763385Y-1621929D01*
X68763385Y-1447539D01*
G37*
G36*
X65940426Y-916067D02*
G01*
X65083622Y-916067D01*
X65083622Y-1103645D01*
X64883343Y-1103645D01*
X64883343Y-1447539D01*
X65083622Y-1447539D01*
X65083622Y-1635118D01*
X65239937Y-1635118D01*
X65239937Y-1791433D01*
X65427516Y-1791433D01*
X65427516Y-1970219D01*
X65590182Y-1970219D01*
X65590182Y-2135327D01*
X65771410Y-2135327D01*
X65771410Y-2492410D01*
X65239937Y-2492410D01*
X65239937Y-2314113D01*
X64883343Y-2314113D01*
X64883343Y-2666800D01*
X66121654Y-2666800D01*
X66121654Y-2135327D01*
X65940426Y-2135327D01*
X65940426Y-1970219D01*
X65771410Y-1970219D01*
X65771410Y-1791433D01*
X65590182Y-1791433D01*
X65590182Y-1635118D01*
X65427516Y-1635118D01*
X65427516Y-1447539D01*
X65239937Y-1447539D01*
X65239937Y-1090456D01*
X65771410Y-1090456D01*
X65771410Y-1278035D01*
X66121654Y-1278035D01*
X66121654Y-1103645D01*
X65940426Y-1103645D01*
X65940426Y-916067D01*
G37*
G36*
X64707000Y-916067D02*
G01*
X64184808Y-916067D01*
X64184808Y-1791433D01*
X64009930Y-1791433D01*
X64009930Y-1635118D01*
X63847265Y-1635118D01*
X63847265Y-1447539D01*
X63497020Y-1447539D01*
X63497020Y-1621929D01*
X63659686Y-1621929D01*
X63659686Y-1791433D01*
X63847265Y-1791433D01*
X63847265Y-2135327D01*
X63659686Y-2135327D01*
X63659686Y-2322906D01*
X63497020Y-2322906D01*
X63497020Y-2666800D01*
X63847265Y-2666800D01*
X63847265Y-2322906D01*
X64009930Y-2322906D01*
X64009930Y-2135327D01*
X64184808Y-2135327D01*
X64184808Y-2666800D01*
X64707000Y-2666800D01*
X64707000Y-2492410D01*
X64535053Y-2492410D01*
X64535053Y-1090456D01*
X64707000Y-1090456D01*
X64707000Y-916067D01*
G37*
G36*
X63142380Y-916067D02*
G01*
X62285576Y-916067D01*
X62285576Y-1103645D01*
X62085297Y-1103645D01*
X62085297Y-1447539D01*
X62285576Y-1447539D01*
X62285576Y-1635118D01*
X62441891Y-1635118D01*
X62441891Y-1791433D01*
X62629470Y-1791433D01*
X62629470Y-1970219D01*
X62792136Y-1970219D01*
X62792136Y-2135327D01*
X62973364Y-2135327D01*
X62973364Y-2492410D01*
X62441891Y-2492410D01*
X62441891Y-2314113D01*
X62085297Y-2314113D01*
X62085297Y-2666800D01*
X63323608Y-2666800D01*
X63323608Y-2135327D01*
X63142380Y-2135327D01*
X63142380Y-1970219D01*
X62973364Y-1970219D01*
X62973364Y-1791433D01*
X62792136Y-1791433D01*
X62792136Y-1635118D01*
X62629470Y-1635118D01*
X62629470Y-1447539D01*
X62441891Y-1447539D01*
X62441891Y-1090456D01*
X62973364Y-1090456D01*
X62973364Y-1278035D01*
X63323608Y-1278035D01*
X63323608Y-1103645D01*
X63142380Y-1103645D01*
X63142380Y-916067D01*
G37*
G36*
X61737006Y-916067D02*
G01*
X60861640Y-916067D01*
X60861640Y-1103645D01*
X60698974Y-1103645D01*
X60698974Y-1617044D01*
X60861640Y-1617044D01*
X60861640Y-1804622D01*
X60698974Y-1804622D01*
X60698974Y-2492410D01*
X60861640Y-2492410D01*
X60861640Y-2666800D01*
X61737006Y-2666800D01*
X61737006Y-2492410D01*
X61924585Y-2492410D01*
X61924585Y-2322906D01*
X61574341Y-2322906D01*
X61574341Y-2492410D01*
X61049219Y-2492410D01*
X61049219Y-1791433D01*
X61549428Y-1791433D01*
X61549428Y-1617044D01*
X61049219Y-1617044D01*
X61049219Y-1090456D01*
X61574341Y-1090456D01*
X61574341Y-1278035D01*
X61924585Y-1278035D01*
X61924585Y-1103645D01*
X61737006Y-1103645D01*
X61737006Y-916067D01*
G37*
G36*
X58595066Y-916067D02*
G01*
X58244822Y-916067D01*
X58244822Y-1603855D01*
X58595066Y-1603855D01*
X58595066Y-916067D01*
G37*
G36*
X58595066Y-1979012D02*
G01*
X58244822Y-1979012D01*
X58244822Y-2666800D01*
X58595066Y-2666800D01*
X58595066Y-1979012D01*
G37*
G36*
X56172177Y-1447539D02*
G01*
X55484390Y-1447539D01*
X55484390Y-1621929D01*
X55290461Y-1621929D01*
X55290461Y-2492410D01*
X55102882Y-2492410D01*
X55102882Y-2666800D01*
X55453127Y-2666800D01*
X55453127Y-2492410D01*
X55640705Y-2492410D01*
X55640705Y-1965823D01*
X55978249Y-1965823D01*
X55978249Y-2492410D01*
X55640705Y-2492410D01*
X55640705Y-2666800D01*
X56172177Y-2666800D01*
X56172177Y-2492410D01*
X56328493Y-2492410D01*
X56328493Y-1979012D01*
X56172177Y-1979012D01*
X56172177Y-1791433D01*
X55640705Y-1791433D01*
X55640705Y-1621929D01*
X56172177Y-1621929D01*
X56172177Y-1447539D01*
G37*
G36*
X54397997Y-916067D02*
G01*
X53866525Y-916067D01*
X53866525Y-1103645D01*
X53703859Y-1103645D01*
X53703859Y-1278035D01*
X54054103Y-1278035D01*
X54054103Y-1090456D01*
X54210419Y-1090456D01*
X54210419Y-1447539D01*
X53866525Y-1447539D01*
X53866525Y-1621929D01*
X54210419Y-1621929D01*
X54210419Y-2492410D01*
X54054103Y-2492410D01*
X54054103Y-2666800D01*
X54741891Y-2666800D01*
X54741891Y-2492410D01*
X54560663Y-2492410D01*
X54560663Y-1621929D01*
X54741891Y-1621929D01*
X54741891Y-1447539D01*
X54560663Y-1447539D01*
X54560663Y-1103645D01*
X54397997Y-1103645D01*
X54397997Y-916067D01*
G37*
G36*
X53342868Y-1635118D02*
G01*
X53530447Y-1635118D01*
X53530447Y-2492410D01*
X53342868Y-2492410D01*
X53342868Y-2666800D01*
X52467502Y-2666800D01*
X52467502Y-2492410D01*
X52304836Y-2492410D01*
X52304836Y-1635118D01*
X52467502Y-1635118D01*
X52467502Y-1621929D01*
X52655080Y-1621929D01*
X52655080Y-2492410D01*
X53180203Y-2492410D01*
X53180203Y-1621929D01*
X52655080Y-1621929D01*
X52467502Y-1621929D01*
X52467502Y-1447539D01*
X53342868Y-1447539D01*
X53342868Y-1635118D01*
G37*
G36*
X52131424Y-1447539D02*
G01*
X51781180Y-1447539D01*
X51781180Y-1635118D01*
X51599951Y-1635118D01*
X51599951Y-2666800D01*
X51950196Y-2666800D01*
X51950196Y-1621929D01*
X52131424Y-1621929D01*
X52131424Y-1447539D01*
G37*
G36*
X51599951Y-1447539D02*
G01*
X51068479Y-1447539D01*
X51068479Y-1635118D01*
X50905813Y-1635118D01*
X50905813Y-2666800D01*
X51256057Y-2666800D01*
X51256057Y-1621929D01*
X51599951Y-1621929D01*
X51599951Y-1447539D01*
G37*
G36*
X50551173Y-1447539D02*
G01*
X49694369Y-1447539D01*
X49694369Y-1617044D01*
X49506790Y-1617044D01*
X49506790Y-1791433D01*
X49857034Y-1791433D01*
X49857034Y-1621929D01*
X50382157Y-1621929D01*
X50382157Y-1791433D01*
X50200928Y-1791433D01*
X50200928Y-1960938D01*
X49857034Y-1960938D01*
X49857034Y-2135327D01*
X49694369Y-2135327D01*
X49694369Y-2322906D01*
X49506790Y-2322906D01*
X49506790Y-2492410D01*
X49694369Y-2492410D01*
X49694369Y-2666800D01*
X50551173Y-2666800D01*
X50551173Y-2492410D01*
X50732401Y-2492410D01*
X50732401Y-2322906D01*
X50382157Y-2322906D01*
X50382157Y-2492410D01*
X49857034Y-2492410D01*
X49857034Y-2322906D01*
X50044613Y-2322906D01*
X50044613Y-2135327D01*
X50382157Y-2135327D01*
X50382157Y-1960938D01*
X50551173Y-1960938D01*
X50551173Y-1791433D01*
X50732401Y-1791433D01*
X50732401Y-1617044D01*
X50551173Y-1617044D01*
X50551173Y-1447539D01*
G37*
G36*
X49145799Y-1635118D02*
G01*
X49333378Y-1635118D01*
X49333378Y-2492410D01*
X49145799Y-2492410D01*
X49145799Y-2666800D01*
X48270433Y-2666800D01*
X48270433Y-2492410D01*
X48107767Y-2492410D01*
X48107767Y-1635118D01*
X48270433Y-1635118D01*
X48270433Y-1621929D01*
X48458011Y-1621929D01*
X48458011Y-2492410D01*
X48983133Y-2492410D01*
X48983133Y-1621929D01*
X48458011Y-1621929D01*
X48270433Y-1621929D01*
X48270433Y-1447539D01*
X49145799Y-1447539D01*
X49145799Y-1635118D01*
G37*
G36*
X47934355Y-1447539D02*
G01*
X47402882Y-1447539D01*
X47402882Y-1635118D01*
X47215304Y-1635118D01*
X47215304Y-1447539D01*
X46896323Y-1447539D01*
X46896323Y-1635118D01*
X46708744Y-1635118D01*
X46708744Y-2666800D01*
X47058988Y-2666800D01*
X47058988Y-1791433D01*
X47215304Y-1791433D01*
X47215304Y-2510484D01*
X47402882Y-2510484D01*
X47402882Y-1791433D01*
X47584110Y-1791433D01*
X47584110Y-2666800D01*
X47934355Y-2666800D01*
X47934355Y-1447539D01*
G37*
G36*
X46535332Y-1447539D02*
G01*
X46185087Y-1447539D01*
X46185087Y-2492410D01*
X45847544Y-2492410D01*
X45847544Y-2666800D01*
X46379016Y-2666800D01*
X46379016Y-2479221D01*
X46535332Y-2479221D01*
X46535332Y-1447539D01*
G37*
G36*
X45847544Y-1447539D02*
G01*
X45497300Y-1447539D01*
X45497300Y-2492410D01*
X45309721Y-2492410D01*
X45309721Y-2666800D01*
X45659965Y-2666800D01*
X45659965Y-2479221D01*
X45847544Y-2479221D01*
X45847544Y-1447539D01*
G37*
G36*
X45136309Y-1447539D02*
G01*
X44786064Y-1447539D01*
X44786064Y-1621929D01*
X44604836Y-1621929D01*
X44604836Y-1447539D01*
X43910698Y-1447539D01*
X43910698Y-1795830D01*
X44260942Y-1795830D01*
X44260942Y-1621929D01*
X44448521Y-1621929D01*
X44448521Y-1795830D01*
X44604836Y-1795830D01*
X44604836Y-2492410D01*
X44448521Y-2492410D01*
X44448521Y-2666800D01*
X45136309Y-2666800D01*
X45136309Y-2492410D01*
X44955080Y-2492410D01*
X44955080Y-1621929D01*
X45136309Y-1621929D01*
X45136309Y-1447539D01*
G37*
G36*
X43580970Y-1447539D02*
G01*
X42893182Y-1447539D01*
X42893182Y-1621929D01*
X42699254Y-1621929D01*
X42699254Y-2492410D01*
X42511675Y-2492410D01*
X42511675Y-2666800D01*
X42861919Y-2666800D01*
X42861919Y-2492410D01*
X43049498Y-2492410D01*
X43049498Y-1965823D01*
X43387041Y-1965823D01*
X43387041Y-2492410D01*
X43049498Y-2492410D01*
X43049498Y-2666800D01*
X43580970Y-2666800D01*
X43580970Y-2492410D01*
X43737286Y-2492410D01*
X43737286Y-1979012D01*
X43580970Y-1979012D01*
X43580970Y-1791433D01*
X43049498Y-1791433D01*
X43049498Y-1621929D01*
X43580970Y-1621929D01*
X43580970Y-1447539D01*
G37*
G36*
X41994369Y-916067D02*
G01*
X41462896Y-916067D01*
X41462896Y-2492410D01*
X41306581Y-2492410D01*
X41306581Y-2666800D01*
X41994369Y-2666800D01*
X41994369Y-2492410D01*
X41813140Y-2492410D01*
X41813140Y-1090456D01*
X41994369Y-1090456D01*
X41994369Y-916067D01*
G37*
G36*
X40923608Y-916067D02*
G01*
X40401417Y-916067D01*
X40401417Y-1617044D01*
X40226539Y-1617044D01*
X40226539Y-1791433D01*
X40401417Y-1791433D01*
X40401417Y-2666800D01*
X40923608Y-2666800D01*
X40923608Y-2492410D01*
X40751661Y-2492410D01*
X40751661Y-1090456D01*
X40923608Y-1090456D01*
X40923608Y-916067D01*
G37*
G36*
X40226539Y-1447539D02*
G01*
X39876295Y-1447539D01*
X39876295Y-1617044D01*
X39713629Y-1617044D01*
X39713629Y-2666800D01*
X40063873Y-2666800D01*
X40063873Y-1621929D01*
X40226539Y-1621929D01*
X40226539Y-1447539D01*
G37*
G36*
X39383901Y-1447539D02*
G01*
X38696113Y-1447539D01*
X38696113Y-1621929D01*
X38502184Y-1621929D01*
X38502184Y-2492410D01*
X38314606Y-2492410D01*
X38314606Y-2666800D01*
X38664850Y-2666800D01*
X38664850Y-2492410D01*
X38852429Y-2492410D01*
X38852429Y-1965823D01*
X39189972Y-1965823D01*
X39189972Y-2492410D01*
X38852429Y-2492410D01*
X38852429Y-2666800D01*
X39383901Y-2666800D01*
X39383901Y-2492410D01*
X39540217Y-2492410D01*
X39540217Y-1979012D01*
X39383901Y-1979012D01*
X39383901Y-1791433D01*
X38852429Y-1791433D01*
X38852429Y-1621929D01*
X39383901Y-1621929D01*
X39383901Y-1447539D01*
G37*
G36*
X37797300Y-2322906D02*
G01*
X37447055Y-2322906D01*
X37447055Y-2666800D01*
X37797300Y-2666800D01*
X37797300Y-2322906D01*
G37*
G36*
X36235611Y-916067D02*
G01*
X36048032Y-916067D01*
X36048032Y-1447539D01*
X35679226Y-1447539D01*
X35679226Y-1621929D01*
X36048032Y-1621929D01*
X36048032Y-2492410D01*
X35885367Y-2492410D01*
X35885367Y-2666800D01*
X36235611Y-2666800D01*
X36235611Y-2492410D01*
X36398277Y-2492410D01*
X36398277Y-1621929D01*
X36742170Y-1621929D01*
X36742170Y-1447539D01*
X36398277Y-1447539D01*
X36398277Y-1085571D01*
X36235611Y-1085571D01*
X36235611Y-916067D01*
G37*
G36*
X35866804Y-2322906D02*
G01*
X35679226Y-2322906D01*
X35679226Y-2492410D01*
X35866804Y-2492410D01*
X35866804Y-2322906D01*
G37*
G36*
X35155569Y-1617044D02*
G01*
X35343147Y-1617044D01*
X35343147Y-2492410D01*
X35155569Y-2492410D01*
X35155569Y-2666800D01*
X34280203Y-2666800D01*
X34280203Y-2492410D01*
X34117537Y-2492410D01*
X34117537Y-2322906D01*
X34467781Y-2322906D01*
X34467781Y-2492410D01*
X34992903Y-2492410D01*
X34992903Y-2135327D01*
X34117537Y-2135327D01*
X34117537Y-1621929D01*
X34467781Y-1621929D01*
X34467781Y-1960938D01*
X34992903Y-1960938D01*
X34992903Y-1621929D01*
X34467781Y-1621929D01*
X34117537Y-1621929D01*
X34117537Y-1617044D01*
X34280203Y-1617044D01*
X34280203Y-1447539D01*
X35155569Y-1447539D01*
X35155569Y-1617044D01*
G37*
G36*
X33756546Y-1447539D02*
G01*
X32881180Y-1447539D01*
X32881180Y-1617044D01*
X32718514Y-1617044D01*
X32718514Y-1791433D01*
X33068758Y-1791433D01*
X33068758Y-1621929D01*
X33593880Y-1621929D01*
X33593880Y-2492410D01*
X33068758Y-2492410D01*
X33068758Y-2322906D01*
X32718514Y-2322906D01*
X32718514Y-2492410D01*
X32881180Y-2492410D01*
X32881180Y-2666800D01*
X33756546Y-2666800D01*
X33756546Y-2492410D01*
X33944124Y-2492410D01*
X33944124Y-1617044D01*
X33756546Y-1617044D01*
X33756546Y-1447539D01*
G37*
G36*
X32529470Y-916067D02*
G01*
X32007279Y-916067D01*
X32007279Y-1617044D01*
X31832401Y-1617044D01*
X31832401Y-1791433D01*
X32007279Y-1791433D01*
X32007279Y-2666800D01*
X32529470Y-2666800D01*
X32529470Y-2492410D01*
X32357523Y-2492410D01*
X32357523Y-1090456D01*
X32529470Y-1090456D01*
X32529470Y-916067D01*
G37*
G36*
X31832401Y-1447539D02*
G01*
X31482157Y-1447539D01*
X31482157Y-1617044D01*
X31319491Y-1617044D01*
X31319491Y-2666800D01*
X31669735Y-2666800D01*
X31669735Y-1621929D01*
X31832401Y-1621929D01*
X31832401Y-1447539D01*
G37*
G36*
X29215583Y-916067D02*
G01*
X28865339Y-916067D01*
X28865339Y-1603855D01*
X29215583Y-1603855D01*
X29215583Y-916067D01*
G37*
G36*
X29215583Y-1979012D02*
G01*
X28865339Y-1979012D01*
X28865339Y-2666800D01*
X29215583Y-2666800D01*
X29215583Y-1979012D01*
G37*
G36*
X26761431Y-1635118D02*
G01*
X26949009Y-1635118D01*
X26949009Y-2492410D01*
X26761431Y-2492410D01*
X26761431Y-2666800D01*
X25886064Y-2666800D01*
X25886064Y-2492410D01*
X25723399Y-2492410D01*
X25723399Y-1635118D01*
X25886064Y-1635118D01*
X25886064Y-1621929D01*
X26073643Y-1621929D01*
X26073643Y-2492410D01*
X26598765Y-2492410D01*
X26598765Y-1621929D01*
X26073643Y-1621929D01*
X25886064Y-1621929D01*
X25886064Y-1447539D01*
X26761431Y-1447539D01*
X26761431Y-1635118D01*
G37*
G36*
X23994648Y-1447539D02*
G01*
X23306860Y-1447539D01*
X23306860Y-1621929D01*
X23112931Y-1621929D01*
X23112931Y-2492410D01*
X22925353Y-2492410D01*
X22925353Y-2666800D01*
X23275597Y-2666800D01*
X23275597Y-2492410D01*
X23463175Y-2492410D01*
X23463175Y-1965823D01*
X23800719Y-1965823D01*
X23800719Y-2492410D01*
X23463175Y-2492410D01*
X23463175Y-2666800D01*
X23994648Y-2666800D01*
X23994648Y-2492410D01*
X24150963Y-2492410D01*
X24150963Y-1979012D01*
X23994648Y-1979012D01*
X23994648Y-1791433D01*
X23463175Y-1791433D01*
X23463175Y-1621929D01*
X23994648Y-1621929D01*
X23994648Y-1447539D01*
G37*
G36*
X22220468Y-916067D02*
G01*
X21688995Y-916067D01*
X21688995Y-1103645D01*
X21526330Y-1103645D01*
X21526330Y-1278035D01*
X21876574Y-1278035D01*
X21876574Y-1090456D01*
X22032889Y-1090456D01*
X22032889Y-1447539D01*
X21688995Y-1447539D01*
X21688995Y-1621929D01*
X22032889Y-1621929D01*
X22032889Y-2492410D01*
X21876574Y-2492410D01*
X21876574Y-2666800D01*
X22564362Y-2666800D01*
X22564362Y-2492410D01*
X22383133Y-2492410D01*
X22383133Y-1621929D01*
X22564362Y-1621929D01*
X22564362Y-1447539D01*
X22383133Y-1447539D01*
X22383133Y-1103645D01*
X22220468Y-1103645D01*
X22220468Y-916067D01*
G37*
G36*
X21165339Y-1635118D02*
G01*
X21352917Y-1635118D01*
X21352917Y-2492410D01*
X21165339Y-2492410D01*
X21165339Y-2666800D01*
X20289972Y-2666800D01*
X20289972Y-2492410D01*
X20127307Y-2492410D01*
X20127307Y-1635118D01*
X20289972Y-1635118D01*
X20289972Y-1621929D01*
X20477551Y-1621929D01*
X20477551Y-2492410D01*
X21002673Y-2492410D01*
X21002673Y-1621929D01*
X20477551Y-1621929D01*
X20289972Y-1621929D01*
X20289972Y-1447539D01*
X21165339Y-1447539D01*
X21165339Y-1635118D01*
G37*
G36*
X19953894Y-1447539D02*
G01*
X19603650Y-1447539D01*
X19603650Y-1635118D01*
X19422422Y-1635118D01*
X19422422Y-2666800D01*
X19772666Y-2666800D01*
X19772666Y-1621929D01*
X19953894Y-1621929D01*
X19953894Y-1447539D01*
G37*
G36*
X19422422Y-1447539D02*
G01*
X18890949Y-1447539D01*
X18890949Y-1635118D01*
X18728284Y-1635118D01*
X18728284Y-2666800D01*
X19078528Y-2666800D01*
X19078528Y-1621929D01*
X19422422Y-1621929D01*
X19422422Y-1447539D01*
G37*
G36*
X18373643Y-1447539D02*
G01*
X17516839Y-1447539D01*
X17516839Y-1617044D01*
X17329260Y-1617044D01*
X17329260Y-1791433D01*
X17679505Y-1791433D01*
X17679505Y-1621929D01*
X18204627Y-1621929D01*
X18204627Y-1791433D01*
X18023399Y-1791433D01*
X18023399Y-1960938D01*
X17679505Y-1960938D01*
X17679505Y-2135327D01*
X17516839Y-2135327D01*
X17516839Y-2322906D01*
X17329260Y-2322906D01*
X17329260Y-2492410D01*
X17516839Y-2492410D01*
X17516839Y-2666800D01*
X18373643Y-2666800D01*
X18373643Y-2492410D01*
X18554871Y-2492410D01*
X18554871Y-2322906D01*
X18204627Y-2322906D01*
X18204627Y-2492410D01*
X17679505Y-2492410D01*
X17679505Y-2322906D01*
X17867083Y-2322906D01*
X17867083Y-2135327D01*
X18204627Y-2135327D01*
X18204627Y-1960938D01*
X18373643Y-1960938D01*
X18373643Y-1791433D01*
X18554871Y-1791433D01*
X18554871Y-1617044D01*
X18373643Y-1617044D01*
X18373643Y-1447539D01*
G37*
G36*
X16968270Y-1635118D02*
G01*
X17155848Y-1635118D01*
X17155848Y-2492410D01*
X16968270Y-2492410D01*
X16968270Y-2666800D01*
X16092903Y-2666800D01*
X16092903Y-2492410D01*
X15930237Y-2492410D01*
X15930237Y-1635118D01*
X16092903Y-1635118D01*
X16092903Y-1621929D01*
X16280482Y-1621929D01*
X16280482Y-2492410D01*
X16805604Y-2492410D01*
X16805604Y-1621929D01*
X16280482Y-1621929D01*
X16092903Y-1621929D01*
X16092903Y-1447539D01*
X16968270Y-1447539D01*
X16968270Y-1635118D01*
G37*
G36*
X15756825Y-1447539D02*
G01*
X15225353Y-1447539D01*
X15225353Y-1635118D01*
X15037774Y-1635118D01*
X15037774Y-1447539D01*
X14718793Y-1447539D01*
X14718793Y-1635118D01*
X14531214Y-1635118D01*
X14531214Y-2666800D01*
X14881459Y-2666800D01*
X14881459Y-1791433D01*
X15037774Y-1791433D01*
X15037774Y-2510484D01*
X15225353Y-2510484D01*
X15225353Y-1791433D01*
X15406581Y-1791433D01*
X15406581Y-2666800D01*
X15756825Y-2666800D01*
X15756825Y-1447539D01*
G37*
G36*
X14357802Y-1447539D02*
G01*
X14007558Y-1447539D01*
X14007558Y-2492410D01*
X13670014Y-2492410D01*
X13670014Y-2666800D01*
X14201487Y-2666800D01*
X14201487Y-2479221D01*
X14357802Y-2479221D01*
X14357802Y-1447539D01*
G37*
G36*
X13670014Y-1447539D02*
G01*
X13319770Y-1447539D01*
X13319770Y-2492410D01*
X13132191Y-2492410D01*
X13132191Y-2666800D01*
X13482436Y-2666800D01*
X13482436Y-2479221D01*
X13670014Y-2479221D01*
X13670014Y-1447539D01*
G37*
G36*
X12958779Y-1447539D02*
G01*
X12608535Y-1447539D01*
X12608535Y-1621929D01*
X12427307Y-1621929D01*
X12427307Y-1447539D01*
X11733168Y-1447539D01*
X11733168Y-1795830D01*
X12083413Y-1795830D01*
X12083413Y-1621929D01*
X12270991Y-1621929D01*
X12270991Y-1795830D01*
X12427307Y-1795830D01*
X12427307Y-2492410D01*
X12270991Y-2492410D01*
X12270991Y-2666800D01*
X12958779Y-2666800D01*
X12958779Y-2492410D01*
X12777551Y-2492410D01*
X12777551Y-1621929D01*
X12958779Y-1621929D01*
X12958779Y-1447539D01*
G37*
G36*
X11403441Y-1447539D02*
G01*
X10715653Y-1447539D01*
X10715653Y-1621929D01*
X10521724Y-1621929D01*
X10521724Y-2492410D01*
X10334145Y-2492410D01*
X10334145Y-2666800D01*
X10684390Y-2666800D01*
X10684390Y-2492410D01*
X10871968Y-2492410D01*
X10871968Y-1965823D01*
X11209512Y-1965823D01*
X11209512Y-2492410D01*
X10871968Y-2492410D01*
X10871968Y-2666800D01*
X11403441Y-2666800D01*
X11403441Y-2492410D01*
X11559756Y-2492410D01*
X11559756Y-1979012D01*
X11403441Y-1979012D01*
X11403441Y-1791433D01*
X10871968Y-1791433D01*
X10871968Y-1621929D01*
X11403441Y-1621929D01*
X11403441Y-1447539D01*
G37*
G36*
X9816839Y-916067D02*
G01*
X9285367Y-916067D01*
X9285367Y-2492410D01*
X9129051Y-2492410D01*
X9129051Y-2666800D01*
X9816839Y-2666800D01*
X9816839Y-2492410D01*
X9635611Y-2492410D01*
X9635611Y-1090456D01*
X9816839Y-1090456D01*
X9816839Y-916067D01*
G37*
G36*
X8746078Y-916067D02*
G01*
X8223887Y-916067D01*
X8223887Y-1617044D01*
X8049009Y-1617044D01*
X8049009Y-1791433D01*
X8223887Y-1791433D01*
X8223887Y-2666800D01*
X8746078Y-2666800D01*
X8746078Y-2492410D01*
X8574131Y-2492410D01*
X8574131Y-1090456D01*
X8746078Y-1090456D01*
X8746078Y-916067D01*
G37*
G36*
X8049009Y-1447539D02*
G01*
X7698765Y-1447539D01*
X7698765Y-1617044D01*
X7536099Y-1617044D01*
X7536099Y-2666800D01*
X7886344Y-2666800D01*
X7886344Y-1621929D01*
X8049009Y-1621929D01*
X8049009Y-1447539D01*
G37*
G36*
X7206371Y-1447539D02*
G01*
X6518584Y-1447539D01*
X6518584Y-1621929D01*
X6324655Y-1621929D01*
X6324655Y-2492410D01*
X6137076Y-2492410D01*
X6137076Y-2666800D01*
X6487321Y-2666800D01*
X6487321Y-2492410D01*
X6674899Y-2492410D01*
X6674899Y-1965823D01*
X7012443Y-1965823D01*
X7012443Y-2492410D01*
X6674899Y-2492410D01*
X6674899Y-2666800D01*
X7206371Y-2666800D01*
X7206371Y-2492410D01*
X7362687Y-2492410D01*
X7362687Y-1979012D01*
X7206371Y-1979012D01*
X7206371Y-1791433D01*
X6674899Y-1791433D01*
X6674899Y-1621929D01*
X7206371Y-1621929D01*
X7206371Y-1447539D01*
G37*
G36*
X5432191Y-916067D02*
G01*
X5081947Y-916067D01*
X5081947Y-2492410D01*
X4713140Y-2492410D01*
X4713140Y-2666800D01*
X5776085Y-2666800D01*
X5776085Y-2492410D01*
X5432191Y-2492410D01*
X5432191Y-1447539D01*
X5776085Y-1447539D01*
X5776085Y-1273150D01*
X5604138Y-1273150D01*
X5604138Y-1094364D01*
X5432191Y-1094364D01*
X5432191Y-916067D01*
G37*
G36*
X47020725Y-56597822D02*
G01*
X45828332Y-56597822D01*
X45864480Y-56772212D01*
X47056873Y-56772212D01*
X47020725Y-56597822D01*
G37*
G36*
X45621702Y-56597822D02*
G01*
X44429309Y-56597822D01*
X44465457Y-56772212D01*
X45657850Y-56772212D01*
X45621702Y-56597822D01*
G37*
G36*
X44222679Y-56597822D02*
G01*
X43030286Y-56597822D01*
X43066434Y-56772212D01*
X44258827Y-56772212D01*
X44222679Y-56597822D01*
G37*
G36*
X42823656Y-56597822D02*
G01*
X41631263Y-56597822D01*
X41667411Y-56772212D01*
X42859804Y-56772212D01*
X42823656Y-56597822D01*
G37*
G36*
X41424633Y-56597822D02*
G01*
X40232240Y-56597822D01*
X40268387Y-56772212D01*
X41460781Y-56772212D01*
X41424633Y-56597822D01*
G37*
G36*
X40025610Y-56597822D02*
G01*
X38833217Y-56597822D01*
X38869364Y-56772212D01*
X40061758Y-56772212D01*
X40025610Y-56597822D01*
G37*
G36*
X38626587Y-56597822D02*
G01*
X37434193Y-56597822D01*
X37470341Y-56772212D01*
X38662735Y-56772212D01*
X38626587Y-56597822D01*
G37*
G36*
X37227564Y-56597822D02*
G01*
X36035170Y-56597822D01*
X36071318Y-56772212D01*
X37263712Y-56772212D01*
X37227564Y-56597822D01*
G37*
G36*
X35828541Y-56597822D02*
G01*
X34636147Y-56597822D01*
X34672295Y-56772212D01*
X35864689Y-56772212D01*
X35828541Y-56597822D01*
G37*
G36*
X34429518Y-56597822D02*
G01*
X33237124Y-56597822D01*
X33273272Y-56772212D01*
X34465666Y-56772212D01*
X34429518Y-56597822D01*
G37*
G36*
X33030495Y-56597822D02*
G01*
X31838101Y-56597822D01*
X31874249Y-56772212D01*
X33066643Y-56772212D01*
X33030495Y-56597822D01*
G37*
G36*
X31631472Y-56597822D02*
G01*
X30439078Y-56597822D01*
X30475226Y-56772212D01*
X31667620Y-56772212D01*
X31631472Y-56597822D01*
G37*
G36*
X30232449Y-56597822D02*
G01*
X29040055Y-56597822D01*
X29076203Y-56772212D01*
X30268597Y-56772212D01*
X30232449Y-56597822D01*
G37*
G36*
X28833426Y-56597822D02*
G01*
X27641032Y-56597822D01*
X27677180Y-56772212D01*
X28869574Y-56772212D01*
X28833426Y-56597822D01*
G37*
G36*
X83053604Y-61621475D02*
G01*
X83311524Y-61621475D01*
X83311524Y-61480792D01*
X83827365Y-61480792D01*
X83827365Y-61621475D01*
X83968049Y-61621475D01*
X83968049Y-62400000D01*
X83837257Y-62400000D01*
X83837257Y-62264078D01*
X82785792Y-62264078D01*
X82785792Y-62400000D01*
X82655000Y-62400000D01*
X82655000Y-62001395D01*
X83180732Y-62001395D01*
X83180732Y-61884159D01*
X83053604Y-61884159D01*
X83053604Y-61743475D01*
X83311524Y-61743475D01*
X83311524Y-62001395D01*
X83837257Y-62001395D01*
X83837257Y-61743475D01*
X83311524Y-61743475D01*
X83053604Y-61743475D01*
X82655000Y-61743475D01*
X82655000Y-61480792D01*
X83053604Y-61480792D01*
X83053604Y-61621475D01*
G37*
G36*
X83968049Y-61214811D02*
G01*
X83968049Y-60572208D01*
X83827365Y-60572208D01*
X83827365Y-60431524D01*
X83569445Y-60431524D01*
X83569445Y-60694207D01*
X83837257Y-60694207D01*
X83837257Y-61088049D01*
X83569445Y-61088049D01*
X83569445Y-60952128D01*
X83442316Y-60952128D01*
X83442316Y-60694207D01*
X83311524Y-60694207D01*
X83311524Y-60572208D01*
X83194288Y-60572208D01*
X83194288Y-60431524D01*
X82795683Y-60431524D01*
X82795683Y-60572208D01*
X82655000Y-60572208D01*
X82655000Y-61214811D01*
X82795683Y-61214811D01*
X82795683Y-61350732D01*
X83053604Y-61350732D01*
X83053604Y-61088049D01*
X82785792Y-61088049D01*
X82785792Y-60694207D01*
X83194288Y-60694207D01*
X83194288Y-60834891D01*
X83311524Y-60834891D01*
X83311524Y-61088049D01*
X83442316Y-61088049D01*
X83442316Y-61214811D01*
X83569445Y-61214811D01*
X83569445Y-61350732D01*
X83827365Y-61350732D01*
X83827365Y-61214811D01*
X83968049Y-61214811D01*
G37*
G36*
X83968049Y-60160781D02*
G01*
X83968049Y-59363572D01*
X83578237Y-59363572D01*
X83578237Y-59504256D01*
X83710129Y-59504256D01*
X83710129Y-59640177D01*
X82785792Y-59640177D01*
X82785792Y-59504256D01*
X82655000Y-59504256D01*
X82655000Y-60020097D01*
X82785792Y-60020097D01*
X82785792Y-59902861D01*
X83710129Y-59902861D01*
X83710129Y-60020097D01*
X83578237Y-60020097D01*
X83578237Y-60160781D01*
X83968049Y-60160781D01*
G37*
G36*
X46699511Y-36909267D02*
G01*
X46026866Y-36909267D01*
X46063014Y-37083656D01*
X46215910Y-37083656D01*
X46507536Y-38485610D01*
X46354640Y-38485610D01*
X46390788Y-38660000D01*
X47063433Y-38660000D01*
X47027285Y-38485610D01*
X46850453Y-38485610D01*
X46558827Y-37083656D01*
X46735659Y-37083656D01*
X46699511Y-36909267D01*
G37*
G36*
X45747452Y-37440739D02*
G01*
X45405024Y-37440739D01*
X45444103Y-37628318D01*
X45266782Y-37628318D01*
X45481228Y-38660000D01*
X45823656Y-38660000D01*
X45606280Y-37615129D01*
X45783600Y-37615129D01*
X45747452Y-37440739D01*
G37*
G36*
X45227704Y-37440739D02*
G01*
X44707955Y-37440739D01*
X44747034Y-37628318D01*
X44587787Y-37628318D01*
X44802233Y-38660000D01*
X45144661Y-38660000D01*
X44927285Y-37615129D01*
X45263852Y-37615129D01*
X45227704Y-37440739D01*
G37*
G36*
X44199930Y-37610244D02*
G01*
X44383600Y-37610244D01*
X44565806Y-38485610D01*
X44382135Y-38485610D01*
X44418283Y-38660000D01*
X43562456Y-38660000D01*
X43526308Y-38485610D01*
X43367062Y-38485610D01*
X43331891Y-38316106D01*
X43674319Y-38316106D01*
X43709490Y-38485610D01*
X44223377Y-38485610D01*
X44149127Y-38128527D01*
X43292812Y-38128527D01*
X43185874Y-37615129D01*
X43528262Y-37615129D01*
X43599092Y-37954138D01*
X44112979Y-37954138D01*
X44042149Y-37615129D01*
X43528262Y-37615129D01*
X43185874Y-37615129D01*
X43184856Y-37610244D01*
X43344103Y-37610244D01*
X43308932Y-37440739D01*
X44164759Y-37440739D01*
X44199930Y-37610244D01*
G37*
G36*
X43793510Y-37271235D02*
G01*
X43609839Y-37271235D01*
X43573691Y-37096845D01*
X43757362Y-37096845D01*
X43793510Y-37271235D01*
G37*
G36*
X43381716Y-36909267D02*
G01*
X43534612Y-36909267D01*
X43570760Y-37083656D01*
X43234682Y-37083656D01*
X43198534Y-36909267D01*
X43039288Y-36909267D01*
X43006559Y-36752951D01*
X43348988Y-36752951D01*
X43381716Y-36909267D01*
G37*
G36*
X42949406Y-37440739D02*
G01*
X42606978Y-37440739D01*
X42643126Y-37615129D01*
X42465806Y-37615129D01*
X42429658Y-37440739D01*
X41750662Y-37440739D01*
X41822958Y-37789030D01*
X42165387Y-37789030D01*
X42129239Y-37615129D01*
X42312909Y-37615129D01*
X42349057Y-37789030D01*
X42501953Y-37789030D01*
X42647034Y-38485610D01*
X42494138Y-38485610D01*
X42530286Y-38660000D01*
X43202930Y-38660000D01*
X43166782Y-38485610D01*
X42989462Y-38485610D01*
X42808234Y-37615129D01*
X42985554Y-37615129D01*
X42949406Y-37440739D01*
G37*
G36*
X41366713Y-37440739D02*
G01*
X40510886Y-37440739D01*
X40546057Y-37610244D01*
X40386810Y-37610244D01*
X40422958Y-37784633D01*
X40765387Y-37784633D01*
X40730216Y-37615129D01*
X41244103Y-37615129D01*
X41425331Y-38485610D01*
X40911444Y-38485610D01*
X40876273Y-38316106D01*
X40533845Y-38316106D01*
X40569016Y-38485610D01*
X40728262Y-38485610D01*
X40764410Y-38660000D01*
X41620237Y-38660000D01*
X41584089Y-38485610D01*
X41767759Y-38485610D01*
X41585554Y-37610244D01*
X41401884Y-37610244D01*
X41366713Y-37440739D01*
G37*
G36*
X39527564Y-36909267D02*
G01*
X39184647Y-36909267D01*
X39255966Y-37253161D01*
X39598883Y-37253161D01*
X39527564Y-36909267D01*
G37*
G36*
X39814794Y-37440739D02*
G01*
X39295045Y-37440739D01*
X39512421Y-38485610D01*
X39359525Y-38485610D01*
X39395673Y-38660000D01*
X40068318Y-38660000D01*
X40032170Y-38485610D01*
X39855338Y-38485610D01*
X39674110Y-37615129D01*
X39850942Y-37615129D01*
X39814794Y-37440739D01*
G37*
G36*
X38599441Y-37440739D02*
G01*
X37926796Y-37440739D01*
X37962944Y-37615129D01*
X37772923Y-37615129D01*
X37954152Y-38485610D01*
X37770969Y-38485610D01*
X37807117Y-38660000D01*
X38149546Y-38660000D01*
X38113398Y-38485610D01*
X38297069Y-38485610D01*
X38187648Y-37959023D01*
X38517864Y-37959023D01*
X38627285Y-38485610D01*
X38297069Y-38485610D01*
X38333217Y-38660000D01*
X38852965Y-38660000D01*
X38816817Y-38485610D01*
X38969713Y-38485610D01*
X38862735Y-37972212D01*
X38709839Y-37972212D01*
X38670760Y-37784633D01*
X38151011Y-37784633D01*
X38115840Y-37615129D01*
X38635589Y-37615129D01*
X38599441Y-37440739D01*
G37*
G36*
X35330495Y-36909267D02*
G01*
X34987578Y-36909267D01*
X35058897Y-37253161D01*
X35401814Y-37253161D01*
X35330495Y-36909267D01*
G37*
G36*
X35617725Y-37440739D02*
G01*
X35097976Y-37440739D01*
X35315352Y-38485610D01*
X35162456Y-38485610D01*
X35198604Y-38660000D01*
X35871249Y-38660000D01*
X35835101Y-38485610D01*
X35658269Y-38485610D01*
X35477041Y-37615129D01*
X35653872Y-37615129D01*
X35617725Y-37440739D01*
G37*
G36*
X34377948Y-37440739D02*
G01*
X33539706Y-37440739D01*
X33574877Y-37610244D01*
X33391695Y-37610244D01*
X33427843Y-37784633D01*
X33770272Y-37784633D01*
X33735101Y-37615129D01*
X34248988Y-37615129D01*
X34284159Y-37784633D01*
X34106838Y-37784633D01*
X34142498Y-37954138D01*
X33805931Y-37954138D01*
X33842079Y-38128527D01*
X33682833Y-38128527D01*
X33721912Y-38316106D01*
X33538729Y-38316106D01*
X33573900Y-38485610D01*
X33757083Y-38485610D01*
X33793230Y-38660000D01*
X34631472Y-38660000D01*
X34595324Y-38485610D01*
X34772644Y-38485610D01*
X34737473Y-38316106D01*
X34395045Y-38316106D01*
X34430216Y-38485610D01*
X33916329Y-38485610D01*
X33881158Y-38316106D01*
X34064829Y-38316106D01*
X34025750Y-38128527D01*
X34355966Y-38128527D01*
X34319818Y-37954138D01*
X34484926Y-37954138D01*
X34449267Y-37784633D01*
X34626587Y-37784633D01*
X34590439Y-37610244D01*
X34413119Y-37610244D01*
X34377948Y-37440739D01*
G37*
G36*
X31604326Y-37440739D02*
G01*
X30931681Y-37440739D01*
X30967829Y-37615129D01*
X30777808Y-37615129D01*
X30959036Y-38485610D01*
X30775854Y-38485610D01*
X30812002Y-38660000D01*
X31154431Y-38660000D01*
X31118283Y-38485610D01*
X31301953Y-38485610D01*
X31192533Y-37959023D01*
X31522749Y-37959023D01*
X31632170Y-38485610D01*
X31301953Y-38485610D01*
X31338101Y-38660000D01*
X31857850Y-38660000D01*
X31821702Y-38485610D01*
X31974598Y-38485610D01*
X31867620Y-37972212D01*
X31714724Y-37972212D01*
X31675645Y-37784633D01*
X31155896Y-37784633D01*
X31120725Y-37615129D01*
X31640474Y-37615129D01*
X31604326Y-37440739D01*
G37*
G36*
X28959176Y-37440739D02*
G01*
X28616748Y-37440739D01*
X28655826Y-37628318D01*
X28478506Y-37628318D01*
X28692951Y-38660000D01*
X29035380Y-38660000D01*
X28818004Y-37615129D01*
X28995324Y-37615129D01*
X28959176Y-37440739D01*
G37*
G36*
X28439427Y-37440739D02*
G01*
X27919678Y-37440739D01*
X27958757Y-37628318D01*
X27799511Y-37628318D01*
X28013956Y-38660000D01*
X28356385Y-38660000D01*
X28139009Y-37615129D01*
X28475575Y-37615129D01*
X28439427Y-37440739D01*
G37*
G36*
X27415561Y-37628318D02*
G01*
X27599232Y-37628318D01*
X27777529Y-38485610D01*
X27593859Y-38485610D01*
X27630006Y-38660000D01*
X26774180Y-38660000D01*
X26738032Y-38485610D01*
X26578785Y-38485610D01*
X26400488Y-37628318D01*
X26559734Y-37628318D01*
X26556986Y-37615129D01*
X26739986Y-37615129D01*
X26921214Y-38485610D01*
X27435101Y-38485610D01*
X27253872Y-37615129D01*
X26739986Y-37615129D01*
X26556986Y-37615129D01*
X26520655Y-37440739D01*
X27376482Y-37440739D01*
X27415561Y-37628318D01*
G37*
G36*
X26161130Y-37440739D02*
G01*
X25818702Y-37440739D01*
X25857780Y-37628318D01*
X25680460Y-37628318D01*
X25894905Y-38660000D01*
X26237334Y-38660000D01*
X26019958Y-37615129D01*
X26197278Y-37615129D01*
X26161130Y-37440739D01*
G37*
G36*
X25641381Y-37440739D02*
G01*
X25121632Y-37440739D01*
X25160711Y-37628318D01*
X25001465Y-37628318D01*
X25215910Y-38660000D01*
X25558339Y-38660000D01*
X25340963Y-37615129D01*
X25677529Y-37615129D01*
X25641381Y-37440739D01*
G37*
G36*
X24836357Y-37797822D02*
G01*
X23643963Y-37797822D01*
X23680111Y-37972212D01*
X24872505Y-37972212D01*
X24836357Y-37797822D01*
G37*
G36*
X23363084Y-37440739D02*
G01*
X23020655Y-37440739D01*
X23059734Y-37628318D01*
X22882414Y-37628318D01*
X23060711Y-38485610D01*
X22724145Y-38485610D01*
X22542916Y-37615129D01*
X22879483Y-37615129D01*
X22843335Y-37440739D01*
X22323586Y-37440739D01*
X22362665Y-37628318D01*
X22203419Y-37628318D01*
X22381716Y-38485610D01*
X22540963Y-38485610D01*
X22577110Y-38660000D01*
X23096859Y-38660000D01*
X23171109Y-39017083D01*
X23018213Y-39017083D01*
X23054361Y-39191472D01*
X23727006Y-39191472D01*
X23690858Y-39017083D01*
X23513538Y-39017083D01*
X23221912Y-37615129D01*
X23399232Y-37615129D01*
X23363084Y-37440739D01*
G37*
G36*
X21964061Y-37440739D02*
G01*
X21621632Y-37440739D01*
X21657780Y-37615129D01*
X21480460Y-37615129D01*
X21444312Y-37440739D01*
X20765317Y-37440739D01*
X20837613Y-37789030D01*
X21180041Y-37789030D01*
X21143893Y-37615129D01*
X21327564Y-37615129D01*
X21363712Y-37789030D01*
X21516608Y-37789030D01*
X21661688Y-38485610D01*
X21508792Y-38485610D01*
X21544940Y-38660000D01*
X22217585Y-38660000D01*
X22181437Y-38485610D01*
X22004117Y-38485610D01*
X21822889Y-37615129D01*
X22000209Y-37615129D01*
X21964061Y-37440739D01*
G37*
G36*
X20420446Y-37628318D02*
G01*
X20604117Y-37628318D01*
X20782414Y-38485610D01*
X20598743Y-38485610D01*
X20634891Y-38660000D01*
X19779064Y-38660000D01*
X19742916Y-38485610D01*
X19583670Y-38485610D01*
X19405373Y-37628318D01*
X19564619Y-37628318D01*
X19561871Y-37615129D01*
X19744870Y-37615129D01*
X19926099Y-38485610D01*
X20439986Y-38485610D01*
X20258757Y-37615129D01*
X19744870Y-37615129D01*
X19561871Y-37615129D01*
X19525540Y-37440739D01*
X20381367Y-37440739D01*
X20420446Y-37628318D01*
G37*
G36*
X18535868Y-36909267D02*
G01*
X18016120Y-36909267D01*
X18055198Y-37096845D01*
X17895952Y-37096845D01*
X17932100Y-37271235D01*
X18274528Y-37271235D01*
X18235450Y-37083656D01*
X18388346Y-37083656D01*
X18462595Y-37440739D01*
X18126517Y-37440739D01*
X18162665Y-37615129D01*
X18498743Y-37615129D01*
X18679972Y-38485610D01*
X18527076Y-38485610D01*
X18563224Y-38660000D01*
X19235868Y-38660000D01*
X19199720Y-38485610D01*
X19022889Y-38485610D01*
X18841660Y-37615129D01*
X19018492Y-37615129D01*
X18982344Y-37440739D01*
X18805512Y-37440739D01*
X18734193Y-37096845D01*
X18574947Y-37096845D01*
X18535868Y-36909267D01*
G37*
G36*
X17143196Y-36909267D02*
G01*
X16800279Y-36909267D01*
X16871598Y-37253161D01*
X17214515Y-37253161D01*
X17143196Y-36909267D01*
G37*
G36*
X17430425Y-37440739D02*
G01*
X16910676Y-37440739D01*
X17128053Y-38485610D01*
X16975157Y-38485610D01*
X17011304Y-38660000D01*
X17683949Y-38660000D01*
X17647801Y-38485610D01*
X17470969Y-38485610D01*
X17289741Y-37615129D01*
X17466573Y-37615129D01*
X17430425Y-37440739D01*
G37*
G36*
X15762247Y-36909267D02*
G01*
X15578576Y-36909267D01*
X15688974Y-37440739D01*
X15328471Y-37440739D01*
X15364619Y-37615129D01*
X15725122Y-37615129D01*
X15906350Y-38485610D01*
X15747103Y-38485610D01*
X15783251Y-38660000D01*
X16126168Y-38660000D01*
X16090020Y-38485610D01*
X16248778Y-38485610D01*
X16067550Y-37615129D01*
X16404117Y-37615129D01*
X16367969Y-37440739D01*
X16031402Y-37440739D01*
X15956175Y-37078771D01*
X15797418Y-37078771D01*
X15762247Y-36909267D01*
G37*
G36*
X15693859Y-38316106D02*
G01*
X15510676Y-38316106D01*
X15545847Y-38485610D01*
X15729030Y-38485610D01*
X15693859Y-38316106D01*
G37*
G36*
X47001884Y-40988318D02*
G01*
X47185554Y-40988318D01*
X47363852Y-41845610D01*
X47180181Y-41845610D01*
X47216329Y-42020000D01*
X46360502Y-42020000D01*
X46324354Y-41845610D01*
X46165108Y-41845610D01*
X45986810Y-40988318D01*
X46146057Y-40988318D01*
X46143309Y-40975129D01*
X46326308Y-40975129D01*
X46507536Y-41845610D01*
X47021423Y-41845610D01*
X46840195Y-40975129D01*
X46326308Y-40975129D01*
X46143309Y-40975129D01*
X46106978Y-40800739D01*
X46962805Y-40800739D01*
X47001884Y-40988318D01*
G37*
G36*
X45747452Y-40800739D02*
G01*
X45405024Y-40800739D01*
X45441172Y-40975129D01*
X45263852Y-40975129D01*
X45227704Y-40800739D01*
X44548709Y-40800739D01*
X44621004Y-41149030D01*
X44963433Y-41149030D01*
X44927285Y-40975129D01*
X45110956Y-40975129D01*
X45147103Y-41149030D01*
X45300000Y-41149030D01*
X45445080Y-41845610D01*
X45292184Y-41845610D01*
X45328332Y-42020000D01*
X46000976Y-42020000D01*
X45964829Y-41845610D01*
X45787508Y-41845610D01*
X45606280Y-40975129D01*
X45783600Y-40975129D01*
X45747452Y-40800739D01*
G37*
G36*
X44195533Y-40800739D02*
G01*
X43675785Y-40800739D01*
X43711933Y-40975129D01*
X44042149Y-40975129D01*
X44223377Y-41845610D01*
X43893161Y-41845610D01*
X43714863Y-40988318D01*
X43531193Y-40988318D01*
X43492114Y-40800739D01*
X43149685Y-40800739D01*
X43185833Y-40975129D01*
X43369016Y-40975129D01*
X43660642Y-42377083D01*
X43850662Y-42377083D01*
X43886810Y-42551472D01*
X44559455Y-42551472D01*
X44523307Y-42377083D01*
X44676203Y-42377083D01*
X44641032Y-42207578D01*
X44298604Y-42207578D01*
X44333775Y-42377083D01*
X44003558Y-42377083D01*
X43929309Y-42020000D01*
X44449057Y-42020000D01*
X44412909Y-41845610D01*
X44565806Y-41845610D01*
X44387508Y-40988318D01*
X44234612Y-40988318D01*
X44195533Y-40800739D01*
G37*
G36*
X42796510Y-40800739D02*
G01*
X42123866Y-40800739D01*
X42160013Y-40975129D01*
X41969993Y-40975129D01*
X42151221Y-41845610D01*
X41968039Y-41845610D01*
X42004187Y-42020000D01*
X42346615Y-42020000D01*
X42310467Y-41845610D01*
X42494138Y-41845610D01*
X42384717Y-41319023D01*
X42714933Y-41319023D01*
X42824354Y-41845610D01*
X42494138Y-41845610D01*
X42530286Y-42020000D01*
X43050034Y-42020000D01*
X43013886Y-41845610D01*
X43166782Y-41845610D01*
X43059804Y-41332212D01*
X42906908Y-41332212D01*
X42867829Y-41144633D01*
X42348080Y-41144633D01*
X42312909Y-40975129D01*
X42832658Y-40975129D01*
X42796510Y-40800739D01*
G37*
G36*
X41550383Y-40800739D02*
G01*
X41207955Y-40800739D01*
X41247034Y-40988318D01*
X41069713Y-40988318D01*
X41284159Y-42020000D01*
X41626587Y-42020000D01*
X41409211Y-40975129D01*
X41586531Y-40975129D01*
X41550383Y-40800739D01*
G37*
G36*
X41030635Y-40800739D02*
G01*
X40510886Y-40800739D01*
X40549965Y-40988318D01*
X40390718Y-40988318D01*
X40605163Y-42020000D01*
X40947592Y-42020000D01*
X40730216Y-40975129D01*
X41066782Y-40975129D01*
X41030635Y-40800739D01*
G37*
G36*
X39527564Y-40269267D02*
G01*
X39184647Y-40269267D01*
X39255966Y-40613161D01*
X39598883Y-40613161D01*
X39527564Y-40269267D01*
G37*
G36*
X39814794Y-40800739D02*
G01*
X39295045Y-40800739D01*
X39512421Y-41845610D01*
X39359525Y-41845610D01*
X39395673Y-42020000D01*
X40068318Y-42020000D01*
X40032170Y-41845610D01*
X39855338Y-41845610D01*
X39674110Y-40975129D01*
X39850942Y-40975129D01*
X39814794Y-40800739D01*
G37*
G36*
X38575017Y-40800739D02*
G01*
X37736775Y-40800739D01*
X37771946Y-40970244D01*
X37588764Y-40970244D01*
X37624912Y-41144633D01*
X37967341Y-41144633D01*
X37932170Y-40975129D01*
X38446057Y-40975129D01*
X38481228Y-41144633D01*
X38303907Y-41144633D01*
X38339567Y-41314138D01*
X38003000Y-41314138D01*
X38039148Y-41488527D01*
X37879902Y-41488527D01*
X37918981Y-41676106D01*
X37735799Y-41676106D01*
X37770969Y-41845610D01*
X37954152Y-41845610D01*
X37990300Y-42020000D01*
X38828541Y-42020000D01*
X38792393Y-41845610D01*
X38969713Y-41845610D01*
X38934542Y-41676106D01*
X38592114Y-41676106D01*
X38627285Y-41845610D01*
X38113398Y-41845610D01*
X38078227Y-41676106D01*
X38261898Y-41676106D01*
X38222819Y-41488527D01*
X38553035Y-41488527D01*
X38516887Y-41314138D01*
X38681995Y-41314138D01*
X38646336Y-41144633D01*
X38823656Y-41144633D01*
X38787508Y-40970244D01*
X38610188Y-40970244D01*
X38575017Y-40800739D01*
G37*
G36*
X37200418Y-40800739D02*
G01*
X36527773Y-40800739D01*
X36563921Y-40975129D01*
X36373900Y-40975129D01*
X36555129Y-41845610D01*
X36371946Y-41845610D01*
X36408094Y-42020000D01*
X36750523Y-42020000D01*
X36714375Y-41845610D01*
X36898046Y-41845610D01*
X36788625Y-41319023D01*
X37118841Y-41319023D01*
X37228262Y-41845610D01*
X36898046Y-41845610D01*
X36934193Y-42020000D01*
X37453942Y-42020000D01*
X37417794Y-41845610D01*
X37570690Y-41845610D01*
X37463712Y-41332212D01*
X37310816Y-41332212D01*
X37271737Y-41144633D01*
X36751988Y-41144633D01*
X36716817Y-40975129D01*
X37236566Y-40975129D01*
X37200418Y-40800739D01*
G37*
G36*
X35348569Y-40269267D02*
G01*
X35164898Y-40269267D01*
X35275296Y-40800739D01*
X34914794Y-40800739D01*
X34950942Y-40975129D01*
X35311444Y-40975129D01*
X35492672Y-41845610D01*
X35333426Y-41845610D01*
X35369574Y-42020000D01*
X35712491Y-42020000D01*
X35676343Y-41845610D01*
X35835101Y-41845610D01*
X35653872Y-40975129D01*
X35990439Y-40975129D01*
X35954291Y-40800739D01*
X35617725Y-40800739D01*
X35542498Y-40438771D01*
X35383740Y-40438771D01*
X35348569Y-40269267D01*
G37*
G36*
X35280181Y-41676106D02*
G01*
X35096999Y-41676106D01*
X35132170Y-41845610D01*
X35315352Y-41845610D01*
X35280181Y-41676106D01*
G37*
G36*
X33931472Y-40269267D02*
G01*
X33588555Y-40269267D01*
X33659874Y-40613161D01*
X34002791Y-40613161D01*
X33931472Y-40269267D01*
G37*
G36*
X34218702Y-40800739D02*
G01*
X33698953Y-40800739D01*
X33916329Y-41845610D01*
X33763433Y-41845610D01*
X33799581Y-42020000D01*
X34472226Y-42020000D01*
X34436078Y-41845610D01*
X34259246Y-41845610D01*
X34078018Y-40975129D01*
X34254849Y-40975129D01*
X34218702Y-40800739D01*
G37*
G36*
X33011653Y-40988318D02*
G01*
X33195324Y-40988318D01*
X33373621Y-41845610D01*
X33189951Y-41845610D01*
X33226099Y-42020000D01*
X32370272Y-42020000D01*
X32334124Y-41845610D01*
X32174877Y-41845610D01*
X31996580Y-40988318D01*
X32155826Y-40988318D01*
X32153078Y-40975129D01*
X32336078Y-40975129D01*
X32517306Y-41845610D01*
X33031193Y-41845610D01*
X32849965Y-40975129D01*
X32336078Y-40975129D01*
X32153078Y-40975129D01*
X32116748Y-40800739D01*
X32972575Y-40800739D01*
X33011653Y-40988318D01*
G37*
G36*
X31757222Y-40800739D02*
G01*
X31414794Y-40800739D01*
X31453872Y-40988318D01*
X31276552Y-40988318D01*
X31490997Y-42020000D01*
X31833426Y-42020000D01*
X31616050Y-40975129D01*
X31793370Y-40975129D01*
X31757222Y-40800739D01*
G37*
G36*
X31237473Y-40800739D02*
G01*
X30717725Y-40800739D01*
X30756803Y-40988318D01*
X30597557Y-40988318D01*
X30812002Y-42020000D01*
X31154431Y-42020000D01*
X30937055Y-40975129D01*
X31273621Y-40975129D01*
X31237473Y-40800739D01*
G37*
G36*
X28806280Y-40800739D02*
G01*
X28133635Y-40800739D01*
X28169783Y-40975129D01*
X27979762Y-40975129D01*
X28160990Y-41845610D01*
X27977808Y-41845610D01*
X28013956Y-42020000D01*
X28356385Y-42020000D01*
X28320237Y-41845610D01*
X28503907Y-41845610D01*
X28394487Y-41319023D01*
X28724703Y-41319023D01*
X28834124Y-41845610D01*
X28503907Y-41845610D01*
X28540055Y-42020000D01*
X29059804Y-42020000D01*
X29023656Y-41845610D01*
X29176552Y-41845610D01*
X29069574Y-41332212D01*
X28916678Y-41332212D01*
X28877599Y-41144633D01*
X28357850Y-41144633D01*
X28322679Y-40975129D01*
X28842428Y-40975129D01*
X28806280Y-40800739D01*
G37*
G36*
X26936357Y-40269267D02*
G01*
X26593440Y-40269267D01*
X26664759Y-40613161D01*
X27007676Y-40613161D01*
X26936357Y-40269267D01*
G37*
G36*
X27223586Y-40800739D02*
G01*
X26703838Y-40800739D01*
X26921214Y-41845610D01*
X26768318Y-41845610D01*
X26804466Y-42020000D01*
X27477110Y-42020000D01*
X27440963Y-41845610D01*
X27264131Y-41845610D01*
X27082903Y-40975129D01*
X27259734Y-40975129D01*
X27223586Y-40800739D01*
G37*
G36*
X26161130Y-40800739D02*
G01*
X25641381Y-40800739D01*
X25680460Y-40988318D01*
X25496789Y-40988318D01*
X25457711Y-40800739D01*
X25145568Y-40800739D01*
X25184647Y-40988318D01*
X25001465Y-40988318D01*
X25215910Y-42020000D01*
X25558339Y-42020000D01*
X25376133Y-41144633D01*
X25529030Y-41144633D01*
X25678506Y-41863684D01*
X25862177Y-41863684D01*
X25712700Y-41144633D01*
X25890020Y-41144633D01*
X26072226Y-42020000D01*
X26414654Y-42020000D01*
X26161130Y-40800739D01*
G37*
G36*
X24613607Y-40970244D02*
G01*
X24797278Y-40970244D01*
X24979483Y-41845610D01*
X24795812Y-41845610D01*
X24831960Y-42020000D01*
X23976133Y-42020000D01*
X23939986Y-41845610D01*
X23780739Y-41845610D01*
X23745568Y-41676106D01*
X24087997Y-41676106D01*
X24123168Y-41845610D01*
X24637055Y-41845610D01*
X24562805Y-41488527D01*
X23706489Y-41488527D01*
X23599552Y-40975129D01*
X23941939Y-40975129D01*
X24012770Y-41314138D01*
X24526657Y-41314138D01*
X24455826Y-40975129D01*
X23941939Y-40975129D01*
X23599552Y-40975129D01*
X23598534Y-40970244D01*
X23757780Y-40970244D01*
X23722609Y-40800739D01*
X24578436Y-40800739D01*
X24613607Y-40970244D01*
G37*
G36*
X22744661Y-40269267D02*
G01*
X22237124Y-40269267D01*
X22564898Y-41845610D01*
X22381716Y-41845610D01*
X22417864Y-42020000D01*
X22760293Y-42020000D01*
X22724145Y-41845610D01*
X22907815Y-41845610D01*
X22726587Y-40975129D01*
X23056803Y-40975129D01*
X23238032Y-41845610D01*
X22907815Y-41845610D01*
X22943963Y-42020000D01*
X23463712Y-42020000D01*
X23427564Y-41845610D01*
X23580460Y-41845610D01*
X23402163Y-40988318D01*
X23249267Y-40988318D01*
X23210188Y-40800739D01*
X22690439Y-40800739D01*
X22616189Y-40443656D01*
X22780809Y-40443656D01*
X22744661Y-40269267D01*
G37*
G36*
X46540753Y-43629267D02*
G01*
X46357083Y-43629267D01*
X46467480Y-44160739D01*
X46106978Y-44160739D01*
X46143126Y-44335129D01*
X46503628Y-44335129D01*
X46684856Y-45205610D01*
X46525610Y-45205610D01*
X46561758Y-45380000D01*
X46904675Y-45380000D01*
X46868527Y-45205610D01*
X47027285Y-45205610D01*
X46846057Y-44335129D01*
X47182623Y-44335129D01*
X47146475Y-44160739D01*
X46809909Y-44160739D01*
X46734682Y-43798771D01*
X46575924Y-43798771D01*
X46540753Y-43629267D01*
G37*
G36*
X46472365Y-45036106D02*
G01*
X46289183Y-45036106D01*
X46324354Y-45205610D01*
X46507536Y-45205610D01*
X46472365Y-45036106D01*
G37*
G36*
X45602861Y-44348318D02*
G01*
X45786531Y-44348318D01*
X45964829Y-45205610D01*
X45781158Y-45205610D01*
X45817306Y-45380000D01*
X44961479Y-45380000D01*
X44925331Y-45205610D01*
X44766085Y-45205610D01*
X44587787Y-44348318D01*
X44747034Y-44348318D01*
X44744286Y-44335129D01*
X44927285Y-44335129D01*
X45108513Y-45205610D01*
X45622400Y-45205610D01*
X45441172Y-44335129D01*
X44927285Y-44335129D01*
X44744286Y-44335129D01*
X44707955Y-44160739D01*
X45563782Y-44160739D01*
X45602861Y-44348318D01*
G37*
G36*
X42949406Y-44160739D02*
G01*
X42429658Y-44160739D01*
X42468736Y-44348318D01*
X42285066Y-44348318D01*
X42245987Y-44160739D01*
X41933845Y-44160739D01*
X41972923Y-44348318D01*
X41789741Y-44348318D01*
X42004187Y-45380000D01*
X42346615Y-45380000D01*
X42164410Y-44504633D01*
X42317306Y-44504633D01*
X42466782Y-45223684D01*
X42650453Y-45223684D01*
X42500976Y-44504633D01*
X42678297Y-44504633D01*
X42860502Y-45380000D01*
X43202930Y-45380000D01*
X42949406Y-44160739D01*
G37*
G36*
X41397487Y-44160739D02*
G01*
X40724842Y-44160739D01*
X40760990Y-44335129D01*
X40570969Y-44335129D01*
X40752198Y-45205610D01*
X40569016Y-45205610D01*
X40605163Y-45380000D01*
X40947592Y-45380000D01*
X40911444Y-45205610D01*
X41095115Y-45205610D01*
X40985694Y-44679023D01*
X41315910Y-44679023D01*
X41425331Y-45205610D01*
X41095115Y-45205610D01*
X41131263Y-45380000D01*
X41651011Y-45380000D01*
X41614863Y-45205610D01*
X41767759Y-45205610D01*
X41660781Y-44692212D01*
X41507885Y-44692212D01*
X41468806Y-44504633D01*
X40949057Y-44504633D01*
X40913886Y-44335129D01*
X41433635Y-44335129D01*
X41397487Y-44160739D01*
G37*
G36*
X40025819Y-43629267D02*
G01*
X39514863Y-43629267D01*
X39696580Y-44504633D01*
X39525610Y-44504633D01*
X39493370Y-44348318D01*
X39334124Y-44348318D01*
X39295045Y-44160739D01*
X38952616Y-44160739D01*
X38988764Y-44335129D01*
X39148011Y-44335129D01*
X39183182Y-44504633D01*
X39366364Y-44504633D01*
X39438171Y-44848527D01*
X39254989Y-44848527D01*
X39294068Y-45036106D01*
X39134822Y-45036106D01*
X39206140Y-45380000D01*
X39548569Y-45380000D01*
X39477250Y-45036106D01*
X39636496Y-45036106D01*
X39597418Y-44848527D01*
X39768387Y-44848527D01*
X39878785Y-45380000D01*
X40389741Y-45380000D01*
X40353593Y-45205610D01*
X40185066Y-45205610D01*
X39893440Y-43803656D01*
X40061967Y-43803656D01*
X40025819Y-43629267D01*
G37*
G36*
X38603838Y-44330244D02*
G01*
X38787508Y-44330244D01*
X38969713Y-45205610D01*
X38786043Y-45205610D01*
X38822191Y-45380000D01*
X37966364Y-45380000D01*
X37930216Y-45205610D01*
X37770969Y-45205610D01*
X37735799Y-45036106D01*
X38078227Y-45036106D01*
X38113398Y-45205610D01*
X38627285Y-45205610D01*
X38553035Y-44848527D01*
X37696720Y-44848527D01*
X37589782Y-44335129D01*
X37932170Y-44335129D01*
X38003000Y-44674138D01*
X38516887Y-44674138D01*
X38446057Y-44335129D01*
X37932170Y-44335129D01*
X37589782Y-44335129D01*
X37588764Y-44330244D01*
X37748011Y-44330244D01*
X37712840Y-44160739D01*
X38568667Y-44160739D01*
X38603838Y-44330244D01*
G37*
G36*
X35348569Y-43629267D02*
G01*
X35164898Y-43629267D01*
X35275296Y-44160739D01*
X34914794Y-44160739D01*
X34950942Y-44335129D01*
X35311444Y-44335129D01*
X35492672Y-45205610D01*
X35333426Y-45205610D01*
X35369574Y-45380000D01*
X35712491Y-45380000D01*
X35676343Y-45205610D01*
X35835101Y-45205610D01*
X35653872Y-44335129D01*
X35990439Y-44335129D01*
X35954291Y-44160739D01*
X35617725Y-44160739D01*
X35542498Y-43798771D01*
X35383740Y-43798771D01*
X35348569Y-43629267D01*
G37*
G36*
X35280181Y-45036106D02*
G01*
X35096999Y-45036106D01*
X35132170Y-45205610D01*
X35315352Y-45205610D01*
X35280181Y-45036106D01*
G37*
G36*
X34429727Y-43629267D02*
G01*
X33918771Y-43629267D01*
X34064340Y-44330244D01*
X33893370Y-44330244D01*
X33929518Y-44504633D01*
X34100488Y-44504633D01*
X34282693Y-45380000D01*
X34793649Y-45380000D01*
X34757501Y-45205610D01*
X34588974Y-45205610D01*
X34297348Y-43803656D01*
X34465875Y-43803656D01*
X34429727Y-43629267D01*
G37*
G36*
X33858199Y-44160739D02*
G01*
X33515771Y-44160739D01*
X33550942Y-44330244D01*
X33391695Y-44330244D01*
X33610048Y-45380000D01*
X33952477Y-45380000D01*
X33735101Y-44335129D01*
X33894347Y-44335129D01*
X33858199Y-44160739D01*
G37*
G36*
X33007745Y-44330244D02*
G01*
X33191416Y-44330244D01*
X33373621Y-45205610D01*
X33189951Y-45205610D01*
X33226099Y-45380000D01*
X32370272Y-45380000D01*
X32334124Y-45205610D01*
X32174877Y-45205610D01*
X32139706Y-45036106D01*
X32482135Y-45036106D01*
X32517306Y-45205610D01*
X33031193Y-45205610D01*
X32956943Y-44848527D01*
X32100628Y-44848527D01*
X31993690Y-44335129D01*
X32336078Y-44335129D01*
X32406908Y-44674138D01*
X32920795Y-44674138D01*
X32849965Y-44335129D01*
X32336078Y-44335129D01*
X31993690Y-44335129D01*
X31992672Y-44330244D01*
X32151919Y-44330244D01*
X32116748Y-44160739D01*
X32972575Y-44160739D01*
X33007745Y-44330244D01*
G37*
G36*
X29739776Y-43629267D02*
G01*
X29232240Y-43629267D01*
X29560013Y-45205610D01*
X29376831Y-45205610D01*
X29412979Y-45380000D01*
X29755408Y-45380000D01*
X29719260Y-45205610D01*
X29902930Y-45205610D01*
X29721702Y-44335129D01*
X30051919Y-44335129D01*
X30233147Y-45205610D01*
X29902930Y-45205610D01*
X29939078Y-45380000D01*
X30458827Y-45380000D01*
X30422679Y-45205610D01*
X30575575Y-45205610D01*
X30397278Y-44348318D01*
X30244382Y-44348318D01*
X30205303Y-44160739D01*
X29685554Y-44160739D01*
X29611304Y-43803656D01*
X29775924Y-43803656D01*
X29739776Y-43629267D01*
G37*
G36*
X28810676Y-44330244D02*
G01*
X28994347Y-44330244D01*
X29176552Y-45205610D01*
X28992882Y-45205610D01*
X29029030Y-45380000D01*
X28173203Y-45380000D01*
X28137055Y-45205610D01*
X27977808Y-45205610D01*
X27942637Y-45036106D01*
X28285066Y-45036106D01*
X28320237Y-45205610D01*
X28834124Y-45205610D01*
X28759874Y-44848527D01*
X27903558Y-44848527D01*
X27796621Y-44335129D01*
X28139009Y-44335129D01*
X28209839Y-44674138D01*
X28723726Y-44674138D01*
X28652896Y-44335129D01*
X28139009Y-44335129D01*
X27796621Y-44335129D01*
X27795603Y-44330244D01*
X27954849Y-44330244D01*
X27919678Y-44160739D01*
X28775505Y-44160739D01*
X28810676Y-44330244D01*
G37*
G36*
X27560153Y-44160739D02*
G01*
X27040404Y-44160739D01*
X27079483Y-44348318D01*
X26895812Y-44348318D01*
X26856734Y-44160739D01*
X26544591Y-44160739D01*
X26583670Y-44348318D01*
X26400488Y-44348318D01*
X26614933Y-45380000D01*
X26957362Y-45380000D01*
X26775157Y-44504633D01*
X26928053Y-44504633D01*
X27077529Y-45223684D01*
X27261200Y-45223684D01*
X27111723Y-44504633D01*
X27289043Y-44504633D01*
X27471249Y-45380000D01*
X27813677Y-45380000D01*
X27560153Y-44160739D01*
G37*
G36*
X26016538Y-44348318D02*
G01*
X26200209Y-44348318D01*
X26378506Y-45205610D01*
X26194836Y-45205610D01*
X26230983Y-45380000D01*
X25375157Y-45380000D01*
X25339009Y-45205610D01*
X25179762Y-45205610D01*
X25001465Y-44348318D01*
X25160711Y-44348318D01*
X25157963Y-44335129D01*
X25340963Y-44335129D01*
X25522191Y-45205610D01*
X26036078Y-45205610D01*
X25854849Y-44335129D01*
X25340963Y-44335129D01*
X25157963Y-44335129D01*
X25121632Y-44160739D01*
X25977459Y-44160739D01*
X26016538Y-44348318D01*
G37*
G36*
X24584787Y-44160739D02*
G01*
X23746545Y-44160739D01*
X23781716Y-44330244D01*
X23598534Y-44330244D01*
X23634682Y-44504633D01*
X23977110Y-44504633D01*
X23941939Y-44335129D01*
X24455826Y-44335129D01*
X24490997Y-44504633D01*
X24313677Y-44504633D01*
X24349337Y-44674138D01*
X24012770Y-44674138D01*
X24048918Y-44848527D01*
X23889672Y-44848527D01*
X23928750Y-45036106D01*
X23745568Y-45036106D01*
X23780739Y-45205610D01*
X23963921Y-45205610D01*
X24000069Y-45380000D01*
X24838311Y-45380000D01*
X24802163Y-45205610D01*
X24979483Y-45205610D01*
X24944312Y-45036106D01*
X24601884Y-45036106D01*
X24637055Y-45205610D01*
X24123168Y-45205610D01*
X24087997Y-45036106D01*
X24271667Y-45036106D01*
X24232588Y-44848527D01*
X24562805Y-44848527D01*
X24526657Y-44674138D01*
X24691765Y-44674138D01*
X24656106Y-44504633D01*
X24833426Y-44504633D01*
X24797278Y-44330244D01*
X24619958Y-44330244D01*
X24584787Y-44160739D01*
G37*
G36*
X23179413Y-44160739D02*
G01*
X22323586Y-44160739D01*
X22358757Y-44330244D01*
X22199511Y-44330244D01*
X22235659Y-44504633D01*
X22578087Y-44504633D01*
X22542916Y-44335129D01*
X23056803Y-44335129D01*
X23238032Y-45205610D01*
X22724145Y-45205610D01*
X22688974Y-45036106D01*
X22346545Y-45036106D01*
X22381716Y-45205610D01*
X22540963Y-45205610D01*
X22577110Y-45380000D01*
X23432937Y-45380000D01*
X23396789Y-45205610D01*
X23580460Y-45205610D01*
X23398255Y-44330244D01*
X23214584Y-44330244D01*
X23179413Y-44160739D01*
G37*
G36*
X21815561Y-44330244D02*
G01*
X21999232Y-44330244D01*
X22181437Y-45205610D01*
X21997766Y-45205610D01*
X22033914Y-45380000D01*
X21178087Y-45380000D01*
X21141939Y-45205610D01*
X20982693Y-45205610D01*
X20947522Y-45036106D01*
X21289951Y-45036106D01*
X21325122Y-45205610D01*
X21839009Y-45205610D01*
X21764759Y-44848527D01*
X20908443Y-44848527D01*
X20801506Y-44335129D01*
X21143893Y-44335129D01*
X21214724Y-44674138D01*
X21728611Y-44674138D01*
X21657780Y-44335129D01*
X21143893Y-44335129D01*
X20801506Y-44335129D01*
X20800488Y-44330244D01*
X20959734Y-44330244D01*
X20924563Y-44160739D01*
X21780390Y-44160739D01*
X21815561Y-44330244D01*
G37*
G36*
X20565038Y-44160739D02*
G01*
X20222609Y-44160739D01*
X20261688Y-44348318D01*
X20084368Y-44348318D01*
X20298813Y-45380000D01*
X20641242Y-45380000D01*
X20423866Y-44335129D01*
X20601186Y-44335129D01*
X20565038Y-44160739D01*
G37*
G36*
X20045289Y-44160739D02*
G01*
X19525540Y-44160739D01*
X19564619Y-44348318D01*
X19405373Y-44348318D01*
X19619818Y-45380000D01*
X19962247Y-45380000D01*
X19744870Y-44335129D01*
X20081437Y-44335129D01*
X20045289Y-44160739D01*
G37*
G36*
X19017515Y-44330244D02*
G01*
X19201186Y-44330244D01*
X19383391Y-45205610D01*
X19199720Y-45205610D01*
X19235868Y-45380000D01*
X18380041Y-45380000D01*
X18343893Y-45205610D01*
X18184647Y-45205610D01*
X18149476Y-45036106D01*
X18491905Y-45036106D01*
X18527076Y-45205610D01*
X19040963Y-45205610D01*
X18966713Y-44848527D01*
X18110397Y-44848527D01*
X18003460Y-44335129D01*
X18345847Y-44335129D01*
X18416678Y-44674138D01*
X18930565Y-44674138D01*
X18859734Y-44335129D01*
X18345847Y-44335129D01*
X18003460Y-44335129D01*
X18002442Y-44330244D01*
X18161688Y-44330244D01*
X18126517Y-44160739D01*
X18982344Y-44160739D01*
X19017515Y-44330244D01*
G37*
G36*
X47020935Y-46989267D02*
G01*
X46509979Y-46989267D01*
X46691695Y-47864633D01*
X46520725Y-47864633D01*
X46488485Y-47708318D01*
X46329239Y-47708318D01*
X46290160Y-47520739D01*
X45947732Y-47520739D01*
X45983879Y-47695129D01*
X46143126Y-47695129D01*
X46178297Y-47864633D01*
X46361479Y-47864633D01*
X46433286Y-48208527D01*
X46250104Y-48208527D01*
X46289183Y-48396106D01*
X46129937Y-48396106D01*
X46201256Y-48740000D01*
X46543684Y-48740000D01*
X46472365Y-48396106D01*
X46631612Y-48396106D01*
X46592533Y-48208527D01*
X46763503Y-48208527D01*
X46873900Y-48740000D01*
X47384856Y-48740000D01*
X47348709Y-48565610D01*
X47180181Y-48565610D01*
X46888555Y-47163656D01*
X47057083Y-47163656D01*
X47020935Y-46989267D01*
G37*
G36*
X45747452Y-47520739D02*
G01*
X45405024Y-47520739D01*
X45444103Y-47708318D01*
X45266782Y-47708318D01*
X45481228Y-48740000D01*
X45823656Y-48740000D01*
X45606280Y-47695129D01*
X45783600Y-47695129D01*
X45747452Y-47520739D01*
G37*
G36*
X45227704Y-47520739D02*
G01*
X44707955Y-47520739D01*
X44747034Y-47708318D01*
X44587787Y-47708318D01*
X44802233Y-48740000D01*
X45144661Y-48740000D01*
X44927285Y-47695129D01*
X45263852Y-47695129D01*
X45227704Y-47520739D01*
G37*
G36*
X44203838Y-47708318D02*
G01*
X44387508Y-47708318D01*
X44565806Y-48565610D01*
X44382135Y-48565610D01*
X44418283Y-48740000D01*
X43562456Y-48740000D01*
X43526308Y-48565610D01*
X43367062Y-48565610D01*
X43188764Y-47708318D01*
X43348011Y-47708318D01*
X43345263Y-47695129D01*
X43528262Y-47695129D01*
X43709490Y-48565610D01*
X44223377Y-48565610D01*
X44042149Y-47695129D01*
X43528262Y-47695129D01*
X43345263Y-47695129D01*
X43308932Y-47520739D01*
X44164759Y-47520739D01*
X44203838Y-47708318D01*
G37*
G36*
X42949406Y-47520739D02*
G01*
X42606978Y-47520739D01*
X42789183Y-48396106D01*
X42611863Y-48396106D01*
X42462386Y-47677055D01*
X42278715Y-47677055D01*
X42428192Y-48396106D01*
X42275296Y-48396106D01*
X42093091Y-47520739D01*
X41750662Y-47520739D01*
X41965108Y-48552421D01*
X42148290Y-48552421D01*
X42187369Y-48740000D01*
X42499511Y-48740000D01*
X42460432Y-48552421D01*
X42644103Y-48552421D01*
X42683182Y-48740000D01*
X43025610Y-48740000D01*
X42986531Y-48552421D01*
X43163852Y-48552421D01*
X42949406Y-47520739D01*
G37*
G36*
X41550383Y-47520739D02*
G01*
X41207955Y-47520739D01*
X41247034Y-47708318D01*
X41069713Y-47708318D01*
X41284159Y-48740000D01*
X41626587Y-48740000D01*
X41409211Y-47695129D01*
X41586531Y-47695129D01*
X41550383Y-47520739D01*
G37*
G36*
X41030635Y-47520739D02*
G01*
X40510886Y-47520739D01*
X40549965Y-47708318D01*
X40390718Y-47708318D01*
X40605163Y-48740000D01*
X40947592Y-48740000D01*
X40730216Y-47695129D01*
X41066782Y-47695129D01*
X41030635Y-47520739D01*
G37*
G36*
X38128541Y-46989267D02*
G01*
X37785624Y-46989267D01*
X37856943Y-47333161D01*
X38199860Y-47333161D01*
X38128541Y-46989267D01*
G37*
G36*
X38415771Y-47520739D02*
G01*
X37896022Y-47520739D01*
X38113398Y-48565610D01*
X37960502Y-48565610D01*
X37996650Y-48740000D01*
X38669295Y-48740000D01*
X38633147Y-48565610D01*
X38456315Y-48565610D01*
X38275087Y-47695129D01*
X38451919Y-47695129D01*
X38415771Y-47520739D01*
G37*
G36*
X37353314Y-47520739D02*
G01*
X37010886Y-47520739D01*
X37049965Y-47708318D01*
X36872644Y-47708318D01*
X37087090Y-48740000D01*
X37429518Y-48740000D01*
X37212142Y-47695129D01*
X37389462Y-47695129D01*
X37353314Y-47520739D01*
G37*
G36*
X36833565Y-47520739D02*
G01*
X36313817Y-47520739D01*
X36352896Y-47708318D01*
X36193649Y-47708318D01*
X36408094Y-48740000D01*
X36750523Y-48740000D01*
X36533147Y-47695129D01*
X36869713Y-47695129D01*
X36833565Y-47520739D01*
G37*
G36*
X34481018Y-47163656D02*
G01*
X34303698Y-47163656D01*
X34595324Y-48565610D01*
X34772644Y-48565610D01*
X34808792Y-48740000D01*
X34136147Y-48740000D01*
X34100000Y-48565610D01*
X34252896Y-48565610D01*
X34143475Y-48039023D01*
X33623726Y-48039023D01*
X33587090Y-47864633D01*
X33427843Y-47864633D01*
X33285205Y-47176845D01*
X33444452Y-47176845D01*
X33441704Y-47163656D01*
X33624703Y-47163656D01*
X33770272Y-47864633D01*
X34106838Y-47864633D01*
X33961270Y-47163656D01*
X33624703Y-47163656D01*
X33441704Y-47163656D01*
X33405373Y-46989267D01*
X34444870Y-46989267D01*
X34481018Y-47163656D01*
G37*
G36*
X33011653Y-47708318D02*
G01*
X33195324Y-47708318D01*
X33373621Y-48565610D01*
X33189951Y-48565610D01*
X33226099Y-48740000D01*
X32370272Y-48740000D01*
X32334124Y-48565610D01*
X32174877Y-48565610D01*
X31996580Y-47708318D01*
X32155826Y-47708318D01*
X32153078Y-47695129D01*
X32336078Y-47695129D01*
X32517306Y-48565610D01*
X33031193Y-48565610D01*
X32849965Y-47695129D01*
X32336078Y-47695129D01*
X32153078Y-47695129D01*
X32116748Y-47520739D01*
X32972575Y-47520739D01*
X33011653Y-47708318D01*
G37*
G36*
X31757222Y-47520739D02*
G01*
X31414794Y-47520739D01*
X31450942Y-47695129D01*
X31273621Y-47695129D01*
X31237473Y-47520739D01*
X30558478Y-47520739D01*
X30630774Y-47869030D01*
X30973203Y-47869030D01*
X30937055Y-47695129D01*
X31120725Y-47695129D01*
X31156873Y-47869030D01*
X31309769Y-47869030D01*
X31454849Y-48565610D01*
X31301953Y-48565610D01*
X31338101Y-48740000D01*
X32010746Y-48740000D01*
X31974598Y-48565610D01*
X31797278Y-48565610D01*
X31616050Y-47695129D01*
X31793370Y-47695129D01*
X31757222Y-47520739D01*
G37*
G36*
X29752477Y-46989267D02*
G01*
X29568806Y-46989267D01*
X29679204Y-47520739D01*
X29318702Y-47520739D01*
X29354849Y-47695129D01*
X29715352Y-47695129D01*
X29896580Y-48565610D01*
X29737334Y-48565610D01*
X29773482Y-48740000D01*
X30116399Y-48740000D01*
X30080251Y-48565610D01*
X30239009Y-48565610D01*
X30057780Y-47695129D01*
X30394347Y-47695129D01*
X30358199Y-47520739D01*
X30021632Y-47520739D01*
X29946406Y-47158771D01*
X29787648Y-47158771D01*
X29752477Y-46989267D01*
G37*
G36*
X29684089Y-48396106D02*
G01*
X29500907Y-48396106D01*
X29536078Y-48565610D01*
X29719260Y-48565610D01*
X29684089Y-48396106D01*
G37*
G36*
X28959176Y-47520739D02*
G01*
X28616748Y-47520739D01*
X28834124Y-48565610D01*
X28503907Y-48565610D01*
X28540055Y-48740000D01*
X29059804Y-48740000D01*
X29020725Y-48552421D01*
X29173621Y-48552421D01*
X28959176Y-47520739D01*
G37*
G36*
X28286531Y-47520739D02*
G01*
X27943614Y-47520739D01*
X28160990Y-48565610D01*
X27977808Y-48565610D01*
X28013956Y-48740000D01*
X28356385Y-48740000D01*
X28317306Y-48552421D01*
X28500976Y-48552421D01*
X28286531Y-47520739D01*
G37*
G36*
X27407257Y-47520739D02*
G01*
X26887508Y-47520739D01*
X26923656Y-47695129D01*
X27253872Y-47695129D01*
X27435101Y-48565610D01*
X27104884Y-48565610D01*
X26926587Y-47708318D01*
X26742916Y-47708318D01*
X26703838Y-47520739D01*
X26361409Y-47520739D01*
X26397557Y-47695129D01*
X26580739Y-47695129D01*
X26872365Y-49097083D01*
X27062386Y-49097083D01*
X27098534Y-49271472D01*
X27771179Y-49271472D01*
X27735031Y-49097083D01*
X27887927Y-49097083D01*
X27852756Y-48927578D01*
X27510327Y-48927578D01*
X27545498Y-49097083D01*
X27215282Y-49097083D01*
X27141032Y-48740000D01*
X27660781Y-48740000D01*
X27624633Y-48565610D01*
X27777529Y-48565610D01*
X27599232Y-47708318D01*
X27446336Y-47708318D01*
X27407257Y-47520739D01*
G37*
G36*
X26008234Y-47520739D02*
G01*
X25335589Y-47520739D01*
X25371737Y-47695129D01*
X25181716Y-47695129D01*
X25362944Y-48565610D01*
X25179762Y-48565610D01*
X25215910Y-48740000D01*
X25558339Y-48740000D01*
X25522191Y-48565610D01*
X25705861Y-48565610D01*
X25596441Y-48039023D01*
X25926657Y-48039023D01*
X26036078Y-48565610D01*
X25705861Y-48565610D01*
X25742009Y-48740000D01*
X26261758Y-48740000D01*
X26225610Y-48565610D01*
X26378506Y-48565610D01*
X26271528Y-48052212D01*
X26118632Y-48052212D01*
X26079553Y-47864633D01*
X25559804Y-47864633D01*
X25524633Y-47695129D01*
X26044382Y-47695129D01*
X26008234Y-47520739D01*
G37*
G36*
X24315143Y-46989267D02*
G01*
X23795394Y-46989267D01*
X24123168Y-48565610D01*
X23970272Y-48565610D01*
X24006420Y-48740000D01*
X24679064Y-48740000D01*
X24642916Y-48565610D01*
X24466085Y-48565610D01*
X24174459Y-47163656D01*
X24351290Y-47163656D01*
X24315143Y-46989267D01*
G37*
G36*
X46540753Y-50349267D02*
G01*
X46357083Y-50349267D01*
X46467480Y-50880739D01*
X46106978Y-50880739D01*
X46143126Y-51055129D01*
X46503628Y-51055129D01*
X46684856Y-51925610D01*
X46525610Y-51925610D01*
X46561758Y-52100000D01*
X46904675Y-52100000D01*
X46868527Y-51925610D01*
X47027285Y-51925610D01*
X46846057Y-51055129D01*
X47182623Y-51055129D01*
X47146475Y-50880739D01*
X46809909Y-50880739D01*
X46734682Y-50518771D01*
X46575924Y-50518771D01*
X46540753Y-50349267D01*
G37*
G36*
X46472365Y-51756106D02*
G01*
X46289183Y-51756106D01*
X46324354Y-51925610D01*
X46507536Y-51925610D01*
X46472365Y-51756106D01*
G37*
G36*
X45621912Y-50349267D02*
G01*
X45110956Y-50349267D01*
X45256524Y-51050244D01*
X45085554Y-51050244D01*
X45121702Y-51224633D01*
X45292672Y-51224633D01*
X45474877Y-52100000D01*
X45985833Y-52100000D01*
X45949685Y-51925610D01*
X45781158Y-51925610D01*
X45489532Y-50523656D01*
X45658060Y-50523656D01*
X45621912Y-50349267D01*
G37*
G36*
X45050383Y-50880739D02*
G01*
X44707955Y-50880739D01*
X44743126Y-51050244D01*
X44583879Y-51050244D01*
X44802233Y-52100000D01*
X45144661Y-52100000D01*
X44927285Y-51055129D01*
X45086531Y-51055129D01*
X45050383Y-50880739D01*
G37*
G36*
X44348429Y-50880739D02*
G01*
X44006001Y-50880739D01*
X44042149Y-51055129D01*
X43864829Y-51055129D01*
X43828681Y-50880739D01*
X43149685Y-50880739D01*
X43221981Y-51229030D01*
X43564410Y-51229030D01*
X43528262Y-51055129D01*
X43711933Y-51055129D01*
X43748080Y-51229030D01*
X43900976Y-51229030D01*
X44046057Y-51925610D01*
X43893161Y-51925610D01*
X43929309Y-52100000D01*
X44601953Y-52100000D01*
X44565806Y-51925610D01*
X44388485Y-51925610D01*
X44207257Y-51055129D01*
X44384577Y-51055129D01*
X44348429Y-50880739D01*
G37*
G36*
X42804815Y-51068318D02*
G01*
X42988485Y-51068318D01*
X43166782Y-51925610D01*
X42983112Y-51925610D01*
X43019260Y-52100000D01*
X42163433Y-52100000D01*
X42127285Y-51925610D01*
X41968039Y-51925610D01*
X41789741Y-51068318D01*
X41948988Y-51068318D01*
X41946240Y-51055129D01*
X42129239Y-51055129D01*
X42310467Y-51925610D01*
X42824354Y-51925610D01*
X42643126Y-51055129D01*
X42129239Y-51055129D01*
X41946240Y-51055129D01*
X41909909Y-50880739D01*
X42765736Y-50880739D01*
X42804815Y-51068318D01*
G37*
G36*
X41550383Y-50880739D02*
G01*
X41207955Y-50880739D01*
X41425331Y-51925610D01*
X41095115Y-51925610D01*
X41131263Y-52100000D01*
X41651011Y-52100000D01*
X41611933Y-51912421D01*
X41764829Y-51912421D01*
X41550383Y-50880739D01*
G37*
G36*
X40877739Y-50880739D02*
G01*
X40534822Y-50880739D01*
X40752198Y-51925610D01*
X40569016Y-51925610D01*
X40605163Y-52100000D01*
X40947592Y-52100000D01*
X40908513Y-51912421D01*
X41092184Y-51912421D01*
X40877739Y-50880739D01*
G37*
G36*
X39998464Y-50880739D02*
G01*
X39478715Y-50880739D01*
X39514863Y-51055129D01*
X39845080Y-51055129D01*
X40026308Y-51925610D01*
X39696092Y-51925610D01*
X39517794Y-51068318D01*
X39334124Y-51068318D01*
X39295045Y-50880739D01*
X38952616Y-50880739D01*
X38988764Y-51055129D01*
X39171946Y-51055129D01*
X39463572Y-52457083D01*
X39653593Y-52457083D01*
X39689741Y-52631472D01*
X40362386Y-52631472D01*
X40326238Y-52457083D01*
X40479134Y-52457083D01*
X40443963Y-52287578D01*
X40101535Y-52287578D01*
X40136706Y-52457083D01*
X39806489Y-52457083D01*
X39732240Y-52100000D01*
X40251988Y-52100000D01*
X40215840Y-51925610D01*
X40368736Y-51925610D01*
X40190439Y-51068318D01*
X40037543Y-51068318D01*
X39998464Y-50880739D01*
G37*
G36*
X38626796Y-50349267D02*
G01*
X38115840Y-50349267D01*
X38261409Y-51050244D01*
X38090439Y-51050244D01*
X38126587Y-51224633D01*
X38297557Y-51224633D01*
X38479762Y-52100000D01*
X38990718Y-52100000D01*
X38954570Y-51925610D01*
X38786043Y-51925610D01*
X38494417Y-50523656D01*
X38662944Y-50523656D01*
X38626796Y-50349267D01*
G37*
G36*
X38055268Y-50880739D02*
G01*
X37712840Y-50880739D01*
X37748011Y-51050244D01*
X37588764Y-51050244D01*
X37807117Y-52100000D01*
X38149546Y-52100000D01*
X37932170Y-51055129D01*
X38091416Y-51055129D01*
X38055268Y-50880739D01*
G37*
G36*
X35954291Y-50880739D02*
G01*
X35611863Y-50880739D01*
X35650942Y-51068318D01*
X35473621Y-51068318D01*
X35651919Y-51925610D01*
X35315352Y-51925610D01*
X35134124Y-51055129D01*
X35470690Y-51055129D01*
X35434542Y-50880739D01*
X34914794Y-50880739D01*
X34953872Y-51068318D01*
X34794626Y-51068318D01*
X34972923Y-51925610D01*
X35132170Y-51925610D01*
X35168318Y-52100000D01*
X35688066Y-52100000D01*
X35762316Y-52457083D01*
X35609420Y-52457083D01*
X35645568Y-52631472D01*
X36318213Y-52631472D01*
X36282065Y-52457083D01*
X36104745Y-52457083D01*
X35813119Y-51055129D01*
X35990439Y-51055129D01*
X35954291Y-50880739D01*
G37*
G36*
X34555268Y-50880739D02*
G01*
X34212840Y-50880739D01*
X34248988Y-51055129D01*
X34071667Y-51055129D01*
X34035519Y-50880739D01*
X33356524Y-50880739D01*
X33428820Y-51229030D01*
X33771249Y-51229030D01*
X33735101Y-51055129D01*
X33918771Y-51055129D01*
X33954919Y-51229030D01*
X34107815Y-51229030D01*
X34252896Y-51925610D01*
X34100000Y-51925610D01*
X34136147Y-52100000D01*
X34808792Y-52100000D01*
X34772644Y-51925610D01*
X34595324Y-51925610D01*
X34414096Y-51055129D01*
X34591416Y-51055129D01*
X34555268Y-50880739D01*
G37*
G36*
X33007745Y-51050244D02*
G01*
X33191416Y-51050244D01*
X33373621Y-51925610D01*
X33189951Y-51925610D01*
X33226099Y-52100000D01*
X32370272Y-52100000D01*
X32334124Y-51925610D01*
X32174877Y-51925610D01*
X32139706Y-51756106D01*
X32482135Y-51756106D01*
X32517306Y-51925610D01*
X33031193Y-51925610D01*
X32956943Y-51568527D01*
X32100628Y-51568527D01*
X31993690Y-51055129D01*
X32336078Y-51055129D01*
X32406908Y-51394138D01*
X32920795Y-51394138D01*
X32849965Y-51055129D01*
X32336078Y-51055129D01*
X31993690Y-51055129D01*
X31992672Y-51050244D01*
X32151919Y-51050244D01*
X32116748Y-50880739D01*
X32972575Y-50880739D01*
X33007745Y-51050244D01*
G37*
G36*
X31579902Y-50880739D02*
G01*
X30741660Y-50880739D01*
X30776831Y-51050244D01*
X30593649Y-51050244D01*
X30629797Y-51224633D01*
X30972226Y-51224633D01*
X30937055Y-51055129D01*
X31450942Y-51055129D01*
X31486113Y-51224633D01*
X31308792Y-51224633D01*
X31344452Y-51394138D01*
X31007885Y-51394138D01*
X31044033Y-51568527D01*
X30884787Y-51568527D01*
X30923866Y-51756106D01*
X30740683Y-51756106D01*
X30775854Y-51925610D01*
X30959036Y-51925610D01*
X30995184Y-52100000D01*
X31833426Y-52100000D01*
X31797278Y-51925610D01*
X31974598Y-51925610D01*
X31939427Y-51756106D01*
X31596999Y-51756106D01*
X31632170Y-51925610D01*
X31118283Y-51925610D01*
X31083112Y-51756106D01*
X31266782Y-51756106D01*
X31227704Y-51568527D01*
X31557920Y-51568527D01*
X31521772Y-51394138D01*
X31686880Y-51394138D01*
X31651221Y-51224633D01*
X31828541Y-51224633D01*
X31792393Y-51050244D01*
X31615073Y-51050244D01*
X31579902Y-50880739D01*
G37*
G36*
X30209699Y-51050244D02*
G01*
X30393370Y-51050244D01*
X30575575Y-51925610D01*
X30391905Y-51925610D01*
X30428053Y-52100000D01*
X29572226Y-52100000D01*
X29536078Y-51925610D01*
X29376831Y-51925610D01*
X29341660Y-51756106D01*
X29684089Y-51756106D01*
X29719260Y-51925610D01*
X30233147Y-51925610D01*
X30158897Y-51568527D01*
X29302581Y-51568527D01*
X29195644Y-51055129D01*
X29538032Y-51055129D01*
X29608862Y-51394138D01*
X30122749Y-51394138D01*
X30051919Y-51055129D01*
X29538032Y-51055129D01*
X29195644Y-51055129D01*
X29194626Y-51050244D01*
X29353872Y-51050244D01*
X29318702Y-50880739D01*
X30174528Y-50880739D01*
X30209699Y-51050244D01*
G37*
G36*
X28959176Y-50880739D02*
G01*
X28616748Y-50880739D01*
X28652896Y-51055129D01*
X28475575Y-51055129D01*
X28439427Y-50880739D01*
X27760432Y-50880739D01*
X27832728Y-51229030D01*
X28175157Y-51229030D01*
X28139009Y-51055129D01*
X28322679Y-51055129D01*
X28358827Y-51229030D01*
X28511723Y-51229030D01*
X28656803Y-51925610D01*
X28503907Y-51925610D01*
X28540055Y-52100000D01*
X29212700Y-52100000D01*
X29176552Y-51925610D01*
X28999232Y-51925610D01*
X28818004Y-51055129D01*
X28995324Y-51055129D01*
X28959176Y-50880739D01*
G37*
G36*
X27560153Y-50880739D02*
G01*
X27217725Y-50880739D01*
X27360851Y-51568527D01*
X27183531Y-51568527D01*
X27222609Y-51756106D01*
X27038939Y-51756106D01*
X26999860Y-51568527D01*
X26840614Y-51568527D01*
X26697487Y-50880739D01*
X26348709Y-50880739D01*
X26491835Y-51568527D01*
X26687718Y-51568527D01*
X26726796Y-51756106D01*
X26879692Y-51756106D01*
X26911933Y-51912421D01*
X27071179Y-51912421D01*
X27110258Y-52100000D01*
X27293928Y-52100000D01*
X27254849Y-51912421D01*
X27432170Y-51912421D01*
X27399930Y-51756106D01*
X27565038Y-51756106D01*
X27525959Y-51568527D01*
X27703279Y-51568527D01*
X27560153Y-50880739D01*
G37*
G36*
X26008234Y-50880739D02*
G01*
X25335589Y-50880739D01*
X25371737Y-51055129D01*
X25181716Y-51055129D01*
X25362944Y-51925610D01*
X25179762Y-51925610D01*
X25215910Y-52100000D01*
X25558339Y-52100000D01*
X25522191Y-51925610D01*
X25705861Y-51925610D01*
X25596441Y-51399023D01*
X25926657Y-51399023D01*
X26036078Y-51925610D01*
X25705861Y-51925610D01*
X25742009Y-52100000D01*
X26261758Y-52100000D01*
X26225610Y-51925610D01*
X26378506Y-51925610D01*
X26271528Y-51412212D01*
X26118632Y-51412212D01*
X26079553Y-51224633D01*
X25559804Y-51224633D01*
X25524633Y-51055129D01*
X26044382Y-51055129D01*
X26008234Y-50880739D01*
G37*
G36*
X24156385Y-50349267D02*
G01*
X23972714Y-50349267D01*
X24083112Y-50880739D01*
X23722609Y-50880739D01*
X23758757Y-51055129D01*
X24119260Y-51055129D01*
X24300488Y-51925610D01*
X24141242Y-51925610D01*
X24177390Y-52100000D01*
X24520307Y-52100000D01*
X24484159Y-51925610D01*
X24642916Y-51925610D01*
X24461688Y-51055129D01*
X24798255Y-51055129D01*
X24762107Y-50880739D01*
X24425540Y-50880739D01*
X24350314Y-50518771D01*
X24191556Y-50518771D01*
X24156385Y-50349267D01*
G37*
G36*
X24087997Y-51756106D02*
G01*
X23904815Y-51756106D01*
X23939986Y-51925610D01*
X24123168Y-51925610D01*
X24087997Y-51756106D01*
G37*
G36*
X22739288Y-50349267D02*
G01*
X22396371Y-50349267D01*
X22467690Y-50693161D01*
X22810607Y-50693161D01*
X22739288Y-50349267D01*
G37*
G36*
X23026517Y-50880739D02*
G01*
X22506769Y-50880739D01*
X22724145Y-51925610D01*
X22571249Y-51925610D01*
X22607397Y-52100000D01*
X23280041Y-52100000D01*
X23243893Y-51925610D01*
X23067062Y-51925610D01*
X22885833Y-51055129D01*
X23062665Y-51055129D01*
X23026517Y-50880739D01*
G37*
G36*
X21819469Y-51068318D02*
G01*
X22003140Y-51068318D01*
X22181437Y-51925610D01*
X21997766Y-51925610D01*
X22033914Y-52100000D01*
X21178087Y-52100000D01*
X21141939Y-51925610D01*
X20982693Y-51925610D01*
X20804396Y-51068318D01*
X20963642Y-51068318D01*
X20960894Y-51055129D01*
X21143893Y-51055129D01*
X21325122Y-51925610D01*
X21839009Y-51925610D01*
X21657780Y-51055129D01*
X21143893Y-51055129D01*
X20960894Y-51055129D01*
X20924563Y-50880739D01*
X21780390Y-50880739D01*
X21819469Y-51068318D01*
G37*
G36*
X20565038Y-50880739D02*
G01*
X20222609Y-50880739D01*
X20261688Y-51068318D01*
X20084368Y-51068318D01*
X20298813Y-52100000D01*
X20641242Y-52100000D01*
X20423866Y-51055129D01*
X20601186Y-51055129D01*
X20565038Y-50880739D01*
G37*
G36*
X20045289Y-50880739D02*
G01*
X19525540Y-50880739D01*
X19564619Y-51068318D01*
X19405373Y-51068318D01*
X19619818Y-52100000D01*
X19962247Y-52100000D01*
X19744870Y-51055129D01*
X20081437Y-51055129D01*
X20045289Y-50880739D01*
G37*
G36*
X46993579Y-54240739D02*
G01*
X46320935Y-54240739D01*
X46357083Y-54415129D01*
X46167062Y-54415129D01*
X46348290Y-55285610D01*
X46165108Y-55285610D01*
X46201256Y-55460000D01*
X46543684Y-55460000D01*
X46507536Y-55285610D01*
X46691207Y-55285610D01*
X46581786Y-54759023D01*
X46912002Y-54759023D01*
X47021423Y-55285610D01*
X46691207Y-55285610D01*
X46727355Y-55460000D01*
X47247103Y-55460000D01*
X47210956Y-55285610D01*
X47363852Y-55285610D01*
X47256873Y-54772212D01*
X47103977Y-54772212D01*
X47064898Y-54584633D01*
X46545150Y-54584633D01*
X46509979Y-54415129D01*
X47029727Y-54415129D01*
X46993579Y-54240739D01*
G37*
G36*
X45747452Y-54240739D02*
G01*
X45405024Y-54240739D01*
X45444103Y-54428318D01*
X45266782Y-54428318D01*
X45481228Y-55460000D01*
X45823656Y-55460000D01*
X45606280Y-54415129D01*
X45783600Y-54415129D01*
X45747452Y-54240739D01*
G37*
G36*
X45227704Y-54240739D02*
G01*
X44707955Y-54240739D01*
X44747034Y-54428318D01*
X44587787Y-54428318D01*
X44802233Y-55460000D01*
X45144661Y-55460000D01*
X44927285Y-54415129D01*
X45263852Y-54415129D01*
X45227704Y-54240739D01*
G37*
G36*
X43730006Y-53709267D02*
G01*
X43222470Y-53709267D01*
X43550244Y-55285610D01*
X43367062Y-55285610D01*
X43403210Y-55460000D01*
X43745638Y-55460000D01*
X43709490Y-55285610D01*
X43893161Y-55285610D01*
X43711933Y-54415129D01*
X44042149Y-54415129D01*
X44223377Y-55285610D01*
X43893161Y-55285610D01*
X43929309Y-55460000D01*
X44449057Y-55460000D01*
X44412909Y-55285610D01*
X44565806Y-55285610D01*
X44387508Y-54428318D01*
X44234612Y-54428318D01*
X44195533Y-54240739D01*
X43675785Y-54240739D01*
X43601535Y-53883656D01*
X43766154Y-53883656D01*
X43730006Y-53709267D01*
G37*
G36*
X41405792Y-54428318D02*
G01*
X41589462Y-54428318D01*
X41767759Y-55285610D01*
X41584089Y-55285610D01*
X41620237Y-55460000D01*
X40764410Y-55460000D01*
X40728262Y-55285610D01*
X40569016Y-55285610D01*
X40390718Y-54428318D01*
X40549965Y-54428318D01*
X40547217Y-54415129D01*
X40730216Y-54415129D01*
X40911444Y-55285610D01*
X41425331Y-55285610D01*
X41244103Y-54415129D01*
X40730216Y-54415129D01*
X40547217Y-54415129D01*
X40510886Y-54240739D01*
X41366713Y-54240739D01*
X41405792Y-54428318D01*
G37*
G36*
X40151360Y-54240739D02*
G01*
X39808932Y-54240739D01*
X40026308Y-55285610D01*
X39696092Y-55285610D01*
X39732240Y-55460000D01*
X40251988Y-55460000D01*
X40212909Y-55272421D01*
X40365806Y-55272421D01*
X40151360Y-54240739D01*
G37*
G36*
X39478715Y-54240739D02*
G01*
X39135799Y-54240739D01*
X39353175Y-55285610D01*
X39169993Y-55285610D01*
X39206140Y-55460000D01*
X39548569Y-55460000D01*
X39509490Y-55272421D01*
X39693161Y-55272421D01*
X39478715Y-54240739D01*
G37*
G36*
X38146615Y-53709267D02*
G01*
X37962944Y-53709267D01*
X38073342Y-54240739D01*
X37712840Y-54240739D01*
X37748988Y-54415129D01*
X38109490Y-54415129D01*
X38290718Y-55285610D01*
X38131472Y-55285610D01*
X38167620Y-55460000D01*
X38510537Y-55460000D01*
X38474389Y-55285610D01*
X38633147Y-55285610D01*
X38451919Y-54415129D01*
X38788485Y-54415129D01*
X38752337Y-54240739D01*
X38415771Y-54240739D01*
X38340544Y-53878771D01*
X38181786Y-53878771D01*
X38146615Y-53709267D01*
G37*
G36*
X38078227Y-55116106D02*
G01*
X37895045Y-55116106D01*
X37930216Y-55285610D01*
X38113398Y-55285610D01*
X38078227Y-55116106D01*
G37*
G36*
X37353314Y-54240739D02*
G01*
X37010886Y-54240739D01*
X37047034Y-54415129D01*
X36869713Y-54415129D01*
X36833565Y-54240739D01*
X36154570Y-54240739D01*
X36226866Y-54589030D01*
X36569295Y-54589030D01*
X36533147Y-54415129D01*
X36716817Y-54415129D01*
X36752965Y-54589030D01*
X36905861Y-54589030D01*
X37050942Y-55285610D01*
X36898046Y-55285610D01*
X36934193Y-55460000D01*
X37606838Y-55460000D01*
X37570690Y-55285610D01*
X37393370Y-55285610D01*
X37212142Y-54415129D01*
X37389462Y-54415129D01*
X37353314Y-54240739D01*
G37*
G36*
X35805792Y-54410244D02*
G01*
X35989462Y-54410244D01*
X36171667Y-55285610D01*
X35987997Y-55285610D01*
X36024145Y-55460000D01*
X35168318Y-55460000D01*
X35132170Y-55285610D01*
X34972923Y-55285610D01*
X34937752Y-55116106D01*
X35280181Y-55116106D01*
X35315352Y-55285610D01*
X35829239Y-55285610D01*
X35754989Y-54928527D01*
X34898674Y-54928527D01*
X34791736Y-54415129D01*
X35134124Y-54415129D01*
X35204954Y-54754138D01*
X35718841Y-54754138D01*
X35648011Y-54415129D01*
X35134124Y-54415129D01*
X34791736Y-54415129D01*
X34790718Y-54410244D01*
X34949965Y-54410244D01*
X34914794Y-54240739D01*
X35770621Y-54240739D01*
X35805792Y-54410244D01*
G37*
G36*
X34402372Y-54240739D02*
G01*
X33729727Y-54240739D01*
X33765875Y-54415129D01*
X33575854Y-54415129D01*
X33757083Y-55285610D01*
X33573900Y-55285610D01*
X33610048Y-55460000D01*
X33952477Y-55460000D01*
X33916329Y-55285610D01*
X34100000Y-55285610D01*
X33990579Y-54759023D01*
X34320795Y-54759023D01*
X34430216Y-55285610D01*
X34100000Y-55285610D01*
X34136147Y-55460000D01*
X34655896Y-55460000D01*
X34619748Y-55285610D01*
X34772644Y-55285610D01*
X34665666Y-54772212D01*
X34512770Y-54772212D01*
X34473691Y-54584633D01*
X33953942Y-54584633D01*
X33918771Y-54415129D01*
X34438520Y-54415129D01*
X34402372Y-54240739D01*
G37*
G36*
X32972575Y-54240739D02*
G01*
X32116748Y-54240739D01*
X32151919Y-54410244D01*
X31992672Y-54410244D01*
X32028820Y-54584633D01*
X32371249Y-54584633D01*
X32336078Y-54415129D01*
X32849965Y-54415129D01*
X33031193Y-55285610D01*
X32517306Y-55285610D01*
X32482135Y-55116106D01*
X32139706Y-55116106D01*
X32174877Y-55285610D01*
X32334124Y-55285610D01*
X32370272Y-55460000D01*
X33226099Y-55460000D01*
X33189951Y-55285610D01*
X33373621Y-55285610D01*
X33191416Y-54410244D01*
X33007745Y-54410244D01*
X32972575Y-54240739D01*
G37*
G36*
X31631681Y-53709267D02*
G01*
X31120725Y-53709267D01*
X31266294Y-54410244D01*
X31095324Y-54410244D01*
X31131472Y-54584633D01*
X31302442Y-54584633D01*
X31484647Y-55460000D01*
X31995603Y-55460000D01*
X31959455Y-55285610D01*
X31790928Y-55285610D01*
X31499302Y-53883656D01*
X31667829Y-53883656D01*
X31631681Y-53709267D01*
G37*
G36*
X31060153Y-54240739D02*
G01*
X30717725Y-54240739D01*
X30752896Y-54410244D01*
X30593649Y-54410244D01*
X30812002Y-55460000D01*
X31154431Y-55460000D01*
X30937055Y-54415129D01*
X31096301Y-54415129D01*
X31060153Y-54240739D01*
G37*
G36*
X30203838Y-55116106D02*
G01*
X29861409Y-55116106D01*
X29932728Y-55460000D01*
X30275157Y-55460000D01*
X30203838Y-55116106D01*
G37*
D12*
G36*
X47100000Y-30756008D02*
G01*
X46318422Y-30756008D01*
X46318422Y-32881898D01*
X46037055Y-32881898D01*
X46037055Y-32506741D01*
X45599371Y-32506741D01*
X45599371Y-32881898D01*
X45349267Y-32881898D01*
X45349267Y-30756008D01*
X44598953Y-30756008D01*
X44598953Y-34320000D01*
X45036636Y-34320000D01*
X45036636Y-33944842D01*
X45349267Y-33944842D01*
X45349267Y-33632212D01*
X45661898Y-33632212D01*
X45661898Y-33257055D01*
X45974528Y-33257055D01*
X45974528Y-33632212D01*
X46318422Y-33632212D01*
X46318422Y-33944842D01*
X46662316Y-33944842D01*
X46662316Y-34320000D01*
X47100000Y-34320000D01*
X47100000Y-30756008D01*
G37*
G36*
X44270690Y-30756008D02*
G01*
X43163782Y-30756008D01*
X43163782Y-32157962D01*
X42814026Y-32157962D01*
X42814026Y-32569267D01*
X43163782Y-32569267D01*
X43163782Y-34320000D01*
X44270690Y-34320000D01*
X44270690Y-33908695D01*
X43926796Y-33908695D01*
X43926796Y-31167313D01*
X44270690Y-31167313D01*
X44270690Y-30756008D01*
G37*
G36*
X42876552Y-31818953D02*
G01*
X42113538Y-31818953D01*
X42113538Y-32157962D01*
X41788206Y-32157962D01*
X41788206Y-34320000D01*
X42551221Y-34320000D01*
X42551221Y-32230258D01*
X42876552Y-32230258D01*
X42876552Y-31818953D01*
G37*
G36*
X41191277Y-31818953D02*
G01*
X39753175Y-31818953D01*
X39753175Y-32167732D01*
X39365317Y-32167732D01*
X39365317Y-33908695D01*
X38990160Y-33908695D01*
X38990160Y-34320000D01*
X39753175Y-34320000D01*
X39753175Y-33971221D01*
X40128332Y-33971221D01*
X40128332Y-32918046D01*
X40740893Y-32918046D01*
X40740893Y-33908695D01*
X40065806Y-33908695D01*
X40065806Y-34320000D01*
X41191277Y-34320000D01*
X41191277Y-33971221D01*
X41503907Y-33971221D01*
X41503907Y-32881898D01*
X41191277Y-32881898D01*
X41191277Y-32506741D01*
X40128332Y-32506741D01*
X40128332Y-32230258D01*
X41191277Y-32230258D01*
X41191277Y-31818953D01*
G37*
G36*
X37692742Y-30756008D02*
G01*
X37255059Y-30756008D01*
X37255059Y-31818953D01*
X36517445Y-31818953D01*
X36517445Y-32230258D01*
X37255059Y-32230258D01*
X37255059Y-33908695D01*
X36929727Y-33908695D01*
X36929727Y-34320000D01*
X37692742Y-34320000D01*
X37692742Y-33971221D01*
X38018073Y-33971221D01*
X38018073Y-32230258D01*
X38705861Y-32230258D01*
X38705861Y-31818953D01*
X38018073Y-31818953D01*
X38018073Y-31095017D01*
X37692742Y-31095017D01*
X37692742Y-30756008D01*
G37*
G36*
X36955129Y-33569685D02*
G01*
X36517445Y-33569685D01*
X36517445Y-33971221D01*
X36955129Y-33971221D01*
X36955129Y-33569685D01*
G37*
G36*
X32059525Y-30756008D02*
G01*
X31296510Y-30756008D01*
X31296510Y-31506322D01*
X32059525Y-31506322D01*
X32059525Y-30756008D01*
G37*
G36*
X32421981Y-31818953D02*
G01*
X31296510Y-31818953D01*
X31296510Y-33908695D01*
X30983879Y-33908695D01*
X30983879Y-34320000D01*
X32421981Y-34320000D01*
X32421981Y-33908695D01*
X32059525Y-33908695D01*
X32059525Y-32230258D01*
X32421981Y-32230258D01*
X32421981Y-31818953D01*
G37*
G36*
X29949267Y-31818953D02*
G01*
X28173133Y-31818953D01*
X28173133Y-32157962D01*
X27797976Y-32157962D01*
X27797976Y-32569267D01*
X28560990Y-32569267D01*
X28560990Y-32230258D01*
X29548709Y-32230258D01*
X29548709Y-32506741D01*
X29186252Y-32506741D01*
X29186252Y-32845750D01*
X28498464Y-32845750D01*
X28498464Y-33194528D01*
X28173133Y-33194528D01*
X28173133Y-33569685D01*
X27797976Y-33569685D01*
X27797976Y-33971221D01*
X28173133Y-33971221D01*
X28173133Y-34320000D01*
X29949267Y-34320000D01*
X29949267Y-33971221D01*
X30311723Y-33971221D01*
X30311723Y-33569685D01*
X29548709Y-33569685D01*
X29548709Y-33908695D01*
X28560990Y-33908695D01*
X28560990Y-33632212D01*
X28936147Y-33632212D01*
X28936147Y-33257055D01*
X29611235Y-33257055D01*
X29611235Y-32908276D01*
X29949267Y-32908276D01*
X29949267Y-32569267D01*
X30311723Y-32569267D01*
X30311723Y-32157962D01*
X29949267Y-32157962D01*
X29949267Y-31818953D01*
G37*
G36*
X24027843Y-30756008D02*
G01*
X22589741Y-30756008D01*
X22589741Y-31167313D01*
X22902372Y-31167313D01*
X22902372Y-33908695D01*
X22589741Y-33908695D01*
X22589741Y-34320000D01*
X24027843Y-34320000D01*
X24027843Y-33908695D01*
X23665387Y-33908695D01*
X23665387Y-31167313D01*
X24027843Y-31167313D01*
X24027843Y-30756008D01*
G37*
G36*
X21917585Y-31818953D02*
G01*
X21154570Y-31818953D01*
X21154570Y-32194110D01*
X20792114Y-32194110D01*
X20792114Y-34320000D01*
X21555129Y-34320000D01*
X21555129Y-32230258D01*
X21917585Y-32230258D01*
X21917585Y-31818953D01*
G37*
G36*
X20854640Y-31818953D02*
G01*
X19729169Y-31818953D01*
X19729169Y-32194110D01*
X19403838Y-32194110D01*
X19403838Y-34320000D01*
X20166852Y-34320000D01*
X20166852Y-32230258D01*
X20854640Y-32230258D01*
X20854640Y-31818953D01*
G37*
G36*
X18744382Y-32157962D02*
G01*
X19119539Y-32157962D01*
X19119539Y-33971221D01*
X18744382Y-33971221D01*
X18744382Y-34320000D01*
X16931123Y-34320000D01*
X16931123Y-33971221D01*
X16605792Y-33971221D01*
X16605792Y-33569685D01*
X17368806Y-33569685D01*
X17368806Y-33908695D01*
X18356524Y-33908695D01*
X18356524Y-33257055D01*
X16605792Y-33257055D01*
X16605792Y-32230258D01*
X17368806Y-32230258D01*
X17368806Y-32845750D01*
X18356524Y-32845750D01*
X18356524Y-32230258D01*
X17368806Y-32230258D01*
X16605792Y-32230258D01*
X16605792Y-32157962D01*
X16931123Y-32157962D01*
X16931123Y-31818953D01*
X18744382Y-31818953D01*
X18744382Y-32157962D01*
G37*
G36*
X17368806Y-30756008D02*
G01*
X17681437Y-30756008D01*
X17681437Y-31131165D01*
X18056594Y-31131165D01*
X18056594Y-31542470D01*
X17618911Y-31542470D01*
X17618911Y-31167313D01*
X16931123Y-31167313D01*
X16931123Y-30818534D01*
X16605792Y-30818534D01*
X16605792Y-30443377D01*
X17368806Y-30443377D01*
X17368806Y-30756008D01*
G37*
G36*
X16321493Y-31818953D02*
G01*
X15558478Y-31818953D01*
X15558478Y-32167732D01*
X15258548Y-32167732D01*
X15258548Y-31818953D01*
X13807745Y-31818953D01*
X13807745Y-32578060D01*
X14570760Y-32578060D01*
X14570760Y-32230258D01*
X14883391Y-32230258D01*
X14883391Y-32578060D01*
X15196022Y-32578060D01*
X15196022Y-33908695D01*
X14883391Y-33908695D01*
X14883391Y-34320000D01*
X16321493Y-34320000D01*
X16321493Y-33908695D01*
X15959036Y-33908695D01*
X15959036Y-32230258D01*
X16321493Y-32230258D01*
X16321493Y-31818953D01*
G37*
G36*
X13148290Y-31818953D02*
G01*
X11335031Y-31818953D01*
X11335031Y-32157962D01*
X11009699Y-32157962D01*
X11009699Y-32569267D01*
X11772714Y-32569267D01*
X11772714Y-32230258D01*
X12760432Y-32230258D01*
X12760432Y-33908695D01*
X11772714Y-33908695D01*
X11772714Y-33569685D01*
X11009699Y-33569685D01*
X11009699Y-33971221D01*
X11335031Y-33971221D01*
X11335031Y-34320000D01*
X13148290Y-34320000D01*
X13148290Y-33971221D01*
X13523447Y-33971221D01*
X13523447Y-32157962D01*
X13148290Y-32157962D01*
X13148290Y-31818953D01*
G37*
G36*
X9675157Y-30756008D02*
G01*
X8912142Y-30756008D01*
X8912142Y-31506322D01*
X9675157Y-31506322D01*
X9675157Y-30756008D01*
G37*
G36*
X10037613Y-31818953D02*
G01*
X8912142Y-31818953D01*
X8912142Y-33908695D01*
X8599511Y-33908695D01*
X8599511Y-34320000D01*
X10037613Y-34320000D01*
X10037613Y-33908695D01*
X9675157Y-33908695D01*
X9675157Y-32230258D01*
X10037613Y-32230258D01*
X10037613Y-31818953D01*
G37*
G36*
X7614724Y-31818953D02*
G01*
X6176622Y-31818953D01*
X6176622Y-32167732D01*
X5788764Y-32167732D01*
X5788764Y-33908695D01*
X5413607Y-33908695D01*
X5413607Y-34320000D01*
X6176622Y-34320000D01*
X6176622Y-33971221D01*
X6551779Y-33971221D01*
X6551779Y-32918046D01*
X7164340Y-32918046D01*
X7164340Y-33908695D01*
X6489253Y-33908695D01*
X6489253Y-34320000D01*
X7614724Y-34320000D01*
X7614724Y-33971221D01*
X7927355Y-33971221D01*
X7927355Y-32881898D01*
X7614724Y-32881898D01*
X7614724Y-32506741D01*
X6551779Y-32506741D01*
X6551779Y-32230258D01*
X7614724Y-32230258D01*
X7614724Y-31818953D01*
G37*
G36*
X4754152Y-30756008D02*
G01*
X2940893Y-30756008D01*
X2940893Y-31131165D01*
X2615561Y-31131165D01*
X2615561Y-32230258D01*
X2940893Y-32230258D01*
X2940893Y-32569267D01*
X3316050Y-32569267D01*
X3316050Y-33257055D01*
X4079064Y-33257055D01*
X4079064Y-32506741D01*
X3703907Y-32506741D01*
X3703907Y-32167732D01*
X3378576Y-32167732D01*
X3378576Y-31167313D01*
X4366294Y-31167313D01*
X4366294Y-31881479D01*
X5129309Y-31881479D01*
X5129309Y-31131165D01*
X4754152Y-31131165D01*
X4754152Y-30756008D01*
G37*
G36*
X4079064Y-33569685D02*
G01*
X3316050Y-33569685D01*
X3316050Y-34320000D01*
X4079064Y-34320000D01*
X4079064Y-33569685D01*
G37*
D11*
G36*
X47020725Y-35797822D02*
G01*
X45828332Y-35797822D01*
X45864480Y-35972212D01*
X47056873Y-35972212D01*
X47020725Y-35797822D01*
G37*
G36*
X45621702Y-35797822D02*
G01*
X44429309Y-35797822D01*
X44465457Y-35972212D01*
X45657850Y-35972212D01*
X45621702Y-35797822D01*
G37*
G36*
X44222679Y-35797822D02*
G01*
X43030286Y-35797822D01*
X43066434Y-35972212D01*
X44258827Y-35972212D01*
X44222679Y-35797822D01*
G37*
G36*
X42823656Y-35797822D02*
G01*
X41631263Y-35797822D01*
X41667411Y-35972212D01*
X42859804Y-35972212D01*
X42823656Y-35797822D01*
G37*
G36*
X41424633Y-35797822D02*
G01*
X40232240Y-35797822D01*
X40268387Y-35972212D01*
X41460781Y-35972212D01*
X41424633Y-35797822D01*
G37*
G36*
X40025610Y-35797822D02*
G01*
X38833217Y-35797822D01*
X38869364Y-35972212D01*
X40061758Y-35972212D01*
X40025610Y-35797822D01*
G37*
G36*
X38626587Y-35797822D02*
G01*
X37434193Y-35797822D01*
X37470341Y-35972212D01*
X38662735Y-35972212D01*
X38626587Y-35797822D01*
G37*
G36*
X37227564Y-35797822D02*
G01*
X36035170Y-35797822D01*
X36071318Y-35972212D01*
X37263712Y-35972212D01*
X37227564Y-35797822D01*
G37*
G36*
X35828541Y-35797822D02*
G01*
X34636147Y-35797822D01*
X34672295Y-35972212D01*
X35864689Y-35972212D01*
X35828541Y-35797822D01*
G37*
G36*
X34429518Y-35797822D02*
G01*
X33237124Y-35797822D01*
X33273272Y-35972212D01*
X34465666Y-35972212D01*
X34429518Y-35797822D01*
G37*
G36*
X33030495Y-35797822D02*
G01*
X31838101Y-35797822D01*
X31874249Y-35972212D01*
X33066643Y-35972212D01*
X33030495Y-35797822D01*
G37*
G36*
X31631472Y-35797822D02*
G01*
X30439078Y-35797822D01*
X30475226Y-35972212D01*
X31667620Y-35972212D01*
X31631472Y-35797822D01*
G37*
G36*
X30232449Y-35797822D02*
G01*
X29040055Y-35797822D01*
X29076203Y-35972212D01*
X30268597Y-35972212D01*
X30232449Y-35797822D01*
G37*
G36*
X28833426Y-35797822D02*
G01*
X27641032Y-35797822D01*
X27677180Y-35972212D01*
X28869574Y-35972212D01*
X28833426Y-35797822D01*
G37*
G36*
X27434403Y-35797822D02*
G01*
X26242009Y-35797822D01*
X26278157Y-35972212D01*
X27470551Y-35972212D01*
X27434403Y-35797822D01*
G37*
G36*
X26035380Y-35797822D02*
G01*
X24842986Y-35797822D01*
X24879134Y-35972212D01*
X26071528Y-35972212D01*
X26035380Y-35797822D01*
G37*
G36*
X24636357Y-35797822D02*
G01*
X23443963Y-35797822D01*
X23480111Y-35972212D01*
X24672505Y-35972212D01*
X24636357Y-35797822D01*
G37*
G36*
X23237334Y-35797822D02*
G01*
X22044940Y-35797822D01*
X22081088Y-35972212D01*
X23273482Y-35972212D01*
X23237334Y-35797822D01*
G37*
G36*
X21838311Y-35797822D02*
G01*
X20645917Y-35797822D01*
X20682065Y-35972212D01*
X21874459Y-35972212D01*
X21838311Y-35797822D01*
G37*
G36*
X20439288Y-35797822D02*
G01*
X19246894Y-35797822D01*
X19283042Y-35972212D01*
X20475436Y-35972212D01*
X20439288Y-35797822D01*
G37*
G36*
X19040265Y-35797822D02*
G01*
X17847871Y-35797822D01*
X17884019Y-35972212D01*
X19076413Y-35972212D01*
X19040265Y-35797822D01*
G37*
G36*
X17641242Y-35797822D02*
G01*
X16448848Y-35797822D01*
X16484996Y-35972212D01*
X17677390Y-35972212D01*
X17641242Y-35797822D01*
G37*
G36*
X16242219Y-35797822D02*
G01*
X15049825Y-35797822D01*
X15085973Y-35972212D01*
X16278367Y-35972212D01*
X16242219Y-35797822D01*
G37*
D13*
%TO.C,R18*%
X76890500Y-65795142D02*
X76890500Y-66269658D01*
X75845500Y-65795142D02*
X75845500Y-66269658D01*
%TO.C,C14*%
X79861580Y-59620200D02*
X79580420Y-59620200D01*
X79861580Y-58600200D02*
X79580420Y-58600200D01*
%TO.C,R24*%
X74259700Y-66286058D02*
X74259700Y-65811542D01*
X75304700Y-66286058D02*
X75304700Y-65811542D01*
%TO.C,R20*%
X84365296Y-81181300D02*
X83890780Y-81181300D01*
X84365296Y-80136300D02*
X83890780Y-80136300D01*
%TO.C,D15*%
X87482400Y-68215000D02*
X83472400Y-68215000D01*
X87482400Y-66215000D02*
X87482400Y-68215000D01*
X87482400Y-66215000D02*
X83472400Y-66215000D01*
%TO.C,C17*%
X83614400Y-64225820D02*
X83614400Y-64506980D01*
X82594400Y-64225820D02*
X82594400Y-64506980D01*
%TO.C,R21*%
X77014500Y-33850258D02*
X77014500Y-33375742D01*
X78059500Y-33850258D02*
X78059500Y-33375742D01*
%TO.C,C6*%
X81372600Y-39463980D02*
X81372600Y-39182820D01*
X82392600Y-39463980D02*
X82392600Y-39182820D01*
%TO.C,R13*%
X69336858Y-54155300D02*
X68862342Y-54155300D01*
X69336858Y-53110300D02*
X68862342Y-53110300D01*
D11*
%TO.C,J2*%
X2833432Y-85770745D02*
X2833432Y-78520745D01*
X2833432Y-88998890D02*
X2833432Y-88520745D01*
X2833432Y-91498890D02*
X2833432Y-88998890D01*
X4233432Y-88998890D02*
X2833432Y-88998890D01*
X4333432Y-77020745D02*
X7083432Y-77020745D01*
X5633432Y-91498890D02*
X2833432Y-91498890D01*
X11068400Y-90298890D02*
X11068400Y-91498890D01*
X11068400Y-91498890D02*
X5568400Y-91498890D01*
X16318400Y-88998890D02*
X17583432Y-88998890D01*
X16568400Y-91498890D02*
X11068400Y-91498890D01*
X17583432Y-85770745D02*
X17583432Y-78520745D01*
X17583432Y-89009818D02*
X17583432Y-88531673D01*
X17583432Y-91498890D02*
X16568400Y-91498890D01*
X17583432Y-91498890D02*
X17583432Y-88998890D01*
D13*
%TO.C,C8*%
X87245600Y-48078220D02*
X87245600Y-48359380D01*
X86225600Y-48078220D02*
X86225600Y-48359380D01*
%TO.C,R14*%
X69336858Y-52525100D02*
X68862342Y-52525100D01*
X69336858Y-51480100D02*
X68862342Y-51480100D01*
%TO.C,C15*%
X70856180Y-50568000D02*
X70575020Y-50568000D01*
X70856180Y-49548000D02*
X70575020Y-49548000D01*
%TO.C,R1*%
X71931142Y-72153900D02*
X72405658Y-72153900D01*
X71931142Y-73198900D02*
X72405658Y-73198900D01*
%TO.C,C9*%
X77702580Y-51733800D02*
X77421420Y-51733800D01*
X77702580Y-50713800D02*
X77421420Y-50713800D01*
%TO.C,R33*%
X85719542Y-64591500D02*
X86194058Y-64591500D01*
X85719542Y-65636500D02*
X86194058Y-65636500D01*
%TO.C,C7*%
X83051600Y-39463980D02*
X83051600Y-39182820D01*
X84071600Y-39463980D02*
X84071600Y-39182820D01*
%TO.C,C13*%
X86813220Y-39538800D02*
X87094380Y-39538800D01*
X86813220Y-40558800D02*
X87094380Y-40558800D01*
%TO.C,R22*%
X82530900Y-33875658D02*
X82530900Y-33401142D01*
X83575900Y-33875658D02*
X83575900Y-33401142D01*
D10*
%TO.C,BT1*%
X69993000Y-10443200D02*
X69993000Y-3693200D01*
X69993000Y-21443200D02*
X69993000Y-28193200D01*
X15693000Y-28193200D02*
X71993000Y-28193200D01*
X71993000Y-28193200D02*
X71993000Y-3693200D01*
X71993000Y-3693200D02*
X15693000Y-3693200D01*
X15693000Y-3693200D02*
X15693000Y-28193200D01*
D13*
%TO.C,C5*%
X86799420Y-41212600D02*
X87080580Y-41212600D01*
X86799420Y-42232600D02*
X87080580Y-42232600D01*
%TO.C,R2*%
X72405658Y-71603300D02*
X71931142Y-71603300D01*
X72405658Y-70558300D02*
X71931142Y-70558300D01*
D14*
%TO.C,RV1*%
X15952000Y-57910200D02*
G75*
G03*
X15952000Y-57910200I-8000000J0D01*
G01*
D13*
%TO.C,R3*%
X72975900Y-79681458D02*
X72975900Y-79206942D01*
X74020900Y-79681458D02*
X74020900Y-79206942D01*
%TO.C,D2*%
X80945000Y-77682600D02*
X84955000Y-77682600D01*
X80945000Y-79682600D02*
X80945000Y-77682600D01*
X80945000Y-79682600D02*
X84955000Y-79682600D01*
%TO.C,Q2*%
X76422400Y-82847000D02*
X77072400Y-82847000D01*
X76422400Y-82847000D02*
X75772400Y-82847000D01*
X76422400Y-79727000D02*
X78097400Y-79727000D01*
X76422400Y-79727000D02*
X75772400Y-79727000D01*
%TO.C,D1*%
X78801400Y-72496400D02*
X74791400Y-72496400D01*
X78801400Y-70496400D02*
X78801400Y-72496400D01*
X78801400Y-70496400D02*
X74791400Y-70496400D01*
%TO.C,J3*%
X87665800Y-26007800D02*
X85165800Y-26007800D01*
X85165800Y-26007800D02*
X85165800Y-27057800D01*
X85165800Y-27057800D02*
X84175800Y-27057800D01*
X89635800Y-27177800D02*
X89635800Y-30057800D01*
X87665800Y-31227800D02*
X85165800Y-31227800D01*
X85165800Y-31227800D02*
X85165800Y-30177800D01*
%TO.C,RN1*%
X6900000Y-75018600D02*
X6900000Y-74518600D01*
X4540000Y-75018600D02*
X4540000Y-74518600D01*
%TO.C,R7*%
X88012542Y-82440900D02*
X88487058Y-82440900D01*
X88012542Y-83485900D02*
X88487058Y-83485900D01*
D15*
%TO.C,SW4*%
X21465200Y-89562503D02*
X21465200Y-88562503D01*
X22315200Y-87462503D02*
X24815200Y-87462503D01*
X22315200Y-90662503D02*
X24815200Y-90662503D01*
X25665200Y-89562503D02*
X25665200Y-88562503D01*
X20777003Y-90212503D02*
G75*
G03*
X20777003Y-90212503I-111803J0D01*
G01*
X20765200Y-90212503D02*
G75*
G03*
X20765200Y-90212503I-50000J0D01*
G01*
D13*
%TO.C,R19*%
X78605500Y-33850258D02*
X78605500Y-33375742D01*
X79650500Y-33850258D02*
X79650500Y-33375742D01*
%TO.C,R11*%
X85315241Y-45312600D02*
X85007959Y-45312600D01*
X85315241Y-44552600D02*
X85007959Y-44552600D01*
%TO.C,R12*%
X85315241Y-44078200D02*
X85007959Y-44078200D01*
X85315241Y-43318200D02*
X85007959Y-43318200D01*
%TO.C,RN2*%
X17875000Y-74855000D02*
X18375000Y-74855000D01*
X17875000Y-72495000D02*
X18375000Y-72495000D01*
%TO.C,C3*%
X85665600Y-48064420D02*
X85665600Y-48345580D01*
X84645600Y-48064420D02*
X84645600Y-48345580D01*
%TO.C,R10*%
X73790600Y-46008359D02*
X73790600Y-46315641D01*
X73030600Y-46008359D02*
X73030600Y-46315641D01*
%TO.C,R5*%
X80363942Y-80884500D02*
X80838458Y-80884500D01*
X80363942Y-81929500D02*
X80838458Y-81929500D01*
%TO.C,R6*%
X80926058Y-84007700D02*
X80451542Y-84007700D01*
X80926058Y-82962700D02*
X80451542Y-82962700D01*
%TO.C,R23*%
X80960700Y-33875658D02*
X80960700Y-33401142D01*
X82005700Y-33875658D02*
X82005700Y-33401142D01*
%TO.C,C18*%
X77049400Y-30546380D02*
X77049400Y-30265220D01*
X78069400Y-30546380D02*
X78069400Y-30265220D01*
%TO.C,SW7*%
X68678600Y-89140600D02*
X68678600Y-85590600D01*
X77778600Y-85590600D02*
X68678600Y-85590600D01*
X77778600Y-89140600D02*
X68678600Y-89140600D01*
X77778600Y-89140600D02*
X77778600Y-85590600D01*
D15*
%TO.C,SW5*%
X21565200Y-72656703D02*
X21565200Y-71656703D01*
X22415200Y-70556703D02*
X24915200Y-70556703D01*
X22415200Y-73756703D02*
X24915200Y-73756703D01*
X25765200Y-72656703D02*
X25765200Y-71656703D01*
X20877003Y-73306703D02*
G75*
G03*
X20877003Y-73306703I-111803J0D01*
G01*
X20865200Y-73306703D02*
G75*
G03*
X20865200Y-73306703I-50000J0D01*
G01*
%TO.C,SW2*%
X86432800Y-63087303D02*
X85432800Y-63087303D01*
X84332800Y-62237303D02*
X84332800Y-59737303D01*
X87532800Y-62237303D02*
X87532800Y-59737303D01*
X86432800Y-58887303D02*
X85432800Y-58887303D01*
X87194603Y-63887303D02*
G75*
G03*
X87194603Y-63887303I-111803J0D01*
G01*
X87132800Y-63837303D02*
G75*
G03*
X87132800Y-63837303I-50000J0D01*
G01*
%TO.C,SW6*%
X21565200Y-81109603D02*
X21565200Y-80109603D01*
X22415200Y-79009603D02*
X24915200Y-79009603D01*
X22415200Y-82209603D02*
X24915200Y-82209603D01*
X25765200Y-81109603D02*
X25765200Y-80109603D01*
X20877003Y-81759603D02*
G75*
G03*
X20877003Y-81759603I-111803J0D01*
G01*
X20865200Y-81759603D02*
G75*
G03*
X20865200Y-81759603I-50000J0D01*
G01*
D13*
%TO.C,C22*%
X71263818Y-79217600D02*
X70982658Y-79217600D01*
X71263818Y-78197600D02*
X70982658Y-78197600D01*
%TO.C,Y1*%
X72336600Y-45006000D02*
X72336600Y-49006000D01*
X69036600Y-45006000D02*
X72336600Y-45006000D01*
%TO.C,U1*%
X75723400Y-49092900D02*
X76373400Y-49092900D01*
X75723400Y-48442900D02*
X75723400Y-49092900D01*
X82943400Y-48442900D02*
X82943400Y-49092900D01*
X75723400Y-42522900D02*
X75723400Y-41872900D01*
X82943400Y-42522900D02*
X82943400Y-41872900D01*
X75723400Y-41872900D02*
X76373400Y-41872900D01*
X82943400Y-41872900D02*
X82293400Y-41872900D01*
%TO.C,C4*%
X73036200Y-41165780D02*
X73036200Y-40884620D01*
X74056200Y-41165780D02*
X74056200Y-40884620D01*
%TO.C,C16*%
X70571020Y-43440000D02*
X70852180Y-43440000D01*
X70571020Y-44460000D02*
X70852180Y-44460000D01*
%TO.C,C21*%
X81955980Y-26574800D02*
X81674820Y-26574800D01*
X81955980Y-25554800D02*
X81674820Y-25554800D01*
%TO.C,C19*%
X75426400Y-30546380D02*
X75426400Y-30265220D01*
X76446400Y-30546380D02*
X76446400Y-30265220D01*
%TO.C,C12*%
X77814000Y-39170780D02*
X77814000Y-38889620D01*
X78834000Y-39170780D02*
X78834000Y-38889620D01*
D11*
%TO.C,J5*%
X66921400Y-32744200D02*
X69121400Y-32744200D01*
X69121400Y-32744200D02*
X69121400Y-28944200D01*
X66921400Y-28944200D02*
X66921400Y-32744200D01*
X69121400Y-28944200D02*
X66921400Y-28944200D01*
D13*
%TO.C,R9*%
X74369658Y-59510500D02*
X73895142Y-59510500D01*
X74369658Y-58465500D02*
X73895142Y-58465500D01*
%TO.C,R8*%
X74369658Y-61140700D02*
X73895142Y-61140700D01*
X74369658Y-60095700D02*
X73895142Y-60095700D01*
%TO.C,C10*%
X83841420Y-50122800D02*
X84122580Y-50122800D01*
X83841420Y-51142800D02*
X84122580Y-51142800D01*
D15*
%TO.C,SW3*%
X86398400Y-56631897D02*
X85398400Y-56631897D01*
X84298400Y-55781897D02*
X84298400Y-53281897D01*
X87498400Y-55781897D02*
X87498400Y-53281897D01*
X86398400Y-52431897D02*
X85398400Y-52431897D01*
X87160203Y-57431897D02*
G75*
G03*
X87160203Y-57431897I-111803J0D01*
G01*
X87098400Y-57381897D02*
G75*
G03*
X87098400Y-57381897I-50000J0D01*
G01*
D13*
%TO.C,U3*%
X81193800Y-68790600D02*
X81193800Y-74800600D01*
X88013800Y-71040600D02*
X88013800Y-74800600D01*
X88013800Y-74800600D02*
X86753800Y-74800600D01*
X81193800Y-74800600D02*
X82453800Y-74800600D01*
%TO.C,J7*%
X11765000Y-4565000D02*
X10325000Y-4565000D01*
X10325000Y-19355000D02*
X5125000Y-19355000D01*
X10325000Y-18785000D02*
X10325000Y-19355000D01*
X10325000Y-16245000D02*
X10325000Y-17265000D01*
X10325000Y-13705000D02*
X10325000Y-14725000D01*
X10325000Y-11165000D02*
X10325000Y-12185000D01*
X10325000Y-8625000D02*
X10325000Y-9645000D01*
X10325000Y-6085000D02*
X10325000Y-7105000D01*
X10325000Y-3995000D02*
X10325000Y-4565000D01*
X10325000Y-3995000D02*
X5125000Y-3995000D01*
X5125000Y-18785000D02*
X5125000Y-19355000D01*
X5125000Y-16245000D02*
X5125000Y-17265000D01*
X5125000Y-13705000D02*
X5125000Y-14725000D01*
X5125000Y-11165000D02*
X5125000Y-12185000D01*
X5125000Y-8625000D02*
X5125000Y-9645000D01*
X5125000Y-6085000D02*
X5125000Y-7105000D01*
X5125000Y-3995000D02*
X5125000Y-4565000D01*
D15*
%TO.C,U5*%
X79096200Y-31302200D02*
X79391200Y-31302200D01*
X79096200Y-31302200D02*
X79096200Y-31007200D01*
X82096200Y-31302200D02*
X81801200Y-31302200D01*
X82096200Y-31302200D02*
X82096200Y-31007200D01*
X79096200Y-28302200D02*
X79096200Y-28597200D01*
X79096200Y-28302200D02*
X79391200Y-28302200D01*
X82096200Y-28302200D02*
X82096200Y-28597200D01*
X82096200Y-28302200D02*
X81801200Y-28302200D01*
D10*
X81446200Y-32277200D02*
G75*
G03*
X81446200Y-32277200I-100000J0D01*
G01*
D13*
%TO.C,J1*%
X89220400Y-87909400D02*
X89220400Y-89689400D01*
X87320400Y-84989400D02*
X88120400Y-84989400D01*
X79820400Y-87909400D02*
X79820400Y-89689400D01*
%TO.C,C20*%
X78038620Y-25580200D02*
X78319780Y-25580200D01*
X78038620Y-26600200D02*
X78319780Y-26600200D01*
%TO.C,D3*%
X74030400Y-67920400D02*
X78040400Y-67920400D01*
X74030400Y-69920400D02*
X74030400Y-67920400D01*
X74030400Y-69920400D02*
X78040400Y-69920400D01*
D11*
%TO.C,J4*%
X69780000Y-32744200D02*
X71980000Y-32744200D01*
X71980000Y-32744200D02*
X71980000Y-28944200D01*
X69780000Y-28944200D02*
X69780000Y-32744200D01*
X71980000Y-28944200D02*
X69780000Y-28944200D01*
D13*
%TO.C,C2*%
X87108400Y-78883020D02*
X87108400Y-79164180D01*
X86088400Y-78883020D02*
X86088400Y-79164180D01*
%TO.C,C1*%
X77524200Y-66184780D02*
X77524200Y-65903620D01*
X78544200Y-66184780D02*
X78544200Y-65903620D01*
%TO.C,C11*%
X71207400Y-41177380D02*
X71207400Y-40896220D01*
X72227400Y-41177380D02*
X72227400Y-40896220D01*
%TO.C,U4*%
X74179000Y-52403000D02*
X74179000Y-52663000D01*
X74179000Y-57593000D02*
X72504000Y-57593000D01*
X74179000Y-57853000D02*
X74179000Y-57593000D01*
X76904000Y-52403000D02*
X74179000Y-52403000D01*
X76904000Y-52403000D02*
X79629000Y-52403000D01*
X76904000Y-57853000D02*
X74179000Y-57853000D01*
X76904000Y-57853000D02*
X79629000Y-57853000D01*
X79629000Y-52403000D02*
X79629000Y-52663000D01*
X79629000Y-57853000D02*
X79629000Y-57593000D01*
%TO.C,L1*%
X74327400Y-78585400D02*
X74727400Y-78585400D01*
X74327400Y-78585400D02*
X74327400Y-73065400D01*
X79847400Y-78585400D02*
X79447400Y-78585400D01*
X79847400Y-78585400D02*
X79847400Y-73065400D01*
X74327400Y-73065400D02*
X74727400Y-73065400D01*
X79847400Y-73065400D02*
X79447400Y-73065400D01*
%TO.C,U2*%
X73817400Y-75725400D02*
X73817400Y-74925400D01*
X73817400Y-75725400D02*
X73817400Y-76525400D01*
X70697400Y-75725400D02*
X70697400Y-73925400D01*
X70697400Y-75725400D02*
X70697400Y-76525400D01*
%TD*%
M02*
