%TF.GenerationSoftware,KiCad,Pcbnew,7.0.7*%
%TF.CreationDate,2023-11-02T23:48:11+00:00*%
%TF.ProjectId,mod-badge-inercia,6d6f642d-6261-4646-9765-2d696e657263,rev?*%
%TF.SameCoordinates,Original*%
%TF.FileFunction,Profile,NP*%
%FSLAX46Y46*%
G04 Gerber Fmt 4.6, Leading zero omitted, Abs format (unit mm)*
G04 Created by KiCad (PCBNEW 7.0.7) date 2023-11-02 23:48:11*
%MOMM*%
%LPD*%
G01*
G04 APERTURE LIST*
%TA.AperFunction,Profile*%
%ADD10C,0.100000*%
%TD*%
%TA.AperFunction,Profile*%
%ADD11C,0.150000*%
%TD*%
G04 APERTURE END LIST*
D10*
X28000000Y-64000000D02*
X40000000Y-64000000D01*
X90000000Y-94000000D02*
X90000000Y0D01*
X5000000Y-94000000D02*
X0Y-90000000D01*
X18500000Y-92000000D02*
X17000000Y-94000000D01*
X0Y-90000000D02*
X0Y-65608200D01*
X20000000Y-92000000D02*
X20000000Y-94000000D01*
X90000000Y0D02*
X0Y0D01*
X0Y-65608200D02*
X5080000Y-61163200D01*
D11*
X81200000Y-3100000D02*
X88200000Y-3100000D01*
X88200000Y-10900000D01*
X81200000Y-10900000D01*
X81200000Y-3100000D01*
D10*
X28000000Y-64000000D02*
X28000000Y-91000000D01*
X20000000Y-94000000D02*
X68000000Y-94000000D01*
X90000000Y-94000000D02*
X79000000Y-94000000D01*
X68000000Y-93000000D02*
X79000000Y-93000000D01*
X79000000Y-94000000D02*
X79000000Y-93000000D01*
X0Y-50342800D02*
X5080000Y-54787800D01*
X40000000Y-91000000D02*
X40000000Y-64000000D01*
X68000000Y-93000000D02*
X68000000Y-94000000D01*
X17000000Y-94000000D02*
X5000000Y-94000000D01*
X0Y-50342800D02*
X0Y0D01*
X28000000Y-91000000D02*
X40000000Y-91000000D01*
X20000000Y-92000000D02*
X18500000Y-92000000D01*
X5080000Y-61163200D02*
X5080000Y-54787800D01*
M02*
