%TF.GenerationSoftware,KiCad,Pcbnew,7.0.7*%
%TF.CreationDate,2023-11-02T23:48:11+00:00*%
%TF.ProjectId,mod-badge-inercia,6d6f642d-6261-4646-9765-2d696e657263,rev?*%
%TF.SameCoordinates,Original*%
%TF.FileFunction,Paste,Bot*%
%TF.FilePolarity,Positive*%
%FSLAX46Y46*%
G04 Gerber Fmt 4.6, Leading zero omitted, Abs format (unit mm)*
G04 Created by KiCad (PCBNEW 7.0.7) date 2023-11-02 23:48:11*
%MOMM*%
%LPD*%
G01*
G04 APERTURE LIST*
G04 Aperture macros list*
%AMRoundRect*
0 Rectangle with rounded corners*
0 $1 Rounding radius*
0 $2 $3 $4 $5 $6 $7 $8 $9 X,Y pos of 4 corners*
0 Add a 4 corners polygon primitive as box body*
4,1,4,$2,$3,$4,$5,$6,$7,$8,$9,$2,$3,0*
0 Add four circle primitives for the rounded corners*
1,1,$1+$1,$2,$3*
1,1,$1+$1,$4,$5*
1,1,$1+$1,$6,$7*
1,1,$1+$1,$8,$9*
0 Add four rect primitives between the rounded corners*
20,1,$1+$1,$2,$3,$4,$5,0*
20,1,$1+$1,$4,$5,$6,$7,0*
20,1,$1+$1,$6,$7,$8,$9,0*
20,1,$1+$1,$8,$9,$2,$3,0*%
G04 Aperture macros list end*
%ADD10C,0.010000*%
%ADD11RoundRect,0.200000X-0.275000X0.200000X-0.275000X-0.200000X0.275000X-0.200000X0.275000X0.200000X0*%
%ADD12RoundRect,0.225000X0.225000X0.250000X-0.225000X0.250000X-0.225000X-0.250000X0.225000X-0.250000X0*%
%ADD13RoundRect,0.200000X0.275000X-0.200000X0.275000X0.200000X-0.275000X0.200000X-0.275000X-0.200000X0*%
%ADD14RoundRect,0.200000X0.200000X0.275000X-0.200000X0.275000X-0.200000X-0.275000X0.200000X-0.275000X0*%
%ADD15RoundRect,0.225000X0.225000X0.375000X-0.225000X0.375000X-0.225000X-0.375000X0.225000X-0.375000X0*%
%ADD16RoundRect,0.225000X-0.250000X0.225000X-0.250000X-0.225000X0.250000X-0.225000X0.250000X0.225000X0*%
%ADD17RoundRect,0.225000X0.250000X-0.225000X0.250000X0.225000X-0.250000X0.225000X-0.250000X-0.225000X0*%
%ADD18R,0.700000X1.600000*%
%ADD19R,1.200000X2.200000*%
%ADD20R,1.600000X1.400000*%
%ADD21R,1.200000X1.400000*%
%ADD22RoundRect,0.200000X-0.200000X-0.275000X0.200000X-0.275000X0.200000X0.275000X-0.200000X0.275000X0*%
%ADD23RoundRect,0.225000X-0.225000X-0.250000X0.225000X-0.250000X0.225000X0.250000X-0.225000X0.250000X0*%
%ADD24RoundRect,0.225000X-0.225000X-0.375000X0.225000X-0.375000X0.225000X0.375000X-0.225000X0.375000X0*%
%ADD25RoundRect,0.150000X0.587500X0.150000X-0.587500X0.150000X-0.587500X-0.150000X0.587500X-0.150000X0*%
%ADD26RoundRect,0.150000X-0.625000X0.150000X-0.625000X-0.150000X0.625000X-0.150000X0.625000X0.150000X0*%
%ADD27RoundRect,0.250000X-0.650000X0.350000X-0.650000X-0.350000X0.650000X-0.350000X0.650000X0.350000X0*%
%ADD28R,0.400000X0.500000*%
%ADD29R,0.300000X0.500000*%
%ADD30R,1.050000X0.650000*%
%ADD31RoundRect,0.135000X0.135000X0.185000X-0.135000X0.185000X-0.135000X-0.185000X0.135000X-0.185000X0*%
%ADD32R,0.500000X0.400000*%
%ADD33R,0.500000X0.300000*%
%ADD34RoundRect,0.135000X-0.185000X0.135000X-0.185000X-0.135000X0.185000X-0.135000X0.185000X0.135000X0*%
%ADD35R,0.700000X1.200000*%
%ADD36R,0.650000X1.050000*%
%ADD37RoundRect,0.249999X0.395001X-0.395001X0.395001X0.395001X-0.395001X0.395001X-0.395001X-0.395001X0*%
%ADD38RoundRect,0.050000X0.050000X-0.387500X0.050000X0.387500X-0.050000X0.387500X-0.050000X-0.387500X0*%
%ADD39RoundRect,0.050000X0.387500X-0.050000X0.387500X0.050000X-0.387500X0.050000X-0.387500X-0.050000X0*%
%ADD40R,1.800000X3.400000*%
%ADD41R,1.500000X2.000000*%
%ADD42R,3.800000X2.000000*%
%ADD43R,3.150000X1.000000*%
%ADD44RoundRect,0.008100X0.126900X-0.411900X0.126900X0.411900X-0.126900X0.411900X-0.126900X-0.411900X0*%
%ADD45RoundRect,0.008100X-0.411900X-0.126900X0.411900X-0.126900X0.411900X0.126900X-0.411900X0.126900X0*%
%ADD46RoundRect,0.150000X0.150000X0.500000X-0.150000X0.500000X-0.150000X-0.500000X0.150000X-0.500000X0*%
%ADD47RoundRect,0.075000X0.075000X0.575000X-0.075000X0.575000X-0.075000X-0.575000X0.075000X-0.575000X0*%
%ADD48RoundRect,0.150000X-0.650000X-0.150000X0.650000X-0.150000X0.650000X0.150000X-0.650000X0.150000X0*%
%ADD49R,4.200000X1.400000*%
%ADD50RoundRect,0.150000X-0.150000X0.512500X-0.150000X-0.512500X0.150000X-0.512500X0.150000X0.512500X0*%
G04 APERTURE END LIST*
%TO.C,U5*%
D10*
X80946200Y-30152200D02*
X80246200Y-30152200D01*
X80246200Y-29452200D01*
X80946200Y-29452200D01*
X80946200Y-30152200D01*
G36*
X80946200Y-30152200D02*
G01*
X80246200Y-30152200D01*
X80246200Y-29452200D01*
X80946200Y-29452200D01*
X80946200Y-30152200D01*
G37*
%TD*%
D11*
%TO.C,R18*%
X76368000Y-65207400D03*
X76368000Y-66857400D03*
%TD*%
D12*
%TO.C,C14*%
X80496000Y-59110200D03*
X78946000Y-59110200D03*
%TD*%
D13*
%TO.C,R24*%
X74782200Y-66873800D03*
X74782200Y-65223800D03*
%TD*%
D14*
%TO.C,R20*%
X84953038Y-80658800D03*
X83303038Y-80658800D03*
%TD*%
D15*
%TO.C,D15*%
X86772400Y-67215000D03*
X83472400Y-67215000D03*
%TD*%
D16*
%TO.C,C17*%
X83104400Y-63591400D03*
X83104400Y-65141400D03*
%TD*%
D13*
%TO.C,R21*%
X77537000Y-34438000D03*
X77537000Y-32788000D03*
%TD*%
D17*
%TO.C,C6*%
X81882600Y-40098400D03*
X81882600Y-38548400D03*
%TD*%
D14*
%TO.C,R13*%
X69924600Y-53632800D03*
X68274600Y-53632800D03*
%TD*%
D18*
%TO.C,J2*%
X7868400Y-76998890D03*
X8968400Y-76998890D03*
X10068400Y-76998890D03*
X11168400Y-76998890D03*
X12268400Y-76998890D03*
X13368400Y-76998890D03*
X14468400Y-76998890D03*
X15568400Y-76998890D03*
X16668400Y-76998890D03*
D19*
X2368400Y-87098890D03*
D20*
X3268400Y-77498890D03*
D21*
X17868400Y-77498890D03*
D19*
X17868400Y-87098890D03*
%TD*%
D16*
%TO.C,C8*%
X86735600Y-47443800D03*
X86735600Y-48993800D03*
%TD*%
D14*
%TO.C,R14*%
X69924600Y-52002600D03*
X68274600Y-52002600D03*
%TD*%
D12*
%TO.C,C15*%
X71490600Y-50058000D03*
X69940600Y-50058000D03*
%TD*%
D22*
%TO.C,R1*%
X71343400Y-72676400D03*
X72993400Y-72676400D03*
%TD*%
D12*
%TO.C,C9*%
X78337000Y-51223800D03*
X76787000Y-51223800D03*
%TD*%
D22*
%TO.C,R33*%
X85131800Y-65114000D03*
X86781800Y-65114000D03*
%TD*%
D17*
%TO.C,C7*%
X83561600Y-40098400D03*
X83561600Y-38548400D03*
%TD*%
D23*
%TO.C,C13*%
X86178800Y-40048800D03*
X87728800Y-40048800D03*
%TD*%
D13*
%TO.C,R22*%
X83053400Y-34463400D03*
X83053400Y-32813400D03*
%TD*%
D23*
%TO.C,C5*%
X86165000Y-41722600D03*
X87715000Y-41722600D03*
%TD*%
D14*
%TO.C,R2*%
X72993400Y-71080800D03*
X71343400Y-71080800D03*
%TD*%
D13*
%TO.C,R3*%
X73498400Y-80269200D03*
X73498400Y-78619200D03*
%TD*%
D24*
%TO.C,D2*%
X81655000Y-78682600D03*
X84955000Y-78682600D03*
%TD*%
D25*
%TO.C,Q2*%
X77359900Y-80337000D03*
X77359900Y-82237000D03*
X75484900Y-81287000D03*
%TD*%
D15*
%TO.C,D1*%
X78091400Y-71496400D03*
X74791400Y-71496400D03*
%TD*%
D26*
%TO.C,J3*%
X84950800Y-27617800D03*
X84950800Y-28617800D03*
X84950800Y-29617800D03*
D27*
X88825800Y-26317800D03*
X88825800Y-30917800D03*
%TD*%
D28*
%TO.C,RN1*%
X4970000Y-74268600D03*
D29*
X5470000Y-74268600D03*
X5970000Y-74268600D03*
D28*
X6470000Y-74268600D03*
X6470000Y-75268600D03*
D29*
X5970000Y-75268600D03*
X5470000Y-75268600D03*
D28*
X4970000Y-75268600D03*
%TD*%
D22*
%TO.C,R7*%
X87424800Y-82963400D03*
X89074800Y-82963400D03*
%TD*%
D30*
%TO.C,SW4*%
X21490200Y-90137503D03*
X25640200Y-90137503D03*
X21490200Y-87987503D03*
X25640200Y-87987503D03*
%TD*%
D13*
%TO.C,R19*%
X79128000Y-34438000D03*
X79128000Y-32788000D03*
%TD*%
D31*
%TO.C,R11*%
X85671600Y-44932600D03*
X84651600Y-44932600D03*
%TD*%
%TO.C,R12*%
X85671600Y-43698200D03*
X84651600Y-43698200D03*
%TD*%
D32*
%TO.C,RN2*%
X18625000Y-72925000D03*
D33*
X18625000Y-73425000D03*
X18625000Y-73925000D03*
D32*
X18625000Y-74425000D03*
X17625000Y-74425000D03*
D33*
X17625000Y-73925000D03*
X17625000Y-73425000D03*
D32*
X17625000Y-72925000D03*
%TD*%
D16*
%TO.C,C3*%
X85155600Y-47430000D03*
X85155600Y-48980000D03*
%TD*%
D34*
%TO.C,R10*%
X73410600Y-45652000D03*
X73410600Y-46672000D03*
%TD*%
D22*
%TO.C,R5*%
X79776200Y-81407000D03*
X81426200Y-81407000D03*
%TD*%
D14*
%TO.C,R6*%
X81513800Y-83485200D03*
X79863800Y-83485200D03*
%TD*%
D13*
%TO.C,R23*%
X81483200Y-34463400D03*
X81483200Y-32813400D03*
%TD*%
D17*
%TO.C,C18*%
X77559400Y-31180800D03*
X77559400Y-29630800D03*
%TD*%
D35*
%TO.C,SW7*%
X70728600Y-90615600D03*
X73228600Y-90615600D03*
X75728600Y-90615600D03*
X70728600Y-84115600D03*
X73228600Y-84115600D03*
X75728600Y-84115600D03*
%TD*%
D30*
%TO.C,SW5*%
X21590200Y-73231703D03*
X25740200Y-73231703D03*
X21590200Y-71081703D03*
X25740200Y-71081703D03*
%TD*%
D36*
%TO.C,SW2*%
X87007800Y-63062303D03*
X87007800Y-58912303D03*
X84857800Y-63062303D03*
X84857800Y-58912303D03*
%TD*%
D30*
%TO.C,SW6*%
X21590200Y-81684603D03*
X25740200Y-81684603D03*
X21590200Y-79534603D03*
X25740200Y-79534603D03*
%TD*%
D12*
%TO.C,C22*%
X71898238Y-78707600D03*
X70348238Y-78707600D03*
%TD*%
D21*
%TO.C,Y1*%
X71536600Y-45906000D03*
X71536600Y-48106000D03*
X69836600Y-48106000D03*
X69836600Y-45906000D03*
%TD*%
D37*
%TO.C,U1*%
X78533400Y-46282900D03*
X80133400Y-46282900D03*
X78533400Y-44682900D03*
X80133400Y-44682900D03*
D38*
X81933400Y-48920400D03*
X81533400Y-48920400D03*
X81133400Y-48920400D03*
X80733400Y-48920400D03*
X80333400Y-48920400D03*
X79933400Y-48920400D03*
X79533400Y-48920400D03*
X79133400Y-48920400D03*
X78733400Y-48920400D03*
X78333400Y-48920400D03*
X77933400Y-48920400D03*
X77533400Y-48920400D03*
X77133400Y-48920400D03*
X76733400Y-48920400D03*
D39*
X75895900Y-48082900D03*
X75895900Y-47682900D03*
X75895900Y-47282900D03*
X75895900Y-46882900D03*
X75895900Y-46482900D03*
X75895900Y-46082900D03*
X75895900Y-45682900D03*
X75895900Y-45282900D03*
X75895900Y-44882900D03*
X75895900Y-44482900D03*
X75895900Y-44082900D03*
X75895900Y-43682900D03*
X75895900Y-43282900D03*
X75895900Y-42882900D03*
D38*
X76733400Y-42045400D03*
X77133400Y-42045400D03*
X77533400Y-42045400D03*
X77933400Y-42045400D03*
X78333400Y-42045400D03*
X78733400Y-42045400D03*
X79133400Y-42045400D03*
X79533400Y-42045400D03*
X79933400Y-42045400D03*
X80333400Y-42045400D03*
X80733400Y-42045400D03*
X81133400Y-42045400D03*
X81533400Y-42045400D03*
X81933400Y-42045400D03*
D39*
X82770900Y-42882900D03*
X82770900Y-43282900D03*
X82770900Y-43682900D03*
X82770900Y-44082900D03*
X82770900Y-44482900D03*
X82770900Y-44882900D03*
X82770900Y-45282900D03*
X82770900Y-45682900D03*
X82770900Y-46082900D03*
X82770900Y-46482900D03*
X82770900Y-46882900D03*
X82770900Y-47282900D03*
X82770900Y-47682900D03*
X82770900Y-48082900D03*
%TD*%
D17*
%TO.C,C4*%
X73546200Y-41800200D03*
X73546200Y-40250200D03*
%TD*%
D23*
%TO.C,C16*%
X69936600Y-43950000D03*
X71486600Y-43950000D03*
%TD*%
D12*
%TO.C,C21*%
X82590400Y-26064800D03*
X81040400Y-26064800D03*
%TD*%
D17*
%TO.C,C19*%
X75936400Y-31180800D03*
X75936400Y-29630800D03*
%TD*%
%TO.C,C12*%
X78324000Y-39805200D03*
X78324000Y-38255200D03*
%TD*%
D40*
%TO.C,J5*%
X68021400Y-30844200D03*
%TD*%
D14*
%TO.C,R9*%
X74957400Y-58988000D03*
X73307400Y-58988000D03*
%TD*%
%TO.C,R8*%
X74957400Y-60618200D03*
X73307400Y-60618200D03*
%TD*%
D23*
%TO.C,C10*%
X83207000Y-50632800D03*
X84757000Y-50632800D03*
%TD*%
D36*
%TO.C,SW3*%
X86973400Y-56606897D03*
X86973400Y-52456897D03*
X84823400Y-56606897D03*
X84823400Y-52456897D03*
%TD*%
D41*
%TO.C,U3*%
X82303800Y-69740600D03*
X84603800Y-69740600D03*
D42*
X84603800Y-76040600D03*
D41*
X86903800Y-69740600D03*
%TD*%
D43*
%TO.C,J7*%
X10250000Y-5325000D03*
X5200000Y-5325000D03*
X10250000Y-7865000D03*
X5200000Y-7865000D03*
X10250000Y-10405000D03*
X5200000Y-10405000D03*
X10250000Y-12945000D03*
X5200000Y-12945000D03*
X10250000Y-15485000D03*
X5200000Y-15485000D03*
X10250000Y-18025000D03*
X5200000Y-18025000D03*
%TD*%
D44*
%TO.C,U5*%
X81346200Y-31237200D03*
X80846200Y-31237200D03*
X80346200Y-31237200D03*
X79846200Y-31237200D03*
D45*
X79161200Y-30552200D03*
X79161200Y-30052200D03*
X79161200Y-29552200D03*
X79161200Y-29052200D03*
D44*
X79846200Y-28367200D03*
X80346200Y-28367200D03*
X80846200Y-28367200D03*
X81346200Y-28367200D03*
D45*
X82031200Y-29052200D03*
X82031200Y-29552200D03*
X82031200Y-30052200D03*
X82031200Y-30552200D03*
%TD*%
D46*
%TO.C,J1*%
X87720400Y-85944400D03*
X86920400Y-85944400D03*
D47*
X85770400Y-85944400D03*
X84770400Y-85944400D03*
X84270400Y-85944400D03*
X83270400Y-85944400D03*
D46*
X82120400Y-85944400D03*
X81320400Y-85944400D03*
X81320400Y-85944400D03*
X82120400Y-85944400D03*
D47*
X82770400Y-85944400D03*
X83770400Y-85944400D03*
X85270400Y-85944400D03*
X86270400Y-85944400D03*
D46*
X86920400Y-85944400D03*
X87720400Y-85944400D03*
%TD*%
D23*
%TO.C,C20*%
X77404200Y-26090200D03*
X78954200Y-26090200D03*
%TD*%
D24*
%TO.C,D3*%
X74740400Y-68920400D03*
X78040400Y-68920400D03*
%TD*%
D40*
%TO.C,J4*%
X70880000Y-30844200D03*
%TD*%
D16*
%TO.C,C2*%
X86598400Y-78248600D03*
X86598400Y-79798600D03*
%TD*%
D17*
%TO.C,C1*%
X78034200Y-66819200D03*
X78034200Y-65269200D03*
%TD*%
%TO.C,C11*%
X71717400Y-41811800D03*
X71717400Y-40261800D03*
%TD*%
D48*
%TO.C,U4*%
X73304000Y-57033000D03*
X73304000Y-55763000D03*
X73304000Y-54493000D03*
X73304000Y-53223000D03*
X80504000Y-53223000D03*
X80504000Y-54493000D03*
X80504000Y-55763000D03*
X80504000Y-57033000D03*
%TD*%
D49*
%TO.C,L1*%
X77087400Y-77675400D03*
X77087400Y-73975400D03*
%TD*%
D50*
%TO.C,U2*%
X71307400Y-74587900D03*
X72257400Y-74587900D03*
X73207400Y-74587900D03*
X73207400Y-76862900D03*
X72257400Y-76862900D03*
X71307400Y-76862900D03*
%TD*%
M02*
