M48
; DRILL file {KiCad 7.0.7} date Thu Nov  2 23:48:09 2023
; FORMAT={-:-/ absolute / inch / decimal}
; #@! TF.CreationDate,2023-11-02T23:48:09+00:00
; #@! TF.GenerationSoftware,Kicad,Pcbnew,7.0.7
; #@! TF.FileFunction,Plated,1,4,PTH
FMAT,2
INCH
; #@! TA.AperFunction,Plated,PTH,ViaDrill
T1C0.0118
; #@! TA.AperFunction,Plated,PTH,ViaDrill
T2C0.0157
; #@! TA.AperFunction,Plated,PTH,ComponentDrill
T3C0.0236
; #@! TA.AperFunction,Plated,PTH,ComponentDrill
T4C0.0394
; #@! TA.AperFunction,Plated,PTH,ComponentDrill
T5C0.0472
%
G90
G05
T1
X0.1024Y-0.3071
X0.1024Y-0.4094
X0.1063Y-0.2087
X0.1142Y-0.6102
X0.1181Y-0.5118
X0.286Y-2.922
X0.4397Y-2.9533
X0.5118Y-0.3096
X0.5118Y-0.4096
X0.5118Y-0.5096
X0.5118Y-0.6096
X0.5157Y-0.2096
X0.5236Y-3.1102
X0.5276Y-2.8386
X0.5276Y-2.8937
X0.545Y-2.1858
X0.606Y-2.907
X0.6339Y-2.9567
X0.6417Y-2.8937
X0.6614Y-2.8701
X0.6929Y-2.8386
X0.7087Y-2.9843
X0.7668Y-2.9685
X0.7669Y-2.8976
X0.7669Y-2.8386
X0.9134Y-2.4213
X1.0827Y-2.4213
X1.1063Y-2.4055
X1.1299Y-2.3961
X1.1575Y-2.3787
X2.699Y-1.771
X2.699Y-1.834
X2.7Y-1.714
X2.704Y-1.939
X2.704Y-1.996
X2.731Y-1.685
X2.745Y-3.408
X2.748Y-1.808
X2.758Y-3.027
X2.76Y-2.916
X2.76Y-2.9425
X2.76Y-2.969
X2.764Y-2.74
X2.772Y-2.632
X2.779Y-2.861
X2.78Y-2.529
X2.782Y-1.686
X2.7874Y-1.9409
X2.7874Y-2.0945
X2.7953Y-2.0354
X2.803Y-3.171
X2.805Y-3.474
X2.817Y-1.896
X2.8228Y-2.2126
X2.8228Y-2.2402
X2.8228Y-2.2717
X2.8228Y-2.3031
X2.8235Y-1.6176
X2.839Y-1.686
X2.841Y-2.863
X2.844Y-2.387
X2.8465Y-2.3307
X2.855Y-3.406
X2.859Y-1.706
X2.861Y-1.954
X2.866Y-2.702
X2.871Y-2.583
X2.881Y-1.894
X2.884Y-2.454
X2.885Y-1.764
X2.8955Y-1.646
X2.899Y-1.543
X2.9Y-1.511
X2.907Y-1.94
X2.92Y-1.271
X2.922Y-2.855
X2.925Y-2.011
X2.925Y-3.472
X2.929Y-1.5
X2.929Y-1.54
X2.944Y-1.095
X2.944Y-2.53
X2.949Y-2.855
X2.953Y-2.39
X2.97Y-1.49
X2.971Y-2.962
X2.9715Y-0.9436
X2.974Y-2.025
X2.975Y-1.974
X2.977Y-1.334
X2.977Y-2.854
X2.98Y-3.411
X2.987Y-1.93
X2.996Y-2.353
X2.998Y-2.444
X3.002Y-1.492
X3.002Y-2.962
X3.009Y-2.251
X3.0217Y-1.472
X3.022Y-2.693
X3.025Y-1.72
X3.029Y-1.862
X3.03Y-1.757
X3.03Y-1.798
X3.033Y-2.499
X3.033Y-2.962
X3.043Y-1.4887
X3.054Y-2.32
X3.061Y-1.082
X3.064Y-2.962
X3.065Y-2.219
X3.067Y-2.126
X3.073Y-2.765
X3.074Y-2.28
X3.0836Y-1.5061
X3.084Y-1.5675
X3.085Y-1.8893
X3.086Y-1.791
X3.086Y-1.832
X3.09Y-1.749
X3.095Y-2.962
X3.103Y-2.442
X3.11Y-1.9558
X3.115Y-2.143
X3.115Y-2.19
X3.119Y-1.447
X3.121Y-2.227
X3.1234Y-1.7907
X3.124Y-1.83
X3.1285Y-1.9722
X3.129Y-1.749
X3.139Y-2.757
X3.141Y-3.05
X3.144Y-2.882
X3.154Y-1.453
X3.154Y-2.617
X3.161Y-1.322
X3.161Y-2.508
X3.165Y-1.749
X3.171Y-2.328
X3.1731Y-1.1733
X3.1811Y-2.563
X3.185Y-2.064
X3.195Y-1.451
X3.2Y-2.438
X3.2008Y-1.622
X3.205Y-1.072
X3.206Y-1.743
X3.2089Y-1.8492
X3.209Y-2.838
X3.209Y-2.985
X3.212Y-3.044
X3.215Y-1.82
X3.216Y-1.793
X3.2237Y-1.5787
X3.2292Y-1.8631
X3.2293Y-1.4503
X3.2362Y-1.6181
X3.243Y-1.246
X3.2518Y-1.4278
X3.259Y-1.918
X3.261Y-2.28
X3.269Y-1.192
X3.27Y-3.572
X3.271Y-1.222
X3.2733Y-1.9934
X3.274Y-2.06
X3.275Y-1.164
X3.283Y-3.098
X3.284Y-2.13
X3.284Y-2.209
X3.2898Y-1.5787
X3.29Y-3.301
X3.291Y-1.518
X3.291Y-3.246
X3.292Y-1.116
X3.301Y-1.884
X3.307Y-1.959
X3.337Y-0.94
X3.342Y-1.222
X3.347Y-1.678
X3.3526Y-1.8673
X3.353Y-1.514
X3.37Y-2.026
X3.371Y-1.358
X3.371Y-3.574
X3.374Y-2.4016
X3.389Y-1.454
X3.392Y-1.5767
X3.392Y-3.279
X3.3923Y-1.6426
X3.411Y-1.975
X3.413Y-1.699
X3.4148Y-1.8679
X3.417Y-1.504
X3.417Y-3.321
X3.42Y-1.791
X3.4233Y-1.1267
X3.426Y-2.143
X3.432Y-2.403
X3.446Y-2.993
X3.454Y-2.846
X3.473Y-1.268
X3.475Y-1.103
X3.475Y-1.172
X3.475Y-1.352
X3.491Y-3.328
X3.507Y-1.44
X3.507Y-1.516
X3.509Y-3.219
T2
X2.6502Y-2.2592
X2.756Y-3.236
T4
X2.7556Y-0.4111
X2.7556Y-0.8442
T5
X0.2146Y-2.0831
X0.2146Y-2.4768
X0.6083Y-2.1224
X0.6083Y-2.2799
X0.6083Y-2.4374
T3
G00X3.1575Y-3.4305
M15
G01X3.1575Y-3.3872
M16
G05
G00X3.1575Y-3.5852
M15
G01X3.1575Y-3.5616
M16
G05
G00X3.4977Y-3.4305
M15
G01X3.4977Y-3.3872
M16
G05
G00X3.4977Y-3.5852
M15
G01X3.4977Y-3.5616
M16
G05
T0
M30
